%TF.GenerationSoftware,KiCad,Pcbnew,8.0.2*%
%TF.CreationDate,2025-12-10T20:47:36-08:00*%
%TF.ProjectId,USB-A-Daughterboard,5553422d-412d-4446-9175-676874657262,rev?*%
%TF.SameCoordinates,Original*%
%TF.FileFunction,Legend,Top*%
%TF.FilePolarity,Positive*%
%FSLAX46Y46*%
G04 Gerber Fmt 4.6, Leading zero omitted, Abs format (unit mm)*
G04 Created by KiCad (PCBNEW 8.0.2) date 2025-12-10 20:47:36*
%MOMM*%
%LPD*%
G01*
G04 APERTURE LIST*
%ADD10C,0.150000*%
G04 APERTURE END LIST*
D10*
X89363922Y-26189819D02*
X89935350Y-26189819D01*
X89649636Y-27189819D02*
X89649636Y-26189819D01*
X90459160Y-26189819D02*
X90649636Y-26189819D01*
X90649636Y-26189819D02*
X90744874Y-26237438D01*
X90744874Y-26237438D02*
X90840112Y-26332676D01*
X90840112Y-26332676D02*
X90887731Y-26523152D01*
X90887731Y-26523152D02*
X90887731Y-26856485D01*
X90887731Y-26856485D02*
X90840112Y-27046961D01*
X90840112Y-27046961D02*
X90744874Y-27142200D01*
X90744874Y-27142200D02*
X90649636Y-27189819D01*
X90649636Y-27189819D02*
X90459160Y-27189819D01*
X90459160Y-27189819D02*
X90363922Y-27142200D01*
X90363922Y-27142200D02*
X90268684Y-27046961D01*
X90268684Y-27046961D02*
X90221065Y-26856485D01*
X90221065Y-26856485D02*
X90221065Y-26523152D01*
X90221065Y-26523152D02*
X90268684Y-26332676D01*
X90268684Y-26332676D02*
X90363922Y-26237438D01*
X90363922Y-26237438D02*
X90459160Y-26189819D01*
X92078208Y-27189819D02*
X92078208Y-26189819D01*
X92649636Y-27189819D02*
X92221065Y-26618390D01*
X92649636Y-26189819D02*
X92078208Y-26761247D01*
X93411541Y-26666009D02*
X93554398Y-26713628D01*
X93554398Y-26713628D02*
X93602017Y-26761247D01*
X93602017Y-26761247D02*
X93649636Y-26856485D01*
X93649636Y-26856485D02*
X93649636Y-26999342D01*
X93649636Y-26999342D02*
X93602017Y-27094580D01*
X93602017Y-27094580D02*
X93554398Y-27142200D01*
X93554398Y-27142200D02*
X93459160Y-27189819D01*
X93459160Y-27189819D02*
X93078208Y-27189819D01*
X93078208Y-27189819D02*
X93078208Y-26189819D01*
X93078208Y-26189819D02*
X93411541Y-26189819D01*
X93411541Y-26189819D02*
X93506779Y-26237438D01*
X93506779Y-26237438D02*
X93554398Y-26285057D01*
X93554398Y-26285057D02*
X93602017Y-26380295D01*
X93602017Y-26380295D02*
X93602017Y-26475533D01*
X93602017Y-26475533D02*
X93554398Y-26570771D01*
X93554398Y-26570771D02*
X93506779Y-26618390D01*
X93506779Y-26618390D02*
X93411541Y-26666009D01*
X93411541Y-26666009D02*
X93078208Y-26666009D01*
X59543922Y-23359819D02*
X60115350Y-23359819D01*
X59829636Y-24359819D02*
X59829636Y-23359819D01*
X60448684Y-24359819D02*
X60448684Y-23359819D01*
X60448684Y-23836009D02*
X61020112Y-23836009D01*
X61020112Y-24359819D02*
X61020112Y-23359819D01*
X61496303Y-24359819D02*
X61496303Y-23359819D01*
X61924874Y-24312200D02*
X62067731Y-24359819D01*
X62067731Y-24359819D02*
X62305826Y-24359819D01*
X62305826Y-24359819D02*
X62401064Y-24312200D01*
X62401064Y-24312200D02*
X62448683Y-24264580D01*
X62448683Y-24264580D02*
X62496302Y-24169342D01*
X62496302Y-24169342D02*
X62496302Y-24074104D01*
X62496302Y-24074104D02*
X62448683Y-23978866D01*
X62448683Y-23978866D02*
X62401064Y-23931247D01*
X62401064Y-23931247D02*
X62305826Y-23883628D01*
X62305826Y-23883628D02*
X62115350Y-23836009D01*
X62115350Y-23836009D02*
X62020112Y-23788390D01*
X62020112Y-23788390D02*
X61972493Y-23740771D01*
X61972493Y-23740771D02*
X61924874Y-23645533D01*
X61924874Y-23645533D02*
X61924874Y-23550295D01*
X61924874Y-23550295D02*
X61972493Y-23455057D01*
X61972493Y-23455057D02*
X62020112Y-23407438D01*
X62020112Y-23407438D02*
X62115350Y-23359819D01*
X62115350Y-23359819D02*
X62353445Y-23359819D01*
X62353445Y-23359819D02*
X62496302Y-23407438D01*
X63639160Y-24312200D02*
X63782017Y-24359819D01*
X63782017Y-24359819D02*
X64020112Y-24359819D01*
X64020112Y-24359819D02*
X64115350Y-24312200D01*
X64115350Y-24312200D02*
X64162969Y-24264580D01*
X64162969Y-24264580D02*
X64210588Y-24169342D01*
X64210588Y-24169342D02*
X64210588Y-24074104D01*
X64210588Y-24074104D02*
X64162969Y-23978866D01*
X64162969Y-23978866D02*
X64115350Y-23931247D01*
X64115350Y-23931247D02*
X64020112Y-23883628D01*
X64020112Y-23883628D02*
X63829636Y-23836009D01*
X63829636Y-23836009D02*
X63734398Y-23788390D01*
X63734398Y-23788390D02*
X63686779Y-23740771D01*
X63686779Y-23740771D02*
X63639160Y-23645533D01*
X63639160Y-23645533D02*
X63639160Y-23550295D01*
X63639160Y-23550295D02*
X63686779Y-23455057D01*
X63686779Y-23455057D02*
X63734398Y-23407438D01*
X63734398Y-23407438D02*
X63829636Y-23359819D01*
X63829636Y-23359819D02*
X64067731Y-23359819D01*
X64067731Y-23359819D02*
X64210588Y-23407438D01*
X64639160Y-24359819D02*
X64639160Y-23359819D01*
X65115350Y-24359819D02*
X65115350Y-23359819D01*
X65115350Y-23359819D02*
X65353445Y-23359819D01*
X65353445Y-23359819D02*
X65496302Y-23407438D01*
X65496302Y-23407438D02*
X65591540Y-23502676D01*
X65591540Y-23502676D02*
X65639159Y-23597914D01*
X65639159Y-23597914D02*
X65686778Y-23788390D01*
X65686778Y-23788390D02*
X65686778Y-23931247D01*
X65686778Y-23931247D02*
X65639159Y-24121723D01*
X65639159Y-24121723D02*
X65591540Y-24216961D01*
X65591540Y-24216961D02*
X65496302Y-24312200D01*
X65496302Y-24312200D02*
X65353445Y-24359819D01*
X65353445Y-24359819D02*
X65115350Y-24359819D01*
X66115350Y-23836009D02*
X66448683Y-23836009D01*
X66591540Y-24359819D02*
X66115350Y-24359819D01*
X66115350Y-24359819D02*
X66115350Y-23359819D01*
X66115350Y-23359819D02*
X66591540Y-23359819D01*
X67782017Y-24359819D02*
X67782017Y-23359819D01*
X67782017Y-23359819D02*
X68353445Y-24359819D01*
X68353445Y-24359819D02*
X68353445Y-23359819D01*
X69020112Y-23359819D02*
X69210588Y-23359819D01*
X69210588Y-23359819D02*
X69305826Y-23407438D01*
X69305826Y-23407438D02*
X69401064Y-23502676D01*
X69401064Y-23502676D02*
X69448683Y-23693152D01*
X69448683Y-23693152D02*
X69448683Y-24026485D01*
X69448683Y-24026485D02*
X69401064Y-24216961D01*
X69401064Y-24216961D02*
X69305826Y-24312200D01*
X69305826Y-24312200D02*
X69210588Y-24359819D01*
X69210588Y-24359819D02*
X69020112Y-24359819D01*
X69020112Y-24359819D02*
X68924874Y-24312200D01*
X68924874Y-24312200D02*
X68829636Y-24216961D01*
X68829636Y-24216961D02*
X68782017Y-24026485D01*
X68782017Y-24026485D02*
X68782017Y-23693152D01*
X68782017Y-23693152D02*
X68829636Y-23502676D01*
X68829636Y-23502676D02*
X68924874Y-23407438D01*
X68924874Y-23407438D02*
X69020112Y-23359819D01*
X69734398Y-23359819D02*
X70305826Y-23359819D01*
X70020112Y-24359819D02*
X70020112Y-23359819D01*
X71401065Y-24359819D02*
X71401065Y-23359819D01*
X71401065Y-23359819D02*
X71639160Y-23359819D01*
X71639160Y-23359819D02*
X71782017Y-23407438D01*
X71782017Y-23407438D02*
X71877255Y-23502676D01*
X71877255Y-23502676D02*
X71924874Y-23597914D01*
X71924874Y-23597914D02*
X71972493Y-23788390D01*
X71972493Y-23788390D02*
X71972493Y-23931247D01*
X71972493Y-23931247D02*
X71924874Y-24121723D01*
X71924874Y-24121723D02*
X71877255Y-24216961D01*
X71877255Y-24216961D02*
X71782017Y-24312200D01*
X71782017Y-24312200D02*
X71639160Y-24359819D01*
X71639160Y-24359819D02*
X71401065Y-24359819D01*
X72591541Y-23359819D02*
X72782017Y-23359819D01*
X72782017Y-23359819D02*
X72877255Y-23407438D01*
X72877255Y-23407438D02*
X72972493Y-23502676D01*
X72972493Y-23502676D02*
X73020112Y-23693152D01*
X73020112Y-23693152D02*
X73020112Y-24026485D01*
X73020112Y-24026485D02*
X72972493Y-24216961D01*
X72972493Y-24216961D02*
X72877255Y-24312200D01*
X72877255Y-24312200D02*
X72782017Y-24359819D01*
X72782017Y-24359819D02*
X72591541Y-24359819D01*
X72591541Y-24359819D02*
X72496303Y-24312200D01*
X72496303Y-24312200D02*
X72401065Y-24216961D01*
X72401065Y-24216961D02*
X72353446Y-24026485D01*
X72353446Y-24026485D02*
X72353446Y-23693152D01*
X72353446Y-23693152D02*
X72401065Y-23502676D01*
X72401065Y-23502676D02*
X72496303Y-23407438D01*
X72496303Y-23407438D02*
X72591541Y-23359819D01*
X73353446Y-23359819D02*
X73591541Y-24359819D01*
X73591541Y-24359819D02*
X73782017Y-23645533D01*
X73782017Y-23645533D02*
X73972493Y-24359819D01*
X73972493Y-24359819D02*
X74210589Y-23359819D01*
X74591541Y-24359819D02*
X74591541Y-23359819D01*
X74591541Y-23359819D02*
X75162969Y-24359819D01*
X75162969Y-24359819D02*
X75162969Y-23359819D01*
M02*
