%TF.GenerationSoftware,KiCad,Pcbnew,8.0.2*%
%TF.CreationDate,2025-12-10T20:47:36-08:00*%
%TF.ProjectId,USB-A-Daughterboard,5553422d-412d-4446-9175-676874657262,rev?*%
%TF.SameCoordinates,Original*%
%TF.FileFunction,Profile,NP*%
%FSLAX46Y46*%
G04 Gerber Fmt 4.6, Leading zero omitted, Abs format (unit mm)*
G04 Created by KiCad (PCBNEW 8.0.2) date 2025-12-10 20:47:36*
%MOMM*%
%LPD*%
G01*
G04 APERTURE LIST*
%TA.AperFunction,Profile*%
%ADD10C,0.400000*%
%TD*%
G04 APERTURE END LIST*
D10*
X92540000Y0D02*
G75*
G02*
X96139963Y-3616358I0J-3600000D01*
G01*
X61040000Y-14600000D02*
G75*
G02*
X59039964Y-12615811I100J2000200D01*
G01*
X42611325Y0D02*
X55440000Y0D01*
X0Y-3599997D02*
G75*
G02*
X3600000Y3I3600001J-1D01*
G01*
X3600000Y0D02*
X14740000Y0D01*
X3600000Y3D02*
X3600000Y0D01*
X55440000Y0D02*
G75*
G02*
X59039963Y-3616358I0J-3600000D01*
G01*
X41600000Y-1000137D02*
G75*
G02*
X42611325Y38I1000200J37D01*
G01*
X81411325Y0D02*
X92540000Y0D01*
X96140000Y-27300037D02*
G75*
G02*
X94140000Y-29300000I-2000000J37D01*
G01*
X0Y-3599997D02*
X0Y-27300000D01*
X41600000Y-11600057D02*
X41600000Y-1000137D01*
X59040000Y-3616358D02*
X59040000Y-12615811D01*
X14740000Y0D02*
G75*
G02*
X15739964Y-1008522I0J-1000000D01*
G01*
X96140000Y-3616358D02*
X96140000Y-27300037D01*
X80400000Y-11600037D02*
X80400000Y-1000137D01*
X2000000Y-29300000D02*
X94140000Y-29300000D01*
X61040000Y-14600000D02*
X77400000Y-14600000D01*
X41600000Y-11600057D02*
G75*
G02*
X38600060Y-14600000I-2999940J-3D01*
G01*
X80400000Y-1000137D02*
G75*
G02*
X81411325Y38I1000200J37D01*
G01*
X15740000Y-1008522D02*
X15740000Y-11600000D01*
X18740000Y-14600000D02*
G75*
G02*
X15740000Y-11600000I30J3000030D01*
G01*
X18740000Y-14600000D02*
X38600060Y-14600000D01*
X80400000Y-11600037D02*
G75*
G02*
X77400000Y-14600000I-3000000J37D01*
G01*
X2000000Y-29300000D02*
G75*
G02*
X0Y-27300000I5J2000005D01*
G01*
M02*
