%TF.GenerationSoftware,KiCad,Pcbnew,8.0.2*%
%TF.CreationDate,2025-12-10T20:47:35-08:00*%
%TF.ProjectId,USB-A-Daughterboard,5553422d-412d-4446-9175-676874657262,rev?*%
%TF.SameCoordinates,Original*%
%TF.FileFunction,Paste,Bot*%
%TF.FilePolarity,Positive*%
%FSLAX46Y46*%
G04 Gerber Fmt 4.6, Leading zero omitted, Abs format (unit mm)*
G04 Created by KiCad (PCBNEW 8.0.2) date 2025-12-10 20:47:35*
%MOMM*%
%LPD*%
G01*
G04 APERTURE LIST*
G04 Aperture macros list*
%AMRoundRect*
0 Rectangle with rounded corners*
0 $1 Rounding radius*
0 $2 $3 $4 $5 $6 $7 $8 $9 X,Y pos of 4 corners*
0 Add a 4 corners polygon primitive as box body*
4,1,4,$2,$3,$4,$5,$6,$7,$8,$9,$2,$3,0*
0 Add four circle primitives for the rounded corners*
1,1,$1+$1,$2,$3*
1,1,$1+$1,$4,$5*
1,1,$1+$1,$6,$7*
1,1,$1+$1,$8,$9*
0 Add four rect primitives between the rounded corners*
20,1,$1+$1,$2,$3,$4,$5,0*
20,1,$1+$1,$4,$5,$6,$7,0*
20,1,$1+$1,$6,$7,$8,$9,0*
20,1,$1+$1,$8,$9,$2,$3,0*%
%AMRotRect*
0 Rectangle, with rotation*
0 The origin of the aperture is its center*
0 $1 length*
0 $2 width*
0 $3 Rotation angle, in degrees counterclockwise*
0 Add horizontal line*
21,1,$1,$2,0,0,$3*%
G04 Aperture macros list end*
%ADD10RoundRect,0.200000X0.275000X-0.200000X0.275000X0.200000X-0.275000X0.200000X-0.275000X-0.200000X0*%
%ADD11RoundRect,0.200000X-0.275000X0.200000X-0.275000X-0.200000X0.275000X-0.200000X0.275000X0.200000X0*%
%ADD12RoundRect,0.150000X-0.475000X-0.150000X0.475000X-0.150000X0.475000X0.150000X-0.475000X0.150000X0*%
%ADD13RoundRect,0.150000X0.150000X0.625000X-0.150000X0.625000X-0.150000X-0.625000X0.150000X-0.625000X0*%
%ADD14RoundRect,0.250000X0.350000X0.650000X-0.350000X0.650000X-0.350000X-0.650000X0.350000X-0.650000X0*%
%ADD15RoundRect,0.225000X-0.017678X0.335876X-0.335876X0.017678X0.017678X-0.335876X0.335876X-0.017678X0*%
%ADD16RoundRect,0.150000X0.475000X0.150000X-0.475000X0.150000X-0.475000X-0.150000X0.475000X-0.150000X0*%
%ADD17R,0.600000X1.640000*%
%ADD18R,0.300000X1.640000*%
%ADD19RoundRect,0.225000X-0.225000X-0.250000X0.225000X-0.250000X0.225000X0.250000X-0.225000X0.250000X0*%
%ADD20RoundRect,0.200000X-0.053033X0.335876X-0.335876X0.053033X0.053033X-0.335876X0.335876X-0.053033X0*%
%ADD21RoundRect,0.225000X0.250000X-0.225000X0.250000X0.225000X-0.250000X0.225000X-0.250000X-0.225000X0*%
%ADD22RoundRect,0.250000X-0.325000X-0.650000X0.325000X-0.650000X0.325000X0.650000X-0.325000X0.650000X0*%
%ADD23RoundRect,0.225000X0.225000X0.250000X-0.225000X0.250000X-0.225000X-0.250000X0.225000X-0.250000X0*%
%ADD24RoundRect,0.200000X0.200000X0.275000X-0.200000X0.275000X-0.200000X-0.275000X0.200000X-0.275000X0*%
%ADD25RoundRect,0.250000X-0.625000X0.375000X-0.625000X-0.375000X0.625000X-0.375000X0.625000X0.375000X0*%
%ADD26R,1.200000X0.400000*%
%ADD27RoundRect,0.218750X0.218750X0.256250X-0.218750X0.256250X-0.218750X-0.256250X0.218750X-0.256250X0*%
%ADD28RoundRect,0.200000X-0.200000X-0.275000X0.200000X-0.275000X0.200000X0.275000X-0.200000X0.275000X0*%
%ADD29RoundRect,0.225000X-0.250000X0.225000X-0.250000X-0.225000X0.250000X-0.225000X0.250000X0.225000X0*%
%ADD30RoundRect,0.218750X-0.218750X-0.256250X0.218750X-0.256250X0.218750X0.256250X-0.218750X0.256250X0*%
%ADD31RoundRect,0.225000X0.335876X0.017678X0.017678X0.335876X-0.335876X-0.017678X-0.017678X-0.335876X0*%
%ADD32RotRect,1.400000X1.200000X315.000000*%
%ADD33RoundRect,0.150000X0.150000X-0.475000X0.150000X0.475000X-0.150000X0.475000X-0.150000X-0.475000X0*%
%ADD34RoundRect,0.250000X0.325000X0.650000X-0.325000X0.650000X-0.325000X-0.650000X0.325000X-0.650000X0*%
G04 APERTURE END LIST*
D10*
%TO.C,R13*%
X54400000Y-3025000D03*
X54400000Y-1375000D03*
%TD*%
D11*
%TO.C,R12*%
X30200000Y-15975000D03*
X30200000Y-17625000D03*
%TD*%
D12*
%TO.C,U3*%
X7025000Y-11350000D03*
X7025000Y-10400000D03*
X7025000Y-9450000D03*
X9375000Y-9450000D03*
X9375000Y-10400000D03*
X9375000Y-11350000D03*
%TD*%
D10*
%TO.C,R11*%
X31900000Y-17625000D03*
X31900000Y-15975000D03*
%TD*%
D13*
%TO.C,J4*%
X6000000Y-23525000D03*
X5000000Y-23525000D03*
X4000000Y-23525000D03*
X3000000Y-23525000D03*
D14*
X7300000Y-27400000D03*
X1700000Y-27400000D03*
%TD*%
D15*
%TO.C,C1*%
X60469328Y-19973312D03*
X59373312Y-21069328D03*
%TD*%
D16*
%TO.C,U2*%
X89175000Y-9450000D03*
X89175000Y-10400000D03*
X89175000Y-11350000D03*
X86825000Y-11350000D03*
X86825000Y-10400000D03*
X86825000Y-9450000D03*
%TD*%
D17*
%TO.C,J1*%
X83670000Y-6620000D03*
X84470000Y-6620000D03*
D18*
X85620000Y-6620000D03*
X86620000Y-6620000D03*
X87120000Y-6620000D03*
X88120000Y-6620000D03*
D17*
X89270000Y-6620000D03*
X90070000Y-6620000D03*
X90070000Y-6620000D03*
X89270000Y-6620000D03*
D18*
X88620000Y-6620000D03*
X87620000Y-6620000D03*
X86120000Y-6620000D03*
X85120000Y-6620000D03*
D17*
X84470000Y-6620000D03*
X83670000Y-6620000D03*
%TD*%
D19*
%TO.C,C3*%
X83225000Y-13000000D03*
X84775000Y-13000000D03*
%TD*%
D11*
%TO.C,R15*%
X93200000Y-2675000D03*
X93200000Y-4325000D03*
%TD*%
D10*
%TO.C,R3*%
X37200000Y-24950000D03*
X37200000Y-23300000D03*
%TD*%
D20*
%TO.C,R8*%
X56383363Y-15616637D03*
X55216637Y-16783363D03*
%TD*%
D21*
%TO.C,C10*%
X43000000Y-20975000D03*
X43000000Y-19425000D03*
%TD*%
D22*
%TO.C,C7*%
X81725000Y-9400000D03*
X84675000Y-9400000D03*
%TD*%
D23*
%TO.C,C4*%
X12975000Y-11200000D03*
X11425000Y-11200000D03*
%TD*%
D24*
%TO.C,R6*%
X23312500Y-16100000D03*
X21662500Y-16100000D03*
%TD*%
D25*
%TO.C,F1*%
X44000000Y-9400000D03*
X44000000Y-12200000D03*
%TD*%
D26*
%TO.C,U1*%
X52600000Y-16872500D03*
X52600000Y-17507500D03*
X52600000Y-18142500D03*
X52600000Y-18777500D03*
X52600000Y-19412500D03*
X52600000Y-20047500D03*
X52600000Y-20682500D03*
X52600000Y-21317500D03*
X52600000Y-21952500D03*
X52600000Y-22587500D03*
X52600000Y-23222500D03*
X52600000Y-23857500D03*
X52600000Y-24492500D03*
X52600000Y-25127500D03*
X47400000Y-25127500D03*
X47400000Y-24492500D03*
X47400000Y-23857500D03*
X47400000Y-23222500D03*
X47400000Y-22587500D03*
X47400000Y-21952500D03*
X47400000Y-21317500D03*
X47400000Y-20682500D03*
X47400000Y-20047500D03*
X47400000Y-19412500D03*
X47400000Y-18777500D03*
X47400000Y-18142500D03*
X47400000Y-17507500D03*
X47400000Y-16872500D03*
%TD*%
D27*
%TO.C,D2*%
X27275000Y-19600000D03*
X25700000Y-19600000D03*
%TD*%
D11*
%TO.C,R16*%
X90200000Y-14275000D03*
X90200000Y-15925000D03*
%TD*%
%TO.C,R17*%
X3100000Y-2675000D03*
X3100000Y-4325000D03*
%TD*%
D28*
%TO.C,R10*%
X42875000Y-16600000D03*
X44525000Y-16600000D03*
%TD*%
D10*
%TO.C,R4*%
X39500000Y-24925000D03*
X39500000Y-23275000D03*
%TD*%
D12*
%TO.C,U4*%
X90465000Y-21150000D03*
X90465000Y-20200000D03*
X90465000Y-19250000D03*
X92815000Y-19250000D03*
X92815000Y-20200000D03*
X92815000Y-21150000D03*
%TD*%
D17*
%TO.C,J2*%
X6070000Y-6620000D03*
X6870000Y-6620000D03*
D18*
X8020000Y-6620000D03*
X9020000Y-6620000D03*
X9520000Y-6620000D03*
X10520000Y-6620000D03*
D17*
X11670000Y-6620000D03*
X12470000Y-6620000D03*
X12470000Y-6620000D03*
X11670000Y-6620000D03*
D18*
X11020000Y-6620000D03*
X10020000Y-6620000D03*
X8520000Y-6620000D03*
X7520000Y-6620000D03*
D17*
X6870000Y-6620000D03*
X6070000Y-6620000D03*
%TD*%
D11*
%TO.C,R5*%
X34800000Y-23275000D03*
X34800000Y-24925000D03*
%TD*%
D28*
%TO.C,R7*%
X25675000Y-21300000D03*
X27325000Y-21300000D03*
%TD*%
D23*
%TO.C,C6*%
X12975000Y-12800000D03*
X11425000Y-12800000D03*
%TD*%
D11*
%TO.C,R14*%
X51600000Y-9675000D03*
X51600000Y-11325000D03*
%TD*%
D28*
%TO.C,R9*%
X25650000Y-16100000D03*
X27300000Y-16100000D03*
%TD*%
D19*
%TO.C,C5*%
X83225000Y-11400000D03*
X84775000Y-11400000D03*
%TD*%
D16*
%TO.C,U6*%
X49245000Y-9450000D03*
X49245000Y-10400000D03*
X49245000Y-11350000D03*
X46895000Y-11350000D03*
X46895000Y-10400000D03*
X46895000Y-9450000D03*
%TD*%
D28*
%TO.C,R18*%
X11375000Y-14500000D03*
X13025000Y-14500000D03*
%TD*%
D29*
%TO.C,C11*%
X44600000Y-22625000D03*
X44600000Y-24175000D03*
%TD*%
D30*
%TO.C,D3*%
X25687500Y-17800000D03*
X27262500Y-17800000D03*
%TD*%
D31*
%TO.C,C2*%
X60548008Y-17348008D03*
X59451992Y-16251992D03*
%TD*%
D32*
%TO.C,Y1*%
X57623223Y-17021142D03*
X59178858Y-18576777D03*
X57976777Y-19778858D03*
X56421142Y-18223223D03*
%TD*%
D17*
%TO.C,J5*%
X44870000Y-6620000D03*
X45670000Y-6620000D03*
D18*
X46820000Y-6620000D03*
X47820000Y-6620000D03*
X48320000Y-6620000D03*
X49320000Y-6620000D03*
D17*
X50470000Y-6620000D03*
X51270000Y-6620000D03*
X51270000Y-6620000D03*
X50470000Y-6620000D03*
D18*
X49820000Y-6620000D03*
X48820000Y-6620000D03*
X47320000Y-6620000D03*
X46320000Y-6620000D03*
D17*
X45670000Y-6620000D03*
X44870000Y-6620000D03*
%TD*%
D27*
%TO.C,D4*%
X23275000Y-19600000D03*
X21700000Y-19600000D03*
%TD*%
D24*
%TO.C,R1*%
X53425000Y-27900000D03*
X51775000Y-27900000D03*
%TD*%
D21*
%TO.C,C13*%
X39800000Y-18975000D03*
X39800000Y-17425000D03*
%TD*%
D16*
%TO.C,U7*%
X37575000Y-17450000D03*
X37575000Y-18400000D03*
X37575000Y-19350000D03*
X35225000Y-19350000D03*
X35225000Y-18400000D03*
X35225000Y-17450000D03*
%TD*%
D21*
%TO.C,C12*%
X44600000Y-20975000D03*
X44600000Y-19425000D03*
%TD*%
D13*
%TO.C,J3*%
X93140000Y-23525000D03*
X92140000Y-23525000D03*
X91140000Y-23525000D03*
X90140000Y-23525000D03*
D14*
X94440000Y-27400000D03*
X88840000Y-27400000D03*
%TD*%
D29*
%TO.C,C9*%
X43000000Y-22625000D03*
X43000000Y-24175000D03*
%TD*%
D30*
%TO.C,D1*%
X21700000Y-17800000D03*
X23275000Y-17800000D03*
%TD*%
D33*
%TO.C,U5*%
X18550000Y-27200000D03*
X17600000Y-27200000D03*
X16650000Y-27200000D03*
X16650000Y-24850000D03*
X17600000Y-24850000D03*
X18550000Y-24850000D03*
%TD*%
D34*
%TO.C,C8*%
X14475000Y-9200000D03*
X11525000Y-9200000D03*
%TD*%
D28*
%TO.C,R2*%
X43275000Y-14900000D03*
X44925000Y-14900000D03*
%TD*%
M02*
