%TF.GenerationSoftware,KiCad,Pcbnew,8.0.2*%
%TF.CreationDate,2025-12-10T20:47:35-08:00*%
%TF.ProjectId,USB-A-Daughterboard,5553422d-412d-4446-9175-676874657262,rev?*%
%TF.SameCoordinates,Original*%
%TF.FileFunction,Copper,L1,Top*%
%TF.FilePolarity,Positive*%
%FSLAX46Y46*%
G04 Gerber Fmt 4.6, Leading zero omitted, Abs format (unit mm)*
G04 Created by KiCad (PCBNEW 8.0.2) date 2025-12-10 20:47:35*
%MOMM*%
%LPD*%
G01*
G04 APERTURE LIST*
%TA.AperFunction,ComponentPad*%
%ADD10C,1.000000*%
%TD*%
%TA.AperFunction,ComponentPad*%
%ADD11O,1.050000X2.150000*%
%TD*%
%TA.AperFunction,ComponentPad*%
%ADD12O,1.050000X1.850000*%
%TD*%
%TA.AperFunction,ComponentPad*%
%ADD13C,4.700000*%
%TD*%
%TA.AperFunction,ViaPad*%
%ADD14C,0.600000*%
%TD*%
%TA.AperFunction,Conductor*%
%ADD15C,0.500000*%
%TD*%
%TA.AperFunction,Conductor*%
%ADD16C,0.200000*%
%TD*%
G04 APERTURE END LIST*
D10*
%TO.P,TP2,1,1*%
%TO.N,FAULT*%
X31000000Y-24700000D03*
%TD*%
%TO.P,TP1,1,1*%
%TO.N,P_EN*%
X46700000Y-14700000D03*
%TD*%
D11*
%TO.P,J1,S1,SHIELD*%
%TO.N,GND*%
X91190000Y-5750000D03*
D12*
X91190000Y-1600000D03*
D11*
X82550000Y-5750000D03*
D12*
X82550000Y-1600000D03*
%TD*%
D13*
%TO.P,H1,1,1*%
%TO.N,GND*%
X85040000Y-26500000D03*
%TD*%
D11*
%TO.P,J2,S1,SHIELD*%
%TO.N,GND*%
X13590000Y-5750000D03*
D12*
X13590000Y-1600000D03*
D11*
X4950000Y-5750000D03*
D12*
X4950000Y-1600000D03*
%TD*%
D11*
%TO.P,J5,S1,SHIELD*%
%TO.N,GND*%
X52390000Y-5750000D03*
D12*
X52390000Y-1600000D03*
D11*
X43750000Y-5750000D03*
D12*
X43750000Y-1600000D03*
%TD*%
D10*
%TO.P,TP3,1,1*%
%TO.N,+5V_lim*%
X84200000Y-15900000D03*
%TD*%
D14*
%TO.N,GND*%
X5300000Y-7400000D03*
X43000000Y-25200000D03*
X54875438Y-17969409D03*
X78600000Y-25800000D03*
X41900000Y-15900000D03*
X44600000Y-25200000D03*
X50300000Y-13100000D03*
X50300000Y-19200000D03*
X43000000Y-18200000D03*
X84100000Y-20400000D03*
X88900000Y-16900000D03*
X56400000Y-24800000D03*
X3000000Y-24900000D03*
X82900000Y-7600000D03*
X17600000Y-28400000D03*
X24500000Y-21200000D03*
X87000000Y-17000000D03*
X18100000Y-22000000D03*
X44600000Y-18300000D03*
X48500000Y-14800000D03*
X90200000Y-25000000D03*
X19200000Y-23200000D03*
X7900000Y-23100000D03*
X20500000Y-21900000D03*
X61200000Y-19200000D03*
X51300000Y-8000000D03*
X87100000Y-15300000D03*
X6000000Y-10000000D03*
X50300000Y-14800000D03*
X22800000Y-26800000D03*
X38885069Y-18263157D03*
X90422835Y-9657086D03*
X41100000Y-23800000D03*
X90100000Y-8000000D03*
X44000000Y-7600000D03*
X88900000Y-15200000D03*
X15300000Y-23700000D03*
X51200000Y-21400000D03*
X19300000Y-20700000D03*
X45485786Y-27200000D03*
X12500000Y-7900000D03*
X54600000Y-27900000D03*
X7600000Y-8200000D03*
X89400000Y-20200000D03*
X87700000Y-18900000D03*
%TO.N,+5V_lim*%
X17600000Y-23600000D03*
X20525000Y-20675000D03*
X91271342Y-16228658D03*
X42800000Y-13400000D03*
%TO.N,+3.3V*%
X41900000Y-21100000D03*
X35900000Y-23100000D03*
%TO.N,DRV*%
X24487500Y-19600000D03*
X45800000Y-20300000D03*
%TO.N,Net-(J1-CC1)*%
X87650000Y-3550000D03*
X85800000Y-8300000D03*
%TO.N,Net-(J1-CC2)*%
X89395621Y-8379281D03*
X91400000Y-14400000D03*
%TO.N,D4+*%
X9833018Y-8121197D03*
X8600000Y-8003427D03*
%TO.N,Net-(J2-CC2)*%
X10400000Y-14500000D03*
X10630366Y-8056116D03*
%TO.N,Net-(J2-CC1)*%
X8178940Y-5072530D03*
X2100000Y-3800000D03*
%TO.N,Net-(J5-CC1)*%
X46700000Y-8100000D03*
X46700000Y-3700000D03*
%TO.N,P_EN*%
X37600000Y-20400000D03*
%TO.N,Net-(U1-BUSJ)*%
X38400000Y-24900000D03*
X45900000Y-22652500D03*
%TO.N,Net-(U1-VBUSM)*%
X45876765Y-23524265D03*
X40700000Y-24900000D03*
%TO.N,Net-(U1-~{XRSTJ})*%
X35900000Y-25000000D03*
X45900000Y-24600000D03*
%TO.N,LED1*%
X24487500Y-16800000D03*
X45769440Y-19430374D03*
%TO.N,LED2*%
X45700000Y-18500000D03*
X24587500Y-15800000D03*
%TO.N,FAULT*%
X35200000Y-20200000D03*
X45400000Y-16600000D03*
%TO.N,Net-(U7-ILIM)*%
X32800000Y-17300000D03*
X33900000Y-18400000D03*
%TD*%
D15*
%TO.N,+5V_lim*%
X84000000Y-16100000D02*
X84200000Y-15900000D01*
X83100000Y-16100000D02*
X84000000Y-16100000D01*
X47700000Y-14000000D02*
X57600000Y-14000000D01*
X57600000Y-14000000D02*
X59700000Y-16100000D01*
X17600000Y-23600000D02*
X20525000Y-20675000D01*
X47100000Y-13400000D02*
X47700000Y-14000000D01*
X42800000Y-13400000D02*
X47100000Y-13400000D01*
X83100000Y-16100000D02*
X91142684Y-16100000D01*
X59700000Y-16100000D02*
X83100000Y-16100000D01*
X91142684Y-16100000D02*
X91271342Y-16228658D01*
D16*
%TO.N,+3.3V*%
X36400000Y-22600000D02*
X39428430Y-22600000D01*
X35900000Y-23100000D02*
X36400000Y-22600000D01*
X39428430Y-22600000D02*
X40928430Y-21100000D01*
X40928430Y-21100000D02*
X41900000Y-21100000D01*
%TO.N,DRV*%
X39262744Y-22200000D02*
X32600000Y-22200000D01*
X45600000Y-20500000D02*
X40962744Y-20500000D01*
X24587500Y-19700000D02*
X24487500Y-19600000D01*
X32600000Y-22200000D02*
X30100000Y-19700000D01*
X30100000Y-19700000D02*
X24587500Y-19700000D01*
X40962744Y-20500000D02*
X39262744Y-22200000D01*
X45800000Y-20300000D02*
X45600000Y-20500000D01*
%TO.N,Net-(J1-CC1)*%
X87700000Y-3500000D02*
X87650000Y-3550000D01*
X85800000Y-5400000D02*
X87650000Y-3550000D01*
X85800000Y-8300000D02*
X85800000Y-5400000D01*
%TO.N,Net-(J1-CC2)*%
X89800000Y-8783660D02*
X89395621Y-8379281D01*
X89800000Y-12800000D02*
X91400000Y-14400000D01*
X89800000Y-12200000D02*
X89800000Y-8783660D01*
X89800000Y-12200000D02*
X89800000Y-12800000D01*
%TO.N,D4+*%
X9690399Y-7978578D02*
X9833018Y-8121197D01*
X9833018Y-8121197D02*
X8717770Y-8121197D01*
X8717770Y-8121197D02*
X8600000Y-8003427D01*
%TO.N,Net-(J2-CC2)*%
X10500000Y-8186482D02*
X10500000Y-11400000D01*
X10500000Y-14400000D02*
X10400000Y-14500000D01*
X10500000Y-12800000D02*
X10500000Y-14400000D01*
X10500000Y-11400000D02*
X10500000Y-12800000D01*
X10630366Y-8056116D02*
X10500000Y-8186482D01*
%TO.N,Net-(J2-CC1)*%
X8178940Y-5072530D02*
X6706410Y-3600000D01*
X2300000Y-3600000D02*
X2100000Y-3800000D01*
X2400000Y-3500000D02*
X2100000Y-3800000D01*
X6706410Y-3600000D02*
X2300000Y-3600000D01*
X8178940Y-5072530D02*
X8178940Y-4878940D01*
%TO.N,Net-(J5-CC1)*%
X46700000Y-4500000D02*
X46700000Y-3700000D01*
X46700000Y-8100000D02*
X46700000Y-4500000D01*
%TO.N,P_EN*%
X38800000Y-20400000D02*
X44500000Y-14700000D01*
X44500000Y-14700000D02*
X46700000Y-14700000D01*
X37600000Y-20400000D02*
X38800000Y-20400000D01*
%TO.N,Net-(U1-BUSJ)*%
X40100000Y-23200000D02*
X38400000Y-24900000D01*
X45152500Y-23400000D02*
X44500000Y-23400000D01*
X42000000Y-23400000D02*
X41800000Y-23200000D01*
X44500000Y-23400000D02*
X42000000Y-23400000D01*
X41800000Y-23200000D02*
X40100000Y-23200000D01*
X45900000Y-22652500D02*
X45152500Y-23400000D01*
%TO.N,Net-(U1-VBUSM)*%
X42334314Y-23800000D02*
X41234314Y-24900000D01*
X41234314Y-24900000D02*
X40700000Y-24900000D01*
X45000000Y-23800000D02*
X42334314Y-23800000D01*
X45601030Y-23800000D02*
X45000000Y-23800000D01*
X45876765Y-23524265D02*
X45601030Y-23800000D01*
%TO.N,Net-(U1-~{XRSTJ})*%
X42500000Y-24200000D02*
X45500000Y-24200000D01*
X45500000Y-24200000D02*
X45900000Y-24600000D01*
X36600000Y-25700000D02*
X41000000Y-25700000D01*
X41000000Y-25700000D02*
X42500000Y-24200000D01*
X35900000Y-25000000D02*
X36600000Y-25700000D01*
%TO.N,LED1*%
X39097058Y-21800000D02*
X32765686Y-21800000D01*
X40797058Y-20100000D02*
X39097058Y-21800000D01*
X44665686Y-20100000D02*
X43900000Y-20100000D01*
X26987500Y-19300000D02*
X24487500Y-16800000D01*
X45769440Y-19430374D02*
X45335312Y-19430374D01*
X32765686Y-21800000D02*
X30265686Y-19300000D01*
X43900000Y-20100000D02*
X40797058Y-20100000D01*
X45335312Y-19430374D02*
X44665686Y-20100000D01*
X30265686Y-19300000D02*
X26987500Y-19300000D01*
%TO.N,LED2*%
X45700000Y-18500000D02*
X44500000Y-19700000D01*
X40631372Y-19700000D02*
X38931372Y-21400000D01*
X38931372Y-21400000D02*
X32931372Y-21400000D01*
X30331372Y-18800000D02*
X27053186Y-18800000D01*
X25270343Y-16482843D02*
X24587500Y-15800000D01*
X25270343Y-17017157D02*
X25270343Y-16482843D01*
X44500000Y-19700000D02*
X43800000Y-19700000D01*
X43800000Y-19700000D02*
X40631372Y-19700000D01*
X27053186Y-18800000D02*
X25270343Y-17017157D01*
X32931372Y-21400000D02*
X30331372Y-18800000D01*
%TO.N,FAULT*%
X42598186Y-17167500D02*
X44832500Y-17167500D01*
X35200000Y-20200000D02*
X36000000Y-21000000D01*
X44832500Y-17167500D02*
X45400000Y-16600000D01*
X38765686Y-21000000D02*
X42598186Y-17167500D01*
X36000000Y-21000000D02*
X38765686Y-21000000D01*
%TO.N,Net-(U7-ILIM)*%
X33900000Y-18400000D02*
X32800000Y-17300000D01*
%TD*%
%TA.AperFunction,Conductor*%
%TO.N,GND*%
G36*
X41692712Y-23519407D02*
G01*
X41704524Y-23529496D01*
X41815488Y-23640459D01*
X41815493Y-23640463D01*
X41864399Y-23668699D01*
X41905340Y-23714168D01*
X41911736Y-23775018D01*
X41884903Y-23824439D01*
X41180761Y-24528581D01*
X41126244Y-24556358D01*
X41065812Y-24546787D01*
X41035941Y-24523411D01*
X41031128Y-24517857D01*
X40998182Y-24496684D01*
X40910057Y-24440049D01*
X40910054Y-24440047D01*
X40910053Y-24440047D01*
X40910050Y-24440046D01*
X40771964Y-24399500D01*
X40771961Y-24399500D01*
X40628039Y-24399500D01*
X40628035Y-24399500D01*
X40489949Y-24440046D01*
X40489942Y-24440049D01*
X40368873Y-24517855D01*
X40274622Y-24626628D01*
X40214834Y-24757543D01*
X40194353Y-24899997D01*
X40194353Y-24900002D01*
X40214834Y-25042456D01*
X40274623Y-25173373D01*
X40328602Y-25235669D01*
X40352420Y-25292028D01*
X40338561Y-25351624D01*
X40292320Y-25391691D01*
X40253783Y-25399500D01*
X38846217Y-25399500D01*
X38788026Y-25380593D01*
X38752062Y-25331093D01*
X38752062Y-25269907D01*
X38771398Y-25235669D01*
X38786054Y-25218754D01*
X38825377Y-25173373D01*
X38885165Y-25042457D01*
X38901156Y-24931239D01*
X38905647Y-24900002D01*
X38905647Y-24900000D01*
X38902558Y-24878518D01*
X38912990Y-24818228D01*
X38930543Y-24794426D01*
X40195475Y-23529496D01*
X40249992Y-23501719D01*
X40265479Y-23500500D01*
X41634521Y-23500500D01*
X41692712Y-23519407D01*
G37*
%TD.AperFunction*%
%TA.AperFunction,Conductor*%
G36*
X4057608Y-519407D02*
G01*
X4093572Y-568907D01*
X4093572Y-630093D01*
X4081732Y-654502D01*
X4041659Y-714473D01*
X4041653Y-714484D01*
X3964390Y-901016D01*
X3964390Y-901018D01*
X3925000Y-1099043D01*
X3925000Y-1349999D01*
X3925001Y-1350000D01*
X4625000Y-1350000D01*
X4625000Y-1850000D01*
X3925001Y-1850000D01*
X3925000Y-1850001D01*
X3925000Y-2100956D01*
X3964390Y-2298981D01*
X3964390Y-2298983D01*
X4041653Y-2485515D01*
X4041659Y-2485527D01*
X4153830Y-2653399D01*
X4153833Y-2653403D01*
X4296596Y-2796166D01*
X4296600Y-2796169D01*
X4464472Y-2908340D01*
X4464484Y-2908346D01*
X4651016Y-2985609D01*
X4651019Y-2985610D01*
X4699999Y-2995352D01*
X4700000Y-2995352D01*
X4700000Y-2209618D01*
X4750446Y-2260064D01*
X4824555Y-2302851D01*
X4907213Y-2325000D01*
X4992787Y-2325000D01*
X5075445Y-2302851D01*
X5149554Y-2260064D01*
X5200000Y-2209618D01*
X5200000Y-2995352D01*
X5248980Y-2985610D01*
X5248983Y-2985609D01*
X5435515Y-2908346D01*
X5435527Y-2908340D01*
X5603399Y-2796169D01*
X5603403Y-2796166D01*
X5746166Y-2653403D01*
X5746169Y-2653399D01*
X5858340Y-2485527D01*
X5858346Y-2485515D01*
X5935609Y-2298983D01*
X5935609Y-2298981D01*
X5974999Y-2100956D01*
X5975000Y-2100952D01*
X5975000Y-1850001D01*
X5974999Y-1850000D01*
X5275000Y-1850000D01*
X5275000Y-1350000D01*
X5974999Y-1350000D01*
X5975000Y-1349999D01*
X5975000Y-1099047D01*
X5974999Y-1099043D01*
X5935609Y-901018D01*
X5935609Y-901016D01*
X5858346Y-714484D01*
X5858340Y-714473D01*
X5818268Y-654502D01*
X5801659Y-595614D01*
X5822836Y-538210D01*
X5873710Y-504217D01*
X5900583Y-500500D01*
X12639417Y-500500D01*
X12697608Y-519407D01*
X12733572Y-568907D01*
X12733572Y-630093D01*
X12721732Y-654502D01*
X12681659Y-714473D01*
X12681653Y-714484D01*
X12604390Y-901016D01*
X12604390Y-901018D01*
X12565000Y-1099043D01*
X12565000Y-1349999D01*
X12565001Y-1350000D01*
X13265000Y-1350000D01*
X13265000Y-1850000D01*
X12565001Y-1850000D01*
X12565000Y-1850001D01*
X12565000Y-2100956D01*
X12604390Y-2298981D01*
X12604390Y-2298983D01*
X12681653Y-2485515D01*
X12681659Y-2485527D01*
X12793830Y-2653399D01*
X12793833Y-2653403D01*
X12936596Y-2796166D01*
X12936600Y-2796169D01*
X13104472Y-2908340D01*
X13104484Y-2908346D01*
X13291016Y-2985609D01*
X13291019Y-2985610D01*
X13339999Y-2995352D01*
X13340000Y-2995352D01*
X13340000Y-2209618D01*
X13390446Y-2260064D01*
X13464555Y-2302851D01*
X13547213Y-2325000D01*
X13632787Y-2325000D01*
X13715445Y-2302851D01*
X13789554Y-2260064D01*
X13840000Y-2209618D01*
X13840000Y-2995352D01*
X13888980Y-2985610D01*
X13888983Y-2985609D01*
X14075515Y-2908346D01*
X14075527Y-2908340D01*
X14243399Y-2796169D01*
X14243403Y-2796166D01*
X14386166Y-2653403D01*
X14386169Y-2653399D01*
X14498340Y-2485527D01*
X14498346Y-2485515D01*
X14575609Y-2298983D01*
X14575609Y-2298981D01*
X14614999Y-2100956D01*
X14615000Y-2100952D01*
X14615000Y-1850001D01*
X14614999Y-1850000D01*
X13915000Y-1850000D01*
X13915000Y-1350000D01*
X14614999Y-1350000D01*
X14615000Y-1349999D01*
X14615000Y-1099047D01*
X14614999Y-1099043D01*
X14575609Y-901018D01*
X14575609Y-901016D01*
X14498346Y-714484D01*
X14498340Y-714473D01*
X14458268Y-654502D01*
X14441659Y-595614D01*
X14462836Y-538210D01*
X14513710Y-504217D01*
X14540583Y-500500D01*
X14674108Y-500500D01*
X14734408Y-500500D01*
X14745552Y-501129D01*
X14753365Y-502014D01*
X14840598Y-511896D01*
X14862319Y-516881D01*
X14947245Y-546772D01*
X14967296Y-556489D01*
X15043381Y-604620D01*
X15060753Y-618579D01*
X15124140Y-682509D01*
X15137951Y-700000D01*
X15185431Y-776491D01*
X15194976Y-796623D01*
X15224143Y-881804D01*
X15228942Y-903564D01*
X15238933Y-999019D01*
X15239467Y-1010169D01*
X15238943Y-1071557D01*
X15239500Y-1080638D01*
X15239500Y-11528034D01*
X15239499Y-11528052D01*
X15239500Y-11600006D01*
X15239500Y-11771970D01*
X15273215Y-12114247D01*
X15273216Y-12114252D01*
X15302710Y-12262525D01*
X15340318Y-12451582D01*
X15440160Y-12780711D01*
X15571774Y-13098449D01*
X15571782Y-13098467D01*
X15656771Y-13257466D01*
X15733910Y-13401782D01*
X15733913Y-13401787D01*
X15733915Y-13401790D01*
X15813238Y-13520504D01*
X15924991Y-13687754D01*
X16143182Y-13953619D01*
X16386381Y-14196818D01*
X16652246Y-14415009D01*
X16938218Y-14606090D01*
X17173302Y-14731746D01*
X17241532Y-14768217D01*
X17241535Y-14768218D01*
X17241542Y-14768222D01*
X17400419Y-14834032D01*
X17559288Y-14899839D01*
X17559290Y-14899839D01*
X17559296Y-14899842D01*
X17888421Y-14999683D01*
X18225748Y-15066784D01*
X18568027Y-15100499D01*
X18662577Y-15100499D01*
X18662585Y-15100500D01*
X18674108Y-15100500D01*
X18739995Y-15100500D01*
X18805887Y-15100501D01*
X18805891Y-15100500D01*
X38534168Y-15100500D01*
X38600060Y-15100500D01*
X38772026Y-15100500D01*
X38772034Y-15100500D01*
X39000209Y-15078026D01*
X39114301Y-15066789D01*
X39451624Y-14999692D01*
X39780746Y-14899853D01*
X40098497Y-14768237D01*
X40401817Y-14606108D01*
X40687786Y-14415030D01*
X40953648Y-14196842D01*
X41196845Y-13953646D01*
X41415032Y-13687783D01*
X41606110Y-13401814D01*
X41606128Y-13401782D01*
X41689017Y-13246704D01*
X41768238Y-13098494D01*
X41899855Y-12780742D01*
X41899865Y-12780711D01*
X41960735Y-12580047D01*
X41999692Y-12451621D01*
X42066790Y-12114298D01*
X42100501Y-11772022D01*
X42100500Y-11600056D01*
X42100500Y-11534164D01*
X42100500Y-5099043D01*
X42725000Y-5099043D01*
X42725000Y-5499999D01*
X42725001Y-5500000D01*
X43425000Y-5500000D01*
X43425000Y-6000000D01*
X42725001Y-6000000D01*
X42725000Y-6000001D01*
X42725000Y-6400956D01*
X42764390Y-6598981D01*
X42764390Y-6598983D01*
X42841653Y-6785515D01*
X42841659Y-6785527D01*
X42953830Y-6953399D01*
X42953833Y-6953403D01*
X43096596Y-7096166D01*
X43096600Y-7096169D01*
X43264472Y-7208340D01*
X43264484Y-7208346D01*
X43451016Y-7285609D01*
X43451019Y-7285610D01*
X43499999Y-7295352D01*
X43500000Y-7295352D01*
X43500000Y-6409618D01*
X43550446Y-6460064D01*
X43624555Y-6502851D01*
X43707213Y-6525000D01*
X43792787Y-6525000D01*
X43875445Y-6502851D01*
X43949554Y-6460064D01*
X44000000Y-6409618D01*
X44000000Y-7295352D01*
X44048980Y-7285610D01*
X44048983Y-7285609D01*
X44235515Y-7208346D01*
X44235527Y-7208340D01*
X44403399Y-7096169D01*
X44403403Y-7096166D01*
X44546166Y-6953403D01*
X44546169Y-6953399D01*
X44658340Y-6785527D01*
X44658346Y-6785515D01*
X44735609Y-6598983D01*
X44735609Y-6598981D01*
X44774999Y-6400956D01*
X44775000Y-6400952D01*
X44775000Y-6000001D01*
X44774999Y-6000000D01*
X44075000Y-6000000D01*
X44075000Y-5500000D01*
X44715941Y-5500000D01*
X44774132Y-5518907D01*
X44794482Y-5538731D01*
X44797902Y-5543188D01*
X44797903Y-5543189D01*
X44797905Y-5543192D01*
X44886808Y-5632095D01*
X44995692Y-5694959D01*
X45117136Y-5727500D01*
X45117138Y-5727500D01*
X45242862Y-5727500D01*
X45242864Y-5727500D01*
X45364308Y-5694959D01*
X45473192Y-5632095D01*
X45562095Y-5543192D01*
X45624959Y-5434308D01*
X45657500Y-5312864D01*
X45657500Y-5187136D01*
X45624959Y-5065692D01*
X45562095Y-4956808D01*
X45473192Y-4867905D01*
X45364308Y-4805041D01*
X45242864Y-4772500D01*
X45117136Y-4772500D01*
X44995692Y-4805041D01*
X44909703Y-4854687D01*
X44886805Y-4867907D01*
X44874961Y-4879751D01*
X44820444Y-4907527D01*
X44760012Y-4897953D01*
X44716749Y-4854687D01*
X44713496Y-4847630D01*
X44658346Y-4714484D01*
X44658340Y-4714472D01*
X44546169Y-4546600D01*
X44546166Y-4546596D01*
X44403403Y-4403833D01*
X44403399Y-4403830D01*
X44235527Y-4291659D01*
X44235515Y-4291653D01*
X44048984Y-4214390D01*
X44000000Y-4204646D01*
X44000000Y-5090382D01*
X43949554Y-5039936D01*
X43875445Y-4997149D01*
X43792787Y-4975000D01*
X43707213Y-4975000D01*
X43624555Y-4997149D01*
X43550446Y-5039936D01*
X43500000Y-5090382D01*
X43500000Y-4204646D01*
X43451015Y-4214390D01*
X43264484Y-4291653D01*
X43264472Y-4291659D01*
X43096600Y-4403830D01*
X43096596Y-4403833D01*
X42953833Y-4546596D01*
X42953830Y-4546600D01*
X42841659Y-4714472D01*
X42841653Y-4714484D01*
X42764390Y-4901016D01*
X42764390Y-4901018D01*
X42725000Y-5099043D01*
X42100500Y-5099043D01*
X42100500Y-3699997D01*
X46194353Y-3699997D01*
X46194353Y-3700002D01*
X46214834Y-3842456D01*
X46260504Y-3942457D01*
X46274623Y-3973373D01*
X46366578Y-4079496D01*
X46373509Y-4087494D01*
X46371471Y-4089259D01*
X46396925Y-4131458D01*
X46399500Y-4153893D01*
X46399500Y-7646105D01*
X46380593Y-7704296D01*
X46373258Y-7712289D01*
X46373509Y-7712506D01*
X46368872Y-7717856D01*
X46368872Y-7717857D01*
X46355693Y-7733067D01*
X46274622Y-7826628D01*
X46214834Y-7957543D01*
X46194353Y-8099997D01*
X46194353Y-8100002D01*
X46214834Y-8242456D01*
X46262114Y-8345982D01*
X46274623Y-8373373D01*
X46352614Y-8463380D01*
X46368873Y-8482144D01*
X46489942Y-8559950D01*
X46489947Y-8559953D01*
X46596403Y-8591211D01*
X46628035Y-8600499D01*
X46628036Y-8600499D01*
X46628039Y-8600500D01*
X46628041Y-8600500D01*
X46771959Y-8600500D01*
X46771961Y-8600500D01*
X46910053Y-8559953D01*
X47031128Y-8482143D01*
X47125377Y-8373373D01*
X47185165Y-8242457D01*
X47203306Y-8116282D01*
X47205647Y-8100002D01*
X47205647Y-8099997D01*
X47185165Y-7957543D01*
X47151448Y-7883714D01*
X54762500Y-7883714D01*
X54762500Y-8116285D01*
X54798879Y-8345977D01*
X54870747Y-8567163D01*
X54969727Y-8761425D01*
X54976328Y-8774379D01*
X55113026Y-8962527D01*
X55277473Y-9126974D01*
X55465621Y-9263672D01*
X55672837Y-9369253D01*
X55894018Y-9441119D01*
X55894019Y-9441119D01*
X55894022Y-9441120D01*
X56123715Y-9477500D01*
X56123718Y-9477500D01*
X56356285Y-9477500D01*
X56585977Y-9441120D01*
X56585978Y-9441119D01*
X56585982Y-9441119D01*
X56807163Y-9369253D01*
X57014379Y-9263672D01*
X57202527Y-9126974D01*
X57366974Y-8962527D01*
X57503672Y-8774379D01*
X57609253Y-8567163D01*
X57681119Y-8345982D01*
X57688402Y-8300000D01*
X57717500Y-8116285D01*
X57717500Y-7883714D01*
X57681120Y-7654022D01*
X57662321Y-7596165D01*
X57609253Y-7432837D01*
X57503672Y-7225621D01*
X57366974Y-7037473D01*
X57202527Y-6873026D01*
X57014379Y-6736328D01*
X57014378Y-6736327D01*
X57014376Y-6736326D01*
X56807163Y-6630747D01*
X56585977Y-6558879D01*
X56356285Y-6522500D01*
X56356282Y-6522500D01*
X56123718Y-6522500D01*
X56123715Y-6522500D01*
X55894022Y-6558879D01*
X55672836Y-6630747D01*
X55465623Y-6736326D01*
X55277474Y-6873025D01*
X55113025Y-7037474D01*
X54976326Y-7225623D01*
X54870747Y-7432836D01*
X54798879Y-7654022D01*
X54762500Y-7883714D01*
X47151448Y-7883714D01*
X47125377Y-7826627D01*
X47031128Y-7717857D01*
X47031127Y-7717856D01*
X47026491Y-7712506D01*
X47028524Y-7710743D01*
X47003067Y-7668505D01*
X47000500Y-7646105D01*
X47000500Y-5187136D01*
X50482500Y-5187136D01*
X50482500Y-5312864D01*
X50515041Y-5434308D01*
X50577905Y-5543192D01*
X50666808Y-5632095D01*
X50775692Y-5694959D01*
X50897136Y-5727500D01*
X50897138Y-5727500D01*
X51022862Y-5727500D01*
X51022864Y-5727500D01*
X51144308Y-5694959D01*
X51253192Y-5632095D01*
X51342095Y-5543192D01*
X51342098Y-5543186D01*
X51345518Y-5538731D01*
X51395943Y-5504076D01*
X51424059Y-5500000D01*
X52065000Y-5500000D01*
X52065000Y-6000000D01*
X51365001Y-6000000D01*
X51365000Y-6000001D01*
X51365000Y-6400956D01*
X51404390Y-6598981D01*
X51404390Y-6598983D01*
X51481653Y-6785515D01*
X51481659Y-6785527D01*
X51593830Y-6953399D01*
X51593833Y-6953403D01*
X51736596Y-7096166D01*
X51736600Y-7096169D01*
X51904472Y-7208340D01*
X51904484Y-7208346D01*
X52091016Y-7285609D01*
X52091019Y-7285610D01*
X52139999Y-7295352D01*
X52140000Y-7295352D01*
X52140000Y-6409618D01*
X52190446Y-6460064D01*
X52264555Y-6502851D01*
X52347213Y-6525000D01*
X52432787Y-6525000D01*
X52515445Y-6502851D01*
X52589554Y-6460064D01*
X52640000Y-6409618D01*
X52640000Y-7295352D01*
X52688980Y-7285610D01*
X52688983Y-7285609D01*
X52875515Y-7208346D01*
X52875527Y-7208340D01*
X53043399Y-7096169D01*
X53043403Y-7096166D01*
X53186166Y-6953403D01*
X53186169Y-6953399D01*
X53298340Y-6785527D01*
X53298346Y-6785515D01*
X53375609Y-6598983D01*
X53375609Y-6598981D01*
X53414999Y-6400956D01*
X53415000Y-6400952D01*
X53415000Y-6000001D01*
X53414999Y-6000000D01*
X52715000Y-6000000D01*
X52715000Y-5500000D01*
X53414999Y-5500000D01*
X53415000Y-5499999D01*
X53415000Y-5099047D01*
X53414999Y-5099043D01*
X53375609Y-4901018D01*
X53375609Y-4901016D01*
X53298346Y-4714484D01*
X53298340Y-4714472D01*
X53186169Y-4546600D01*
X53186166Y-4546596D01*
X53043403Y-4403833D01*
X53043399Y-4403830D01*
X52875527Y-4291659D01*
X52875515Y-4291653D01*
X52688984Y-4214390D01*
X52640000Y-4204646D01*
X52640000Y-5090382D01*
X52589554Y-5039936D01*
X52515445Y-4997149D01*
X52432787Y-4975000D01*
X52347213Y-4975000D01*
X52264555Y-4997149D01*
X52190446Y-5039936D01*
X52140000Y-5090382D01*
X52140000Y-4204646D01*
X52091015Y-4214390D01*
X51904484Y-4291653D01*
X51904472Y-4291659D01*
X51736600Y-4403830D01*
X51736596Y-4403833D01*
X51593833Y-4546596D01*
X51593830Y-4546600D01*
X51481659Y-4714472D01*
X51481655Y-4714481D01*
X51426503Y-4847631D01*
X51386766Y-4894156D01*
X51327272Y-4908440D01*
X51270744Y-4885025D01*
X51265048Y-4879761D01*
X51253192Y-4867905D01*
X51144308Y-4805041D01*
X51022864Y-4772500D01*
X50897136Y-4772500D01*
X50775692Y-4805041D01*
X50666808Y-4867905D01*
X50577905Y-4956808D01*
X50515041Y-5065692D01*
X50482500Y-5187136D01*
X47000500Y-5187136D01*
X47000500Y-4153893D01*
X47019407Y-4095702D01*
X47026741Y-4087711D01*
X47026491Y-4087494D01*
X47031128Y-4082143D01*
X47125377Y-3973373D01*
X47185165Y-3842457D01*
X47205647Y-3700000D01*
X47204562Y-3692457D01*
X47185165Y-3557543D01*
X47125377Y-3426628D01*
X47125377Y-3426627D01*
X47031128Y-3317857D01*
X47031127Y-3317856D01*
X47031126Y-3317855D01*
X46910057Y-3240049D01*
X46910054Y-3240047D01*
X46910053Y-3240047D01*
X46910050Y-3240046D01*
X46771964Y-3199500D01*
X46771961Y-3199500D01*
X46628039Y-3199500D01*
X46628035Y-3199500D01*
X46489949Y-3240046D01*
X46489942Y-3240049D01*
X46368873Y-3317855D01*
X46274622Y-3426628D01*
X46214834Y-3557543D01*
X46194353Y-3699997D01*
X42100500Y-3699997D01*
X42100500Y-1072629D01*
X42100502Y-1072584D01*
X42100501Y-1066015D01*
X42100503Y-1066011D01*
X42100500Y-1005711D01*
X42101131Y-994553D01*
X42111936Y-899301D01*
X42116935Y-877559D01*
X42146937Y-792459D01*
X42156680Y-772389D01*
X42204991Y-696174D01*
X42218984Y-678796D01*
X42283144Y-615343D01*
X42300669Y-601548D01*
X42377422Y-554082D01*
X42397589Y-544566D01*
X42483027Y-515505D01*
X42504821Y-510749D01*
X42599864Y-501033D01*
X42611012Y-500527D01*
X42671646Y-501202D01*
X42671648Y-501201D01*
X42671699Y-501202D01*
X42683415Y-500500D01*
X42799417Y-500500D01*
X42857608Y-519407D01*
X42893572Y-568907D01*
X42893572Y-630093D01*
X42881732Y-654502D01*
X42841659Y-714473D01*
X42841653Y-714484D01*
X42764390Y-901016D01*
X42764390Y-901018D01*
X42725000Y-1099043D01*
X42725000Y-1349999D01*
X42725001Y-1350000D01*
X43425000Y-1350000D01*
X43425000Y-1850000D01*
X42725001Y-1850000D01*
X42725000Y-1850001D01*
X42725000Y-2100956D01*
X42764390Y-2298981D01*
X42764390Y-2298983D01*
X42841653Y-2485515D01*
X42841659Y-2485527D01*
X42953830Y-2653399D01*
X42953833Y-2653403D01*
X43096596Y-2796166D01*
X43096600Y-2796169D01*
X43264472Y-2908340D01*
X43264484Y-2908346D01*
X43451016Y-2985609D01*
X43451019Y-2985610D01*
X43499999Y-2995352D01*
X43500000Y-2995352D01*
X43500000Y-2209618D01*
X43550446Y-2260064D01*
X43624555Y-2302851D01*
X43707213Y-2325000D01*
X43792787Y-2325000D01*
X43875445Y-2302851D01*
X43949554Y-2260064D01*
X44000000Y-2209618D01*
X44000000Y-2995352D01*
X44048980Y-2985610D01*
X44048983Y-2985609D01*
X44235515Y-2908346D01*
X44235527Y-2908340D01*
X44403399Y-2796169D01*
X44403403Y-2796166D01*
X44546166Y-2653403D01*
X44546169Y-2653399D01*
X44658340Y-2485527D01*
X44658346Y-2485515D01*
X44735609Y-2298983D01*
X44735609Y-2298981D01*
X44774999Y-2100956D01*
X44775000Y-2100952D01*
X44775000Y-1850001D01*
X44774999Y-1850000D01*
X44075000Y-1850000D01*
X44075000Y-1350000D01*
X44774999Y-1350000D01*
X44775000Y-1349999D01*
X44775000Y-1099047D01*
X44774999Y-1099043D01*
X44735609Y-901018D01*
X44735609Y-901016D01*
X44658346Y-714484D01*
X44658340Y-714473D01*
X44618268Y-654502D01*
X44601659Y-595614D01*
X44622836Y-538210D01*
X44673710Y-504217D01*
X44700583Y-500500D01*
X51439417Y-500500D01*
X51497608Y-519407D01*
X51533572Y-568907D01*
X51533572Y-630093D01*
X51521732Y-654502D01*
X51481659Y-714473D01*
X51481653Y-714484D01*
X51404390Y-901016D01*
X51404390Y-901018D01*
X51365000Y-1099043D01*
X51365000Y-1349999D01*
X51365001Y-1350000D01*
X52065000Y-1350000D01*
X52065000Y-1850000D01*
X51365001Y-1850000D01*
X51365000Y-1850001D01*
X51365000Y-2100956D01*
X51404390Y-2298981D01*
X51404390Y-2298983D01*
X51481653Y-2485515D01*
X51481659Y-2485527D01*
X51593830Y-2653399D01*
X51593833Y-2653403D01*
X51736596Y-2796166D01*
X51736600Y-2796169D01*
X51904472Y-2908340D01*
X51904484Y-2908346D01*
X52091016Y-2985609D01*
X52091019Y-2985610D01*
X52140000Y-2995352D01*
X52140000Y-2209618D01*
X52190446Y-2260064D01*
X52264555Y-2302851D01*
X52347213Y-2325000D01*
X52432787Y-2325000D01*
X52515445Y-2302851D01*
X52589554Y-2260064D01*
X52640000Y-2209618D01*
X52640000Y-2995352D01*
X52688980Y-2985610D01*
X52688983Y-2985609D01*
X52875515Y-2908346D01*
X52875527Y-2908340D01*
X53043399Y-2796169D01*
X53043403Y-2796166D01*
X53186166Y-2653403D01*
X53186169Y-2653399D01*
X53298340Y-2485527D01*
X53298346Y-2485515D01*
X53375609Y-2298983D01*
X53375609Y-2298981D01*
X53414999Y-2100956D01*
X53415000Y-2100952D01*
X53415000Y-1850001D01*
X53414999Y-1850000D01*
X52715000Y-1850000D01*
X52715000Y-1350000D01*
X53414999Y-1350000D01*
X53415000Y-1349999D01*
X53415000Y-1099047D01*
X53414999Y-1099043D01*
X53375609Y-901018D01*
X53375609Y-901016D01*
X53298346Y-714484D01*
X53298340Y-714473D01*
X53258268Y-654502D01*
X53241659Y-595614D01*
X53262836Y-538210D01*
X53313710Y-504217D01*
X53340583Y-500500D01*
X55374108Y-500500D01*
X55437391Y-500500D01*
X55442587Y-500636D01*
X55451967Y-501129D01*
X55759731Y-517305D01*
X55770061Y-518394D01*
X56081124Y-567806D01*
X56091278Y-569970D01*
X56395454Y-651722D01*
X56405327Y-654940D01*
X56699260Y-768127D01*
X56708743Y-772364D01*
X56989188Y-915740D01*
X56998162Y-920939D01*
X57027309Y-939936D01*
X57262035Y-1092926D01*
X57270431Y-1099049D01*
X57368878Y-1179091D01*
X57514826Y-1297754D01*
X57522509Y-1304702D01*
X57744722Y-1527926D01*
X57751657Y-1535666D01*
X57949243Y-1780953D01*
X57955328Y-1789377D01*
X58126106Y-2054016D01*
X58131275Y-2063032D01*
X58273372Y-2344120D01*
X58277567Y-2353628D01*
X58389412Y-2648054D01*
X58392588Y-2657949D01*
X58472954Y-2962488D01*
X58475075Y-2972662D01*
X58523074Y-3283951D01*
X58524116Y-3294291D01*
X58539377Y-3612186D01*
X58539490Y-3617382D01*
X58539189Y-3683649D01*
X58539500Y-3688551D01*
X58539500Y-12543690D01*
X58538974Y-12552231D01*
X58539196Y-12579978D01*
X58539174Y-12580047D01*
X58539497Y-12622027D01*
X58539500Y-12622788D01*
X58539500Y-12683827D01*
X58540030Y-12691480D01*
X58540637Y-12770297D01*
X58540639Y-12770317D01*
X58579119Y-13068800D01*
X58579123Y-13068816D01*
X58653128Y-13360558D01*
X58761578Y-13641301D01*
X58761583Y-13641311D01*
X58902927Y-13907040D01*
X59075112Y-14153892D01*
X59075122Y-14153905D01*
X59144972Y-14232071D01*
X59275666Y-14378326D01*
X59501683Y-14577085D01*
X59749904Y-14747305D01*
X60016747Y-14886529D01*
X60016751Y-14886530D01*
X60016752Y-14886531D01*
X60053787Y-14900500D01*
X60298360Y-14992749D01*
X60298363Y-14992749D01*
X60298370Y-14992752D01*
X60448215Y-15029496D01*
X60590680Y-15064431D01*
X60889485Y-15100539D01*
X60889490Y-15100538D01*
X60889491Y-15100539D01*
X60971570Y-15100517D01*
X61039975Y-15100500D01*
X61105867Y-15100503D01*
X61105871Y-15100501D01*
X61112440Y-15100502D01*
X61112485Y-15100500D01*
X77571975Y-15100500D01*
X77800153Y-15078026D01*
X77914246Y-15066789D01*
X78251571Y-14999692D01*
X78580696Y-14899853D01*
X78898451Y-14768236D01*
X79201774Y-14606108D01*
X79487746Y-14415030D01*
X79753612Y-14196841D01*
X79996812Y-13953644D01*
X80215004Y-13687781D01*
X80406086Y-13401812D01*
X80568218Y-13098490D01*
X80568232Y-13098458D01*
X80633848Y-12940049D01*
X80699839Y-12780737D01*
X80799681Y-12451613D01*
X80866783Y-12114288D01*
X80900498Y-11772010D01*
X80900498Y-11677455D01*
X80900500Y-11677451D01*
X80900500Y-11584511D01*
X80900501Y-11534151D01*
X80900500Y-11534147D01*
X80900500Y-8299997D01*
X85294353Y-8299997D01*
X85294353Y-8300002D01*
X85314834Y-8442456D01*
X85371787Y-8567163D01*
X85374623Y-8573373D01*
X85456329Y-8667667D01*
X85468873Y-8682144D01*
X85565276Y-8744098D01*
X85589947Y-8759953D01*
X85696403Y-8791211D01*
X85728035Y-8800499D01*
X85728036Y-8800499D01*
X85728039Y-8800500D01*
X85728041Y-8800500D01*
X85871959Y-8800500D01*
X85871961Y-8800500D01*
X86010053Y-8759953D01*
X86131128Y-8682143D01*
X86225377Y-8573373D01*
X86285165Y-8442457D01*
X86294249Y-8379278D01*
X88889974Y-8379278D01*
X88889974Y-8379283D01*
X88910455Y-8521737D01*
X88970243Y-8652652D01*
X88970244Y-8652654D01*
X89064493Y-8761424D01*
X89064494Y-8761425D01*
X89185563Y-8839231D01*
X89185568Y-8839234D01*
X89292024Y-8870492D01*
X89323656Y-8879780D01*
X89323657Y-8879780D01*
X89323660Y-8879781D01*
X89323662Y-8879781D01*
X89400500Y-8879781D01*
X89458691Y-8898688D01*
X89494655Y-8948188D01*
X89499500Y-8978781D01*
X89499500Y-12839564D01*
X89519977Y-12915985D01*
X89519979Y-12915990D01*
X89539326Y-12949500D01*
X89539327Y-12949501D01*
X89559540Y-12984511D01*
X90214536Y-13639507D01*
X90869453Y-14294424D01*
X90897230Y-14348941D01*
X90897441Y-14378514D01*
X90894354Y-14399997D01*
X90894353Y-14400002D01*
X90914834Y-14542456D01*
X90960504Y-14642457D01*
X90974623Y-14673373D01*
X91056827Y-14768242D01*
X91068873Y-14782144D01*
X91189942Y-14859950D01*
X91189947Y-14859953D01*
X91296403Y-14891211D01*
X91328035Y-14900499D01*
X91328036Y-14900499D01*
X91328039Y-14900500D01*
X91328041Y-14900500D01*
X91471959Y-14900500D01*
X91471961Y-14900500D01*
X91610053Y-14859953D01*
X91731128Y-14782143D01*
X91825377Y-14673373D01*
X91885165Y-14542457D01*
X91898386Y-14450500D01*
X91905647Y-14400002D01*
X91905647Y-14399997D01*
X91885165Y-14257543D01*
X91871046Y-14226627D01*
X91825377Y-14126627D01*
X91731128Y-14017857D01*
X91731127Y-14017856D01*
X91731126Y-14017855D01*
X91610057Y-13940049D01*
X91610054Y-13940047D01*
X91610053Y-13940047D01*
X91610050Y-13940046D01*
X91471964Y-13899500D01*
X91471961Y-13899500D01*
X91365479Y-13899500D01*
X91307288Y-13880593D01*
X91295475Y-13870504D01*
X90129496Y-12704525D01*
X90101719Y-12650008D01*
X90100500Y-12634521D01*
X90100500Y-11183714D01*
X91862500Y-11183714D01*
X91862500Y-11416285D01*
X91898879Y-11645977D01*
X91939817Y-11771970D01*
X91970747Y-11867163D01*
X92076328Y-12074379D01*
X92213026Y-12262527D01*
X92377473Y-12426974D01*
X92565621Y-12563672D01*
X92772837Y-12669253D01*
X92994018Y-12741119D01*
X92994019Y-12741119D01*
X92994022Y-12741120D01*
X93223715Y-12777500D01*
X93223718Y-12777500D01*
X93456285Y-12777500D01*
X93685977Y-12741120D01*
X93685978Y-12741119D01*
X93685982Y-12741119D01*
X93907163Y-12669253D01*
X94114379Y-12563672D01*
X94302527Y-12426974D01*
X94466974Y-12262527D01*
X94603672Y-12074379D01*
X94709253Y-11867163D01*
X94781119Y-11645982D01*
X94798829Y-11534165D01*
X94817500Y-11416285D01*
X94817500Y-11183714D01*
X94781120Y-10954022D01*
X94781119Y-10954018D01*
X94709253Y-10732837D01*
X94603672Y-10525621D01*
X94466974Y-10337473D01*
X94302527Y-10173026D01*
X94114379Y-10036328D01*
X94114378Y-10036327D01*
X94114376Y-10036326D01*
X93907163Y-9930747D01*
X93685977Y-9858879D01*
X93456285Y-9822500D01*
X93456282Y-9822500D01*
X93223718Y-9822500D01*
X93223715Y-9822500D01*
X92994022Y-9858879D01*
X92772836Y-9930747D01*
X92565623Y-10036326D01*
X92377474Y-10173025D01*
X92213025Y-10337474D01*
X92076326Y-10525623D01*
X91970747Y-10732836D01*
X91898879Y-10954022D01*
X91862500Y-11183714D01*
X90100500Y-11183714D01*
X90100500Y-8744097D01*
X90100499Y-8744095D01*
X90080021Y-8667671D01*
X90080019Y-8667667D01*
X90040460Y-8599149D01*
X89984511Y-8543199D01*
X89984511Y-8543200D01*
X89926167Y-8484856D01*
X89898390Y-8430339D01*
X89898179Y-8400763D01*
X89901268Y-8379281D01*
X89900418Y-8373371D01*
X89880786Y-8236824D01*
X89844579Y-8157543D01*
X89820998Y-8105908D01*
X89726749Y-7997138D01*
X89726748Y-7997137D01*
X89726747Y-7997136D01*
X89605678Y-7919330D01*
X89605675Y-7919328D01*
X89605674Y-7919328D01*
X89605671Y-7919327D01*
X89467585Y-7878781D01*
X89467582Y-7878781D01*
X89323660Y-7878781D01*
X89323656Y-7878781D01*
X89185570Y-7919327D01*
X89185563Y-7919330D01*
X89064494Y-7997136D01*
X88970243Y-8105909D01*
X88910455Y-8236824D01*
X88889974Y-8379278D01*
X86294249Y-8379278D01*
X86301407Y-8329489D01*
X86305647Y-8300002D01*
X86305647Y-8299997D01*
X86285165Y-8157543D01*
X86266323Y-8116285D01*
X86225377Y-8026627D01*
X86131128Y-7917857D01*
X86131127Y-7917856D01*
X86126491Y-7912506D01*
X86128524Y-7910743D01*
X86103067Y-7868505D01*
X86100500Y-7846105D01*
X86100500Y-5565478D01*
X86119407Y-5507287D01*
X86129490Y-5495480D01*
X86437834Y-5187136D01*
X89282500Y-5187136D01*
X89282500Y-5312864D01*
X89315041Y-5434308D01*
X89377905Y-5543192D01*
X89466808Y-5632095D01*
X89575692Y-5694959D01*
X89697136Y-5727500D01*
X89697138Y-5727500D01*
X89822862Y-5727500D01*
X89822864Y-5727500D01*
X89944308Y-5694959D01*
X90053192Y-5632095D01*
X90142095Y-5543192D01*
X90142098Y-5543186D01*
X90145518Y-5538731D01*
X90195943Y-5504076D01*
X90224059Y-5500000D01*
X90865000Y-5500000D01*
X90865000Y-6000000D01*
X90165001Y-6000000D01*
X90165000Y-6000001D01*
X90165000Y-6400956D01*
X90204390Y-6598981D01*
X90204390Y-6598983D01*
X90281653Y-6785515D01*
X90281659Y-6785527D01*
X90393830Y-6953399D01*
X90393833Y-6953403D01*
X90536596Y-7096166D01*
X90536600Y-7096169D01*
X90704472Y-7208340D01*
X90704484Y-7208346D01*
X90891016Y-7285609D01*
X90891019Y-7285610D01*
X90939999Y-7295352D01*
X90940000Y-7295352D01*
X90940000Y-6409618D01*
X90990446Y-6460064D01*
X91064555Y-6502851D01*
X91147213Y-6525000D01*
X91232787Y-6525000D01*
X91315445Y-6502851D01*
X91389554Y-6460064D01*
X91440000Y-6409618D01*
X91440000Y-7295352D01*
X91488980Y-7285610D01*
X91488983Y-7285609D01*
X91675515Y-7208346D01*
X91675527Y-7208340D01*
X91843399Y-7096169D01*
X91843403Y-7096166D01*
X91986166Y-6953403D01*
X91986169Y-6953399D01*
X92098340Y-6785527D01*
X92098346Y-6785515D01*
X92175609Y-6598983D01*
X92175609Y-6598981D01*
X92214999Y-6400956D01*
X92215000Y-6400952D01*
X92215000Y-6000001D01*
X92214999Y-6000000D01*
X91515000Y-6000000D01*
X91515000Y-5500000D01*
X92214999Y-5500000D01*
X92215000Y-5499999D01*
X92215000Y-5099047D01*
X92214999Y-5099043D01*
X92175609Y-4901018D01*
X92175609Y-4901016D01*
X92098346Y-4714484D01*
X92098340Y-4714472D01*
X91986169Y-4546600D01*
X91986166Y-4546596D01*
X91843403Y-4403833D01*
X91843399Y-4403830D01*
X91675527Y-4291659D01*
X91675515Y-4291653D01*
X91488984Y-4214390D01*
X91440000Y-4204646D01*
X91440000Y-5090382D01*
X91389554Y-5039936D01*
X91315445Y-4997149D01*
X91232787Y-4975000D01*
X91147213Y-4975000D01*
X91064555Y-4997149D01*
X90990446Y-5039936D01*
X90940000Y-5090382D01*
X90940000Y-4204646D01*
X90891015Y-4214390D01*
X90704484Y-4291653D01*
X90704472Y-4291659D01*
X90536600Y-4403830D01*
X90536596Y-4403833D01*
X90393833Y-4546596D01*
X90393830Y-4546600D01*
X90281659Y-4714472D01*
X90281655Y-4714481D01*
X90226503Y-4847631D01*
X90186766Y-4894156D01*
X90127272Y-4908440D01*
X90070744Y-4885025D01*
X90065048Y-4879761D01*
X90053192Y-4867905D01*
X89944308Y-4805041D01*
X89822864Y-4772500D01*
X89697136Y-4772500D01*
X89575692Y-4805041D01*
X89466808Y-4867905D01*
X89377905Y-4956808D01*
X89315041Y-5065692D01*
X89282500Y-5187136D01*
X86437834Y-5187136D01*
X87545474Y-4079495D01*
X87599991Y-4051719D01*
X87615478Y-4050500D01*
X87721959Y-4050500D01*
X87721961Y-4050500D01*
X87860053Y-4009953D01*
X87981128Y-3932143D01*
X88075377Y-3823373D01*
X88135165Y-3692457D01*
X88148832Y-3597401D01*
X88155647Y-3550002D01*
X88155647Y-3549997D01*
X88135165Y-3407543D01*
X88075377Y-3276627D01*
X87981128Y-3167857D01*
X87981127Y-3167856D01*
X87981126Y-3167855D01*
X87860057Y-3090049D01*
X87860054Y-3090047D01*
X87860053Y-3090047D01*
X87860050Y-3090046D01*
X87721964Y-3049500D01*
X87721961Y-3049500D01*
X87578039Y-3049500D01*
X87578035Y-3049500D01*
X87439949Y-3090046D01*
X87439942Y-3090049D01*
X87318873Y-3167855D01*
X87224622Y-3276628D01*
X87164834Y-3407543D01*
X87144353Y-3549997D01*
X87144353Y-3550003D01*
X87147441Y-3571482D01*
X87137007Y-3631771D01*
X87119453Y-3655574D01*
X85615489Y-5159540D01*
X85615488Y-5159539D01*
X85559539Y-5215489D01*
X85519980Y-5284007D01*
X85519978Y-5284011D01*
X85499500Y-5360435D01*
X85499500Y-7846105D01*
X85480593Y-7904296D01*
X85473258Y-7912289D01*
X85473509Y-7912506D01*
X85468872Y-7917856D01*
X85468872Y-7917857D01*
X85467596Y-7919330D01*
X85374622Y-8026628D01*
X85314834Y-8157543D01*
X85294353Y-8299997D01*
X80900500Y-8299997D01*
X80900500Y-5099043D01*
X81525000Y-5099043D01*
X81525000Y-5499999D01*
X81525001Y-5500000D01*
X82225000Y-5500000D01*
X82225000Y-6000000D01*
X81525001Y-6000000D01*
X81525000Y-6000001D01*
X81525000Y-6400956D01*
X81564390Y-6598981D01*
X81564390Y-6598983D01*
X81641653Y-6785515D01*
X81641659Y-6785527D01*
X81753830Y-6953399D01*
X81753833Y-6953403D01*
X81896596Y-7096166D01*
X81896600Y-7096169D01*
X82064472Y-7208340D01*
X82064484Y-7208346D01*
X82251016Y-7285609D01*
X82251019Y-7285610D01*
X82299999Y-7295352D01*
X82300000Y-7295352D01*
X82300000Y-6409618D01*
X82350446Y-6460064D01*
X82424555Y-6502851D01*
X82507213Y-6525000D01*
X82592787Y-6525000D01*
X82675445Y-6502851D01*
X82749554Y-6460064D01*
X82800000Y-6409618D01*
X82800000Y-7295352D01*
X82848980Y-7285610D01*
X82848983Y-7285609D01*
X83035515Y-7208346D01*
X83035527Y-7208340D01*
X83203399Y-7096169D01*
X83203403Y-7096166D01*
X83346166Y-6953403D01*
X83346169Y-6953399D01*
X83458340Y-6785527D01*
X83458346Y-6785515D01*
X83535609Y-6598983D01*
X83535609Y-6598981D01*
X83574999Y-6400956D01*
X83575000Y-6400952D01*
X83575000Y-6000001D01*
X83574999Y-6000000D01*
X82875000Y-6000000D01*
X82875000Y-5500000D01*
X83515941Y-5500000D01*
X83574132Y-5518907D01*
X83594482Y-5538731D01*
X83597902Y-5543188D01*
X83597903Y-5543189D01*
X83597905Y-5543192D01*
X83686808Y-5632095D01*
X83795692Y-5694959D01*
X83917136Y-5727500D01*
X83917138Y-5727500D01*
X84042862Y-5727500D01*
X84042864Y-5727500D01*
X84164308Y-5694959D01*
X84273192Y-5632095D01*
X84362095Y-5543192D01*
X84424959Y-5434308D01*
X84457500Y-5312864D01*
X84457500Y-5187136D01*
X84424959Y-5065692D01*
X84362095Y-4956808D01*
X84273192Y-4867905D01*
X84164308Y-4805041D01*
X84042864Y-4772500D01*
X83917136Y-4772500D01*
X83795692Y-4805041D01*
X83709703Y-4854687D01*
X83686805Y-4867907D01*
X83674961Y-4879751D01*
X83620444Y-4907527D01*
X83560012Y-4897953D01*
X83516749Y-4854687D01*
X83513496Y-4847630D01*
X83458346Y-4714484D01*
X83458340Y-4714472D01*
X83346169Y-4546600D01*
X83346166Y-4546596D01*
X83203403Y-4403833D01*
X83203399Y-4403830D01*
X83035527Y-4291659D01*
X83035515Y-4291653D01*
X82848984Y-4214390D01*
X82800000Y-4204646D01*
X82800000Y-5090382D01*
X82749554Y-5039936D01*
X82675445Y-4997149D01*
X82592787Y-4975000D01*
X82507213Y-4975000D01*
X82424555Y-4997149D01*
X82350446Y-5039936D01*
X82300000Y-5090382D01*
X82300000Y-4204646D01*
X82251015Y-4214390D01*
X82064484Y-4291653D01*
X82064472Y-4291659D01*
X81896600Y-4403830D01*
X81896596Y-4403833D01*
X81753833Y-4546596D01*
X81753830Y-4546600D01*
X81641659Y-4714472D01*
X81641653Y-4714484D01*
X81564390Y-4901016D01*
X81564390Y-4901018D01*
X81525000Y-5099043D01*
X80900500Y-5099043D01*
X80900500Y-1072629D01*
X80900502Y-1072584D01*
X80900501Y-1066015D01*
X80900503Y-1066011D01*
X80900500Y-1005711D01*
X80901131Y-994553D01*
X80911936Y-899301D01*
X80916935Y-877559D01*
X80946937Y-792459D01*
X80956680Y-772389D01*
X81004991Y-696174D01*
X81018984Y-678796D01*
X81083144Y-615343D01*
X81100669Y-601548D01*
X81177422Y-554082D01*
X81197589Y-544566D01*
X81283027Y-515505D01*
X81304821Y-510749D01*
X81399864Y-501033D01*
X81411012Y-500527D01*
X81471646Y-501202D01*
X81471648Y-501201D01*
X81471699Y-501202D01*
X81483415Y-500500D01*
X81599417Y-500500D01*
X81657608Y-519407D01*
X81693572Y-568907D01*
X81693572Y-630093D01*
X81681732Y-654502D01*
X81641659Y-714473D01*
X81641653Y-714484D01*
X81564390Y-901016D01*
X81564390Y-901018D01*
X81525000Y-1099043D01*
X81525000Y-1349999D01*
X81525001Y-1350000D01*
X82225000Y-1350000D01*
X82225000Y-1850000D01*
X81525001Y-1850000D01*
X81525000Y-1850001D01*
X81525000Y-2100956D01*
X81564390Y-2298981D01*
X81564390Y-2298983D01*
X81641653Y-2485515D01*
X81641659Y-2485527D01*
X81753830Y-2653399D01*
X81753833Y-2653403D01*
X81896596Y-2796166D01*
X81896600Y-2796169D01*
X82064472Y-2908340D01*
X82064484Y-2908346D01*
X82251016Y-2985609D01*
X82251019Y-2985610D01*
X82300000Y-2995352D01*
X82300000Y-2209618D01*
X82350446Y-2260064D01*
X82424555Y-2302851D01*
X82507213Y-2325000D01*
X82592787Y-2325000D01*
X82675445Y-2302851D01*
X82749554Y-2260064D01*
X82800000Y-2209618D01*
X82800000Y-2995352D01*
X82848980Y-2985610D01*
X82848983Y-2985609D01*
X83035515Y-2908346D01*
X83035527Y-2908340D01*
X83203399Y-2796169D01*
X83203403Y-2796166D01*
X83346166Y-2653403D01*
X83346169Y-2653399D01*
X83458340Y-2485527D01*
X83458346Y-2485515D01*
X83535609Y-2298983D01*
X83535609Y-2298981D01*
X83574999Y-2100956D01*
X83575000Y-2100952D01*
X83575000Y-1850001D01*
X83574999Y-1850000D01*
X82875000Y-1850000D01*
X82875000Y-1350000D01*
X83574999Y-1350000D01*
X83575000Y-1349999D01*
X83575000Y-1099047D01*
X83574999Y-1099043D01*
X83535609Y-901018D01*
X83535609Y-901016D01*
X83458346Y-714484D01*
X83458340Y-714473D01*
X83418268Y-654502D01*
X83401659Y-595614D01*
X83422836Y-538210D01*
X83473710Y-504217D01*
X83500583Y-500500D01*
X90239417Y-500500D01*
X90297608Y-519407D01*
X90333572Y-568907D01*
X90333572Y-630093D01*
X90321732Y-654502D01*
X90281659Y-714473D01*
X90281653Y-714484D01*
X90204390Y-901016D01*
X90204390Y-901018D01*
X90165000Y-1099043D01*
X90165000Y-1349999D01*
X90165001Y-1350000D01*
X90865000Y-1350000D01*
X90865000Y-1850000D01*
X90165001Y-1850000D01*
X90165000Y-1850001D01*
X90165000Y-2100956D01*
X90204390Y-2298981D01*
X90204390Y-2298983D01*
X90281653Y-2485515D01*
X90281659Y-2485527D01*
X90393830Y-2653399D01*
X90393833Y-2653403D01*
X90536596Y-2796166D01*
X90536600Y-2796169D01*
X90704472Y-2908340D01*
X90704484Y-2908346D01*
X90891016Y-2985609D01*
X90891019Y-2985610D01*
X90939999Y-2995352D01*
X90940000Y-2995352D01*
X90940000Y-2209618D01*
X90990446Y-2260064D01*
X91064555Y-2302851D01*
X91147213Y-2325000D01*
X91232787Y-2325000D01*
X91315445Y-2302851D01*
X91389554Y-2260064D01*
X91440000Y-2209618D01*
X91440000Y-2995352D01*
X91488980Y-2985610D01*
X91488983Y-2985609D01*
X91675515Y-2908346D01*
X91675527Y-2908340D01*
X91843399Y-2796169D01*
X91843403Y-2796166D01*
X91986166Y-2653403D01*
X91986169Y-2653399D01*
X92098340Y-2485527D01*
X92098346Y-2485515D01*
X92175609Y-2298983D01*
X92175609Y-2298981D01*
X92214999Y-2100956D01*
X92215000Y-2100952D01*
X92215000Y-1850001D01*
X92214999Y-1850000D01*
X91515000Y-1850000D01*
X91515000Y-1350000D01*
X92214999Y-1350000D01*
X92215000Y-1349999D01*
X92215000Y-1099047D01*
X92214999Y-1099043D01*
X92175609Y-901018D01*
X92175609Y-901016D01*
X92098346Y-714484D01*
X92098340Y-714473D01*
X92058268Y-654502D01*
X92041659Y-595614D01*
X92062836Y-538210D01*
X92113710Y-504217D01*
X92140583Y-500500D01*
X92474108Y-500500D01*
X92537391Y-500500D01*
X92542587Y-500636D01*
X92551967Y-501129D01*
X92859731Y-517305D01*
X92870061Y-518394D01*
X93181124Y-567806D01*
X93191278Y-569970D01*
X93495454Y-651722D01*
X93505327Y-654940D01*
X93799260Y-768127D01*
X93808743Y-772364D01*
X94089188Y-915740D01*
X94098162Y-920939D01*
X94127309Y-939936D01*
X94362035Y-1092926D01*
X94370431Y-1099049D01*
X94468878Y-1179091D01*
X94614826Y-1297754D01*
X94622509Y-1304702D01*
X94844722Y-1527926D01*
X94851657Y-1535666D01*
X95049243Y-1780953D01*
X95055328Y-1789377D01*
X95226106Y-2054016D01*
X95231275Y-2063032D01*
X95373372Y-2344120D01*
X95377567Y-2353628D01*
X95489412Y-2648054D01*
X95492588Y-2657949D01*
X95572954Y-2962488D01*
X95575075Y-2972662D01*
X95623074Y-3283951D01*
X95624116Y-3294291D01*
X95639377Y-3612186D01*
X95639490Y-3617382D01*
X95639189Y-3683649D01*
X95639500Y-3688551D01*
X95639500Y-27296486D01*
X95639248Y-27303550D01*
X95624739Y-27506366D01*
X95622728Y-27520348D01*
X95580258Y-27715558D01*
X95576279Y-27729110D01*
X95506459Y-27916297D01*
X95500591Y-27929145D01*
X95404841Y-28104494D01*
X95397204Y-28116377D01*
X95277480Y-28276306D01*
X95268230Y-28286981D01*
X95126961Y-28428247D01*
X95116286Y-28437497D01*
X94956347Y-28557224D01*
X94944471Y-28564855D01*
X94819474Y-28633108D01*
X94769125Y-28660601D01*
X94756277Y-28666468D01*
X94569090Y-28736285D01*
X94555537Y-28740265D01*
X94360316Y-28782733D01*
X94346334Y-28784743D01*
X94143524Y-28799248D01*
X94136462Y-28799500D01*
X86969095Y-28799500D01*
X86910904Y-28780593D01*
X86874940Y-28731093D01*
X86870189Y-28696183D01*
X86870709Y-28684264D01*
X85801716Y-27615271D01*
X85919466Y-27529722D01*
X86069722Y-27379466D01*
X86155271Y-27261716D01*
X87227642Y-28334087D01*
X87425174Y-28068756D01*
X87425176Y-28068753D01*
X87591168Y-27781245D01*
X87591171Y-27781238D01*
X87722662Y-27476410D01*
X87722664Y-27476403D01*
X87817878Y-27158367D01*
X87817878Y-27158366D01*
X87875526Y-26831428D01*
X87894829Y-26500000D01*
X87875526Y-26168571D01*
X87817878Y-25841633D01*
X87817878Y-25841632D01*
X87722664Y-25523596D01*
X87722662Y-25523589D01*
X87591171Y-25218761D01*
X87591168Y-25218754D01*
X87425176Y-24931246D01*
X87425174Y-24931243D01*
X87227642Y-24665911D01*
X86155270Y-25738282D01*
X86069722Y-25620534D01*
X85919466Y-25470278D01*
X85801715Y-25384727D01*
X86870708Y-24315735D01*
X86744784Y-24210074D01*
X86467416Y-24027645D01*
X86170742Y-23878650D01*
X86170738Y-23878649D01*
X85858769Y-23765101D01*
X85535746Y-23688542D01*
X85205991Y-23650000D01*
X84874009Y-23650000D01*
X84544253Y-23688542D01*
X84221230Y-23765101D01*
X83909261Y-23878649D01*
X83909257Y-23878650D01*
X83612583Y-24027645D01*
X83335211Y-24210077D01*
X83209290Y-24315735D01*
X84278283Y-25384728D01*
X84160534Y-25470278D01*
X84010278Y-25620534D01*
X83924728Y-25738283D01*
X82852356Y-24665911D01*
X82654831Y-24931233D01*
X82654828Y-24931239D01*
X82488831Y-25218754D01*
X82488828Y-25218761D01*
X82357337Y-25523589D01*
X82357335Y-25523596D01*
X82262121Y-25841632D01*
X82262121Y-25841633D01*
X82204473Y-26168571D01*
X82185170Y-26500000D01*
X82204473Y-26831428D01*
X82262121Y-27158366D01*
X82262121Y-27158367D01*
X82357335Y-27476403D01*
X82357337Y-27476410D01*
X82488828Y-27781238D01*
X82488831Y-27781245D01*
X82654823Y-28068753D01*
X82654825Y-28068756D01*
X82852356Y-28334087D01*
X83924727Y-27261715D01*
X84010278Y-27379466D01*
X84160534Y-27529722D01*
X84278282Y-27615270D01*
X83209289Y-28684264D01*
X83209810Y-28696183D01*
X83193458Y-28755142D01*
X83145574Y-28793231D01*
X83110904Y-28799500D01*
X2003541Y-28799500D01*
X1996478Y-28799248D01*
X1793656Y-28784741D01*
X1779675Y-28782730D01*
X1584465Y-28740264D01*
X1570912Y-28736285D01*
X1383721Y-28666466D01*
X1370872Y-28660598D01*
X1195525Y-28564851D01*
X1183643Y-28557215D01*
X1023709Y-28437490D01*
X1013033Y-28428240D01*
X871759Y-28286966D01*
X862509Y-28276290D01*
X742784Y-28116356D01*
X735148Y-28104474D01*
X715644Y-28068756D01*
X639400Y-27929125D01*
X633533Y-27916278D01*
X615993Y-27869253D01*
X571922Y-27751094D01*
X563714Y-27729087D01*
X559735Y-27715534D01*
X540470Y-27626974D01*
X517268Y-27520320D01*
X515258Y-27506343D01*
X500752Y-27303522D01*
X500500Y-27296459D01*
X500500Y-26383714D01*
X9622500Y-26383714D01*
X9622500Y-26616285D01*
X9658879Y-26845977D01*
X9730747Y-27067163D01*
X9815809Y-27234109D01*
X9836328Y-27274379D01*
X9973026Y-27462527D01*
X10137473Y-27626974D01*
X10325621Y-27763672D01*
X10532837Y-27869253D01*
X10754018Y-27941119D01*
X10754019Y-27941119D01*
X10754022Y-27941120D01*
X10983715Y-27977500D01*
X10983718Y-27977500D01*
X11216285Y-27977500D01*
X11445977Y-27941120D01*
X11445978Y-27941119D01*
X11445982Y-27941119D01*
X11667163Y-27869253D01*
X11874379Y-27763672D01*
X12062527Y-27626974D01*
X12226974Y-27462527D01*
X12363672Y-27274379D01*
X12469253Y-27067163D01*
X12541119Y-26845982D01*
X12577500Y-26616282D01*
X12577500Y-26383718D01*
X12577500Y-26383714D01*
X12541120Y-26154022D01*
X12538658Y-26146444D01*
X12469253Y-25932837D01*
X12363672Y-25725621D01*
X12226974Y-25537473D01*
X12062527Y-25373026D01*
X11874379Y-25236328D01*
X11874378Y-25236327D01*
X11874376Y-25236326D01*
X11667163Y-25130747D01*
X11445977Y-25058879D01*
X11216285Y-25022500D01*
X11216282Y-25022500D01*
X10983718Y-25022500D01*
X10983715Y-25022500D01*
X10754022Y-25058879D01*
X10532836Y-25130747D01*
X10325623Y-25236326D01*
X10137474Y-25373025D01*
X9973025Y-25537474D01*
X9836326Y-25725623D01*
X9730747Y-25932836D01*
X9658879Y-26154022D01*
X9622500Y-26383714D01*
X500500Y-26383714D01*
X500500Y-24700000D01*
X30294355Y-24700000D01*
X30314860Y-24868872D01*
X30375182Y-25027930D01*
X30471817Y-25167929D01*
X30599148Y-25280734D01*
X30749775Y-25359790D01*
X30914944Y-25400500D01*
X30914947Y-25400500D01*
X31085053Y-25400500D01*
X31085056Y-25400500D01*
X31250225Y-25359790D01*
X31400852Y-25280734D01*
X31528183Y-25167929D01*
X31624818Y-25027930D01*
X31635411Y-24999997D01*
X35394353Y-24999997D01*
X35394353Y-25000002D01*
X35414834Y-25142456D01*
X35426468Y-25167930D01*
X35474623Y-25273373D01*
X35558787Y-25370504D01*
X35568873Y-25382144D01*
X35597436Y-25400500D01*
X35689947Y-25459953D01*
X35796403Y-25491211D01*
X35828035Y-25500499D01*
X35828036Y-25500499D01*
X35828039Y-25500500D01*
X35828041Y-25500500D01*
X35934521Y-25500500D01*
X35992712Y-25519407D01*
X36004525Y-25529496D01*
X36359540Y-25884511D01*
X36359539Y-25884511D01*
X36415489Y-25940460D01*
X36484007Y-25980019D01*
X36484011Y-25980021D01*
X36560435Y-26000499D01*
X36560437Y-26000500D01*
X36560438Y-26000500D01*
X41039563Y-26000500D01*
X41039563Y-26000499D01*
X41115989Y-25980021D01*
X41184511Y-25940460D01*
X41240460Y-25884511D01*
X42595475Y-24529496D01*
X42649992Y-24501719D01*
X42665479Y-24500500D01*
X45295353Y-24500500D01*
X45353544Y-24519407D01*
X45389508Y-24568907D01*
X45393322Y-24592995D01*
X45393345Y-24592992D01*
X45393568Y-24594545D01*
X45394353Y-24599500D01*
X45394353Y-24600002D01*
X45414834Y-24742456D01*
X45472567Y-24868872D01*
X45474623Y-24873373D01*
X45524770Y-24931246D01*
X45568873Y-24982144D01*
X45688279Y-25058881D01*
X45689947Y-25059953D01*
X45796403Y-25091211D01*
X45828035Y-25100499D01*
X45828036Y-25100499D01*
X45828039Y-25100500D01*
X45828041Y-25100500D01*
X45971959Y-25100500D01*
X45971961Y-25100500D01*
X46110053Y-25059953D01*
X46231128Y-24982143D01*
X46325377Y-24873373D01*
X46385165Y-24742457D01*
X46405647Y-24600000D01*
X46405575Y-24599500D01*
X46385165Y-24457543D01*
X46358657Y-24399500D01*
X46325377Y-24326627D01*
X46231128Y-24217857D01*
X46110053Y-24140047D01*
X46110052Y-24140046D01*
X46106790Y-24137950D01*
X46068059Y-24090584D01*
X46064566Y-24029498D01*
X46097646Y-23978026D01*
X46106791Y-23971382D01*
X46207891Y-23906409D01*
X46207890Y-23906409D01*
X46207893Y-23906408D01*
X46302142Y-23797638D01*
X46361930Y-23666722D01*
X46377281Y-23559953D01*
X46382412Y-23524267D01*
X46382412Y-23524262D01*
X46361930Y-23381808D01*
X46302142Y-23250893D01*
X46302142Y-23250892D01*
X46229119Y-23166618D01*
X46205303Y-23110260D01*
X46219162Y-23050665D01*
X46229121Y-23036958D01*
X46231125Y-23034644D01*
X46231128Y-23034643D01*
X46325377Y-22925873D01*
X46385165Y-22794957D01*
X46405647Y-22652500D01*
X46405646Y-22652496D01*
X46385165Y-22510043D01*
X46353387Y-22440460D01*
X46325377Y-22379127D01*
X46231128Y-22270357D01*
X46231127Y-22270356D01*
X46231126Y-22270355D01*
X46110057Y-22192549D01*
X46110054Y-22192547D01*
X46110053Y-22192547D01*
X46110050Y-22192546D01*
X45971964Y-22152000D01*
X45971961Y-22152000D01*
X45828039Y-22152000D01*
X45828035Y-22152000D01*
X45689949Y-22192546D01*
X45689942Y-22192549D01*
X45568873Y-22270355D01*
X45474622Y-22379128D01*
X45414834Y-22510043D01*
X45394353Y-22652496D01*
X45394353Y-22652497D01*
X45394353Y-22652500D01*
X45397442Y-22673983D01*
X45387007Y-22734272D01*
X45369453Y-22758074D01*
X45057026Y-23070503D01*
X45002509Y-23098281D01*
X44987022Y-23099500D01*
X42165479Y-23099500D01*
X42107288Y-23080593D01*
X42095476Y-23070504D01*
X41984511Y-22959540D01*
X41949965Y-22939594D01*
X41949965Y-22939595D01*
X41915989Y-22919979D01*
X41915988Y-22919978D01*
X41915987Y-22919978D01*
X41839564Y-22899500D01*
X41839562Y-22899500D01*
X40060438Y-22899500D01*
X40060435Y-22899500D01*
X39984012Y-22919978D01*
X39950035Y-22939595D01*
X39950034Y-22939594D01*
X39915490Y-22959539D01*
X38504524Y-24370504D01*
X38450007Y-24398281D01*
X38434520Y-24399500D01*
X38328035Y-24399500D01*
X38189949Y-24440046D01*
X38189942Y-24440049D01*
X38068873Y-24517855D01*
X37974622Y-24626628D01*
X37914834Y-24757543D01*
X37894353Y-24899997D01*
X37894353Y-24900002D01*
X37914834Y-25042456D01*
X37974623Y-25173373D01*
X38028602Y-25235669D01*
X38052420Y-25292028D01*
X38038561Y-25351624D01*
X37992320Y-25391691D01*
X37953783Y-25399500D01*
X36765479Y-25399500D01*
X36707288Y-25380593D01*
X36695475Y-25370504D01*
X36430546Y-25105575D01*
X36402769Y-25051058D01*
X36402558Y-25021482D01*
X36405647Y-25000000D01*
X36395761Y-24931243D01*
X36385165Y-24857543D01*
X36325377Y-24726628D01*
X36325377Y-24726627D01*
X36231128Y-24617857D01*
X36231127Y-24617856D01*
X36231126Y-24617855D01*
X36110057Y-24540049D01*
X36110054Y-24540047D01*
X36110053Y-24540047D01*
X36110050Y-24540046D01*
X35971964Y-24499500D01*
X35971961Y-24499500D01*
X35828039Y-24499500D01*
X35828035Y-24499500D01*
X35689949Y-24540046D01*
X35689942Y-24540049D01*
X35568873Y-24617855D01*
X35474622Y-24726628D01*
X35414834Y-24857543D01*
X35394353Y-24999997D01*
X31635411Y-24999997D01*
X31685140Y-24868872D01*
X31705645Y-24700000D01*
X31685140Y-24531128D01*
X31624818Y-24372070D01*
X31528183Y-24232071D01*
X31503353Y-24210074D01*
X31400853Y-24119267D01*
X31400852Y-24119266D01*
X31250225Y-24040210D01*
X31250224Y-24040209D01*
X31250223Y-24040209D01*
X31085058Y-23999500D01*
X31085056Y-23999500D01*
X30914944Y-23999500D01*
X30914941Y-23999500D01*
X30749776Y-24040209D01*
X30599146Y-24119267D01*
X30471818Y-24232069D01*
X30471816Y-24232072D01*
X30376263Y-24370504D01*
X30375182Y-24372070D01*
X30314860Y-24531128D01*
X30294355Y-24700000D01*
X500500Y-24700000D01*
X500500Y-23599997D01*
X17094353Y-23599997D01*
X17094353Y-23600002D01*
X17114834Y-23742456D01*
X17152275Y-23824439D01*
X17174623Y-23873373D01*
X17179195Y-23878649D01*
X17268873Y-23982144D01*
X17389942Y-24059950D01*
X17389947Y-24059953D01*
X17494268Y-24090584D01*
X17528035Y-24100499D01*
X17528036Y-24100499D01*
X17528039Y-24100500D01*
X17528041Y-24100500D01*
X17671959Y-24100500D01*
X17671961Y-24100500D01*
X17810053Y-24059953D01*
X17931128Y-23982143D01*
X18025377Y-23873373D01*
X18069776Y-23776151D01*
X18089821Y-23747280D01*
X20670609Y-21166493D01*
X20712718Y-21141510D01*
X20735053Y-21134953D01*
X20856128Y-21057143D01*
X20950377Y-20948373D01*
X21010165Y-20817457D01*
X21027097Y-20699690D01*
X21030647Y-20675002D01*
X21030647Y-20674997D01*
X21010165Y-20532543D01*
X20994774Y-20498841D01*
X20950377Y-20401627D01*
X20856128Y-20292857D01*
X20856127Y-20292856D01*
X20856126Y-20292855D01*
X20735057Y-20215049D01*
X20735054Y-20215047D01*
X20735053Y-20215047D01*
X20735050Y-20215046D01*
X20596964Y-20174500D01*
X20596961Y-20174500D01*
X20453039Y-20174500D01*
X20453035Y-20174500D01*
X20314949Y-20215046D01*
X20314942Y-20215049D01*
X20193873Y-20292855D01*
X20099621Y-20401628D01*
X20055225Y-20498841D01*
X20035176Y-20527718D01*
X17454392Y-23108503D01*
X17412281Y-23133488D01*
X17389949Y-23140045D01*
X17389947Y-23140046D01*
X17268873Y-23217855D01*
X17174622Y-23326628D01*
X17114834Y-23457543D01*
X17094353Y-23599997D01*
X500500Y-23599997D01*
X500500Y-16799997D01*
X23981853Y-16799997D01*
X23981853Y-16800002D01*
X24002334Y-16942456D01*
X24040775Y-17026628D01*
X24062123Y-17073373D01*
X24135056Y-17157543D01*
X24156373Y-17182144D01*
X24277442Y-17259950D01*
X24277447Y-17259953D01*
X24383903Y-17291211D01*
X24415535Y-17300499D01*
X24415536Y-17300499D01*
X24415539Y-17300500D01*
X24415541Y-17300500D01*
X24522021Y-17300500D01*
X24580212Y-17319407D01*
X24592025Y-17329496D01*
X26493025Y-19230496D01*
X26520802Y-19285013D01*
X26511231Y-19345445D01*
X26467966Y-19388710D01*
X26423021Y-19399500D01*
X25009780Y-19399500D01*
X24951589Y-19380593D01*
X24919726Y-19341625D01*
X24912877Y-19326627D01*
X24818628Y-19217857D01*
X24818627Y-19217856D01*
X24818626Y-19217855D01*
X24697557Y-19140049D01*
X24697554Y-19140047D01*
X24697553Y-19140047D01*
X24697550Y-19140046D01*
X24559464Y-19099500D01*
X24559461Y-19099500D01*
X24415539Y-19099500D01*
X24415535Y-19099500D01*
X24277449Y-19140046D01*
X24277442Y-19140049D01*
X24156373Y-19217855D01*
X24062122Y-19326628D01*
X24002334Y-19457543D01*
X23981853Y-19599997D01*
X23981853Y-19600002D01*
X24002334Y-19742456D01*
X24036768Y-19817855D01*
X24062123Y-19873373D01*
X24119895Y-19940046D01*
X24156373Y-19982144D01*
X24273697Y-20057543D01*
X24277447Y-20059953D01*
X24383903Y-20091211D01*
X24415535Y-20100499D01*
X24415536Y-20100499D01*
X24415539Y-20100500D01*
X24415541Y-20100500D01*
X24559459Y-20100500D01*
X24559461Y-20100500D01*
X24697553Y-20059953D01*
X24765610Y-20016215D01*
X24819132Y-20000500D01*
X29934521Y-20000500D01*
X29992712Y-20019407D01*
X30004525Y-20029496D01*
X32359540Y-22384511D01*
X32359539Y-22384511D01*
X32415489Y-22440460D01*
X32484007Y-22480019D01*
X32484011Y-22480021D01*
X32560435Y-22500499D01*
X32560437Y-22500500D01*
X32560438Y-22500500D01*
X32639562Y-22500500D01*
X35569923Y-22500500D01*
X35628114Y-22519407D01*
X35664078Y-22568907D01*
X35664078Y-22630093D01*
X35628114Y-22679593D01*
X35623447Y-22682784D01*
X35568872Y-22717857D01*
X35474622Y-22826628D01*
X35414834Y-22957543D01*
X35394353Y-23099997D01*
X35394353Y-23100002D01*
X35414834Y-23242456D01*
X35453275Y-23326628D01*
X35474623Y-23373373D01*
X35547556Y-23457543D01*
X35568873Y-23482144D01*
X35689942Y-23559950D01*
X35689947Y-23559953D01*
X35796403Y-23591211D01*
X35828035Y-23600499D01*
X35828036Y-23600499D01*
X35828039Y-23600500D01*
X35828041Y-23600500D01*
X35971959Y-23600500D01*
X35971961Y-23600500D01*
X36110053Y-23559953D01*
X36231128Y-23482143D01*
X36325377Y-23373373D01*
X36385165Y-23242457D01*
X36399889Y-23140046D01*
X36405647Y-23100002D01*
X36405647Y-23100000D01*
X36405050Y-23095848D01*
X36402558Y-23078517D01*
X36412990Y-23018228D01*
X36430547Y-22994423D01*
X36495475Y-22929496D01*
X36549992Y-22901719D01*
X36565478Y-22900500D01*
X39467993Y-22900500D01*
X39467993Y-22900499D01*
X39544419Y-22880021D01*
X39612941Y-22840460D01*
X39668890Y-22784511D01*
X41023905Y-21429496D01*
X41078422Y-21401719D01*
X41093909Y-21400500D01*
X41452917Y-21400500D01*
X41511108Y-21419407D01*
X41527733Y-21434667D01*
X41568872Y-21482143D01*
X41689947Y-21559953D01*
X41796403Y-21591211D01*
X41828035Y-21600499D01*
X41828036Y-21600499D01*
X41828039Y-21600500D01*
X41828041Y-21600500D01*
X41971959Y-21600500D01*
X41971961Y-21600500D01*
X42110053Y-21559953D01*
X42231128Y-21482143D01*
X42325377Y-21373373D01*
X42385165Y-21242457D01*
X42405647Y-21100000D01*
X42405575Y-21099500D01*
X42385165Y-20957543D01*
X42377440Y-20940627D01*
X42370465Y-20879840D01*
X42400551Y-20826563D01*
X42456207Y-20801145D01*
X42467493Y-20800500D01*
X45639560Y-20800500D01*
X45639562Y-20800500D01*
X45658974Y-20795298D01*
X45712491Y-20795935D01*
X45728033Y-20800499D01*
X45728038Y-20800499D01*
X45728039Y-20800500D01*
X45728040Y-20800500D01*
X45871959Y-20800500D01*
X45871961Y-20800500D01*
X46010053Y-20759953D01*
X46131128Y-20682143D01*
X46225377Y-20573373D01*
X46285165Y-20442457D01*
X46299543Y-20342456D01*
X46305647Y-20300002D01*
X46305647Y-20299997D01*
X46285165Y-20157543D01*
X46259114Y-20100500D01*
X46225377Y-20026627D01*
X46131128Y-19917857D01*
X46131127Y-19917856D01*
X46126491Y-19912506D01*
X46129040Y-19910296D01*
X46104732Y-19869863D01*
X46110049Y-19808909D01*
X46126364Y-19782746D01*
X46194817Y-19703747D01*
X46254605Y-19572831D01*
X46275087Y-19430374D01*
X46254605Y-19287917D01*
X46194817Y-19157001D01*
X46100568Y-19048231D01*
X46059640Y-19021928D01*
X46020909Y-18974561D01*
X46017417Y-18913476D01*
X46038343Y-18873815D01*
X46125377Y-18773373D01*
X46185165Y-18642457D01*
X46199543Y-18542456D01*
X46205647Y-18500002D01*
X46205647Y-18499997D01*
X46185165Y-18357543D01*
X46125377Y-18226628D01*
X46125377Y-18226627D01*
X46031128Y-18117857D01*
X46031127Y-18117856D01*
X46031126Y-18117855D01*
X45910057Y-18040049D01*
X45910054Y-18040047D01*
X45910053Y-18040047D01*
X45910050Y-18040046D01*
X45771964Y-17999500D01*
X45771961Y-17999500D01*
X45628039Y-17999500D01*
X45628035Y-17999500D01*
X45489949Y-18040046D01*
X45489942Y-18040049D01*
X45368873Y-18117855D01*
X45274622Y-18226628D01*
X45214834Y-18357543D01*
X45194353Y-18499997D01*
X45194353Y-18500003D01*
X45197441Y-18521482D01*
X45187007Y-18581771D01*
X45169453Y-18605573D01*
X44404525Y-19370503D01*
X44350008Y-19398281D01*
X44334521Y-19399500D01*
X41030165Y-19399500D01*
X40971974Y-19380593D01*
X40936010Y-19331093D01*
X40936010Y-19269907D01*
X40960161Y-19230496D01*
X42693661Y-17496996D01*
X42748178Y-17469219D01*
X42763665Y-17468000D01*
X44872063Y-17468000D01*
X44872063Y-17467999D01*
X44948489Y-17447521D01*
X45017011Y-17407960D01*
X45054437Y-17370534D01*
X45072961Y-17352011D01*
X45295473Y-17129497D01*
X45349990Y-17101719D01*
X45365477Y-17100500D01*
X45471959Y-17100500D01*
X45471961Y-17100500D01*
X45610053Y-17059953D01*
X45731128Y-16982143D01*
X45825377Y-16873373D01*
X45885165Y-16742457D01*
X45904094Y-16610801D01*
X45905647Y-16600002D01*
X45905647Y-16599997D01*
X45885165Y-16457543D01*
X45845694Y-16371115D01*
X45825377Y-16326627D01*
X45731128Y-16217857D01*
X45731127Y-16217856D01*
X45731126Y-16217855D01*
X45610057Y-16140049D01*
X45610054Y-16140047D01*
X45610053Y-16140047D01*
X45610050Y-16140046D01*
X45471964Y-16099500D01*
X45471961Y-16099500D01*
X45328039Y-16099500D01*
X45328035Y-16099500D01*
X45189949Y-16140046D01*
X45189942Y-16140049D01*
X45068873Y-16217855D01*
X44974622Y-16326628D01*
X44914834Y-16457543D01*
X44894353Y-16599996D01*
X44894353Y-16599997D01*
X44894353Y-16600000D01*
X44897442Y-16621483D01*
X44887007Y-16681772D01*
X44869453Y-16705574D01*
X44737026Y-16838003D01*
X44682510Y-16865781D01*
X44667022Y-16867000D01*
X42996979Y-16867000D01*
X42938788Y-16848093D01*
X42902824Y-16798593D01*
X42902824Y-16737407D01*
X42926975Y-16697996D01*
X44595475Y-15029496D01*
X44649992Y-15001719D01*
X44665479Y-15000500D01*
X46004290Y-15000500D01*
X46062481Y-15019407D01*
X46085762Y-15043258D01*
X46171817Y-15167929D01*
X46299148Y-15280734D01*
X46449775Y-15359790D01*
X46614944Y-15400500D01*
X46614947Y-15400500D01*
X46785053Y-15400500D01*
X46785056Y-15400500D01*
X46950225Y-15359790D01*
X47100852Y-15280734D01*
X47228183Y-15167929D01*
X47324818Y-15027930D01*
X47385140Y-14868872D01*
X47405645Y-14700000D01*
X47385140Y-14531128D01*
X47385139Y-14531127D01*
X47384418Y-14525183D01*
X47385877Y-14525005D01*
X47389795Y-14471022D01*
X47429247Y-14424255D01*
X47488654Y-14409610D01*
X47519400Y-14419052D01*
X47520120Y-14417316D01*
X47526109Y-14419796D01*
X47526113Y-14419799D01*
X47550322Y-14426284D01*
X47550325Y-14426287D01*
X47550326Y-14426286D01*
X47640688Y-14450499D01*
X47640690Y-14450500D01*
X47640691Y-14450500D01*
X57372389Y-14450500D01*
X57430580Y-14469407D01*
X57442393Y-14479496D01*
X59423386Y-16460489D01*
X59475088Y-16490339D01*
X59526114Y-16519799D01*
X59640691Y-16550500D01*
X83040691Y-16550500D01*
X83907673Y-16550500D01*
X83943537Y-16559343D01*
X83944173Y-16557666D01*
X83949773Y-16559789D01*
X83949775Y-16559790D01*
X84114944Y-16600500D01*
X84114947Y-16600500D01*
X84285053Y-16600500D01*
X84285056Y-16600500D01*
X84450225Y-16559790D01*
X84450229Y-16559787D01*
X84455827Y-16557666D01*
X84456462Y-16559343D01*
X84492327Y-16550500D01*
X90842752Y-16550500D01*
X90900943Y-16569407D01*
X90917568Y-16584666D01*
X90940214Y-16610801D01*
X91061289Y-16688611D01*
X91167745Y-16719869D01*
X91199377Y-16729157D01*
X91199378Y-16729157D01*
X91199381Y-16729158D01*
X91199383Y-16729158D01*
X91343301Y-16729158D01*
X91343303Y-16729158D01*
X91481395Y-16688611D01*
X91602470Y-16610801D01*
X91696719Y-16502031D01*
X91756507Y-16371115D01*
X91776989Y-16228658D01*
X91770301Y-16182143D01*
X91756507Y-16086201D01*
X91696719Y-15955286D01*
X91696719Y-15955285D01*
X91602470Y-15846515D01*
X91602469Y-15846514D01*
X91602468Y-15846513D01*
X91481399Y-15768707D01*
X91481390Y-15768703D01*
X91459057Y-15762145D01*
X91425418Y-15742190D01*
X91424444Y-15743460D01*
X91419293Y-15739507D01*
X91316574Y-15680202D01*
X91316570Y-15680200D01*
X91292357Y-15673712D01*
X91292357Y-15673713D01*
X91201993Y-15649500D01*
X91201991Y-15649500D01*
X84922518Y-15649500D01*
X84864327Y-15630593D01*
X84829951Y-15585606D01*
X84824818Y-15572070D01*
X84728183Y-15432071D01*
X84712136Y-15417855D01*
X84600853Y-15319267D01*
X84600852Y-15319266D01*
X84450225Y-15240210D01*
X84450224Y-15240209D01*
X84450223Y-15240209D01*
X84285058Y-15199500D01*
X84285056Y-15199500D01*
X84114944Y-15199500D01*
X84114941Y-15199500D01*
X83949776Y-15240209D01*
X83799146Y-15319267D01*
X83671818Y-15432069D01*
X83671816Y-15432072D01*
X83575182Y-15572069D01*
X83570049Y-15585606D01*
X83531735Y-15633311D01*
X83477482Y-15649500D01*
X59927611Y-15649500D01*
X59869420Y-15630593D01*
X59857607Y-15620504D01*
X58879559Y-14642456D01*
X57876614Y-13639511D01*
X57876611Y-13639509D01*
X57876610Y-13639508D01*
X57876609Y-13639507D01*
X57773890Y-13580202D01*
X57773886Y-13580200D01*
X57749673Y-13573712D01*
X57749673Y-13573713D01*
X57659309Y-13549500D01*
X57659307Y-13549500D01*
X47927611Y-13549500D01*
X47869420Y-13530593D01*
X47857608Y-13520504D01*
X47376614Y-13039511D01*
X47376609Y-13039507D01*
X47273890Y-12980202D01*
X47273886Y-12980200D01*
X47249673Y-12973712D01*
X47249673Y-12973713D01*
X47159309Y-12949500D01*
X47159307Y-12949500D01*
X43052288Y-12949500D01*
X43016916Y-12941804D01*
X43016847Y-12942042D01*
X43013531Y-12941068D01*
X43011162Y-12940553D01*
X43010056Y-12940048D01*
X43010049Y-12940046D01*
X42993605Y-12935217D01*
X42871964Y-12899500D01*
X42871961Y-12899500D01*
X42728039Y-12899500D01*
X42728035Y-12899500D01*
X42589949Y-12940046D01*
X42589942Y-12940049D01*
X42468873Y-13017855D01*
X42374622Y-13126628D01*
X42314834Y-13257543D01*
X42294353Y-13399997D01*
X42294353Y-13400002D01*
X42314834Y-13542456D01*
X42367164Y-13657040D01*
X42374623Y-13673373D01*
X42429528Y-13736737D01*
X42468873Y-13782144D01*
X42589942Y-13859950D01*
X42589947Y-13859953D01*
X42696403Y-13891211D01*
X42728035Y-13900499D01*
X42728036Y-13900499D01*
X42728039Y-13900500D01*
X42728041Y-13900500D01*
X42871959Y-13900500D01*
X42871961Y-13900500D01*
X43010053Y-13859953D01*
X43010056Y-13859950D01*
X43011162Y-13859447D01*
X43013531Y-13858931D01*
X43016847Y-13857958D01*
X43016916Y-13858195D01*
X43052288Y-13850500D01*
X46409774Y-13850500D01*
X46467965Y-13869407D01*
X46503929Y-13918907D01*
X46503929Y-13980093D01*
X46467965Y-14029593D01*
X46454721Y-14036748D01*
X46455078Y-14037427D01*
X46449775Y-14040209D01*
X46449775Y-14040210D01*
X46371537Y-14081273D01*
X46299146Y-14119267D01*
X46171818Y-14232069D01*
X46171817Y-14232071D01*
X46085763Y-14356740D01*
X46037149Y-14393888D01*
X46004290Y-14399500D01*
X44460435Y-14399500D01*
X44384011Y-14419978D01*
X44331151Y-14450498D01*
X44331147Y-14450500D01*
X44315492Y-14459537D01*
X38704525Y-20070504D01*
X38650008Y-20098281D01*
X38634521Y-20099500D01*
X38047083Y-20099500D01*
X37988892Y-20080593D01*
X37972264Y-20065331D01*
X37967603Y-20059952D01*
X37931128Y-20017857D01*
X37898182Y-19996684D01*
X37810057Y-19940049D01*
X37810054Y-19940047D01*
X37810053Y-19940047D01*
X37810050Y-19940046D01*
X37671964Y-19899500D01*
X37671961Y-19899500D01*
X37528039Y-19899500D01*
X37528035Y-19899500D01*
X37389949Y-19940046D01*
X37389942Y-19940049D01*
X37268873Y-20017855D01*
X37174622Y-20126628D01*
X37114834Y-20257543D01*
X37094353Y-20399997D01*
X37094353Y-20400002D01*
X37114834Y-20542456D01*
X37122560Y-20559373D01*
X37129535Y-20620160D01*
X37099449Y-20673437D01*
X37043793Y-20698855D01*
X37032507Y-20699500D01*
X36165479Y-20699500D01*
X36107288Y-20680593D01*
X36095475Y-20670504D01*
X35730546Y-20305575D01*
X35702769Y-20251058D01*
X35702558Y-20221482D01*
X35705647Y-20200000D01*
X35705575Y-20199500D01*
X35685165Y-20057543D01*
X35650731Y-19982144D01*
X35625377Y-19926627D01*
X35531128Y-19817857D01*
X35531127Y-19817856D01*
X35531126Y-19817855D01*
X35410057Y-19740049D01*
X35410054Y-19740047D01*
X35410053Y-19740047D01*
X35410050Y-19740046D01*
X35271964Y-19699500D01*
X35271961Y-19699500D01*
X35128039Y-19699500D01*
X35128035Y-19699500D01*
X34989949Y-19740046D01*
X34989942Y-19740049D01*
X34868873Y-19817855D01*
X34774622Y-19926628D01*
X34714834Y-20057543D01*
X34694353Y-20199997D01*
X34694353Y-20200002D01*
X34714834Y-20342456D01*
X34760504Y-20442457D01*
X34774623Y-20473373D01*
X34849142Y-20559373D01*
X34868873Y-20582144D01*
X34989942Y-20659950D01*
X34989947Y-20659953D01*
X35096403Y-20691211D01*
X35128035Y-20700499D01*
X35128036Y-20700499D01*
X35128039Y-20700500D01*
X35128041Y-20700500D01*
X35234521Y-20700500D01*
X35292712Y-20719407D01*
X35304525Y-20729496D01*
X35505525Y-20930496D01*
X35533302Y-20985013D01*
X35523731Y-21045445D01*
X35480466Y-21088710D01*
X35435521Y-21099500D01*
X33096851Y-21099500D01*
X33038660Y-21080593D01*
X33026847Y-21070504D01*
X31774198Y-19817855D01*
X30515883Y-18559540D01*
X30507953Y-18554962D01*
X30486293Y-18542456D01*
X30486292Y-18542456D01*
X30447360Y-18519978D01*
X30370936Y-18499500D01*
X30370934Y-18499500D01*
X27218665Y-18499500D01*
X27160474Y-18480593D01*
X27148661Y-18470504D01*
X25978154Y-17299997D01*
X32294353Y-17299997D01*
X32294353Y-17300002D01*
X32314834Y-17442456D01*
X32339742Y-17496996D01*
X32374623Y-17573373D01*
X32468872Y-17682143D01*
X32468873Y-17682144D01*
X32589942Y-17759950D01*
X32589947Y-17759953D01*
X32696403Y-17791211D01*
X32728035Y-17800499D01*
X32728036Y-17800499D01*
X32728039Y-17800500D01*
X32728041Y-17800500D01*
X32834521Y-17800500D01*
X32892712Y-17819407D01*
X32904525Y-17829496D01*
X33369453Y-18294424D01*
X33397230Y-18348941D01*
X33397441Y-18378514D01*
X33394354Y-18399997D01*
X33394353Y-18400002D01*
X33414834Y-18542456D01*
X33460504Y-18642457D01*
X33474623Y-18673373D01*
X33561273Y-18773373D01*
X33568873Y-18782144D01*
X33689942Y-18859950D01*
X33689947Y-18859953D01*
X33796403Y-18891211D01*
X33828035Y-18900499D01*
X33828036Y-18900499D01*
X33828039Y-18900500D01*
X33828041Y-18900500D01*
X33971959Y-18900500D01*
X33971961Y-18900500D01*
X34110053Y-18859953D01*
X34231128Y-18782143D01*
X34325377Y-18673373D01*
X34385165Y-18542457D01*
X34405647Y-18400000D01*
X34385165Y-18257543D01*
X34325377Y-18126627D01*
X34231128Y-18017857D01*
X34231127Y-18017856D01*
X34231126Y-18017855D01*
X34110057Y-17940049D01*
X34110054Y-17940047D01*
X34110053Y-17940047D01*
X34110050Y-17940046D01*
X33971964Y-17899500D01*
X33971961Y-17899500D01*
X33865479Y-17899500D01*
X33807288Y-17880593D01*
X33795475Y-17870504D01*
X33330546Y-17405575D01*
X33302769Y-17351058D01*
X33302558Y-17321482D01*
X33305647Y-17300000D01*
X33305602Y-17299690D01*
X33285165Y-17157543D01*
X33259114Y-17100500D01*
X33225377Y-17026627D01*
X33131128Y-16917857D01*
X33131127Y-16917856D01*
X33131126Y-16917855D01*
X33010057Y-16840049D01*
X33010054Y-16840047D01*
X33010053Y-16840047D01*
X33003092Y-16838003D01*
X32871964Y-16799500D01*
X32871961Y-16799500D01*
X32728039Y-16799500D01*
X32728035Y-16799500D01*
X32589949Y-16840046D01*
X32589942Y-16840049D01*
X32468873Y-16917855D01*
X32374622Y-17026628D01*
X32314834Y-17157543D01*
X32294353Y-17299997D01*
X25978154Y-17299997D01*
X25599839Y-16921682D01*
X25572062Y-16867165D01*
X25570843Y-16851678D01*
X25570843Y-16443280D01*
X25570842Y-16443278D01*
X25564030Y-16417857D01*
X25550364Y-16366854D01*
X25510803Y-16298332D01*
X25505507Y-16293036D01*
X25454854Y-16242382D01*
X25454854Y-16242383D01*
X25118046Y-15905575D01*
X25090269Y-15851058D01*
X25090058Y-15821482D01*
X25093147Y-15800000D01*
X25088647Y-15768703D01*
X25072665Y-15657543D01*
X25012877Y-15526628D01*
X25012877Y-15526627D01*
X24918628Y-15417857D01*
X24918627Y-15417856D01*
X24918626Y-15417855D01*
X24797557Y-15340049D01*
X24797554Y-15340047D01*
X24797553Y-15340047D01*
X24797550Y-15340046D01*
X24659464Y-15299500D01*
X24659461Y-15299500D01*
X24515539Y-15299500D01*
X24515535Y-15299500D01*
X24377449Y-15340046D01*
X24377442Y-15340049D01*
X24256373Y-15417855D01*
X24162122Y-15526628D01*
X24102334Y-15657543D01*
X24081853Y-15799997D01*
X24081853Y-15800002D01*
X24102334Y-15942456D01*
X24162122Y-16073371D01*
X24162123Y-16073373D01*
X24219895Y-16140046D01*
X24256372Y-16182143D01*
X24260169Y-16184583D01*
X24298900Y-16231950D01*
X24302392Y-16293036D01*
X24269313Y-16344508D01*
X24260168Y-16351151D01*
X24156373Y-16417855D01*
X24062122Y-16526628D01*
X24002334Y-16657543D01*
X23981853Y-16799997D01*
X500500Y-16799997D01*
X500500Y-11183714D01*
X1322500Y-11183714D01*
X1322500Y-11416285D01*
X1358879Y-11645977D01*
X1399817Y-11771970D01*
X1430747Y-11867163D01*
X1536328Y-12074379D01*
X1673026Y-12262527D01*
X1837473Y-12426974D01*
X2025621Y-12563672D01*
X2232837Y-12669253D01*
X2454018Y-12741119D01*
X2454019Y-12741119D01*
X2454022Y-12741120D01*
X2683715Y-12777500D01*
X2683718Y-12777500D01*
X2916285Y-12777500D01*
X3145977Y-12741120D01*
X3145978Y-12741119D01*
X3145982Y-12741119D01*
X3367163Y-12669253D01*
X3574379Y-12563672D01*
X3762527Y-12426974D01*
X3926974Y-12262527D01*
X4063672Y-12074379D01*
X4169253Y-11867163D01*
X4241119Y-11645982D01*
X4258829Y-11534165D01*
X4277500Y-11416285D01*
X4277500Y-11183714D01*
X4241120Y-10954022D01*
X4241119Y-10954018D01*
X4169253Y-10732837D01*
X4063672Y-10525621D01*
X3926974Y-10337473D01*
X3762527Y-10173026D01*
X3574379Y-10036328D01*
X3574378Y-10036327D01*
X3574376Y-10036326D01*
X3367163Y-9930747D01*
X3145977Y-9858879D01*
X2916285Y-9822500D01*
X2916282Y-9822500D01*
X2683718Y-9822500D01*
X2683715Y-9822500D01*
X2454022Y-9858879D01*
X2232836Y-9930747D01*
X2025623Y-10036326D01*
X1837474Y-10173025D01*
X1673025Y-10337474D01*
X1536326Y-10525623D01*
X1430747Y-10732836D01*
X1358879Y-10954022D01*
X1322500Y-11183714D01*
X500500Y-11183714D01*
X500500Y-8003424D01*
X8094353Y-8003424D01*
X8094353Y-8003429D01*
X8114834Y-8145883D01*
X8156366Y-8236824D01*
X8174623Y-8276800D01*
X8263420Y-8379278D01*
X8268873Y-8385571D01*
X8389942Y-8463377D01*
X8389947Y-8463380D01*
X8496403Y-8494638D01*
X8528035Y-8503926D01*
X8528036Y-8503926D01*
X8528039Y-8503927D01*
X8528041Y-8503927D01*
X8671959Y-8503927D01*
X8671961Y-8503927D01*
X8810053Y-8463380D01*
X8842610Y-8442457D01*
X8850459Y-8437413D01*
X8903982Y-8421697D01*
X9385935Y-8421697D01*
X9444126Y-8440604D01*
X9460751Y-8455864D01*
X9501890Y-8503340D01*
X9563912Y-8543199D01*
X9610860Y-8573371D01*
X9622965Y-8581150D01*
X9729421Y-8612408D01*
X9761053Y-8621696D01*
X9761054Y-8621696D01*
X9761057Y-8621697D01*
X9761059Y-8621697D01*
X9904977Y-8621697D01*
X9904979Y-8621697D01*
X10043071Y-8581150D01*
X10046977Y-8578639D01*
X10106151Y-8563085D01*
X10163168Y-8585284D01*
X10196247Y-8636756D01*
X10199500Y-8661924D01*
X10199500Y-13979849D01*
X10180593Y-14038040D01*
X10154024Y-14063133D01*
X10068872Y-14117857D01*
X9974622Y-14226628D01*
X9914834Y-14357543D01*
X9894353Y-14499997D01*
X9894353Y-14500002D01*
X9914834Y-14642456D01*
X9972272Y-14768225D01*
X9974623Y-14773373D01*
X10057371Y-14868870D01*
X10068873Y-14882144D01*
X10097436Y-14900500D01*
X10189947Y-14959953D01*
X10296403Y-14991211D01*
X10328035Y-15000499D01*
X10328036Y-15000499D01*
X10328039Y-15000500D01*
X10328041Y-15000500D01*
X10471959Y-15000500D01*
X10471961Y-15000500D01*
X10610053Y-14959953D01*
X10731128Y-14882143D01*
X10825377Y-14773373D01*
X10885165Y-14642457D01*
X10905647Y-14500000D01*
X10901248Y-14469407D01*
X10885165Y-14357543D01*
X10839496Y-14257543D01*
X10825377Y-14226627D01*
X10824679Y-14225821D01*
X10824332Y-14225001D01*
X10821549Y-14220670D01*
X10822298Y-14220188D01*
X10800863Y-14169461D01*
X10800500Y-14160992D01*
X10800500Y-8595781D01*
X10819407Y-8537590D01*
X10845977Y-8512497D01*
X10859314Y-8503926D01*
X10961494Y-8438259D01*
X11055743Y-8329489D01*
X11115531Y-8198573D01*
X11136013Y-8056116D01*
X11131773Y-8026628D01*
X11115531Y-7913659D01*
X11101855Y-7883714D01*
X11055743Y-7782743D01*
X10961494Y-7673973D01*
X10961493Y-7673972D01*
X10961492Y-7673971D01*
X10840423Y-7596165D01*
X10840420Y-7596163D01*
X10840419Y-7596163D01*
X10840416Y-7596162D01*
X10702330Y-7555616D01*
X10702327Y-7555616D01*
X10558405Y-7555616D01*
X10558401Y-7555616D01*
X10420315Y-7596162D01*
X10420308Y-7596165D01*
X10299238Y-7673972D01*
X10270870Y-7706710D01*
X10218473Y-7738305D01*
X10157512Y-7733067D01*
X10142529Y-7725161D01*
X10043075Y-7661246D01*
X10043072Y-7661244D01*
X10043071Y-7661244D01*
X10043068Y-7661243D01*
X9904982Y-7620697D01*
X9904979Y-7620697D01*
X9761057Y-7620697D01*
X9761053Y-7620697D01*
X9622967Y-7661243D01*
X9622960Y-7661246D01*
X9501891Y-7739052D01*
X9484323Y-7759325D01*
X9479514Y-7764490D01*
X9452308Y-7791698D01*
X9397793Y-7819478D01*
X9382302Y-7820697D01*
X9130396Y-7820697D01*
X9072205Y-7801790D01*
X9040343Y-7762824D01*
X9025377Y-7730055D01*
X9025377Y-7730054D01*
X8931128Y-7621284D01*
X8931127Y-7621283D01*
X8931126Y-7621282D01*
X8810057Y-7543476D01*
X8810054Y-7543474D01*
X8810053Y-7543474D01*
X8810050Y-7543473D01*
X8671964Y-7502927D01*
X8671961Y-7502927D01*
X8528039Y-7502927D01*
X8528035Y-7502927D01*
X8389949Y-7543473D01*
X8389942Y-7543476D01*
X8268873Y-7621282D01*
X8174622Y-7730055D01*
X8114834Y-7860970D01*
X8094353Y-8003424D01*
X500500Y-8003424D01*
X500500Y-5099043D01*
X3925000Y-5099043D01*
X3925000Y-5499999D01*
X3925001Y-5500000D01*
X4625000Y-5500000D01*
X4625000Y-6000000D01*
X3925001Y-6000000D01*
X3925000Y-6000001D01*
X3925000Y-6400956D01*
X3964390Y-6598981D01*
X3964390Y-6598983D01*
X4041653Y-6785515D01*
X4041659Y-6785527D01*
X4153830Y-6953399D01*
X4153833Y-6953403D01*
X4296596Y-7096166D01*
X4296600Y-7096169D01*
X4464472Y-7208340D01*
X4464484Y-7208346D01*
X4651016Y-7285609D01*
X4651019Y-7285610D01*
X4699999Y-7295352D01*
X4700000Y-7295352D01*
X4700000Y-6409618D01*
X4750446Y-6460064D01*
X4824555Y-6502851D01*
X4907213Y-6525000D01*
X4992787Y-6525000D01*
X5075445Y-6502851D01*
X5149554Y-6460064D01*
X5200000Y-6409618D01*
X5200000Y-7295352D01*
X5248980Y-7285610D01*
X5248983Y-7285609D01*
X5435515Y-7208346D01*
X5435527Y-7208340D01*
X5603399Y-7096169D01*
X5603403Y-7096166D01*
X5746166Y-6953403D01*
X5746169Y-6953399D01*
X5858340Y-6785527D01*
X5858346Y-6785515D01*
X5935609Y-6598983D01*
X5935609Y-6598981D01*
X5974999Y-6400956D01*
X5975000Y-6400952D01*
X5975000Y-6000001D01*
X5974999Y-6000000D01*
X5275000Y-6000000D01*
X5275000Y-5500000D01*
X5915941Y-5500000D01*
X5974132Y-5518907D01*
X5994482Y-5538731D01*
X5997902Y-5543188D01*
X5997903Y-5543189D01*
X5997905Y-5543192D01*
X6086808Y-5632095D01*
X6195692Y-5694959D01*
X6317136Y-5727500D01*
X6317138Y-5727500D01*
X6442862Y-5727500D01*
X6442864Y-5727500D01*
X6564308Y-5694959D01*
X6673192Y-5632095D01*
X6762095Y-5543192D01*
X6824959Y-5434308D01*
X6857500Y-5312864D01*
X6857500Y-5187136D01*
X6824959Y-5065692D01*
X6762095Y-4956808D01*
X6673192Y-4867905D01*
X6564308Y-4805041D01*
X6442864Y-4772500D01*
X6317136Y-4772500D01*
X6195692Y-4805041D01*
X6109703Y-4854687D01*
X6086805Y-4867907D01*
X6074961Y-4879751D01*
X6020444Y-4907527D01*
X5960012Y-4897953D01*
X5916749Y-4854687D01*
X5913496Y-4847630D01*
X5858346Y-4714484D01*
X5858340Y-4714472D01*
X5746169Y-4546600D01*
X5746166Y-4546596D01*
X5603403Y-4403833D01*
X5603399Y-4403830D01*
X5435527Y-4291659D01*
X5435515Y-4291653D01*
X5248984Y-4214390D01*
X5200000Y-4204646D01*
X5200000Y-5090382D01*
X5149554Y-5039936D01*
X5075445Y-4997149D01*
X4992787Y-4975000D01*
X4907213Y-4975000D01*
X4824555Y-4997149D01*
X4750446Y-5039936D01*
X4700000Y-5090382D01*
X4700000Y-4204646D01*
X4651015Y-4214390D01*
X4464484Y-4291653D01*
X4464472Y-4291659D01*
X4296600Y-4403830D01*
X4296596Y-4403833D01*
X4153833Y-4546596D01*
X4153830Y-4546600D01*
X4041659Y-4714472D01*
X4041653Y-4714484D01*
X3964390Y-4901016D01*
X3964390Y-4901018D01*
X3925000Y-5099043D01*
X500500Y-5099043D01*
X500500Y-3799997D01*
X1594353Y-3799997D01*
X1594353Y-3800002D01*
X1614834Y-3942456D01*
X1663807Y-4049690D01*
X1674623Y-4073373D01*
X1768872Y-4182143D01*
X1768873Y-4182144D01*
X1803887Y-4204646D01*
X1889947Y-4259953D01*
X1996403Y-4291211D01*
X2028035Y-4300499D01*
X2028036Y-4300499D01*
X2028039Y-4300500D01*
X2028041Y-4300500D01*
X2171959Y-4300500D01*
X2171961Y-4300500D01*
X2310053Y-4259953D01*
X2431128Y-4182143D01*
X2525377Y-4073373D01*
X2577896Y-3958372D01*
X2619268Y-3913296D01*
X2667949Y-3900500D01*
X6540931Y-3900500D01*
X6599122Y-3919407D01*
X6610935Y-3929496D01*
X7648393Y-4966954D01*
X7676170Y-5021471D01*
X7676381Y-5051044D01*
X7673294Y-5072527D01*
X7673293Y-5072532D01*
X7693774Y-5214986D01*
X7738474Y-5312864D01*
X7753563Y-5345903D01*
X7766158Y-5360438D01*
X7847813Y-5454674D01*
X7929681Y-5507287D01*
X7968887Y-5532483D01*
X8075343Y-5563741D01*
X8106975Y-5573029D01*
X8106976Y-5573029D01*
X8106979Y-5573030D01*
X8106981Y-5573030D01*
X8250899Y-5573030D01*
X8250901Y-5573030D01*
X8388993Y-5532483D01*
X8510068Y-5454673D01*
X8604317Y-5345903D01*
X8664105Y-5214987D01*
X8668109Y-5187136D01*
X11682500Y-5187136D01*
X11682500Y-5312864D01*
X11715041Y-5434308D01*
X11777905Y-5543192D01*
X11866808Y-5632095D01*
X11975692Y-5694959D01*
X12097136Y-5727500D01*
X12097138Y-5727500D01*
X12222862Y-5727500D01*
X12222864Y-5727500D01*
X12344308Y-5694959D01*
X12453192Y-5632095D01*
X12542095Y-5543192D01*
X12542098Y-5543186D01*
X12545518Y-5538731D01*
X12595943Y-5504076D01*
X12624059Y-5500000D01*
X13265000Y-5500000D01*
X13265000Y-6000000D01*
X12565001Y-6000000D01*
X12565000Y-6000001D01*
X12565000Y-6400956D01*
X12604390Y-6598981D01*
X12604390Y-6598983D01*
X12681653Y-6785515D01*
X12681659Y-6785527D01*
X12793830Y-6953399D01*
X12793833Y-6953403D01*
X12936596Y-7096166D01*
X12936600Y-7096169D01*
X13104472Y-7208340D01*
X13104484Y-7208346D01*
X13291016Y-7285609D01*
X13291019Y-7285610D01*
X13339999Y-7295352D01*
X13340000Y-7295352D01*
X13340000Y-6409618D01*
X13390446Y-6460064D01*
X13464555Y-6502851D01*
X13547213Y-6525000D01*
X13632787Y-6525000D01*
X13715445Y-6502851D01*
X13789554Y-6460064D01*
X13840000Y-6409618D01*
X13840000Y-7295352D01*
X13888980Y-7285610D01*
X13888983Y-7285609D01*
X14075515Y-7208346D01*
X14075527Y-7208340D01*
X14243399Y-7096169D01*
X14243403Y-7096166D01*
X14386166Y-6953403D01*
X14386169Y-6953399D01*
X14498340Y-6785527D01*
X14498346Y-6785515D01*
X14575609Y-6598983D01*
X14575609Y-6598981D01*
X14614999Y-6400956D01*
X14615000Y-6400952D01*
X14615000Y-6000001D01*
X14614999Y-6000000D01*
X13915000Y-6000000D01*
X13915000Y-5500000D01*
X14614999Y-5500000D01*
X14615000Y-5499999D01*
X14615000Y-5099047D01*
X14614999Y-5099043D01*
X14575609Y-4901018D01*
X14575609Y-4901016D01*
X14498346Y-4714484D01*
X14498340Y-4714472D01*
X14386169Y-4546600D01*
X14386166Y-4546596D01*
X14243403Y-4403833D01*
X14243399Y-4403830D01*
X14075527Y-4291659D01*
X14075515Y-4291653D01*
X13888984Y-4214390D01*
X13840000Y-4204646D01*
X13840000Y-5090382D01*
X13789554Y-5039936D01*
X13715445Y-4997149D01*
X13632787Y-4975000D01*
X13547213Y-4975000D01*
X13464555Y-4997149D01*
X13390446Y-5039936D01*
X13340000Y-5090382D01*
X13340000Y-4204646D01*
X13291015Y-4214390D01*
X13104484Y-4291653D01*
X13104472Y-4291659D01*
X12936600Y-4403830D01*
X12936596Y-4403833D01*
X12793833Y-4546596D01*
X12793830Y-4546600D01*
X12681659Y-4714472D01*
X12681655Y-4714481D01*
X12626503Y-4847631D01*
X12586766Y-4894156D01*
X12527272Y-4908440D01*
X12470744Y-4885025D01*
X12465048Y-4879761D01*
X12453192Y-4867905D01*
X12344308Y-4805041D01*
X12222864Y-4772500D01*
X12097136Y-4772500D01*
X11975692Y-4805041D01*
X11866808Y-4867905D01*
X11777905Y-4956808D01*
X11715041Y-5065692D01*
X11682500Y-5187136D01*
X8668109Y-5187136D01*
X8672077Y-5159539D01*
X8684587Y-5072532D01*
X8684587Y-5072527D01*
X8664105Y-4930073D01*
X8641123Y-4879751D01*
X8604317Y-4799157D01*
X8510068Y-4690387D01*
X8510067Y-4690386D01*
X8510066Y-4690385D01*
X8388997Y-4612579D01*
X8388994Y-4612577D01*
X8388993Y-4612577D01*
X8388990Y-4612576D01*
X8250904Y-4572030D01*
X8250901Y-4572030D01*
X8144419Y-4572030D01*
X8086228Y-4553123D01*
X8074415Y-4543034D01*
X7489755Y-3958374D01*
X6890921Y-3359540D01*
X6890918Y-3359538D01*
X6822402Y-3319980D01*
X6822398Y-3319978D01*
X6745974Y-3299500D01*
X6745972Y-3299500D01*
X2665478Y-3299500D01*
X2607287Y-3280593D01*
X2595480Y-3270509D01*
X2584511Y-3259540D01*
X2515988Y-3219979D01*
X2515985Y-3219978D01*
X2515984Y-3219977D01*
X2439564Y-3199500D01*
X2439562Y-3199500D01*
X2360438Y-3199500D01*
X2360435Y-3199500D01*
X2284015Y-3219977D01*
X2284010Y-3219979D01*
X2215492Y-3259537D01*
X2215489Y-3259539D01*
X2215489Y-3259540D01*
X2204523Y-3270505D01*
X2150009Y-3298281D01*
X2134522Y-3299500D01*
X2028035Y-3299500D01*
X1889949Y-3340046D01*
X1889942Y-3340049D01*
X1768873Y-3417855D01*
X1674622Y-3526628D01*
X1614834Y-3657543D01*
X1594353Y-3799997D01*
X500500Y-3799997D01*
X500500Y-3602582D01*
X500636Y-3597401D01*
X509487Y-3428508D01*
X517207Y-3281186D01*
X518290Y-3270888D01*
X518351Y-3270504D01*
X567422Y-2960688D01*
X569569Y-2950583D01*
X650858Y-2647210D01*
X654060Y-2637356D01*
X712346Y-2485515D01*
X766612Y-2344144D01*
X770813Y-2334709D01*
X913410Y-2054847D01*
X918575Y-2045904D01*
X1089634Y-1782495D01*
X1095704Y-1774140D01*
X1293361Y-1530054D01*
X1300276Y-1522373D01*
X1522376Y-1300273D01*
X1530057Y-1293358D01*
X1774143Y-1095701D01*
X1782498Y-1089631D01*
X2045907Y-918572D01*
X2054850Y-913407D01*
X2334712Y-770810D01*
X2344147Y-766609D01*
X2637359Y-654056D01*
X2647214Y-650855D01*
X2950586Y-569566D01*
X2960691Y-567419D01*
X3270898Y-518286D01*
X3281189Y-517204D01*
X3597348Y-500636D01*
X3602529Y-500500D01*
X3665892Y-500500D01*
X3999417Y-500500D01*
X4057608Y-519407D01*
G37*
%TD.AperFunction*%
%TD*%
M02*
