%TF.GenerationSoftware,KiCad,Pcbnew,8.0.2*%
%TF.CreationDate,2025-12-10T20:47:36-08:00*%
%TF.ProjectId,USB-A-Daughterboard,5553422d-412d-4446-9175-676874657262,rev?*%
%TF.SameCoordinates,Original*%
%TF.FileFunction,Legend,Bot*%
%TF.FilePolarity,Positive*%
%FSLAX46Y46*%
G04 Gerber Fmt 4.6, Leading zero omitted, Abs format (unit mm)*
G04 Created by KiCad (PCBNEW 8.0.2) date 2025-12-10 20:47:36*
%MOMM*%
%LPD*%
G01*
G04 APERTURE LIST*
%ADD10C,0.150000*%
%ADD11C,0.120000*%
%ADD12C,0.127000*%
%ADD13C,0.200000*%
G04 APERTURE END LIST*
D10*
X13500000Y-11950000D02*
X14200000Y-13100000D01*
X13700000Y-10150000D02*
X14100000Y-10650000D01*
X56284819Y-1557142D02*
X55808628Y-1223809D01*
X56284819Y-985714D02*
X55284819Y-985714D01*
X55284819Y-985714D02*
X55284819Y-1366666D01*
X55284819Y-1366666D02*
X55332438Y-1461904D01*
X55332438Y-1461904D02*
X55380057Y-1509523D01*
X55380057Y-1509523D02*
X55475295Y-1557142D01*
X55475295Y-1557142D02*
X55618152Y-1557142D01*
X55618152Y-1557142D02*
X55713390Y-1509523D01*
X55713390Y-1509523D02*
X55761009Y-1461904D01*
X55761009Y-1461904D02*
X55808628Y-1366666D01*
X55808628Y-1366666D02*
X55808628Y-985714D01*
X56284819Y-2509523D02*
X56284819Y-1938095D01*
X56284819Y-2223809D02*
X55284819Y-2223809D01*
X55284819Y-2223809D02*
X55427676Y-2128571D01*
X55427676Y-2128571D02*
X55522914Y-2033333D01*
X55522914Y-2033333D02*
X55570533Y-1938095D01*
X55284819Y-2842857D02*
X55284819Y-3461904D01*
X55284819Y-3461904D02*
X55665771Y-3128571D01*
X55665771Y-3128571D02*
X55665771Y-3271428D01*
X55665771Y-3271428D02*
X55713390Y-3366666D01*
X55713390Y-3366666D02*
X55761009Y-3414285D01*
X55761009Y-3414285D02*
X55856247Y-3461904D01*
X55856247Y-3461904D02*
X56094342Y-3461904D01*
X56094342Y-3461904D02*
X56189580Y-3414285D01*
X56189580Y-3414285D02*
X56237200Y-3366666D01*
X56237200Y-3366666D02*
X56284819Y-3271428D01*
X56284819Y-3271428D02*
X56284819Y-2985714D01*
X56284819Y-2985714D02*
X56237200Y-2890476D01*
X56237200Y-2890476D02*
X56189580Y-2842857D01*
X30654819Y-19157142D02*
X30178628Y-18823809D01*
X30654819Y-18585714D02*
X29654819Y-18585714D01*
X29654819Y-18585714D02*
X29654819Y-18966666D01*
X29654819Y-18966666D02*
X29702438Y-19061904D01*
X29702438Y-19061904D02*
X29750057Y-19109523D01*
X29750057Y-19109523D02*
X29845295Y-19157142D01*
X29845295Y-19157142D02*
X29988152Y-19157142D01*
X29988152Y-19157142D02*
X30083390Y-19109523D01*
X30083390Y-19109523D02*
X30131009Y-19061904D01*
X30131009Y-19061904D02*
X30178628Y-18966666D01*
X30178628Y-18966666D02*
X30178628Y-18585714D01*
X30654819Y-20109523D02*
X30654819Y-19538095D01*
X30654819Y-19823809D02*
X29654819Y-19823809D01*
X29654819Y-19823809D02*
X29797676Y-19728571D01*
X29797676Y-19728571D02*
X29892914Y-19633333D01*
X29892914Y-19633333D02*
X29940533Y-19538095D01*
X29750057Y-20490476D02*
X29702438Y-20538095D01*
X29702438Y-20538095D02*
X29654819Y-20633333D01*
X29654819Y-20633333D02*
X29654819Y-20871428D01*
X29654819Y-20871428D02*
X29702438Y-20966666D01*
X29702438Y-20966666D02*
X29750057Y-21014285D01*
X29750057Y-21014285D02*
X29845295Y-21061904D01*
X29845295Y-21061904D02*
X29940533Y-21061904D01*
X29940533Y-21061904D02*
X30083390Y-21014285D01*
X30083390Y-21014285D02*
X30654819Y-20442857D01*
X30654819Y-20442857D02*
X30654819Y-21061904D01*
X7761904Y-12254819D02*
X7761904Y-13064342D01*
X7761904Y-13064342D02*
X7714285Y-13159580D01*
X7714285Y-13159580D02*
X7666666Y-13207200D01*
X7666666Y-13207200D02*
X7571428Y-13254819D01*
X7571428Y-13254819D02*
X7380952Y-13254819D01*
X7380952Y-13254819D02*
X7285714Y-13207200D01*
X7285714Y-13207200D02*
X7238095Y-13159580D01*
X7238095Y-13159580D02*
X7190476Y-13064342D01*
X7190476Y-13064342D02*
X7190476Y-12254819D01*
X6809523Y-12254819D02*
X6190476Y-12254819D01*
X6190476Y-12254819D02*
X6523809Y-12635771D01*
X6523809Y-12635771D02*
X6380952Y-12635771D01*
X6380952Y-12635771D02*
X6285714Y-12683390D01*
X6285714Y-12683390D02*
X6238095Y-12731009D01*
X6238095Y-12731009D02*
X6190476Y-12826247D01*
X6190476Y-12826247D02*
X6190476Y-13064342D01*
X6190476Y-13064342D02*
X6238095Y-13159580D01*
X6238095Y-13159580D02*
X6285714Y-13207200D01*
X6285714Y-13207200D02*
X6380952Y-13254819D01*
X6380952Y-13254819D02*
X6666666Y-13254819D01*
X6666666Y-13254819D02*
X6761904Y-13207200D01*
X6761904Y-13207200D02*
X6809523Y-13159580D01*
X32354819Y-19157142D02*
X31878628Y-18823809D01*
X32354819Y-18585714D02*
X31354819Y-18585714D01*
X31354819Y-18585714D02*
X31354819Y-18966666D01*
X31354819Y-18966666D02*
X31402438Y-19061904D01*
X31402438Y-19061904D02*
X31450057Y-19109523D01*
X31450057Y-19109523D02*
X31545295Y-19157142D01*
X31545295Y-19157142D02*
X31688152Y-19157142D01*
X31688152Y-19157142D02*
X31783390Y-19109523D01*
X31783390Y-19109523D02*
X31831009Y-19061904D01*
X31831009Y-19061904D02*
X31878628Y-18966666D01*
X31878628Y-18966666D02*
X31878628Y-18585714D01*
X32354819Y-20109523D02*
X32354819Y-19538095D01*
X32354819Y-19823809D02*
X31354819Y-19823809D01*
X31354819Y-19823809D02*
X31497676Y-19728571D01*
X31497676Y-19728571D02*
X31592914Y-19633333D01*
X31592914Y-19633333D02*
X31640533Y-19538095D01*
X32354819Y-21061904D02*
X32354819Y-20490476D01*
X32354819Y-20776190D02*
X31354819Y-20776190D01*
X31354819Y-20776190D02*
X31497676Y-20680952D01*
X31497676Y-20680952D02*
X31592914Y-20585714D01*
X31592914Y-20585714D02*
X31640533Y-20490476D01*
X32261904Y-22706819D02*
X31690476Y-22706819D01*
X31976190Y-23706819D02*
X31976190Y-22706819D01*
X31357142Y-23706819D02*
X31357142Y-22706819D01*
X31357142Y-22706819D02*
X30976190Y-22706819D01*
X30976190Y-22706819D02*
X30880952Y-22754438D01*
X30880952Y-22754438D02*
X30833333Y-22802057D01*
X30833333Y-22802057D02*
X30785714Y-22897295D01*
X30785714Y-22897295D02*
X30785714Y-23040152D01*
X30785714Y-23040152D02*
X30833333Y-23135390D01*
X30833333Y-23135390D02*
X30880952Y-23183009D01*
X30880952Y-23183009D02*
X30976190Y-23230628D01*
X30976190Y-23230628D02*
X31357142Y-23230628D01*
X30404761Y-22802057D02*
X30357142Y-22754438D01*
X30357142Y-22754438D02*
X30261904Y-22706819D01*
X30261904Y-22706819D02*
X30023809Y-22706819D01*
X30023809Y-22706819D02*
X29928571Y-22754438D01*
X29928571Y-22754438D02*
X29880952Y-22802057D01*
X29880952Y-22802057D02*
X29833333Y-22897295D01*
X29833333Y-22897295D02*
X29833333Y-22992533D01*
X29833333Y-22992533D02*
X29880952Y-23135390D01*
X29880952Y-23135390D02*
X30452380Y-23706819D01*
X30452380Y-23706819D02*
X29833333Y-23706819D01*
X4833333Y-20999819D02*
X4833333Y-21714104D01*
X4833333Y-21714104D02*
X4880952Y-21856961D01*
X4880952Y-21856961D02*
X4976190Y-21952200D01*
X4976190Y-21952200D02*
X5119047Y-21999819D01*
X5119047Y-21999819D02*
X5214285Y-21999819D01*
X3928571Y-21333152D02*
X3928571Y-21999819D01*
X4166666Y-20952200D02*
X4404761Y-21666485D01*
X4404761Y-21666485D02*
X3785714Y-21666485D01*
X61372112Y-21636411D02*
X61439456Y-21636411D01*
X61439456Y-21636411D02*
X61574143Y-21569067D01*
X61574143Y-21569067D02*
X61641486Y-21501724D01*
X61641486Y-21501724D02*
X61708830Y-21367037D01*
X61708830Y-21367037D02*
X61708830Y-21232350D01*
X61708830Y-21232350D02*
X61675158Y-21131335D01*
X61675158Y-21131335D02*
X61574143Y-20962976D01*
X61574143Y-20962976D02*
X61473128Y-20861961D01*
X61473128Y-20861961D02*
X61304769Y-20760945D01*
X61304769Y-20760945D02*
X61203754Y-20727274D01*
X61203754Y-20727274D02*
X61069067Y-20727274D01*
X61069067Y-20727274D02*
X60934380Y-20794617D01*
X60934380Y-20794617D02*
X60867036Y-20861961D01*
X60867036Y-20861961D02*
X60799693Y-20996648D01*
X60799693Y-20996648D02*
X60799693Y-21063991D01*
X60766021Y-22377189D02*
X61170082Y-21973128D01*
X60968051Y-22175159D02*
X60260945Y-21468052D01*
X60260945Y-21468052D02*
X60429303Y-21501724D01*
X60429303Y-21501724D02*
X60563990Y-21501724D01*
X60563990Y-21501724D02*
X60665006Y-21468052D01*
X88761904Y-12354819D02*
X88761904Y-13164342D01*
X88761904Y-13164342D02*
X88714285Y-13259580D01*
X88714285Y-13259580D02*
X88666666Y-13307200D01*
X88666666Y-13307200D02*
X88571428Y-13354819D01*
X88571428Y-13354819D02*
X88380952Y-13354819D01*
X88380952Y-13354819D02*
X88285714Y-13307200D01*
X88285714Y-13307200D02*
X88238095Y-13259580D01*
X88238095Y-13259580D02*
X88190476Y-13164342D01*
X88190476Y-13164342D02*
X88190476Y-12354819D01*
X87761904Y-12450057D02*
X87714285Y-12402438D01*
X87714285Y-12402438D02*
X87619047Y-12354819D01*
X87619047Y-12354819D02*
X87380952Y-12354819D01*
X87380952Y-12354819D02*
X87285714Y-12402438D01*
X87285714Y-12402438D02*
X87238095Y-12450057D01*
X87238095Y-12450057D02*
X87190476Y-12545295D01*
X87190476Y-12545295D02*
X87190476Y-12640533D01*
X87190476Y-12640533D02*
X87238095Y-12783390D01*
X87238095Y-12783390D02*
X87809523Y-13354819D01*
X87809523Y-13354819D02*
X87190476Y-13354819D01*
X47561904Y-12706819D02*
X46990476Y-12706819D01*
X47276190Y-13706819D02*
X47276190Y-12706819D01*
X46657142Y-13706819D02*
X46657142Y-12706819D01*
X46657142Y-12706819D02*
X46276190Y-12706819D01*
X46276190Y-12706819D02*
X46180952Y-12754438D01*
X46180952Y-12754438D02*
X46133333Y-12802057D01*
X46133333Y-12802057D02*
X46085714Y-12897295D01*
X46085714Y-12897295D02*
X46085714Y-13040152D01*
X46085714Y-13040152D02*
X46133333Y-13135390D01*
X46133333Y-13135390D02*
X46180952Y-13183009D01*
X46180952Y-13183009D02*
X46276190Y-13230628D01*
X46276190Y-13230628D02*
X46657142Y-13230628D01*
X45133333Y-13706819D02*
X45704761Y-13706819D01*
X45419047Y-13706819D02*
X45419047Y-12706819D01*
X45419047Y-12706819D02*
X45514285Y-12849676D01*
X45514285Y-12849676D02*
X45609523Y-12944914D01*
X45609523Y-12944914D02*
X45704761Y-12992533D01*
X91663333Y-7514819D02*
X91663333Y-8229104D01*
X91663333Y-8229104D02*
X91710952Y-8371961D01*
X91710952Y-8371961D02*
X91806190Y-8467200D01*
X91806190Y-8467200D02*
X91949047Y-8514819D01*
X91949047Y-8514819D02*
X92044285Y-8514819D01*
X90663333Y-8514819D02*
X91234761Y-8514819D01*
X90949047Y-8514819D02*
X90949047Y-7514819D01*
X90949047Y-7514819D02*
X91044285Y-7657676D01*
X91044285Y-7657676D02*
X91139523Y-7752914D01*
X91139523Y-7752914D02*
X91234761Y-7800533D01*
X82159580Y-13133333D02*
X82207200Y-13085714D01*
X82207200Y-13085714D02*
X82254819Y-12942857D01*
X82254819Y-12942857D02*
X82254819Y-12847619D01*
X82254819Y-12847619D02*
X82207200Y-12704762D01*
X82207200Y-12704762D02*
X82111961Y-12609524D01*
X82111961Y-12609524D02*
X82016723Y-12561905D01*
X82016723Y-12561905D02*
X81826247Y-12514286D01*
X81826247Y-12514286D02*
X81683390Y-12514286D01*
X81683390Y-12514286D02*
X81492914Y-12561905D01*
X81492914Y-12561905D02*
X81397676Y-12609524D01*
X81397676Y-12609524D02*
X81302438Y-12704762D01*
X81302438Y-12704762D02*
X81254819Y-12847619D01*
X81254819Y-12847619D02*
X81254819Y-12942857D01*
X81254819Y-12942857D02*
X81302438Y-13085714D01*
X81302438Y-13085714D02*
X81350057Y-13133333D01*
X81254819Y-13466667D02*
X81254819Y-14085714D01*
X81254819Y-14085714D02*
X81635771Y-13752381D01*
X81635771Y-13752381D02*
X81635771Y-13895238D01*
X81635771Y-13895238D02*
X81683390Y-13990476D01*
X81683390Y-13990476D02*
X81731009Y-14038095D01*
X81731009Y-14038095D02*
X81826247Y-14085714D01*
X81826247Y-14085714D02*
X82064342Y-14085714D01*
X82064342Y-14085714D02*
X82159580Y-14038095D01*
X82159580Y-14038095D02*
X82207200Y-13990476D01*
X82207200Y-13990476D02*
X82254819Y-13895238D01*
X82254819Y-13895238D02*
X82254819Y-13609524D01*
X82254819Y-13609524D02*
X82207200Y-13514286D01*
X82207200Y-13514286D02*
X82159580Y-13466667D01*
X94442857Y-6354819D02*
X94776190Y-5878628D01*
X95014285Y-6354819D02*
X95014285Y-5354819D01*
X95014285Y-5354819D02*
X94633333Y-5354819D01*
X94633333Y-5354819D02*
X94538095Y-5402438D01*
X94538095Y-5402438D02*
X94490476Y-5450057D01*
X94490476Y-5450057D02*
X94442857Y-5545295D01*
X94442857Y-5545295D02*
X94442857Y-5688152D01*
X94442857Y-5688152D02*
X94490476Y-5783390D01*
X94490476Y-5783390D02*
X94538095Y-5831009D01*
X94538095Y-5831009D02*
X94633333Y-5878628D01*
X94633333Y-5878628D02*
X95014285Y-5878628D01*
X93490476Y-6354819D02*
X94061904Y-6354819D01*
X93776190Y-6354819D02*
X93776190Y-5354819D01*
X93776190Y-5354819D02*
X93871428Y-5497676D01*
X93871428Y-5497676D02*
X93966666Y-5592914D01*
X93966666Y-5592914D02*
X94061904Y-5640533D01*
X92585714Y-5354819D02*
X93061904Y-5354819D01*
X93061904Y-5354819D02*
X93109523Y-5831009D01*
X93109523Y-5831009D02*
X93061904Y-5783390D01*
X93061904Y-5783390D02*
X92966666Y-5735771D01*
X92966666Y-5735771D02*
X92728571Y-5735771D01*
X92728571Y-5735771D02*
X92633333Y-5783390D01*
X92633333Y-5783390D02*
X92585714Y-5831009D01*
X92585714Y-5831009D02*
X92538095Y-5926247D01*
X92538095Y-5926247D02*
X92538095Y-6164342D01*
X92538095Y-6164342D02*
X92585714Y-6259580D01*
X92585714Y-6259580D02*
X92633333Y-6307200D01*
X92633333Y-6307200D02*
X92728571Y-6354819D01*
X92728571Y-6354819D02*
X92966666Y-6354819D01*
X92966666Y-6354819D02*
X93061904Y-6307200D01*
X93061904Y-6307200D02*
X93109523Y-6259580D01*
X37654819Y-26333333D02*
X37178628Y-26000000D01*
X37654819Y-25761905D02*
X36654819Y-25761905D01*
X36654819Y-25761905D02*
X36654819Y-26142857D01*
X36654819Y-26142857D02*
X36702438Y-26238095D01*
X36702438Y-26238095D02*
X36750057Y-26285714D01*
X36750057Y-26285714D02*
X36845295Y-26333333D01*
X36845295Y-26333333D02*
X36988152Y-26333333D01*
X36988152Y-26333333D02*
X37083390Y-26285714D01*
X37083390Y-26285714D02*
X37131009Y-26238095D01*
X37131009Y-26238095D02*
X37178628Y-26142857D01*
X37178628Y-26142857D02*
X37178628Y-25761905D01*
X36654819Y-26666667D02*
X36654819Y-27285714D01*
X36654819Y-27285714D02*
X37035771Y-26952381D01*
X37035771Y-26952381D02*
X37035771Y-27095238D01*
X37035771Y-27095238D02*
X37083390Y-27190476D01*
X37083390Y-27190476D02*
X37131009Y-27238095D01*
X37131009Y-27238095D02*
X37226247Y-27285714D01*
X37226247Y-27285714D02*
X37464342Y-27285714D01*
X37464342Y-27285714D02*
X37559580Y-27238095D01*
X37559580Y-27238095D02*
X37607200Y-27190476D01*
X37607200Y-27190476D02*
X37654819Y-27095238D01*
X37654819Y-27095238D02*
X37654819Y-26809524D01*
X37654819Y-26809524D02*
X37607200Y-26714286D01*
X37607200Y-26714286D02*
X37559580Y-26666667D01*
X55228293Y-15392591D02*
X55127278Y-14820172D01*
X55632354Y-14988530D02*
X54925247Y-14281424D01*
X54925247Y-14281424D02*
X54655873Y-14550798D01*
X54655873Y-14550798D02*
X54622201Y-14651813D01*
X54622201Y-14651813D02*
X54622201Y-14719156D01*
X54622201Y-14719156D02*
X54655873Y-14820172D01*
X54655873Y-14820172D02*
X54756888Y-14921187D01*
X54756888Y-14921187D02*
X54857904Y-14954859D01*
X54857904Y-14954859D02*
X54925247Y-14954859D01*
X54925247Y-14954859D02*
X55026262Y-14921187D01*
X55026262Y-14921187D02*
X55295636Y-14651813D01*
X54420171Y-15392591D02*
X54453843Y-15291576D01*
X54453843Y-15291576D02*
X54453843Y-15224233D01*
X54453843Y-15224233D02*
X54420171Y-15123217D01*
X54420171Y-15123217D02*
X54386499Y-15089546D01*
X54386499Y-15089546D02*
X54285484Y-15055874D01*
X54285484Y-15055874D02*
X54218140Y-15055874D01*
X54218140Y-15055874D02*
X54117125Y-15089546D01*
X54117125Y-15089546D02*
X53982438Y-15224233D01*
X53982438Y-15224233D02*
X53948766Y-15325248D01*
X53948766Y-15325248D02*
X53948766Y-15392591D01*
X53948766Y-15392591D02*
X53982438Y-15493607D01*
X53982438Y-15493607D02*
X54016110Y-15527278D01*
X54016110Y-15527278D02*
X54117125Y-15560950D01*
X54117125Y-15560950D02*
X54184469Y-15560950D01*
X54184469Y-15560950D02*
X54285484Y-15527278D01*
X54285484Y-15527278D02*
X54420171Y-15392591D01*
X54420171Y-15392591D02*
X54521186Y-15358920D01*
X54521186Y-15358920D02*
X54588530Y-15358920D01*
X54588530Y-15358920D02*
X54689545Y-15392591D01*
X54689545Y-15392591D02*
X54824232Y-15527278D01*
X54824232Y-15527278D02*
X54857904Y-15628294D01*
X54857904Y-15628294D02*
X54857904Y-15695637D01*
X54857904Y-15695637D02*
X54824232Y-15796652D01*
X54824232Y-15796652D02*
X54689545Y-15931339D01*
X54689545Y-15931339D02*
X54588530Y-15965011D01*
X54588530Y-15965011D02*
X54521186Y-15965011D01*
X54521186Y-15965011D02*
X54420171Y-15931339D01*
X54420171Y-15931339D02*
X54285484Y-15796652D01*
X54285484Y-15796652D02*
X54251812Y-15695637D01*
X54251812Y-15695637D02*
X54251812Y-15628294D01*
X54251812Y-15628294D02*
X54285484Y-15527278D01*
X11861904Y-23254819D02*
X11861904Y-22254819D01*
X11861904Y-22731009D02*
X11290476Y-22731009D01*
X11290476Y-23254819D02*
X11290476Y-22254819D01*
X10861904Y-22350057D02*
X10814285Y-22302438D01*
X10814285Y-22302438D02*
X10719047Y-22254819D01*
X10719047Y-22254819D02*
X10480952Y-22254819D01*
X10480952Y-22254819D02*
X10385714Y-22302438D01*
X10385714Y-22302438D02*
X10338095Y-22350057D01*
X10338095Y-22350057D02*
X10290476Y-22445295D01*
X10290476Y-22445295D02*
X10290476Y-22540533D01*
X10290476Y-22540533D02*
X10338095Y-22683390D01*
X10338095Y-22683390D02*
X10909523Y-23254819D01*
X10909523Y-23254819D02*
X10290476Y-23254819D01*
X41559580Y-19957142D02*
X41607200Y-19909523D01*
X41607200Y-19909523D02*
X41654819Y-19766666D01*
X41654819Y-19766666D02*
X41654819Y-19671428D01*
X41654819Y-19671428D02*
X41607200Y-19528571D01*
X41607200Y-19528571D02*
X41511961Y-19433333D01*
X41511961Y-19433333D02*
X41416723Y-19385714D01*
X41416723Y-19385714D02*
X41226247Y-19338095D01*
X41226247Y-19338095D02*
X41083390Y-19338095D01*
X41083390Y-19338095D02*
X40892914Y-19385714D01*
X40892914Y-19385714D02*
X40797676Y-19433333D01*
X40797676Y-19433333D02*
X40702438Y-19528571D01*
X40702438Y-19528571D02*
X40654819Y-19671428D01*
X40654819Y-19671428D02*
X40654819Y-19766666D01*
X40654819Y-19766666D02*
X40702438Y-19909523D01*
X40702438Y-19909523D02*
X40750057Y-19957142D01*
X41654819Y-20909523D02*
X41654819Y-20338095D01*
X41654819Y-20623809D02*
X40654819Y-20623809D01*
X40654819Y-20623809D02*
X40797676Y-20528571D01*
X40797676Y-20528571D02*
X40892914Y-20433333D01*
X40892914Y-20433333D02*
X40940533Y-20338095D01*
X40654819Y-21528571D02*
X40654819Y-21623809D01*
X40654819Y-21623809D02*
X40702438Y-21719047D01*
X40702438Y-21719047D02*
X40750057Y-21766666D01*
X40750057Y-21766666D02*
X40845295Y-21814285D01*
X40845295Y-21814285D02*
X41035771Y-21861904D01*
X41035771Y-21861904D02*
X41273866Y-21861904D01*
X41273866Y-21861904D02*
X41464342Y-21814285D01*
X41464342Y-21814285D02*
X41559580Y-21766666D01*
X41559580Y-21766666D02*
X41607200Y-21719047D01*
X41607200Y-21719047D02*
X41654819Y-21623809D01*
X41654819Y-21623809D02*
X41654819Y-21528571D01*
X41654819Y-21528571D02*
X41607200Y-21433333D01*
X41607200Y-21433333D02*
X41559580Y-21385714D01*
X41559580Y-21385714D02*
X41464342Y-21338095D01*
X41464342Y-21338095D02*
X41273866Y-21290476D01*
X41273866Y-21290476D02*
X41035771Y-21290476D01*
X41035771Y-21290476D02*
X40845295Y-21338095D01*
X40845295Y-21338095D02*
X40750057Y-21385714D01*
X40750057Y-21385714D02*
X40702438Y-21433333D01*
X40702438Y-21433333D02*
X40654819Y-21528571D01*
X85801904Y-23604819D02*
X85801904Y-22604819D01*
X85801904Y-23081009D02*
X85230476Y-23081009D01*
X85230476Y-23604819D02*
X85230476Y-22604819D01*
X84230476Y-23604819D02*
X84801904Y-23604819D01*
X84516190Y-23604819D02*
X84516190Y-22604819D01*
X84516190Y-22604819D02*
X84611428Y-22747676D01*
X84611428Y-22747676D02*
X84706666Y-22842914D01*
X84706666Y-22842914D02*
X84801904Y-22890533D01*
X81866666Y-8059580D02*
X81914285Y-8107200D01*
X81914285Y-8107200D02*
X82057142Y-8154819D01*
X82057142Y-8154819D02*
X82152380Y-8154819D01*
X82152380Y-8154819D02*
X82295237Y-8107200D01*
X82295237Y-8107200D02*
X82390475Y-8011961D01*
X82390475Y-8011961D02*
X82438094Y-7916723D01*
X82438094Y-7916723D02*
X82485713Y-7726247D01*
X82485713Y-7726247D02*
X82485713Y-7583390D01*
X82485713Y-7583390D02*
X82438094Y-7392914D01*
X82438094Y-7392914D02*
X82390475Y-7297676D01*
X82390475Y-7297676D02*
X82295237Y-7202438D01*
X82295237Y-7202438D02*
X82152380Y-7154819D01*
X82152380Y-7154819D02*
X82057142Y-7154819D01*
X82057142Y-7154819D02*
X81914285Y-7202438D01*
X81914285Y-7202438D02*
X81866666Y-7250057D01*
X81533332Y-7154819D02*
X80866666Y-7154819D01*
X80866666Y-7154819D02*
X81295237Y-8154819D01*
X15259580Y-13733333D02*
X15307200Y-13685714D01*
X15307200Y-13685714D02*
X15354819Y-13542857D01*
X15354819Y-13542857D02*
X15354819Y-13447619D01*
X15354819Y-13447619D02*
X15307200Y-13304762D01*
X15307200Y-13304762D02*
X15211961Y-13209524D01*
X15211961Y-13209524D02*
X15116723Y-13161905D01*
X15116723Y-13161905D02*
X14926247Y-13114286D01*
X14926247Y-13114286D02*
X14783390Y-13114286D01*
X14783390Y-13114286D02*
X14592914Y-13161905D01*
X14592914Y-13161905D02*
X14497676Y-13209524D01*
X14497676Y-13209524D02*
X14402438Y-13304762D01*
X14402438Y-13304762D02*
X14354819Y-13447619D01*
X14354819Y-13447619D02*
X14354819Y-13542857D01*
X14354819Y-13542857D02*
X14402438Y-13685714D01*
X14402438Y-13685714D02*
X14450057Y-13733333D01*
X14688152Y-14590476D02*
X15354819Y-14590476D01*
X14307200Y-14352381D02*
X15021485Y-14114286D01*
X15021485Y-14114286D02*
X15021485Y-14733333D01*
X20066666Y-16554819D02*
X20399999Y-16078628D01*
X20638094Y-16554819D02*
X20638094Y-15554819D01*
X20638094Y-15554819D02*
X20257142Y-15554819D01*
X20257142Y-15554819D02*
X20161904Y-15602438D01*
X20161904Y-15602438D02*
X20114285Y-15650057D01*
X20114285Y-15650057D02*
X20066666Y-15745295D01*
X20066666Y-15745295D02*
X20066666Y-15888152D01*
X20066666Y-15888152D02*
X20114285Y-15983390D01*
X20114285Y-15983390D02*
X20161904Y-16031009D01*
X20161904Y-16031009D02*
X20257142Y-16078628D01*
X20257142Y-16078628D02*
X20638094Y-16078628D01*
X19209523Y-15554819D02*
X19399999Y-15554819D01*
X19399999Y-15554819D02*
X19495237Y-15602438D01*
X19495237Y-15602438D02*
X19542856Y-15650057D01*
X19542856Y-15650057D02*
X19638094Y-15792914D01*
X19638094Y-15792914D02*
X19685713Y-15983390D01*
X19685713Y-15983390D02*
X19685713Y-16364342D01*
X19685713Y-16364342D02*
X19638094Y-16459580D01*
X19638094Y-16459580D02*
X19590475Y-16507200D01*
X19590475Y-16507200D02*
X19495237Y-16554819D01*
X19495237Y-16554819D02*
X19304761Y-16554819D01*
X19304761Y-16554819D02*
X19209523Y-16507200D01*
X19209523Y-16507200D02*
X19161904Y-16459580D01*
X19161904Y-16459580D02*
X19114285Y-16364342D01*
X19114285Y-16364342D02*
X19114285Y-16126247D01*
X19114285Y-16126247D02*
X19161904Y-16031009D01*
X19161904Y-16031009D02*
X19209523Y-15983390D01*
X19209523Y-15983390D02*
X19304761Y-15935771D01*
X19304761Y-15935771D02*
X19495237Y-15935771D01*
X19495237Y-15935771D02*
X19590475Y-15983390D01*
X19590475Y-15983390D02*
X19638094Y-16031009D01*
X19638094Y-16031009D02*
X19685713Y-16126247D01*
X43233333Y-7831009D02*
X43566666Y-7831009D01*
X43566666Y-8354819D02*
X43566666Y-7354819D01*
X43566666Y-7354819D02*
X43090476Y-7354819D01*
X42185714Y-8354819D02*
X42757142Y-8354819D01*
X42471428Y-8354819D02*
X42471428Y-7354819D01*
X42471428Y-7354819D02*
X42566666Y-7497676D01*
X42566666Y-7497676D02*
X42661904Y-7592914D01*
X42661904Y-7592914D02*
X42757142Y-7640533D01*
X50761904Y-14554819D02*
X50761904Y-15364342D01*
X50761904Y-15364342D02*
X50714285Y-15459580D01*
X50714285Y-15459580D02*
X50666666Y-15507200D01*
X50666666Y-15507200D02*
X50571428Y-15554819D01*
X50571428Y-15554819D02*
X50380952Y-15554819D01*
X50380952Y-15554819D02*
X50285714Y-15507200D01*
X50285714Y-15507200D02*
X50238095Y-15459580D01*
X50238095Y-15459580D02*
X50190476Y-15364342D01*
X50190476Y-15364342D02*
X50190476Y-14554819D01*
X49190476Y-15554819D02*
X49761904Y-15554819D01*
X49476190Y-15554819D02*
X49476190Y-14554819D01*
X49476190Y-14554819D02*
X49571428Y-14697676D01*
X49571428Y-14697676D02*
X49666666Y-14792914D01*
X49666666Y-14792914D02*
X49761904Y-14840533D01*
X29254819Y-19061905D02*
X28254819Y-19061905D01*
X28254819Y-19061905D02*
X28254819Y-19300000D01*
X28254819Y-19300000D02*
X28302438Y-19442857D01*
X28302438Y-19442857D02*
X28397676Y-19538095D01*
X28397676Y-19538095D02*
X28492914Y-19585714D01*
X28492914Y-19585714D02*
X28683390Y-19633333D01*
X28683390Y-19633333D02*
X28826247Y-19633333D01*
X28826247Y-19633333D02*
X29016723Y-19585714D01*
X29016723Y-19585714D02*
X29111961Y-19538095D01*
X29111961Y-19538095D02*
X29207200Y-19442857D01*
X29207200Y-19442857D02*
X29254819Y-19300000D01*
X29254819Y-19300000D02*
X29254819Y-19061905D01*
X28350057Y-20014286D02*
X28302438Y-20061905D01*
X28302438Y-20061905D02*
X28254819Y-20157143D01*
X28254819Y-20157143D02*
X28254819Y-20395238D01*
X28254819Y-20395238D02*
X28302438Y-20490476D01*
X28302438Y-20490476D02*
X28350057Y-20538095D01*
X28350057Y-20538095D02*
X28445295Y-20585714D01*
X28445295Y-20585714D02*
X28540533Y-20585714D01*
X28540533Y-20585714D02*
X28683390Y-20538095D01*
X28683390Y-20538095D02*
X29254819Y-19966667D01*
X29254819Y-19966667D02*
X29254819Y-20585714D01*
X93054819Y-14457142D02*
X92578628Y-14123809D01*
X93054819Y-13885714D02*
X92054819Y-13885714D01*
X92054819Y-13885714D02*
X92054819Y-14266666D01*
X92054819Y-14266666D02*
X92102438Y-14361904D01*
X92102438Y-14361904D02*
X92150057Y-14409523D01*
X92150057Y-14409523D02*
X92245295Y-14457142D01*
X92245295Y-14457142D02*
X92388152Y-14457142D01*
X92388152Y-14457142D02*
X92483390Y-14409523D01*
X92483390Y-14409523D02*
X92531009Y-14361904D01*
X92531009Y-14361904D02*
X92578628Y-14266666D01*
X92578628Y-14266666D02*
X92578628Y-13885714D01*
X93054819Y-15409523D02*
X93054819Y-14838095D01*
X93054819Y-15123809D02*
X92054819Y-15123809D01*
X92054819Y-15123809D02*
X92197676Y-15028571D01*
X92197676Y-15028571D02*
X92292914Y-14933333D01*
X92292914Y-14933333D02*
X92340533Y-14838095D01*
X92054819Y-16266666D02*
X92054819Y-16076190D01*
X92054819Y-16076190D02*
X92102438Y-15980952D01*
X92102438Y-15980952D02*
X92150057Y-15933333D01*
X92150057Y-15933333D02*
X92292914Y-15838095D01*
X92292914Y-15838095D02*
X92483390Y-15790476D01*
X92483390Y-15790476D02*
X92864342Y-15790476D01*
X92864342Y-15790476D02*
X92959580Y-15838095D01*
X92959580Y-15838095D02*
X93007200Y-15885714D01*
X93007200Y-15885714D02*
X93054819Y-15980952D01*
X93054819Y-15980952D02*
X93054819Y-16171428D01*
X93054819Y-16171428D02*
X93007200Y-16266666D01*
X93007200Y-16266666D02*
X92959580Y-16314285D01*
X92959580Y-16314285D02*
X92864342Y-16361904D01*
X92864342Y-16361904D02*
X92626247Y-16361904D01*
X92626247Y-16361904D02*
X92531009Y-16314285D01*
X92531009Y-16314285D02*
X92483390Y-16266666D01*
X92483390Y-16266666D02*
X92435771Y-16171428D01*
X92435771Y-16171428D02*
X92435771Y-15980952D01*
X92435771Y-15980952D02*
X92483390Y-15885714D01*
X92483390Y-15885714D02*
X92531009Y-15838095D01*
X92531009Y-15838095D02*
X92626247Y-15790476D01*
X2124819Y-2857142D02*
X1648628Y-2523809D01*
X2124819Y-2285714D02*
X1124819Y-2285714D01*
X1124819Y-2285714D02*
X1124819Y-2666666D01*
X1124819Y-2666666D02*
X1172438Y-2761904D01*
X1172438Y-2761904D02*
X1220057Y-2809523D01*
X1220057Y-2809523D02*
X1315295Y-2857142D01*
X1315295Y-2857142D02*
X1458152Y-2857142D01*
X1458152Y-2857142D02*
X1553390Y-2809523D01*
X1553390Y-2809523D02*
X1601009Y-2761904D01*
X1601009Y-2761904D02*
X1648628Y-2666666D01*
X1648628Y-2666666D02*
X1648628Y-2285714D01*
X2124819Y-3809523D02*
X2124819Y-3238095D01*
X2124819Y-3523809D02*
X1124819Y-3523809D01*
X1124819Y-3523809D02*
X1267676Y-3428571D01*
X1267676Y-3428571D02*
X1362914Y-3333333D01*
X1362914Y-3333333D02*
X1410533Y-3238095D01*
X1124819Y-4142857D02*
X1124819Y-4809523D01*
X1124819Y-4809523D02*
X2124819Y-4380952D01*
X44342857Y-18484819D02*
X44676190Y-18008628D01*
X44914285Y-18484819D02*
X44914285Y-17484819D01*
X44914285Y-17484819D02*
X44533333Y-17484819D01*
X44533333Y-17484819D02*
X44438095Y-17532438D01*
X44438095Y-17532438D02*
X44390476Y-17580057D01*
X44390476Y-17580057D02*
X44342857Y-17675295D01*
X44342857Y-17675295D02*
X44342857Y-17818152D01*
X44342857Y-17818152D02*
X44390476Y-17913390D01*
X44390476Y-17913390D02*
X44438095Y-17961009D01*
X44438095Y-17961009D02*
X44533333Y-18008628D01*
X44533333Y-18008628D02*
X44914285Y-18008628D01*
X43390476Y-18484819D02*
X43961904Y-18484819D01*
X43676190Y-18484819D02*
X43676190Y-17484819D01*
X43676190Y-17484819D02*
X43771428Y-17627676D01*
X43771428Y-17627676D02*
X43866666Y-17722914D01*
X43866666Y-17722914D02*
X43961904Y-17770533D01*
X42771428Y-17484819D02*
X42676190Y-17484819D01*
X42676190Y-17484819D02*
X42580952Y-17532438D01*
X42580952Y-17532438D02*
X42533333Y-17580057D01*
X42533333Y-17580057D02*
X42485714Y-17675295D01*
X42485714Y-17675295D02*
X42438095Y-17865771D01*
X42438095Y-17865771D02*
X42438095Y-18103866D01*
X42438095Y-18103866D02*
X42485714Y-18294342D01*
X42485714Y-18294342D02*
X42533333Y-18389580D01*
X42533333Y-18389580D02*
X42580952Y-18437200D01*
X42580952Y-18437200D02*
X42676190Y-18484819D01*
X42676190Y-18484819D02*
X42771428Y-18484819D01*
X42771428Y-18484819D02*
X42866666Y-18437200D01*
X42866666Y-18437200D02*
X42914285Y-18389580D01*
X42914285Y-18389580D02*
X42961904Y-18294342D01*
X42961904Y-18294342D02*
X43009523Y-18103866D01*
X43009523Y-18103866D02*
X43009523Y-17865771D01*
X43009523Y-17865771D02*
X42961904Y-17675295D01*
X42961904Y-17675295D02*
X42914285Y-17580057D01*
X42914285Y-17580057D02*
X42866666Y-17532438D01*
X42866666Y-17532438D02*
X42771428Y-17484819D01*
X40054819Y-26333333D02*
X39578628Y-26000000D01*
X40054819Y-25761905D02*
X39054819Y-25761905D01*
X39054819Y-25761905D02*
X39054819Y-26142857D01*
X39054819Y-26142857D02*
X39102438Y-26238095D01*
X39102438Y-26238095D02*
X39150057Y-26285714D01*
X39150057Y-26285714D02*
X39245295Y-26333333D01*
X39245295Y-26333333D02*
X39388152Y-26333333D01*
X39388152Y-26333333D02*
X39483390Y-26285714D01*
X39483390Y-26285714D02*
X39531009Y-26238095D01*
X39531009Y-26238095D02*
X39578628Y-26142857D01*
X39578628Y-26142857D02*
X39578628Y-25761905D01*
X39388152Y-27190476D02*
X40054819Y-27190476D01*
X39007200Y-26952381D02*
X39721485Y-26714286D01*
X39721485Y-26714286D02*
X39721485Y-27333333D01*
X92361904Y-17054819D02*
X92361904Y-17864342D01*
X92361904Y-17864342D02*
X92314285Y-17959580D01*
X92314285Y-17959580D02*
X92266666Y-18007200D01*
X92266666Y-18007200D02*
X92171428Y-18054819D01*
X92171428Y-18054819D02*
X91980952Y-18054819D01*
X91980952Y-18054819D02*
X91885714Y-18007200D01*
X91885714Y-18007200D02*
X91838095Y-17959580D01*
X91838095Y-17959580D02*
X91790476Y-17864342D01*
X91790476Y-17864342D02*
X91790476Y-17054819D01*
X90885714Y-17388152D02*
X90885714Y-18054819D01*
X91123809Y-17007200D02*
X91361904Y-17721485D01*
X91361904Y-17721485D02*
X90742857Y-17721485D01*
X5463333Y-8144819D02*
X5463333Y-8859104D01*
X5463333Y-8859104D02*
X5510952Y-9001961D01*
X5510952Y-9001961D02*
X5606190Y-9097200D01*
X5606190Y-9097200D02*
X5749047Y-9144819D01*
X5749047Y-9144819D02*
X5844285Y-9144819D01*
X5034761Y-8240057D02*
X4987142Y-8192438D01*
X4987142Y-8192438D02*
X4891904Y-8144819D01*
X4891904Y-8144819D02*
X4653809Y-8144819D01*
X4653809Y-8144819D02*
X4558571Y-8192438D01*
X4558571Y-8192438D02*
X4510952Y-8240057D01*
X4510952Y-8240057D02*
X4463333Y-8335295D01*
X4463333Y-8335295D02*
X4463333Y-8430533D01*
X4463333Y-8430533D02*
X4510952Y-8573390D01*
X4510952Y-8573390D02*
X5082380Y-9144819D01*
X5082380Y-9144819D02*
X4463333Y-9144819D01*
X33824819Y-23933333D02*
X33348628Y-23600000D01*
X33824819Y-23361905D02*
X32824819Y-23361905D01*
X32824819Y-23361905D02*
X32824819Y-23742857D01*
X32824819Y-23742857D02*
X32872438Y-23838095D01*
X32872438Y-23838095D02*
X32920057Y-23885714D01*
X32920057Y-23885714D02*
X33015295Y-23933333D01*
X33015295Y-23933333D02*
X33158152Y-23933333D01*
X33158152Y-23933333D02*
X33253390Y-23885714D01*
X33253390Y-23885714D02*
X33301009Y-23838095D01*
X33301009Y-23838095D02*
X33348628Y-23742857D01*
X33348628Y-23742857D02*
X33348628Y-23361905D01*
X32824819Y-24838095D02*
X32824819Y-24361905D01*
X32824819Y-24361905D02*
X33301009Y-24314286D01*
X33301009Y-24314286D02*
X33253390Y-24361905D01*
X33253390Y-24361905D02*
X33205771Y-24457143D01*
X33205771Y-24457143D02*
X33205771Y-24695238D01*
X33205771Y-24695238D02*
X33253390Y-24790476D01*
X33253390Y-24790476D02*
X33301009Y-24838095D01*
X33301009Y-24838095D02*
X33396247Y-24885714D01*
X33396247Y-24885714D02*
X33634342Y-24885714D01*
X33634342Y-24885714D02*
X33729580Y-24838095D01*
X33729580Y-24838095D02*
X33777200Y-24790476D01*
X33777200Y-24790476D02*
X33824819Y-24695238D01*
X33824819Y-24695238D02*
X33824819Y-24457143D01*
X33824819Y-24457143D02*
X33777200Y-24361905D01*
X33777200Y-24361905D02*
X33729580Y-24314286D01*
X26666666Y-23184819D02*
X26999999Y-22708628D01*
X27238094Y-23184819D02*
X27238094Y-22184819D01*
X27238094Y-22184819D02*
X26857142Y-22184819D01*
X26857142Y-22184819D02*
X26761904Y-22232438D01*
X26761904Y-22232438D02*
X26714285Y-22280057D01*
X26714285Y-22280057D02*
X26666666Y-22375295D01*
X26666666Y-22375295D02*
X26666666Y-22518152D01*
X26666666Y-22518152D02*
X26714285Y-22613390D01*
X26714285Y-22613390D02*
X26761904Y-22661009D01*
X26761904Y-22661009D02*
X26857142Y-22708628D01*
X26857142Y-22708628D02*
X27238094Y-22708628D01*
X26333332Y-22184819D02*
X25666666Y-22184819D01*
X25666666Y-22184819D02*
X26095237Y-23184819D01*
X9966666Y-13259580D02*
X10014285Y-13307200D01*
X10014285Y-13307200D02*
X10157142Y-13354819D01*
X10157142Y-13354819D02*
X10252380Y-13354819D01*
X10252380Y-13354819D02*
X10395237Y-13307200D01*
X10395237Y-13307200D02*
X10490475Y-13211961D01*
X10490475Y-13211961D02*
X10538094Y-13116723D01*
X10538094Y-13116723D02*
X10585713Y-12926247D01*
X10585713Y-12926247D02*
X10585713Y-12783390D01*
X10585713Y-12783390D02*
X10538094Y-12592914D01*
X10538094Y-12592914D02*
X10490475Y-12497676D01*
X10490475Y-12497676D02*
X10395237Y-12402438D01*
X10395237Y-12402438D02*
X10252380Y-12354819D01*
X10252380Y-12354819D02*
X10157142Y-12354819D01*
X10157142Y-12354819D02*
X10014285Y-12402438D01*
X10014285Y-12402438D02*
X9966666Y-12450057D01*
X9109523Y-12354819D02*
X9299999Y-12354819D01*
X9299999Y-12354819D02*
X9395237Y-12402438D01*
X9395237Y-12402438D02*
X9442856Y-12450057D01*
X9442856Y-12450057D02*
X9538094Y-12592914D01*
X9538094Y-12592914D02*
X9585713Y-12783390D01*
X9585713Y-12783390D02*
X9585713Y-13164342D01*
X9585713Y-13164342D02*
X9538094Y-13259580D01*
X9538094Y-13259580D02*
X9490475Y-13307200D01*
X9490475Y-13307200D02*
X9395237Y-13354819D01*
X9395237Y-13354819D02*
X9204761Y-13354819D01*
X9204761Y-13354819D02*
X9109523Y-13307200D01*
X9109523Y-13307200D02*
X9061904Y-13259580D01*
X9061904Y-13259580D02*
X9014285Y-13164342D01*
X9014285Y-13164342D02*
X9014285Y-12926247D01*
X9014285Y-12926247D02*
X9061904Y-12831009D01*
X9061904Y-12831009D02*
X9109523Y-12783390D01*
X9109523Y-12783390D02*
X9204761Y-12735771D01*
X9204761Y-12735771D02*
X9395237Y-12735771D01*
X9395237Y-12735771D02*
X9490475Y-12783390D01*
X9490475Y-12783390D02*
X9538094Y-12831009D01*
X9538094Y-12831009D02*
X9585713Y-12926247D01*
X53654819Y-9857142D02*
X53178628Y-9523809D01*
X53654819Y-9285714D02*
X52654819Y-9285714D01*
X52654819Y-9285714D02*
X52654819Y-9666666D01*
X52654819Y-9666666D02*
X52702438Y-9761904D01*
X52702438Y-9761904D02*
X52750057Y-9809523D01*
X52750057Y-9809523D02*
X52845295Y-9857142D01*
X52845295Y-9857142D02*
X52988152Y-9857142D01*
X52988152Y-9857142D02*
X53083390Y-9809523D01*
X53083390Y-9809523D02*
X53131009Y-9761904D01*
X53131009Y-9761904D02*
X53178628Y-9666666D01*
X53178628Y-9666666D02*
X53178628Y-9285714D01*
X53654819Y-10809523D02*
X53654819Y-10238095D01*
X53654819Y-10523809D02*
X52654819Y-10523809D01*
X52654819Y-10523809D02*
X52797676Y-10428571D01*
X52797676Y-10428571D02*
X52892914Y-10333333D01*
X52892914Y-10333333D02*
X52940533Y-10238095D01*
X52988152Y-11666666D02*
X53654819Y-11666666D01*
X52607200Y-11428571D02*
X53321485Y-11190476D01*
X53321485Y-11190476D02*
X53321485Y-11809523D01*
X94101904Y-8054819D02*
X94101904Y-7054819D01*
X94101904Y-7531009D02*
X93530476Y-7531009D01*
X93530476Y-8054819D02*
X93530476Y-7054819D01*
X93149523Y-7054819D02*
X92530476Y-7054819D01*
X92530476Y-7054819D02*
X92863809Y-7435771D01*
X92863809Y-7435771D02*
X92720952Y-7435771D01*
X92720952Y-7435771D02*
X92625714Y-7483390D01*
X92625714Y-7483390D02*
X92578095Y-7531009D01*
X92578095Y-7531009D02*
X92530476Y-7626247D01*
X92530476Y-7626247D02*
X92530476Y-7864342D01*
X92530476Y-7864342D02*
X92578095Y-7959580D01*
X92578095Y-7959580D02*
X92625714Y-8007200D01*
X92625714Y-8007200D02*
X92720952Y-8054819D01*
X92720952Y-8054819D02*
X93006666Y-8054819D01*
X93006666Y-8054819D02*
X93101904Y-8007200D01*
X93101904Y-8007200D02*
X93149523Y-7959580D01*
X29254819Y-15833333D02*
X28778628Y-15500000D01*
X29254819Y-15261905D02*
X28254819Y-15261905D01*
X28254819Y-15261905D02*
X28254819Y-15642857D01*
X28254819Y-15642857D02*
X28302438Y-15738095D01*
X28302438Y-15738095D02*
X28350057Y-15785714D01*
X28350057Y-15785714D02*
X28445295Y-15833333D01*
X28445295Y-15833333D02*
X28588152Y-15833333D01*
X28588152Y-15833333D02*
X28683390Y-15785714D01*
X28683390Y-15785714D02*
X28731009Y-15738095D01*
X28731009Y-15738095D02*
X28778628Y-15642857D01*
X28778628Y-15642857D02*
X28778628Y-15261905D01*
X29254819Y-16309524D02*
X29254819Y-16500000D01*
X29254819Y-16500000D02*
X29207200Y-16595238D01*
X29207200Y-16595238D02*
X29159580Y-16642857D01*
X29159580Y-16642857D02*
X29016723Y-16738095D01*
X29016723Y-16738095D02*
X28826247Y-16785714D01*
X28826247Y-16785714D02*
X28445295Y-16785714D01*
X28445295Y-16785714D02*
X28350057Y-16738095D01*
X28350057Y-16738095D02*
X28302438Y-16690476D01*
X28302438Y-16690476D02*
X28254819Y-16595238D01*
X28254819Y-16595238D02*
X28254819Y-16404762D01*
X28254819Y-16404762D02*
X28302438Y-16309524D01*
X28302438Y-16309524D02*
X28350057Y-16261905D01*
X28350057Y-16261905D02*
X28445295Y-16214286D01*
X28445295Y-16214286D02*
X28683390Y-16214286D01*
X28683390Y-16214286D02*
X28778628Y-16261905D01*
X28778628Y-16261905D02*
X28826247Y-16309524D01*
X28826247Y-16309524D02*
X28873866Y-16404762D01*
X28873866Y-16404762D02*
X28873866Y-16595238D01*
X28873866Y-16595238D02*
X28826247Y-16690476D01*
X28826247Y-16690476D02*
X28778628Y-16738095D01*
X28778628Y-16738095D02*
X28683390Y-16785714D01*
X82159580Y-11233333D02*
X82207200Y-11185714D01*
X82207200Y-11185714D02*
X82254819Y-11042857D01*
X82254819Y-11042857D02*
X82254819Y-10947619D01*
X82254819Y-10947619D02*
X82207200Y-10804762D01*
X82207200Y-10804762D02*
X82111961Y-10709524D01*
X82111961Y-10709524D02*
X82016723Y-10661905D01*
X82016723Y-10661905D02*
X81826247Y-10614286D01*
X81826247Y-10614286D02*
X81683390Y-10614286D01*
X81683390Y-10614286D02*
X81492914Y-10661905D01*
X81492914Y-10661905D02*
X81397676Y-10709524D01*
X81397676Y-10709524D02*
X81302438Y-10804762D01*
X81302438Y-10804762D02*
X81254819Y-10947619D01*
X81254819Y-10947619D02*
X81254819Y-11042857D01*
X81254819Y-11042857D02*
X81302438Y-11185714D01*
X81302438Y-11185714D02*
X81350057Y-11233333D01*
X81254819Y-12138095D02*
X81254819Y-11661905D01*
X81254819Y-11661905D02*
X81731009Y-11614286D01*
X81731009Y-11614286D02*
X81683390Y-11661905D01*
X81683390Y-11661905D02*
X81635771Y-11757143D01*
X81635771Y-11757143D02*
X81635771Y-11995238D01*
X81635771Y-11995238D02*
X81683390Y-12090476D01*
X81683390Y-12090476D02*
X81731009Y-12138095D01*
X81731009Y-12138095D02*
X81826247Y-12185714D01*
X81826247Y-12185714D02*
X82064342Y-12185714D01*
X82064342Y-12185714D02*
X82159580Y-12138095D01*
X82159580Y-12138095D02*
X82207200Y-12090476D01*
X82207200Y-12090476D02*
X82254819Y-11995238D01*
X82254819Y-11995238D02*
X82254819Y-11757143D01*
X82254819Y-11757143D02*
X82207200Y-11661905D01*
X82207200Y-11661905D02*
X82159580Y-11614286D01*
X49661904Y-12254819D02*
X49661904Y-13064342D01*
X49661904Y-13064342D02*
X49614285Y-13159580D01*
X49614285Y-13159580D02*
X49566666Y-13207200D01*
X49566666Y-13207200D02*
X49471428Y-13254819D01*
X49471428Y-13254819D02*
X49280952Y-13254819D01*
X49280952Y-13254819D02*
X49185714Y-13207200D01*
X49185714Y-13207200D02*
X49138095Y-13159580D01*
X49138095Y-13159580D02*
X49090476Y-13064342D01*
X49090476Y-13064342D02*
X49090476Y-12254819D01*
X48185714Y-12254819D02*
X48376190Y-12254819D01*
X48376190Y-12254819D02*
X48471428Y-12302438D01*
X48471428Y-12302438D02*
X48519047Y-12350057D01*
X48519047Y-12350057D02*
X48614285Y-12492914D01*
X48614285Y-12492914D02*
X48661904Y-12683390D01*
X48661904Y-12683390D02*
X48661904Y-13064342D01*
X48661904Y-13064342D02*
X48614285Y-13159580D01*
X48614285Y-13159580D02*
X48566666Y-13207200D01*
X48566666Y-13207200D02*
X48471428Y-13254819D01*
X48471428Y-13254819D02*
X48280952Y-13254819D01*
X48280952Y-13254819D02*
X48185714Y-13207200D01*
X48185714Y-13207200D02*
X48138095Y-13159580D01*
X48138095Y-13159580D02*
X48090476Y-13064342D01*
X48090476Y-13064342D02*
X48090476Y-12826247D01*
X48090476Y-12826247D02*
X48138095Y-12731009D01*
X48138095Y-12731009D02*
X48185714Y-12683390D01*
X48185714Y-12683390D02*
X48280952Y-12635771D01*
X48280952Y-12635771D02*
X48471428Y-12635771D01*
X48471428Y-12635771D02*
X48566666Y-12683390D01*
X48566666Y-12683390D02*
X48614285Y-12731009D01*
X48614285Y-12731009D02*
X48661904Y-12826247D01*
X12842857Y-16384819D02*
X13176190Y-15908628D01*
X13414285Y-16384819D02*
X13414285Y-15384819D01*
X13414285Y-15384819D02*
X13033333Y-15384819D01*
X13033333Y-15384819D02*
X12938095Y-15432438D01*
X12938095Y-15432438D02*
X12890476Y-15480057D01*
X12890476Y-15480057D02*
X12842857Y-15575295D01*
X12842857Y-15575295D02*
X12842857Y-15718152D01*
X12842857Y-15718152D02*
X12890476Y-15813390D01*
X12890476Y-15813390D02*
X12938095Y-15861009D01*
X12938095Y-15861009D02*
X13033333Y-15908628D01*
X13033333Y-15908628D02*
X13414285Y-15908628D01*
X11890476Y-16384819D02*
X12461904Y-16384819D01*
X12176190Y-16384819D02*
X12176190Y-15384819D01*
X12176190Y-15384819D02*
X12271428Y-15527676D01*
X12271428Y-15527676D02*
X12366666Y-15622914D01*
X12366666Y-15622914D02*
X12461904Y-15670533D01*
X11319047Y-15813390D02*
X11414285Y-15765771D01*
X11414285Y-15765771D02*
X11461904Y-15718152D01*
X11461904Y-15718152D02*
X11509523Y-15622914D01*
X11509523Y-15622914D02*
X11509523Y-15575295D01*
X11509523Y-15575295D02*
X11461904Y-15480057D01*
X11461904Y-15480057D02*
X11414285Y-15432438D01*
X11414285Y-15432438D02*
X11319047Y-15384819D01*
X11319047Y-15384819D02*
X11128571Y-15384819D01*
X11128571Y-15384819D02*
X11033333Y-15432438D01*
X11033333Y-15432438D02*
X10985714Y-15480057D01*
X10985714Y-15480057D02*
X10938095Y-15575295D01*
X10938095Y-15575295D02*
X10938095Y-15622914D01*
X10938095Y-15622914D02*
X10985714Y-15718152D01*
X10985714Y-15718152D02*
X11033333Y-15765771D01*
X11033333Y-15765771D02*
X11128571Y-15813390D01*
X11128571Y-15813390D02*
X11319047Y-15813390D01*
X11319047Y-15813390D02*
X11414285Y-15861009D01*
X11414285Y-15861009D02*
X11461904Y-15908628D01*
X11461904Y-15908628D02*
X11509523Y-16003866D01*
X11509523Y-16003866D02*
X11509523Y-16194342D01*
X11509523Y-16194342D02*
X11461904Y-16289580D01*
X11461904Y-16289580D02*
X11414285Y-16337200D01*
X11414285Y-16337200D02*
X11319047Y-16384819D01*
X11319047Y-16384819D02*
X11128571Y-16384819D01*
X11128571Y-16384819D02*
X11033333Y-16337200D01*
X11033333Y-16337200D02*
X10985714Y-16289580D01*
X10985714Y-16289580D02*
X10938095Y-16194342D01*
X10938095Y-16194342D02*
X10938095Y-16003866D01*
X10938095Y-16003866D02*
X10985714Y-15908628D01*
X10985714Y-15908628D02*
X11033333Y-15861009D01*
X11033333Y-15861009D02*
X11128571Y-15813390D01*
X44959580Y-26357142D02*
X45007200Y-26309523D01*
X45007200Y-26309523D02*
X45054819Y-26166666D01*
X45054819Y-26166666D02*
X45054819Y-26071428D01*
X45054819Y-26071428D02*
X45007200Y-25928571D01*
X45007200Y-25928571D02*
X44911961Y-25833333D01*
X44911961Y-25833333D02*
X44816723Y-25785714D01*
X44816723Y-25785714D02*
X44626247Y-25738095D01*
X44626247Y-25738095D02*
X44483390Y-25738095D01*
X44483390Y-25738095D02*
X44292914Y-25785714D01*
X44292914Y-25785714D02*
X44197676Y-25833333D01*
X44197676Y-25833333D02*
X44102438Y-25928571D01*
X44102438Y-25928571D02*
X44054819Y-26071428D01*
X44054819Y-26071428D02*
X44054819Y-26166666D01*
X44054819Y-26166666D02*
X44102438Y-26309523D01*
X44102438Y-26309523D02*
X44150057Y-26357142D01*
X45054819Y-27309523D02*
X45054819Y-26738095D01*
X45054819Y-27023809D02*
X44054819Y-27023809D01*
X44054819Y-27023809D02*
X44197676Y-26928571D01*
X44197676Y-26928571D02*
X44292914Y-26833333D01*
X44292914Y-26833333D02*
X44340533Y-26738095D01*
X45054819Y-28261904D02*
X45054819Y-27690476D01*
X45054819Y-27976190D02*
X44054819Y-27976190D01*
X44054819Y-27976190D02*
X44197676Y-27880952D01*
X44197676Y-27880952D02*
X44292914Y-27785714D01*
X44292914Y-27785714D02*
X44340533Y-27690476D01*
X29254819Y-17061905D02*
X28254819Y-17061905D01*
X28254819Y-17061905D02*
X28254819Y-17300000D01*
X28254819Y-17300000D02*
X28302438Y-17442857D01*
X28302438Y-17442857D02*
X28397676Y-17538095D01*
X28397676Y-17538095D02*
X28492914Y-17585714D01*
X28492914Y-17585714D02*
X28683390Y-17633333D01*
X28683390Y-17633333D02*
X28826247Y-17633333D01*
X28826247Y-17633333D02*
X29016723Y-17585714D01*
X29016723Y-17585714D02*
X29111961Y-17538095D01*
X29111961Y-17538095D02*
X29207200Y-17442857D01*
X29207200Y-17442857D02*
X29254819Y-17300000D01*
X29254819Y-17300000D02*
X29254819Y-17061905D01*
X28254819Y-17966667D02*
X28254819Y-18585714D01*
X28254819Y-18585714D02*
X28635771Y-18252381D01*
X28635771Y-18252381D02*
X28635771Y-18395238D01*
X28635771Y-18395238D02*
X28683390Y-18490476D01*
X28683390Y-18490476D02*
X28731009Y-18538095D01*
X28731009Y-18538095D02*
X28826247Y-18585714D01*
X28826247Y-18585714D02*
X29064342Y-18585714D01*
X29064342Y-18585714D02*
X29159580Y-18538095D01*
X29159580Y-18538095D02*
X29207200Y-18490476D01*
X29207200Y-18490476D02*
X29254819Y-18395238D01*
X29254819Y-18395238D02*
X29254819Y-18109524D01*
X29254819Y-18109524D02*
X29207200Y-18014286D01*
X29207200Y-18014286D02*
X29159580Y-17966667D01*
X61663588Y-18872112D02*
X61663588Y-18939456D01*
X61663588Y-18939456D02*
X61730932Y-19074143D01*
X61730932Y-19074143D02*
X61798275Y-19141486D01*
X61798275Y-19141486D02*
X61932962Y-19208830D01*
X61932962Y-19208830D02*
X62067649Y-19208830D01*
X62067649Y-19208830D02*
X62168664Y-19175158D01*
X62168664Y-19175158D02*
X62337023Y-19074143D01*
X62337023Y-19074143D02*
X62438038Y-18973128D01*
X62438038Y-18973128D02*
X62539054Y-18804769D01*
X62539054Y-18804769D02*
X62572725Y-18703754D01*
X62572725Y-18703754D02*
X62572725Y-18569067D01*
X62572725Y-18569067D02*
X62505382Y-18434380D01*
X62505382Y-18434380D02*
X62438038Y-18367036D01*
X62438038Y-18367036D02*
X62303351Y-18299693D01*
X62303351Y-18299693D02*
X62236008Y-18299693D01*
X61966634Y-18030319D02*
X61966634Y-17962975D01*
X61966634Y-17962975D02*
X61932962Y-17861960D01*
X61932962Y-17861960D02*
X61764603Y-17693601D01*
X61764603Y-17693601D02*
X61663588Y-17659929D01*
X61663588Y-17659929D02*
X61596245Y-17659929D01*
X61596245Y-17659929D02*
X61495229Y-17693601D01*
X61495229Y-17693601D02*
X61427886Y-17760945D01*
X61427886Y-17760945D02*
X61360542Y-17895632D01*
X61360542Y-17895632D02*
X61360542Y-18703754D01*
X61360542Y-18703754D02*
X60922810Y-18266021D01*
X56419417Y-20454017D02*
X56082699Y-20790735D01*
X57025508Y-20319330D02*
X56419417Y-20454017D01*
X56419417Y-20454017D02*
X56554104Y-19847926D01*
X55240906Y-19948941D02*
X55644967Y-20353002D01*
X55442936Y-20150971D02*
X56150043Y-19443865D01*
X56150043Y-19443865D02*
X56116371Y-19612223D01*
X56116371Y-19612223D02*
X56116371Y-19746910D01*
X56116371Y-19746910D02*
X56150043Y-19847926D01*
X54633333Y-4354819D02*
X54633333Y-5069104D01*
X54633333Y-5069104D02*
X54680952Y-5211961D01*
X54680952Y-5211961D02*
X54776190Y-5307200D01*
X54776190Y-5307200D02*
X54919047Y-5354819D01*
X54919047Y-5354819D02*
X55014285Y-5354819D01*
X53680952Y-4354819D02*
X54157142Y-4354819D01*
X54157142Y-4354819D02*
X54204761Y-4831009D01*
X54204761Y-4831009D02*
X54157142Y-4783390D01*
X54157142Y-4783390D02*
X54061904Y-4735771D01*
X54061904Y-4735771D02*
X53823809Y-4735771D01*
X53823809Y-4735771D02*
X53728571Y-4783390D01*
X53728571Y-4783390D02*
X53680952Y-4831009D01*
X53680952Y-4831009D02*
X53633333Y-4926247D01*
X53633333Y-4926247D02*
X53633333Y-5164342D01*
X53633333Y-5164342D02*
X53680952Y-5259580D01*
X53680952Y-5259580D02*
X53728571Y-5307200D01*
X53728571Y-5307200D02*
X53823809Y-5354819D01*
X53823809Y-5354819D02*
X54061904Y-5354819D01*
X54061904Y-5354819D02*
X54157142Y-5307200D01*
X54157142Y-5307200D02*
X54204761Y-5259580D01*
X20738094Y-20054819D02*
X20738094Y-19054819D01*
X20738094Y-19054819D02*
X20499999Y-19054819D01*
X20499999Y-19054819D02*
X20357142Y-19102438D01*
X20357142Y-19102438D02*
X20261904Y-19197676D01*
X20261904Y-19197676D02*
X20214285Y-19292914D01*
X20214285Y-19292914D02*
X20166666Y-19483390D01*
X20166666Y-19483390D02*
X20166666Y-19626247D01*
X20166666Y-19626247D02*
X20214285Y-19816723D01*
X20214285Y-19816723D02*
X20261904Y-19911961D01*
X20261904Y-19911961D02*
X20357142Y-20007200D01*
X20357142Y-20007200D02*
X20499999Y-20054819D01*
X20499999Y-20054819D02*
X20738094Y-20054819D01*
X19309523Y-19388152D02*
X19309523Y-20054819D01*
X19547618Y-19007200D02*
X19785713Y-19721485D01*
X19785713Y-19721485D02*
X19166666Y-19721485D01*
X57001904Y-4754819D02*
X57001904Y-3754819D01*
X57001904Y-4231009D02*
X56430476Y-4231009D01*
X56430476Y-4754819D02*
X56430476Y-3754819D01*
X55525714Y-4088152D02*
X55525714Y-4754819D01*
X55763809Y-3707200D02*
X56001904Y-4421485D01*
X56001904Y-4421485D02*
X55382857Y-4421485D01*
X50166666Y-28354819D02*
X50499999Y-27878628D01*
X50738094Y-28354819D02*
X50738094Y-27354819D01*
X50738094Y-27354819D02*
X50357142Y-27354819D01*
X50357142Y-27354819D02*
X50261904Y-27402438D01*
X50261904Y-27402438D02*
X50214285Y-27450057D01*
X50214285Y-27450057D02*
X50166666Y-27545295D01*
X50166666Y-27545295D02*
X50166666Y-27688152D01*
X50166666Y-27688152D02*
X50214285Y-27783390D01*
X50214285Y-27783390D02*
X50261904Y-27831009D01*
X50261904Y-27831009D02*
X50357142Y-27878628D01*
X50357142Y-27878628D02*
X50738094Y-27878628D01*
X49214285Y-28354819D02*
X49785713Y-28354819D01*
X49499999Y-28354819D02*
X49499999Y-27354819D01*
X49499999Y-27354819D02*
X49595237Y-27497676D01*
X49595237Y-27497676D02*
X49690475Y-27592914D01*
X49690475Y-27592914D02*
X49785713Y-27640533D01*
X41589580Y-16857142D02*
X41637200Y-16809523D01*
X41637200Y-16809523D02*
X41684819Y-16666666D01*
X41684819Y-16666666D02*
X41684819Y-16571428D01*
X41684819Y-16571428D02*
X41637200Y-16428571D01*
X41637200Y-16428571D02*
X41541961Y-16333333D01*
X41541961Y-16333333D02*
X41446723Y-16285714D01*
X41446723Y-16285714D02*
X41256247Y-16238095D01*
X41256247Y-16238095D02*
X41113390Y-16238095D01*
X41113390Y-16238095D02*
X40922914Y-16285714D01*
X40922914Y-16285714D02*
X40827676Y-16333333D01*
X40827676Y-16333333D02*
X40732438Y-16428571D01*
X40732438Y-16428571D02*
X40684819Y-16571428D01*
X40684819Y-16571428D02*
X40684819Y-16666666D01*
X40684819Y-16666666D02*
X40732438Y-16809523D01*
X40732438Y-16809523D02*
X40780057Y-16857142D01*
X41684819Y-17809523D02*
X41684819Y-17238095D01*
X41684819Y-17523809D02*
X40684819Y-17523809D01*
X40684819Y-17523809D02*
X40827676Y-17428571D01*
X40827676Y-17428571D02*
X40922914Y-17333333D01*
X40922914Y-17333333D02*
X40970533Y-17238095D01*
X40684819Y-18142857D02*
X40684819Y-18761904D01*
X40684819Y-18761904D02*
X41065771Y-18428571D01*
X41065771Y-18428571D02*
X41065771Y-18571428D01*
X41065771Y-18571428D02*
X41113390Y-18666666D01*
X41113390Y-18666666D02*
X41161009Y-18714285D01*
X41161009Y-18714285D02*
X41256247Y-18761904D01*
X41256247Y-18761904D02*
X41494342Y-18761904D01*
X41494342Y-18761904D02*
X41589580Y-18714285D01*
X41589580Y-18714285D02*
X41637200Y-18666666D01*
X41637200Y-18666666D02*
X41684819Y-18571428D01*
X41684819Y-18571428D02*
X41684819Y-18285714D01*
X41684819Y-18285714D02*
X41637200Y-18190476D01*
X41637200Y-18190476D02*
X41589580Y-18142857D01*
X85461904Y-17254819D02*
X84890476Y-17254819D01*
X85176190Y-18254819D02*
X85176190Y-17254819D01*
X84557142Y-18254819D02*
X84557142Y-17254819D01*
X84557142Y-17254819D02*
X84176190Y-17254819D01*
X84176190Y-17254819D02*
X84080952Y-17302438D01*
X84080952Y-17302438D02*
X84033333Y-17350057D01*
X84033333Y-17350057D02*
X83985714Y-17445295D01*
X83985714Y-17445295D02*
X83985714Y-17588152D01*
X83985714Y-17588152D02*
X84033333Y-17683390D01*
X84033333Y-17683390D02*
X84080952Y-17731009D01*
X84080952Y-17731009D02*
X84176190Y-17778628D01*
X84176190Y-17778628D02*
X84557142Y-17778628D01*
X83652380Y-17254819D02*
X83033333Y-17254819D01*
X83033333Y-17254819D02*
X83366666Y-17635771D01*
X83366666Y-17635771D02*
X83223809Y-17635771D01*
X83223809Y-17635771D02*
X83128571Y-17683390D01*
X83128571Y-17683390D02*
X83080952Y-17731009D01*
X83080952Y-17731009D02*
X83033333Y-17826247D01*
X83033333Y-17826247D02*
X83033333Y-18064342D01*
X83033333Y-18064342D02*
X83080952Y-18159580D01*
X83080952Y-18159580D02*
X83128571Y-18207200D01*
X83128571Y-18207200D02*
X83223809Y-18254819D01*
X83223809Y-18254819D02*
X83509523Y-18254819D01*
X83509523Y-18254819D02*
X83604761Y-18207200D01*
X83604761Y-18207200D02*
X83652380Y-18159580D01*
X38361904Y-15354819D02*
X38361904Y-16164342D01*
X38361904Y-16164342D02*
X38314285Y-16259580D01*
X38314285Y-16259580D02*
X38266666Y-16307200D01*
X38266666Y-16307200D02*
X38171428Y-16354819D01*
X38171428Y-16354819D02*
X37980952Y-16354819D01*
X37980952Y-16354819D02*
X37885714Y-16307200D01*
X37885714Y-16307200D02*
X37838095Y-16259580D01*
X37838095Y-16259580D02*
X37790476Y-16164342D01*
X37790476Y-16164342D02*
X37790476Y-15354819D01*
X37409523Y-15354819D02*
X36742857Y-15354819D01*
X36742857Y-15354819D02*
X37171428Y-16354819D01*
X46389580Y-19557142D02*
X46437200Y-19509523D01*
X46437200Y-19509523D02*
X46484819Y-19366666D01*
X46484819Y-19366666D02*
X46484819Y-19271428D01*
X46484819Y-19271428D02*
X46437200Y-19128571D01*
X46437200Y-19128571D02*
X46341961Y-19033333D01*
X46341961Y-19033333D02*
X46246723Y-18985714D01*
X46246723Y-18985714D02*
X46056247Y-18938095D01*
X46056247Y-18938095D02*
X45913390Y-18938095D01*
X45913390Y-18938095D02*
X45722914Y-18985714D01*
X45722914Y-18985714D02*
X45627676Y-19033333D01*
X45627676Y-19033333D02*
X45532438Y-19128571D01*
X45532438Y-19128571D02*
X45484819Y-19271428D01*
X45484819Y-19271428D02*
X45484819Y-19366666D01*
X45484819Y-19366666D02*
X45532438Y-19509523D01*
X45532438Y-19509523D02*
X45580057Y-19557142D01*
X46484819Y-20509523D02*
X46484819Y-19938095D01*
X46484819Y-20223809D02*
X45484819Y-20223809D01*
X45484819Y-20223809D02*
X45627676Y-20128571D01*
X45627676Y-20128571D02*
X45722914Y-20033333D01*
X45722914Y-20033333D02*
X45770533Y-19938095D01*
X45580057Y-20890476D02*
X45532438Y-20938095D01*
X45532438Y-20938095D02*
X45484819Y-21033333D01*
X45484819Y-21033333D02*
X45484819Y-21271428D01*
X45484819Y-21271428D02*
X45532438Y-21366666D01*
X45532438Y-21366666D02*
X45580057Y-21414285D01*
X45580057Y-21414285D02*
X45675295Y-21461904D01*
X45675295Y-21461904D02*
X45770533Y-21461904D01*
X45770533Y-21461904D02*
X45913390Y-21414285D01*
X45913390Y-21414285D02*
X46484819Y-20842857D01*
X46484819Y-20842857D02*
X46484819Y-21461904D01*
X88933333Y-22454819D02*
X88933333Y-23169104D01*
X88933333Y-23169104D02*
X88980952Y-23311961D01*
X88980952Y-23311961D02*
X89076190Y-23407200D01*
X89076190Y-23407200D02*
X89219047Y-23454819D01*
X89219047Y-23454819D02*
X89314285Y-23454819D01*
X88552380Y-22454819D02*
X87933333Y-22454819D01*
X87933333Y-22454819D02*
X88266666Y-22835771D01*
X88266666Y-22835771D02*
X88123809Y-22835771D01*
X88123809Y-22835771D02*
X88028571Y-22883390D01*
X88028571Y-22883390D02*
X87980952Y-22931009D01*
X87980952Y-22931009D02*
X87933333Y-23026247D01*
X87933333Y-23026247D02*
X87933333Y-23264342D01*
X87933333Y-23264342D02*
X87980952Y-23359580D01*
X87980952Y-23359580D02*
X88028571Y-23407200D01*
X88028571Y-23407200D02*
X88123809Y-23454819D01*
X88123809Y-23454819D02*
X88409523Y-23454819D01*
X88409523Y-23454819D02*
X88504761Y-23407200D01*
X88504761Y-23407200D02*
X88552380Y-23359580D01*
X43359580Y-26333333D02*
X43407200Y-26285714D01*
X43407200Y-26285714D02*
X43454819Y-26142857D01*
X43454819Y-26142857D02*
X43454819Y-26047619D01*
X43454819Y-26047619D02*
X43407200Y-25904762D01*
X43407200Y-25904762D02*
X43311961Y-25809524D01*
X43311961Y-25809524D02*
X43216723Y-25761905D01*
X43216723Y-25761905D02*
X43026247Y-25714286D01*
X43026247Y-25714286D02*
X42883390Y-25714286D01*
X42883390Y-25714286D02*
X42692914Y-25761905D01*
X42692914Y-25761905D02*
X42597676Y-25809524D01*
X42597676Y-25809524D02*
X42502438Y-25904762D01*
X42502438Y-25904762D02*
X42454819Y-26047619D01*
X42454819Y-26047619D02*
X42454819Y-26142857D01*
X42454819Y-26142857D02*
X42502438Y-26285714D01*
X42502438Y-26285714D02*
X42550057Y-26333333D01*
X43454819Y-26809524D02*
X43454819Y-27000000D01*
X43454819Y-27000000D02*
X43407200Y-27095238D01*
X43407200Y-27095238D02*
X43359580Y-27142857D01*
X43359580Y-27142857D02*
X43216723Y-27238095D01*
X43216723Y-27238095D02*
X43026247Y-27285714D01*
X43026247Y-27285714D02*
X42645295Y-27285714D01*
X42645295Y-27285714D02*
X42550057Y-27238095D01*
X42550057Y-27238095D02*
X42502438Y-27190476D01*
X42502438Y-27190476D02*
X42454819Y-27095238D01*
X42454819Y-27095238D02*
X42454819Y-26904762D01*
X42454819Y-26904762D02*
X42502438Y-26809524D01*
X42502438Y-26809524D02*
X42550057Y-26761905D01*
X42550057Y-26761905D02*
X42645295Y-26714286D01*
X42645295Y-26714286D02*
X42883390Y-26714286D01*
X42883390Y-26714286D02*
X42978628Y-26761905D01*
X42978628Y-26761905D02*
X43026247Y-26809524D01*
X43026247Y-26809524D02*
X43073866Y-26904762D01*
X43073866Y-26904762D02*
X43073866Y-27095238D01*
X43073866Y-27095238D02*
X43026247Y-27190476D01*
X43026247Y-27190476D02*
X42978628Y-27238095D01*
X42978628Y-27238095D02*
X42883390Y-27285714D01*
X20538094Y-18354819D02*
X20538094Y-17354819D01*
X20538094Y-17354819D02*
X20299999Y-17354819D01*
X20299999Y-17354819D02*
X20157142Y-17402438D01*
X20157142Y-17402438D02*
X20061904Y-17497676D01*
X20061904Y-17497676D02*
X20014285Y-17592914D01*
X20014285Y-17592914D02*
X19966666Y-17783390D01*
X19966666Y-17783390D02*
X19966666Y-17926247D01*
X19966666Y-17926247D02*
X20014285Y-18116723D01*
X20014285Y-18116723D02*
X20061904Y-18211961D01*
X20061904Y-18211961D02*
X20157142Y-18307200D01*
X20157142Y-18307200D02*
X20299999Y-18354819D01*
X20299999Y-18354819D02*
X20538094Y-18354819D01*
X19014285Y-18354819D02*
X19585713Y-18354819D01*
X19299999Y-18354819D02*
X19299999Y-17354819D01*
X19299999Y-17354819D02*
X19395237Y-17497676D01*
X19395237Y-17497676D02*
X19490475Y-17592914D01*
X19490475Y-17592914D02*
X19585713Y-17640533D01*
X19454819Y-25263095D02*
X20264342Y-25263095D01*
X20264342Y-25263095D02*
X20359580Y-25310714D01*
X20359580Y-25310714D02*
X20407200Y-25358333D01*
X20407200Y-25358333D02*
X20454819Y-25453571D01*
X20454819Y-25453571D02*
X20454819Y-25644047D01*
X20454819Y-25644047D02*
X20407200Y-25739285D01*
X20407200Y-25739285D02*
X20359580Y-25786904D01*
X20359580Y-25786904D02*
X20264342Y-25834523D01*
X20264342Y-25834523D02*
X19454819Y-25834523D01*
X19454819Y-26786904D02*
X19454819Y-26310714D01*
X19454819Y-26310714D02*
X19931009Y-26263095D01*
X19931009Y-26263095D02*
X19883390Y-26310714D01*
X19883390Y-26310714D02*
X19835771Y-26405952D01*
X19835771Y-26405952D02*
X19835771Y-26644047D01*
X19835771Y-26644047D02*
X19883390Y-26739285D01*
X19883390Y-26739285D02*
X19931009Y-26786904D01*
X19931009Y-26786904D02*
X20026247Y-26834523D01*
X20026247Y-26834523D02*
X20264342Y-26834523D01*
X20264342Y-26834523D02*
X20359580Y-26786904D01*
X20359580Y-26786904D02*
X20407200Y-26739285D01*
X20407200Y-26739285D02*
X20454819Y-26644047D01*
X20454819Y-26644047D02*
X20454819Y-26405952D01*
X20454819Y-26405952D02*
X20407200Y-26310714D01*
X20407200Y-26310714D02*
X20359580Y-26263095D01*
X14959580Y-11433333D02*
X15007200Y-11385714D01*
X15007200Y-11385714D02*
X15054819Y-11242857D01*
X15054819Y-11242857D02*
X15054819Y-11147619D01*
X15054819Y-11147619D02*
X15007200Y-11004762D01*
X15007200Y-11004762D02*
X14911961Y-10909524D01*
X14911961Y-10909524D02*
X14816723Y-10861905D01*
X14816723Y-10861905D02*
X14626247Y-10814286D01*
X14626247Y-10814286D02*
X14483390Y-10814286D01*
X14483390Y-10814286D02*
X14292914Y-10861905D01*
X14292914Y-10861905D02*
X14197676Y-10909524D01*
X14197676Y-10909524D02*
X14102438Y-11004762D01*
X14102438Y-11004762D02*
X14054819Y-11147619D01*
X14054819Y-11147619D02*
X14054819Y-11242857D01*
X14054819Y-11242857D02*
X14102438Y-11385714D01*
X14102438Y-11385714D02*
X14150057Y-11433333D01*
X14483390Y-12004762D02*
X14435771Y-11909524D01*
X14435771Y-11909524D02*
X14388152Y-11861905D01*
X14388152Y-11861905D02*
X14292914Y-11814286D01*
X14292914Y-11814286D02*
X14245295Y-11814286D01*
X14245295Y-11814286D02*
X14150057Y-11861905D01*
X14150057Y-11861905D02*
X14102438Y-11909524D01*
X14102438Y-11909524D02*
X14054819Y-12004762D01*
X14054819Y-12004762D02*
X14054819Y-12195238D01*
X14054819Y-12195238D02*
X14102438Y-12290476D01*
X14102438Y-12290476D02*
X14150057Y-12338095D01*
X14150057Y-12338095D02*
X14245295Y-12385714D01*
X14245295Y-12385714D02*
X14292914Y-12385714D01*
X14292914Y-12385714D02*
X14388152Y-12338095D01*
X14388152Y-12338095D02*
X14435771Y-12290476D01*
X14435771Y-12290476D02*
X14483390Y-12195238D01*
X14483390Y-12195238D02*
X14483390Y-12004762D01*
X14483390Y-12004762D02*
X14531009Y-11909524D01*
X14531009Y-11909524D02*
X14578628Y-11861905D01*
X14578628Y-11861905D02*
X14673866Y-11814286D01*
X14673866Y-11814286D02*
X14864342Y-11814286D01*
X14864342Y-11814286D02*
X14959580Y-11861905D01*
X14959580Y-11861905D02*
X15007200Y-11909524D01*
X15007200Y-11909524D02*
X15054819Y-12004762D01*
X15054819Y-12004762D02*
X15054819Y-12195238D01*
X15054819Y-12195238D02*
X15007200Y-12290476D01*
X15007200Y-12290476D02*
X14959580Y-12338095D01*
X14959580Y-12338095D02*
X14864342Y-12385714D01*
X14864342Y-12385714D02*
X14673866Y-12385714D01*
X14673866Y-12385714D02*
X14578628Y-12338095D01*
X14578628Y-12338095D02*
X14531009Y-12290476D01*
X14531009Y-12290476D02*
X14483390Y-12195238D01*
X41766666Y-15354819D02*
X42099999Y-14878628D01*
X42338094Y-15354819D02*
X42338094Y-14354819D01*
X42338094Y-14354819D02*
X41957142Y-14354819D01*
X41957142Y-14354819D02*
X41861904Y-14402438D01*
X41861904Y-14402438D02*
X41814285Y-14450057D01*
X41814285Y-14450057D02*
X41766666Y-14545295D01*
X41766666Y-14545295D02*
X41766666Y-14688152D01*
X41766666Y-14688152D02*
X41814285Y-14783390D01*
X41814285Y-14783390D02*
X41861904Y-14831009D01*
X41861904Y-14831009D02*
X41957142Y-14878628D01*
X41957142Y-14878628D02*
X42338094Y-14878628D01*
X41385713Y-14450057D02*
X41338094Y-14402438D01*
X41338094Y-14402438D02*
X41242856Y-14354819D01*
X41242856Y-14354819D02*
X41004761Y-14354819D01*
X41004761Y-14354819D02*
X40909523Y-14402438D01*
X40909523Y-14402438D02*
X40861904Y-14450057D01*
X40861904Y-14450057D02*
X40814285Y-14545295D01*
X40814285Y-14545295D02*
X40814285Y-14640533D01*
X40814285Y-14640533D02*
X40861904Y-14783390D01*
X40861904Y-14783390D02*
X41433332Y-15354819D01*
X41433332Y-15354819D02*
X40814285Y-15354819D01*
X3561904Y-8054819D02*
X3561904Y-7054819D01*
X3561904Y-7531009D02*
X2990476Y-7531009D01*
X2990476Y-8054819D02*
X2990476Y-7054819D01*
X2038095Y-7054819D02*
X2514285Y-7054819D01*
X2514285Y-7054819D02*
X2561904Y-7531009D01*
X2561904Y-7531009D02*
X2514285Y-7483390D01*
X2514285Y-7483390D02*
X2419047Y-7435771D01*
X2419047Y-7435771D02*
X2180952Y-7435771D01*
X2180952Y-7435771D02*
X2085714Y-7483390D01*
X2085714Y-7483390D02*
X2038095Y-7531009D01*
X2038095Y-7531009D02*
X1990476Y-7626247D01*
X1990476Y-7626247D02*
X1990476Y-7864342D01*
X1990476Y-7864342D02*
X2038095Y-7959580D01*
X2038095Y-7959580D02*
X2085714Y-8007200D01*
X2085714Y-8007200D02*
X2180952Y-8054819D01*
X2180952Y-8054819D02*
X2419047Y-8054819D01*
X2419047Y-8054819D02*
X2514285Y-8007200D01*
X2514285Y-8007200D02*
X2561904Y-7959580D01*
D11*
%TO.C,R13*%
X53877500Y-1962742D02*
X53877500Y-2437258D01*
X54922500Y-1962742D02*
X54922500Y-2437258D01*
%TO.C,R12*%
X29677500Y-17037258D02*
X29677500Y-16562742D01*
X30722500Y-17037258D02*
X30722500Y-16562742D01*
%TO.C,U3*%
X6100000Y-11960000D02*
X6100000Y-11350000D01*
X7400000Y-8840000D02*
X8200000Y-8840000D01*
X9000000Y-8840000D02*
X8200000Y-8840000D01*
X9000000Y-11960000D02*
X6100000Y-11960000D01*
%TO.C,R11*%
X31377500Y-16562742D02*
X31377500Y-17037258D01*
X32422500Y-16562742D02*
X32422500Y-17037258D01*
%TO.C,TP2*%
X31700000Y-24700000D02*
G75*
G02*
X30300000Y-24700000I-700000J0D01*
G01*
X30300000Y-24700000D02*
G75*
G02*
X31700000Y-24700000I700000J0D01*
G01*
%TO.C,J4*%
X1390000Y-23740000D02*
X1390000Y-26240000D01*
X2440000Y-23740000D02*
X1390000Y-23740000D01*
X2560000Y-28210000D02*
X6440000Y-28210000D01*
X6560000Y-22750000D02*
X6560000Y-23740000D01*
X6560000Y-23740000D02*
X7610000Y-23740000D01*
X7610000Y-23740000D02*
X7610000Y-26240000D01*
%TO.C,C1*%
X59461290Y-20260101D02*
X59660101Y-20061290D01*
X60182539Y-20981350D02*
X60381350Y-20782539D01*
%TO.C,U2*%
X87200000Y-8840000D02*
X90100000Y-8840000D01*
X87200000Y-11960000D02*
X88000000Y-11960000D01*
X88800000Y-11960000D02*
X88000000Y-11960000D01*
X90100000Y-8840000D02*
X90100000Y-9450000D01*
%TO.C,TP1*%
X47400000Y-14700000D02*
G75*
G02*
X46000000Y-14700000I-700000J0D01*
G01*
X46000000Y-14700000D02*
G75*
G02*
X47400000Y-14700000I700000J0D01*
G01*
D12*
%TO.C,J1*%
X82400000Y-4355000D02*
X82400000Y-2845000D01*
X91340000Y-4355000D02*
X91340000Y-2845000D01*
D13*
X83770000Y-7950000D02*
G75*
G02*
X83570000Y-7950000I-100000J0D01*
G01*
X83570000Y-7950000D02*
G75*
G02*
X83770000Y-7950000I100000J0D01*
G01*
D11*
%TO.C,C3*%
X84140580Y-12490000D02*
X83859420Y-12490000D01*
X84140580Y-13510000D02*
X83859420Y-13510000D01*
%TO.C,R15*%
X92677500Y-3737258D02*
X92677500Y-3262742D01*
X93722500Y-3737258D02*
X93722500Y-3262742D01*
%TO.C,R3*%
X36677500Y-23887742D02*
X36677500Y-24362258D01*
X37722500Y-23887742D02*
X37722500Y-24362258D01*
%TO.C,R8*%
X55262770Y-15998303D02*
X55598303Y-15662770D01*
X56001697Y-16737230D02*
X56337230Y-16401697D01*
%TO.C,C10*%
X42490000Y-20059420D02*
X42490000Y-20340580D01*
X43510000Y-20059420D02*
X43510000Y-20340580D01*
%TO.C,C7*%
X83911252Y-8490000D02*
X82488748Y-8490000D01*
X83911252Y-10310000D02*
X82488748Y-10310000D01*
%TO.C,C4*%
X12059420Y-10690000D02*
X12340580Y-10690000D01*
X12059420Y-11710000D02*
X12340580Y-11710000D01*
%TO.C,R6*%
X22250242Y-15577500D02*
X22724758Y-15577500D01*
X22250242Y-16622500D02*
X22724758Y-16622500D01*
%TO.C,F1*%
X43090000Y-11402064D02*
X43090000Y-10197936D01*
X44910000Y-11402064D02*
X44910000Y-10197936D01*
D10*
%TO.C,U1*%
X47925000Y-15920000D02*
X52075000Y-15920000D01*
X47925000Y-16400000D02*
X47925000Y-15920000D01*
X47925000Y-25600000D02*
X47925000Y-26080000D01*
X47925000Y-26080000D02*
X52075000Y-26080000D01*
X52075000Y-16400000D02*
X52075000Y-15920000D01*
X52075000Y-25600000D02*
X52075000Y-26080000D01*
D11*
X52637500Y-16400000D02*
X52397500Y-16070000D01*
X52877500Y-16070000D01*
X52637500Y-16400000D01*
G36*
X52637500Y-16400000D02*
G01*
X52397500Y-16070000D01*
X52877500Y-16070000D01*
X52637500Y-16400000D01*
G37*
%TO.C,D2*%
X25687500Y-20335000D02*
X27972500Y-20335000D01*
X27972500Y-18865000D02*
X25687500Y-18865000D01*
X27972500Y-20335000D02*
X27972500Y-18865000D01*
%TO.C,R16*%
X89677500Y-15337258D02*
X89677500Y-14862742D01*
X90722500Y-15337258D02*
X90722500Y-14862742D01*
%TO.C,R17*%
X2577500Y-3737258D02*
X2577500Y-3262742D01*
X3622500Y-3737258D02*
X3622500Y-3262742D01*
%TO.C,R10*%
X43937258Y-16077500D02*
X43462742Y-16077500D01*
X43937258Y-17122500D02*
X43462742Y-17122500D01*
%TO.C,R4*%
X38977500Y-23862742D02*
X38977500Y-24337258D01*
X40022500Y-23862742D02*
X40022500Y-24337258D01*
%TO.C,U4*%
X89540000Y-21760000D02*
X89540000Y-21150000D01*
X90840000Y-18640000D02*
X91640000Y-18640000D01*
X92440000Y-18640000D02*
X91640000Y-18640000D01*
X92440000Y-21760000D02*
X89540000Y-21760000D01*
D12*
%TO.C,J2*%
X4800000Y-4355000D02*
X4800000Y-2845000D01*
X13740000Y-4355000D02*
X13740000Y-2845000D01*
D13*
X6170000Y-7950000D02*
G75*
G02*
X5970000Y-7950000I-100000J0D01*
G01*
X5970000Y-7950000D02*
G75*
G02*
X6170000Y-7950000I100000J0D01*
G01*
D11*
%TO.C,R5*%
X34277500Y-24337258D02*
X34277500Y-23862742D01*
X35322500Y-24337258D02*
X35322500Y-23862742D01*
%TO.C,R7*%
X26737258Y-20777500D02*
X26262742Y-20777500D01*
X26737258Y-21822500D02*
X26262742Y-21822500D01*
%TO.C,C6*%
X12059420Y-12290000D02*
X12340580Y-12290000D01*
X12059420Y-13310000D02*
X12340580Y-13310000D01*
%TO.C,R14*%
X51077500Y-10737258D02*
X51077500Y-10262742D01*
X52122500Y-10737258D02*
X52122500Y-10262742D01*
%TO.C,R9*%
X26712258Y-15577500D02*
X26237742Y-15577500D01*
X26712258Y-16622500D02*
X26237742Y-16622500D01*
%TO.C,C5*%
X84140580Y-10890000D02*
X83859420Y-10890000D01*
X84140580Y-11910000D02*
X83859420Y-11910000D01*
%TO.C,U6*%
X47270000Y-8840000D02*
X50170000Y-8840000D01*
X47270000Y-11960000D02*
X48070000Y-11960000D01*
X48870000Y-11960000D02*
X48070000Y-11960000D01*
X50170000Y-8840000D02*
X50170000Y-9450000D01*
%TO.C,R18*%
X12437258Y-13977500D02*
X11962742Y-13977500D01*
X12437258Y-15022500D02*
X11962742Y-15022500D01*
%TO.C,C11*%
X44090000Y-23540580D02*
X44090000Y-23259420D01*
X45110000Y-23540580D02*
X45110000Y-23259420D01*
%TO.C,D3*%
X24990000Y-17065000D02*
X24990000Y-18535000D01*
X24990000Y-18535000D02*
X27275000Y-18535000D01*
X27275000Y-17065000D02*
X24990000Y-17065000D01*
%TO.C,C2*%
X59539970Y-17061219D02*
X59738781Y-17260030D01*
X60261219Y-16339970D02*
X60460030Y-16538781D01*
%TO.C,Y1*%
X57552513Y-15819060D02*
X55219060Y-18152513D01*
X60380940Y-18647487D02*
X57552513Y-15819060D01*
D12*
%TO.C,J5*%
X43600000Y-4355000D02*
X43600000Y-2845000D01*
X52540000Y-4355000D02*
X52540000Y-2845000D01*
D13*
X44970000Y-7950000D02*
G75*
G02*
X44770000Y-7950000I-100000J0D01*
G01*
X44770000Y-7950000D02*
G75*
G02*
X44970000Y-7950000I100000J0D01*
G01*
D11*
%TO.C,D4*%
X21687500Y-20335000D02*
X23972500Y-20335000D01*
X23972500Y-18865000D02*
X21687500Y-18865000D01*
X23972500Y-20335000D02*
X23972500Y-18865000D01*
%TO.C,R1*%
X52362742Y-27377500D02*
X52837258Y-27377500D01*
X52362742Y-28422500D02*
X52837258Y-28422500D01*
%TO.C,C13*%
X39290000Y-18059420D02*
X39290000Y-18340580D01*
X40310000Y-18059420D02*
X40310000Y-18340580D01*
%TO.C,TP3*%
X84900000Y-15900000D02*
G75*
G02*
X83500000Y-15900000I-700000J0D01*
G01*
X83500000Y-15900000D02*
G75*
G02*
X84900000Y-15900000I700000J0D01*
G01*
%TO.C,U7*%
X35600000Y-16840000D02*
X38500000Y-16840000D01*
X35600000Y-19960000D02*
X36400000Y-19960000D01*
X37200000Y-19960000D02*
X36400000Y-19960000D01*
X38500000Y-16840000D02*
X38500000Y-17450000D01*
%TO.C,C12*%
X44090000Y-20059420D02*
X44090000Y-20340580D01*
X45110000Y-20059420D02*
X45110000Y-20340580D01*
%TO.C,J3*%
X88530000Y-23740000D02*
X88530000Y-26240000D01*
X89580000Y-23740000D02*
X88530000Y-23740000D01*
X89700000Y-28210000D02*
X93580000Y-28210000D01*
X93700000Y-22750000D02*
X93700000Y-23740000D01*
X93700000Y-23740000D02*
X94750000Y-23740000D01*
X94750000Y-23740000D02*
X94750000Y-26240000D01*
%TO.C,C9*%
X42490000Y-23540580D02*
X42490000Y-23259420D01*
X43510000Y-23540580D02*
X43510000Y-23259420D01*
%TO.C,D1*%
X21002500Y-17065000D02*
X21002500Y-18535000D01*
X21002500Y-18535000D02*
X23287500Y-18535000D01*
X23287500Y-17065000D02*
X21002500Y-17065000D01*
%TO.C,U5*%
X16040000Y-25225000D02*
X16040000Y-26025000D01*
X16040000Y-26825000D02*
X16040000Y-26025000D01*
X19160000Y-25225000D02*
X19160000Y-28125000D01*
X19160000Y-28125000D02*
X18550000Y-28125000D01*
%TO.C,C8*%
X12288748Y-8290000D02*
X13711252Y-8290000D01*
X12288748Y-10110000D02*
X13711252Y-10110000D01*
%TO.C,R2*%
X44337258Y-14377500D02*
X43862742Y-14377500D01*
X44337258Y-15422500D02*
X43862742Y-15422500D01*
%TD*%
M02*
