M48
; DRILL file {KiCad 8.0.2} date 2025-12-10T20:47:38-0800
; FORMAT={-:-/ absolute / inch / decimal}
; #@! TF.CreationDate,2025-12-10T20:47:38-08:00
; #@! TF.GenerationSoftware,Kicad,Pcbnew,8.0.2
; #@! TF.FileFunction,Plated,1,2,PTH
FMAT,2
INCH
; #@! TA.AperFunction,Plated,PTH,ViaDrill
T1C0.0118
; #@! TA.AperFunction,Plated,PTH,ComponentDrill
T2C0.0197
; #@! TA.AperFunction,Plated,PTH,ComponentDrill
T3C0.0256
; #@! TA.AperFunction,Plated,PTH,ComponentDrill
T4C0.1063
%
G90
G05
T1
X0.0827Y-0.1496
X0.1181Y-0.9803
X0.2087Y-0.2913
X0.2362Y-0.3937
X0.2992Y-0.3228
X0.311Y-0.9094
X0.322Y-0.1997
X0.3386Y-0.3151
X0.3871Y-0.3197
X0.4094Y-0.5709
X0.4185Y-0.3172
X0.4921Y-0.311
X0.6024Y-0.9331
X0.6929Y-0.9291
X0.6929Y-1.1181
X0.7126Y-0.8661
X0.7559Y-0.9134
X0.7598Y-0.815
X0.8071Y-0.8622
X0.8081Y-0.814
X0.8976Y-1.0551
X0.9641Y-0.6614
X0.9641Y-0.7717
X0.9646Y-0.8346
X0.968Y-0.622
X1.2913Y-0.6811
X1.3346Y-0.7244
X1.3858Y-0.7953
X1.4134Y-0.9094
X1.4134Y-0.9843
X1.4803Y-0.8031
X1.5118Y-0.9803
X1.5309Y-0.719
X1.6024Y-0.9803
X1.6181Y-0.937
X1.6496Y-0.626
X1.6496Y-0.8307
X1.685Y-0.5276
X1.6929Y-0.7165
X1.6929Y-0.9921
X1.7323Y-0.2992
X1.7559Y-0.7205
X1.7559Y-0.9921
X1.7874Y-0.6535
X1.7908Y-1.0709
X1.7992Y-0.7283
X1.8019Y-0.765
X1.8031Y-0.7992
X1.8062Y-0.9262
X1.8071Y-0.8918
X1.8071Y-0.9685
X1.8386Y-0.1457
X1.8386Y-0.3189
X1.9094Y-0.5827
X1.9803Y-0.5157
X1.9803Y-0.5827
X1.9803Y-0.7559
X2.0157Y-0.8425
X2.0197Y-0.315
X2.1496Y-1.0984
X2.1605Y-0.7075
X2.2205Y-0.9764
X2.4094Y-0.7559
X3.0945Y-1.0157
X3.2638Y-0.2992
X3.311Y-0.8031
X3.378Y-0.3268
X3.4252Y-0.6693
X3.4291Y-0.6024
X3.4508Y-0.1398
X3.4528Y-0.7441
X3.5Y-0.5984
X3.5Y-0.6654
X3.5195Y-0.3299
X3.5197Y-0.7953
X3.5472Y-0.315
X3.5512Y-0.9843
X3.56Y-0.3802
X3.5934Y-0.6389
X3.5984Y-0.5669
T2
X1.2205Y-0.9724
X1.8386Y-0.5787
X3.315Y-0.626
T4
X3.348Y-1.0433
T3
G00X0.1949Y-0.0472
M15
G01X0.1949Y-0.0787
M16
G05
G00X0.1949Y-0.2087
M15
G01X0.1949Y-0.2441
M16
G05
G00X0.535Y-0.0472
M15
G01X0.535Y-0.0787
M16
G05
G00X0.535Y-0.2087
M15
G01X0.535Y-0.2441
M16
G05
G00X1.7224Y-0.0472
M15
G01X1.7224Y-0.0787
M16
G05
G00X1.7224Y-0.2087
M15
G01X1.7224Y-0.2441
M16
G05
G00X2.0626Y-0.0472
M15
G01X2.0626Y-0.0787
M16
G05
G00X2.0626Y-0.2087
M15
G01X2.0626Y-0.2441
M16
G05
G00X3.25Y-0.0472
M15
G01X3.25Y-0.0787
M16
G05
G00X3.25Y-0.2087
M15
G01X3.25Y-0.2441
M16
G05
G00X3.5902Y-0.0472
M15
G01X3.5902Y-0.0787
M16
G05
G00X3.5902Y-0.2087
M15
G01X3.5902Y-0.2441
M16
G05
M30
