M48
; DRILL file {KiCad 8.0.2} date 2025-12-13T15:13:12-0800
; FORMAT={-:-/ absolute / inch / decimal}
; #@! TF.CreationDate,2025-12-13T15:13:12-08:00
; #@! TF.GenerationSoftware,Kicad,Pcbnew,8.0.2
; #@! TF.FileFunction,NonPlated,1,2,NPTH
FMAT,2
INCH
; #@! TA.AperFunction,NonPlated,NPTH,ComponentDrill
T1C0.0670
; #@! TA.AperFunction,NonPlated,NPTH,ComponentDrill
T2C0.1063
; #@! TA.AperFunction,NonPlated,NPTH,ComponentDrill
T3C0.1200
; #@! TA.AperFunction,NonPlated,NPTH,ComponentDrill
T4C0.1570
%
G90
G05
T1
X-0.2Y0.0
X-0.2Y-0.75
X-0.2Y-1.5
X-0.2Y-2.25
X-0.2Y-3.0
X0.2Y0.0
X0.2Y-0.75
X0.2Y-1.5
X0.2Y-2.25
X0.55Y0.0
X0.55Y-0.75
X0.55Y-1.5
X0.55Y-2.25
X0.95Y0.0
X0.95Y-0.75
X0.95Y-1.5
X0.95Y-2.25
X0.95Y-3.0
X1.3Y0.0
X1.3Y-0.75
X1.3Y-1.5
X1.3Y-2.25
X1.3Y-3.0
X1.7Y0.0
X1.7Y-0.75
X1.7Y-1.5
X1.7Y-2.25
X1.7Y-3.0
X2.05Y0.0
X2.05Y-0.75
X2.05Y-1.125
X2.05Y-1.5
X2.05Y-2.25
X2.05Y-2.625
X2.05Y-3.0
X2.45Y0.0
X2.45Y-0.75
X2.45Y-1.125
X2.45Y-1.5
X2.45Y-2.25
X2.45Y-2.625
X2.45Y-3.0
T2
X0.375Y0.4793
X0.375Y-3.4793
X1.875Y0.4793
X1.875Y-3.4793
T3
X-0.095Y-3.275
X0.845Y-3.275
X2.525Y-0.655
X2.525Y-1.595
X2.525Y-2.155
X2.525Y-3.095
T4
X-0.095Y-2.675
X0.0Y0.0
X0.0Y-0.75
X0.0Y-1.5
X0.0Y-2.25
X0.0Y-3.0
X0.375Y-3.0
X0.75Y0.0
X0.75Y-0.75
X0.75Y-1.5
X0.75Y-2.25
X0.75Y-3.0
X0.845Y-2.675
X1.5Y0.0
X1.5Y-0.75
X1.5Y-1.5
X1.5Y-2.25
X1.5Y-3.0
X1.925Y-0.655
X1.925Y-1.595
X1.925Y-2.155
X1.925Y-3.095
X2.25Y0.0
X2.25Y-0.75
X2.25Y-1.125
X2.25Y-1.5
X2.25Y-2.25
X2.25Y-2.625
X2.25Y-3.0
T1
G00X0.175Y-3.0
M15
G01X0.2Y-3.0
M16
G05
G00X0.55Y-3.0
M15
G01X0.575Y-3.0
M16
G05
M30
