M48
; DRILL file {KiCad 8.0.2} date 2025-12-13T15:13:12-0800
; FORMAT={-:-/ absolute / inch / decimal}
; #@! TF.CreationDate,2025-12-13T15:13:12-08:00
; #@! TF.GenerationSoftware,Kicad,Pcbnew,8.0.2
; #@! TF.FileFunction,Plated,1,2,PTH
FMAT,2
INCH
; #@! TA.AperFunction,Plated,PTH,ViaDrill
T1C0.0118
; #@! TA.AperFunction,Plated,PTH,ComponentDrill
T2C0.0394
; #@! TA.AperFunction,Plated,PTH,ComponentDrill
T3C0.0409
; #@! TA.AperFunction,Plated,PTH,ComponentDrill
T4C0.0600
%
G90
G05
T1
X0.4181Y0.1673
X0.8724Y-1.4189
X0.913Y-0.3209
X0.9232Y-0.2898
X0.9906Y-0.0724
X1.0797Y-0.6367
X1.0988Y0.2598
X1.1051Y0.1394
X1.1059Y-0.0262
X1.1102Y-0.6447
X1.1416Y-0.6477
X1.1472Y-0.1374
X1.1839Y0.4197
X1.2185Y-0.1844
X1.2319Y-0.0311
X1.2479Y-0.1958
X1.2789Y-0.1901
X1.3441Y-0.0732
X1.3637Y-0.4938
X1.3637Y-0.5272
X1.4098Y-0.3996
X1.4142Y-0.3209
X1.4361Y-0.4215
T2
X0.8913Y-0.1469
X1.1106Y-1.45
X1.1106Y-1.55
X1.4413Y-0.2157
X1.875Y0.05
X1.875Y-0.05
T3
X-0.05Y-0.2
X0.05Y-0.2
T4
X-0.15Y0.1
X-0.15Y-0.65
X-0.15Y-1.4
X-0.15Y-2.15
X-0.15Y-2.9
X0.1Y0.2
X0.1Y-0.55
X0.1Y-1.3
X0.1Y-2.05
X0.1Y-2.8
X0.225Y-2.9
X0.475Y-2.8
X0.6Y0.1
X0.6Y-0.65
X0.6Y-1.4
X0.6Y-2.15
X0.6Y-2.9
X0.85Y0.2
X0.85Y-0.55
X0.85Y-1.3
X0.85Y-2.05
X0.85Y-2.8
X1.35Y0.1
X1.35Y-0.65
X1.35Y-1.4
X1.35Y-2.15
X1.35Y-2.9
X1.6Y0.2
X1.6Y-0.55
X1.6Y-1.3
X1.6Y-2.05
X1.6Y-2.8
X2.1Y0.1
X2.1Y-0.65
X2.1Y-1.025
X2.1Y-1.4
X2.1Y-2.15
X2.1Y-2.525
X2.1Y-2.9
X2.35Y0.2
X2.35Y-0.55
X2.35Y-0.925
X2.35Y-1.3
X2.35Y-2.05
X2.35Y-2.425
X2.35Y-2.8
M30
