%TF.GenerationSoftware,KiCad,Pcbnew,8.0.2*%
%TF.CreationDate,2025-12-13T15:13:10-08:00*%
%TF.ProjectId,mx-unsaver-numpad,6d782d75-6e73-4617-9665-722d6e756d70,rev?*%
%TF.SameCoordinates,Original*%
%TF.FileFunction,Legend,Bot*%
%TF.FilePolarity,Positive*%
%FSLAX46Y46*%
G04 Gerber Fmt 4.6, Leading zero omitted, Abs format (unit mm)*
G04 Created by KiCad (PCBNEW 8.0.2) date 2025-12-13 15:13:10*
%MOMM*%
%LPD*%
G01*
G04 APERTURE LIST*
%ADD10C,0.150000*%
%ADD11C,0.120000*%
G04 APERTURE END LIST*
D10*
X20990839Y-4732200D02*
X20847982Y-4779819D01*
X20847982Y-4779819D02*
X20609887Y-4779819D01*
X20609887Y-4779819D02*
X20514649Y-4732200D01*
X20514649Y-4732200D02*
X20467030Y-4684580D01*
X20467030Y-4684580D02*
X20419411Y-4589342D01*
X20419411Y-4589342D02*
X20419411Y-4494104D01*
X20419411Y-4494104D02*
X20467030Y-4398866D01*
X20467030Y-4398866D02*
X20514649Y-4351247D01*
X20514649Y-4351247D02*
X20609887Y-4303628D01*
X20609887Y-4303628D02*
X20800363Y-4256009D01*
X20800363Y-4256009D02*
X20895601Y-4208390D01*
X20895601Y-4208390D02*
X20943220Y-4160771D01*
X20943220Y-4160771D02*
X20990839Y-4065533D01*
X20990839Y-4065533D02*
X20990839Y-3970295D01*
X20990839Y-3970295D02*
X20943220Y-3875057D01*
X20943220Y-3875057D02*
X20895601Y-3827438D01*
X20895601Y-3827438D02*
X20800363Y-3779819D01*
X20800363Y-3779819D02*
X20562268Y-3779819D01*
X20562268Y-3779819D02*
X20419411Y-3827438D01*
X20086077Y-3779819D02*
X19847982Y-4779819D01*
X19847982Y-4779819D02*
X19657506Y-4065533D01*
X19657506Y-4065533D02*
X19467030Y-4779819D01*
X19467030Y-4779819D02*
X19228935Y-3779819D01*
X18847982Y-4779819D02*
X18847982Y-3779819D01*
X18847982Y-3779819D02*
X18609887Y-3779819D01*
X18609887Y-3779819D02*
X18467030Y-3827438D01*
X18467030Y-3827438D02*
X18371792Y-3922676D01*
X18371792Y-3922676D02*
X18324173Y-4017914D01*
X18324173Y-4017914D02*
X18276554Y-4208390D01*
X18276554Y-4208390D02*
X18276554Y-4351247D01*
X18276554Y-4351247D02*
X18324173Y-4541723D01*
X18324173Y-4541723D02*
X18371792Y-4636961D01*
X18371792Y-4636961D02*
X18467030Y-4732200D01*
X18467030Y-4732200D02*
X18609887Y-4779819D01*
X18609887Y-4779819D02*
X18847982Y-4779819D01*
X37700839Y-7522200D02*
X37557982Y-7569819D01*
X37557982Y-7569819D02*
X37319887Y-7569819D01*
X37319887Y-7569819D02*
X37224649Y-7522200D01*
X37224649Y-7522200D02*
X37177030Y-7474580D01*
X37177030Y-7474580D02*
X37129411Y-7379342D01*
X37129411Y-7379342D02*
X37129411Y-7284104D01*
X37129411Y-7284104D02*
X37177030Y-7188866D01*
X37177030Y-7188866D02*
X37224649Y-7141247D01*
X37224649Y-7141247D02*
X37319887Y-7093628D01*
X37319887Y-7093628D02*
X37510363Y-7046009D01*
X37510363Y-7046009D02*
X37605601Y-6998390D01*
X37605601Y-6998390D02*
X37653220Y-6950771D01*
X37653220Y-6950771D02*
X37700839Y-6855533D01*
X37700839Y-6855533D02*
X37700839Y-6760295D01*
X37700839Y-6760295D02*
X37653220Y-6665057D01*
X37653220Y-6665057D02*
X37605601Y-6617438D01*
X37605601Y-6617438D02*
X37510363Y-6569819D01*
X37510363Y-6569819D02*
X37272268Y-6569819D01*
X37272268Y-6569819D02*
X37129411Y-6617438D01*
X36796077Y-6569819D02*
X36557982Y-7569819D01*
X36557982Y-7569819D02*
X36367506Y-6855533D01*
X36367506Y-6855533D02*
X36177030Y-7569819D01*
X36177030Y-7569819D02*
X35938935Y-6569819D01*
X34986554Y-7474580D02*
X35034173Y-7522200D01*
X35034173Y-7522200D02*
X35177030Y-7569819D01*
X35177030Y-7569819D02*
X35272268Y-7569819D01*
X35272268Y-7569819D02*
X35415125Y-7522200D01*
X35415125Y-7522200D02*
X35510363Y-7426961D01*
X35510363Y-7426961D02*
X35557982Y-7331723D01*
X35557982Y-7331723D02*
X35605601Y-7141247D01*
X35605601Y-7141247D02*
X35605601Y-6998390D01*
X35605601Y-6998390D02*
X35557982Y-6807914D01*
X35557982Y-6807914D02*
X35510363Y-6712676D01*
X35510363Y-6712676D02*
X35415125Y-6617438D01*
X35415125Y-6617438D02*
X35272268Y-6569819D01*
X35272268Y-6569819D02*
X35177030Y-6569819D01*
X35177030Y-6569819D02*
X35034173Y-6617438D01*
X35034173Y-6617438D02*
X34986554Y-6665057D01*
X41658151Y3176666D02*
X41181960Y3509999D01*
X41658151Y3748094D02*
X40658151Y3748094D01*
X40658151Y3748094D02*
X40658151Y3367142D01*
X40658151Y3367142D02*
X40705770Y3271904D01*
X40705770Y3271904D02*
X40753389Y3224285D01*
X40753389Y3224285D02*
X40848627Y3176666D01*
X40848627Y3176666D02*
X40991484Y3176666D01*
X40991484Y3176666D02*
X41086722Y3224285D01*
X41086722Y3224285D02*
X41134341Y3271904D01*
X41134341Y3271904D02*
X41181960Y3367142D01*
X41181960Y3367142D02*
X41181960Y3748094D01*
X41658151Y2224285D02*
X41658151Y2795713D01*
X41658151Y2509999D02*
X40658151Y2509999D01*
X40658151Y2509999D02*
X40801008Y2605237D01*
X40801008Y2605237D02*
X40896246Y2700475D01*
X40896246Y2700475D02*
X40943865Y2795713D01*
X27306666Y-3895830D02*
X27354285Y-3943450D01*
X27354285Y-3943450D02*
X27497142Y-3991069D01*
X27497142Y-3991069D02*
X27592380Y-3991069D01*
X27592380Y-3991069D02*
X27735237Y-3943450D01*
X27735237Y-3943450D02*
X27830475Y-3848211D01*
X27830475Y-3848211D02*
X27878094Y-3752973D01*
X27878094Y-3752973D02*
X27925713Y-3562497D01*
X27925713Y-3562497D02*
X27925713Y-3419640D01*
X27925713Y-3419640D02*
X27878094Y-3229164D01*
X27878094Y-3229164D02*
X27830475Y-3133926D01*
X27830475Y-3133926D02*
X27735237Y-3038688D01*
X27735237Y-3038688D02*
X27592380Y-2991069D01*
X27592380Y-2991069D02*
X27497142Y-2991069D01*
X27497142Y-2991069D02*
X27354285Y-3038688D01*
X27354285Y-3038688D02*
X27306666Y-3086307D01*
X26830475Y-3991069D02*
X26639999Y-3991069D01*
X26639999Y-3991069D02*
X26544761Y-3943450D01*
X26544761Y-3943450D02*
X26497142Y-3895830D01*
X26497142Y-3895830D02*
X26401904Y-3752973D01*
X26401904Y-3752973D02*
X26354285Y-3562497D01*
X26354285Y-3562497D02*
X26354285Y-3181545D01*
X26354285Y-3181545D02*
X26401904Y-3086307D01*
X26401904Y-3086307D02*
X26449523Y-3038688D01*
X26449523Y-3038688D02*
X26544761Y-2991069D01*
X26544761Y-2991069D02*
X26735237Y-2991069D01*
X26735237Y-2991069D02*
X26830475Y-3038688D01*
X26830475Y-3038688D02*
X26878094Y-3086307D01*
X26878094Y-3086307D02*
X26925713Y-3181545D01*
X26925713Y-3181545D02*
X26925713Y-3419640D01*
X26925713Y-3419640D02*
X26878094Y-3514878D01*
X26878094Y-3514878D02*
X26830475Y-3562497D01*
X26830475Y-3562497D02*
X26735237Y-3610116D01*
X26735237Y-3610116D02*
X26544761Y-3610116D01*
X26544761Y-3610116D02*
X26449523Y-3562497D01*
X26449523Y-3562497D02*
X26401904Y-3514878D01*
X26401904Y-3514878D02*
X26354285Y-3419640D01*
X38973333Y-4454819D02*
X38973333Y-5169104D01*
X38973333Y-5169104D02*
X39020952Y-5311961D01*
X39020952Y-5311961D02*
X39116190Y-5407200D01*
X39116190Y-5407200D02*
X39259047Y-5454819D01*
X39259047Y-5454819D02*
X39354285Y-5454819D01*
X38544761Y-4550057D02*
X38497142Y-4502438D01*
X38497142Y-4502438D02*
X38401904Y-4454819D01*
X38401904Y-4454819D02*
X38163809Y-4454819D01*
X38163809Y-4454819D02*
X38068571Y-4502438D01*
X38068571Y-4502438D02*
X38020952Y-4550057D01*
X38020952Y-4550057D02*
X37973333Y-4645295D01*
X37973333Y-4645295D02*
X37973333Y-4740533D01*
X37973333Y-4740533D02*
X38020952Y-4883390D01*
X38020952Y-4883390D02*
X38592380Y-5454819D01*
X38592380Y-5454819D02*
X37973333Y-5454819D01*
X22983333Y-1304819D02*
X22983333Y-2019104D01*
X22983333Y-2019104D02*
X23030952Y-2161961D01*
X23030952Y-2161961D02*
X23126190Y-2257200D01*
X23126190Y-2257200D02*
X23269047Y-2304819D01*
X23269047Y-2304819D02*
X23364285Y-2304819D01*
X21983333Y-2304819D02*
X22554761Y-2304819D01*
X22269047Y-2304819D02*
X22269047Y-1304819D01*
X22269047Y-1304819D02*
X22364285Y-1447676D01*
X22364285Y-1447676D02*
X22459523Y-1542914D01*
X22459523Y-1542914D02*
X22554761Y-1590533D01*
X34536666Y-4019580D02*
X34584285Y-4067200D01*
X34584285Y-4067200D02*
X34727142Y-4114819D01*
X34727142Y-4114819D02*
X34822380Y-4114819D01*
X34822380Y-4114819D02*
X34965237Y-4067200D01*
X34965237Y-4067200D02*
X35060475Y-3971961D01*
X35060475Y-3971961D02*
X35108094Y-3876723D01*
X35108094Y-3876723D02*
X35155713Y-3686247D01*
X35155713Y-3686247D02*
X35155713Y-3543390D01*
X35155713Y-3543390D02*
X35108094Y-3352914D01*
X35108094Y-3352914D02*
X35060475Y-3257676D01*
X35060475Y-3257676D02*
X34965237Y-3162438D01*
X34965237Y-3162438D02*
X34822380Y-3114819D01*
X34822380Y-3114819D02*
X34727142Y-3114819D01*
X34727142Y-3114819D02*
X34584285Y-3162438D01*
X34584285Y-3162438D02*
X34536666Y-3210057D01*
X33584285Y-4114819D02*
X34155713Y-4114819D01*
X33869999Y-4114819D02*
X33869999Y-3114819D01*
X33869999Y-3114819D02*
X33965237Y-3257676D01*
X33965237Y-3257676D02*
X34060475Y-3352914D01*
X34060475Y-3352914D02*
X34155713Y-3400533D01*
X48386904Y8020180D02*
X48386904Y9020180D01*
X48386904Y8543990D02*
X47815476Y8543990D01*
X47815476Y8020180D02*
X47815476Y9020180D01*
X47386904Y8924942D02*
X47339285Y8972561D01*
X47339285Y8972561D02*
X47244047Y9020180D01*
X47244047Y9020180D02*
X47005952Y9020180D01*
X47005952Y9020180D02*
X46910714Y8972561D01*
X46910714Y8972561D02*
X46863095Y8924942D01*
X46863095Y8924942D02*
X46815476Y8829704D01*
X46815476Y8829704D02*
X46815476Y8734466D01*
X46815476Y8734466D02*
X46863095Y8591609D01*
X46863095Y8591609D02*
X47434523Y8020180D01*
X47434523Y8020180D02*
X46815476Y8020180D01*
X48386904Y-85129819D02*
X48386904Y-84129819D01*
X48386904Y-84606009D02*
X47815476Y-84606009D01*
X47815476Y-85129819D02*
X47815476Y-84129819D01*
X46910714Y-84463152D02*
X46910714Y-85129819D01*
X47148809Y-84082200D02*
X47386904Y-84796485D01*
X47386904Y-84796485D02*
X46767857Y-84796485D01*
X-4595180Y-2433333D02*
X-5071371Y-2100000D01*
X-4595180Y-1861905D02*
X-5595180Y-1861905D01*
X-5595180Y-1861905D02*
X-5595180Y-2242857D01*
X-5595180Y-2242857D02*
X-5547561Y-2338095D01*
X-5547561Y-2338095D02*
X-5499942Y-2385714D01*
X-5499942Y-2385714D02*
X-5404704Y-2433333D01*
X-5404704Y-2433333D02*
X-5261847Y-2433333D01*
X-5261847Y-2433333D02*
X-5166609Y-2385714D01*
X-5166609Y-2385714D02*
X-5118990Y-2338095D01*
X-5118990Y-2338095D02*
X-5071371Y-2242857D01*
X-5071371Y-2242857D02*
X-5071371Y-1861905D01*
X-5499942Y-2814286D02*
X-5547561Y-2861905D01*
X-5547561Y-2861905D02*
X-5595180Y-2957143D01*
X-5595180Y-2957143D02*
X-5595180Y-3195238D01*
X-5595180Y-3195238D02*
X-5547561Y-3290476D01*
X-5547561Y-3290476D02*
X-5499942Y-3338095D01*
X-5499942Y-3338095D02*
X-5404704Y-3385714D01*
X-5404704Y-3385714D02*
X-5309466Y-3385714D01*
X-5309466Y-3385714D02*
X-5166609Y-3338095D01*
X-5166609Y-3338095D02*
X-4595180Y-2766667D01*
X-4595180Y-2766667D02*
X-4595180Y-3385714D01*
X10286904Y-85129819D02*
X10286904Y-84129819D01*
X10286904Y-84606009D02*
X9715476Y-84606009D01*
X9715476Y-85129819D02*
X9715476Y-84129819D01*
X9334523Y-84129819D02*
X8715476Y-84129819D01*
X8715476Y-84129819D02*
X9048809Y-84510771D01*
X9048809Y-84510771D02*
X8905952Y-84510771D01*
X8905952Y-84510771D02*
X8810714Y-84558390D01*
X8810714Y-84558390D02*
X8763095Y-84606009D01*
X8763095Y-84606009D02*
X8715476Y-84701247D01*
X8715476Y-84701247D02*
X8715476Y-84939342D01*
X8715476Y-84939342D02*
X8763095Y-85034580D01*
X8763095Y-85034580D02*
X8810714Y-85082200D01*
X8810714Y-85082200D02*
X8905952Y-85129819D01*
X8905952Y-85129819D02*
X9191666Y-85129819D01*
X9191666Y-85129819D02*
X9286904Y-85082200D01*
X9286904Y-85082200D02*
X9334523Y-85034580D01*
X-1650951Y-3353866D02*
X-889047Y-3353866D01*
X889048Y-3353866D02*
X1650953Y-3353866D01*
X1270000Y-3734819D02*
X1270000Y-2972914D01*
X10286904Y8020180D02*
X10286904Y9020180D01*
X10286904Y8543990D02*
X9715476Y8543990D01*
X9715476Y8020180D02*
X9715476Y9020180D01*
X8715476Y8020180D02*
X9286904Y8020180D01*
X9001190Y8020180D02*
X9001190Y9020180D01*
X9001190Y9020180D02*
X9096428Y8877323D01*
X9096428Y8877323D02*
X9191666Y8782085D01*
X9191666Y8782085D02*
X9286904Y8734466D01*
X22502914Y-40813333D02*
X22550534Y-40765714D01*
X22550534Y-40765714D02*
X22598153Y-40622857D01*
X22598153Y-40622857D02*
X22598153Y-40527619D01*
X22598153Y-40527619D02*
X22550534Y-40384762D01*
X22550534Y-40384762D02*
X22455295Y-40289524D01*
X22455295Y-40289524D02*
X22360057Y-40241905D01*
X22360057Y-40241905D02*
X22169581Y-40194286D01*
X22169581Y-40194286D02*
X22026724Y-40194286D01*
X22026724Y-40194286D02*
X21836248Y-40241905D01*
X21836248Y-40241905D02*
X21741010Y-40289524D01*
X21741010Y-40289524D02*
X21645772Y-40384762D01*
X21645772Y-40384762D02*
X21598153Y-40527619D01*
X21598153Y-40527619D02*
X21598153Y-40622857D01*
X21598153Y-40622857D02*
X21645772Y-40765714D01*
X21645772Y-40765714D02*
X21693391Y-40813333D01*
X21598153Y-41146667D02*
X21598153Y-41765714D01*
X21598153Y-41765714D02*
X21979105Y-41432381D01*
X21979105Y-41432381D02*
X21979105Y-41575238D01*
X21979105Y-41575238D02*
X22026724Y-41670476D01*
X22026724Y-41670476D02*
X22074343Y-41718095D01*
X22074343Y-41718095D02*
X22169581Y-41765714D01*
X22169581Y-41765714D02*
X22407676Y-41765714D01*
X22407676Y-41765714D02*
X22502914Y-41718095D01*
X22502914Y-41718095D02*
X22550534Y-41670476D01*
X22550534Y-41670476D02*
X22598153Y-41575238D01*
X22598153Y-41575238D02*
X22598153Y-41289524D01*
X22598153Y-41289524D02*
X22550534Y-41194286D01*
X22550534Y-41194286D02*
X22502914Y-41146667D01*
X34526666Y-2299580D02*
X34574285Y-2347200D01*
X34574285Y-2347200D02*
X34717142Y-2394819D01*
X34717142Y-2394819D02*
X34812380Y-2394819D01*
X34812380Y-2394819D02*
X34955237Y-2347200D01*
X34955237Y-2347200D02*
X35050475Y-2251961D01*
X35050475Y-2251961D02*
X35098094Y-2156723D01*
X35098094Y-2156723D02*
X35145713Y-1966247D01*
X35145713Y-1966247D02*
X35145713Y-1823390D01*
X35145713Y-1823390D02*
X35098094Y-1632914D01*
X35098094Y-1632914D02*
X35050475Y-1537676D01*
X35050475Y-1537676D02*
X34955237Y-1442438D01*
X34955237Y-1442438D02*
X34812380Y-1394819D01*
X34812380Y-1394819D02*
X34717142Y-1394819D01*
X34717142Y-1394819D02*
X34574285Y-1442438D01*
X34574285Y-1442438D02*
X34526666Y-1490057D01*
X33669523Y-1728152D02*
X33669523Y-2394819D01*
X33907618Y-1347200D02*
X34145713Y-2061485D01*
X34145713Y-2061485D02*
X33526666Y-2061485D01*
X36679580Y-14633333D02*
X36727200Y-14585714D01*
X36727200Y-14585714D02*
X36774819Y-14442857D01*
X36774819Y-14442857D02*
X36774819Y-14347619D01*
X36774819Y-14347619D02*
X36727200Y-14204762D01*
X36727200Y-14204762D02*
X36631961Y-14109524D01*
X36631961Y-14109524D02*
X36536723Y-14061905D01*
X36536723Y-14061905D02*
X36346247Y-14014286D01*
X36346247Y-14014286D02*
X36203390Y-14014286D01*
X36203390Y-14014286D02*
X36012914Y-14061905D01*
X36012914Y-14061905D02*
X35917676Y-14109524D01*
X35917676Y-14109524D02*
X35822438Y-14204762D01*
X35822438Y-14204762D02*
X35774819Y-14347619D01*
X35774819Y-14347619D02*
X35774819Y-14442857D01*
X35774819Y-14442857D02*
X35822438Y-14585714D01*
X35822438Y-14585714D02*
X35870057Y-14633333D01*
X35870057Y-15014286D02*
X35822438Y-15061905D01*
X35822438Y-15061905D02*
X35774819Y-15157143D01*
X35774819Y-15157143D02*
X35774819Y-15395238D01*
X35774819Y-15395238D02*
X35822438Y-15490476D01*
X35822438Y-15490476D02*
X35870057Y-15538095D01*
X35870057Y-15538095D02*
X35965295Y-15585714D01*
X35965295Y-15585714D02*
X36060533Y-15585714D01*
X36060533Y-15585714D02*
X36203390Y-15538095D01*
X36203390Y-15538095D02*
X36774819Y-14966667D01*
X36774819Y-14966667D02*
X36774819Y-15585714D01*
X27856666Y-19269580D02*
X27904285Y-19317200D01*
X27904285Y-19317200D02*
X28047142Y-19364819D01*
X28047142Y-19364819D02*
X28142380Y-19364819D01*
X28142380Y-19364819D02*
X28285237Y-19317200D01*
X28285237Y-19317200D02*
X28380475Y-19221961D01*
X28380475Y-19221961D02*
X28428094Y-19126723D01*
X28428094Y-19126723D02*
X28475713Y-18936247D01*
X28475713Y-18936247D02*
X28475713Y-18793390D01*
X28475713Y-18793390D02*
X28428094Y-18602914D01*
X28428094Y-18602914D02*
X28380475Y-18507676D01*
X28380475Y-18507676D02*
X28285237Y-18412438D01*
X28285237Y-18412438D02*
X28142380Y-18364819D01*
X28142380Y-18364819D02*
X28047142Y-18364819D01*
X28047142Y-18364819D02*
X27904285Y-18412438D01*
X27904285Y-18412438D02*
X27856666Y-18460057D01*
X27523332Y-18364819D02*
X26856666Y-18364819D01*
X26856666Y-18364819D02*
X27285237Y-19364819D01*
X28994819Y2305654D02*
X29804342Y2305654D01*
X29804342Y2305654D02*
X29899580Y2258035D01*
X29899580Y2258035D02*
X29947200Y2210416D01*
X29947200Y2210416D02*
X29994819Y2115178D01*
X29994819Y2115178D02*
X29994819Y1924702D01*
X29994819Y1924702D02*
X29947200Y1829464D01*
X29947200Y1829464D02*
X29899580Y1781845D01*
X29899580Y1781845D02*
X29804342Y1734226D01*
X29804342Y1734226D02*
X28994819Y1734226D01*
X29090057Y1305654D02*
X29042438Y1258035D01*
X29042438Y1258035D02*
X28994819Y1162797D01*
X28994819Y1162797D02*
X28994819Y924702D01*
X28994819Y924702D02*
X29042438Y829464D01*
X29042438Y829464D02*
X29090057Y781845D01*
X29090057Y781845D02*
X29185295Y734226D01*
X29185295Y734226D02*
X29280533Y734226D01*
X29280533Y734226D02*
X29423390Y781845D01*
X29423390Y781845D02*
X29994819Y1353273D01*
X29994819Y1353273D02*
X29994819Y734226D01*
X34511904Y-13854819D02*
X34511904Y-14664342D01*
X34511904Y-14664342D02*
X34464285Y-14759580D01*
X34464285Y-14759580D02*
X34416666Y-14807200D01*
X34416666Y-14807200D02*
X34321428Y-14854819D01*
X34321428Y-14854819D02*
X34130952Y-14854819D01*
X34130952Y-14854819D02*
X34035714Y-14807200D01*
X34035714Y-14807200D02*
X33988095Y-14759580D01*
X33988095Y-14759580D02*
X33940476Y-14664342D01*
X33940476Y-14664342D02*
X33940476Y-13854819D01*
X32940476Y-14854819D02*
X33511904Y-14854819D01*
X33226190Y-14854819D02*
X33226190Y-13854819D01*
X33226190Y-13854819D02*
X33321428Y-13997676D01*
X33321428Y-13997676D02*
X33416666Y-14092914D01*
X33416666Y-14092914D02*
X33511904Y-14140533D01*
X24736666Y4574169D02*
X24784285Y4526550D01*
X24784285Y4526550D02*
X24927142Y4478930D01*
X24927142Y4478930D02*
X25022380Y4478930D01*
X25022380Y4478930D02*
X25165237Y4526550D01*
X25165237Y4526550D02*
X25260475Y4621788D01*
X25260475Y4621788D02*
X25308094Y4717026D01*
X25308094Y4717026D02*
X25355713Y4907502D01*
X25355713Y4907502D02*
X25355713Y5050359D01*
X25355713Y5050359D02*
X25308094Y5240835D01*
X25308094Y5240835D02*
X25260475Y5336073D01*
X25260475Y5336073D02*
X25165237Y5431311D01*
X25165237Y5431311D02*
X25022380Y5478930D01*
X25022380Y5478930D02*
X24927142Y5478930D01*
X24927142Y5478930D02*
X24784285Y5431311D01*
X24784285Y5431311D02*
X24736666Y5383692D01*
X24165237Y5050359D02*
X24260475Y5097978D01*
X24260475Y5097978D02*
X24308094Y5145597D01*
X24308094Y5145597D02*
X24355713Y5240835D01*
X24355713Y5240835D02*
X24355713Y5288454D01*
X24355713Y5288454D02*
X24308094Y5383692D01*
X24308094Y5383692D02*
X24260475Y5431311D01*
X24260475Y5431311D02*
X24165237Y5478930D01*
X24165237Y5478930D02*
X23974761Y5478930D01*
X23974761Y5478930D02*
X23879523Y5431311D01*
X23879523Y5431311D02*
X23831904Y5383692D01*
X23831904Y5383692D02*
X23784285Y5288454D01*
X23784285Y5288454D02*
X23784285Y5240835D01*
X23784285Y5240835D02*
X23831904Y5145597D01*
X23831904Y5145597D02*
X23879523Y5097978D01*
X23879523Y5097978D02*
X23974761Y5050359D01*
X23974761Y5050359D02*
X24165237Y5050359D01*
X24165237Y5050359D02*
X24260475Y5002740D01*
X24260475Y5002740D02*
X24308094Y4955121D01*
X24308094Y4955121D02*
X24355713Y4859883D01*
X24355713Y4859883D02*
X24355713Y4669407D01*
X24355713Y4669407D02*
X24308094Y4574169D01*
X24308094Y4574169D02*
X24260475Y4526550D01*
X24260475Y4526550D02*
X24165237Y4478930D01*
X24165237Y4478930D02*
X23974761Y4478930D01*
X23974761Y4478930D02*
X23879523Y4526550D01*
X23879523Y4526550D02*
X23831904Y4574169D01*
X23831904Y4574169D02*
X23784285Y4669407D01*
X23784285Y4669407D02*
X23784285Y4859883D01*
X23784285Y4859883D02*
X23831904Y4955121D01*
X23831904Y4955121D02*
X23879523Y5002740D01*
X23879523Y5002740D02*
X23974761Y5050359D01*
X39255537Y-11003333D02*
X39303157Y-10955714D01*
X39303157Y-10955714D02*
X39350776Y-10812857D01*
X39350776Y-10812857D02*
X39350776Y-10717619D01*
X39350776Y-10717619D02*
X39303157Y-10574762D01*
X39303157Y-10574762D02*
X39207918Y-10479524D01*
X39207918Y-10479524D02*
X39112680Y-10431905D01*
X39112680Y-10431905D02*
X38922204Y-10384286D01*
X38922204Y-10384286D02*
X38779347Y-10384286D01*
X38779347Y-10384286D02*
X38588871Y-10431905D01*
X38588871Y-10431905D02*
X38493633Y-10479524D01*
X38493633Y-10479524D02*
X38398395Y-10574762D01*
X38398395Y-10574762D02*
X38350776Y-10717619D01*
X38350776Y-10717619D02*
X38350776Y-10812857D01*
X38350776Y-10812857D02*
X38398395Y-10955714D01*
X38398395Y-10955714D02*
X38446014Y-11003333D01*
X38350776Y-11860476D02*
X38350776Y-11670000D01*
X38350776Y-11670000D02*
X38398395Y-11574762D01*
X38398395Y-11574762D02*
X38446014Y-11527143D01*
X38446014Y-11527143D02*
X38588871Y-11431905D01*
X38588871Y-11431905D02*
X38779347Y-11384286D01*
X38779347Y-11384286D02*
X39160299Y-11384286D01*
X39160299Y-11384286D02*
X39255537Y-11431905D01*
X39255537Y-11431905D02*
X39303157Y-11479524D01*
X39303157Y-11479524D02*
X39350776Y-11574762D01*
X39350776Y-11574762D02*
X39350776Y-11765238D01*
X39350776Y-11765238D02*
X39303157Y-11860476D01*
X39303157Y-11860476D02*
X39255537Y-11908095D01*
X39255537Y-11908095D02*
X39160299Y-11955714D01*
X39160299Y-11955714D02*
X38922204Y-11955714D01*
X38922204Y-11955714D02*
X38826966Y-11908095D01*
X38826966Y-11908095D02*
X38779347Y-11860476D01*
X38779347Y-11860476D02*
X38731728Y-11765238D01*
X38731728Y-11765238D02*
X38731728Y-11574762D01*
X38731728Y-11574762D02*
X38779347Y-11479524D01*
X38779347Y-11479524D02*
X38826966Y-11431905D01*
X38826966Y-11431905D02*
X38922204Y-11384286D01*
X28908333Y7765180D02*
X28908333Y7050895D01*
X28908333Y7050895D02*
X28955952Y6908038D01*
X28955952Y6908038D02*
X29051190Y6812800D01*
X29051190Y6812800D02*
X29194047Y6765180D01*
X29194047Y6765180D02*
X29289285Y6765180D01*
X27955952Y7765180D02*
X28432142Y7765180D01*
X28432142Y7765180D02*
X28479761Y7288990D01*
X28479761Y7288990D02*
X28432142Y7336609D01*
X28432142Y7336609D02*
X28336904Y7384228D01*
X28336904Y7384228D02*
X28098809Y7384228D01*
X28098809Y7384228D02*
X28003571Y7336609D01*
X28003571Y7336609D02*
X27955952Y7288990D01*
X27955952Y7288990D02*
X27908333Y7193752D01*
X27908333Y7193752D02*
X27908333Y6955657D01*
X27908333Y6955657D02*
X27955952Y6860419D01*
X27955952Y6860419D02*
X28003571Y6812800D01*
X28003571Y6812800D02*
X28098809Y6765180D01*
X28098809Y6765180D02*
X28336904Y6765180D01*
X28336904Y6765180D02*
X28432142Y6812800D01*
X28432142Y6812800D02*
X28479761Y6860419D01*
X21109580Y-7023333D02*
X21157200Y-6975714D01*
X21157200Y-6975714D02*
X21204819Y-6832857D01*
X21204819Y-6832857D02*
X21204819Y-6737619D01*
X21204819Y-6737619D02*
X21157200Y-6594762D01*
X21157200Y-6594762D02*
X21061961Y-6499524D01*
X21061961Y-6499524D02*
X20966723Y-6451905D01*
X20966723Y-6451905D02*
X20776247Y-6404286D01*
X20776247Y-6404286D02*
X20633390Y-6404286D01*
X20633390Y-6404286D02*
X20442914Y-6451905D01*
X20442914Y-6451905D02*
X20347676Y-6499524D01*
X20347676Y-6499524D02*
X20252438Y-6594762D01*
X20252438Y-6594762D02*
X20204819Y-6737619D01*
X20204819Y-6737619D02*
X20204819Y-6832857D01*
X20204819Y-6832857D02*
X20252438Y-6975714D01*
X20252438Y-6975714D02*
X20300057Y-7023333D01*
X20204819Y-7928095D02*
X20204819Y-7451905D01*
X20204819Y-7451905D02*
X20681009Y-7404286D01*
X20681009Y-7404286D02*
X20633390Y-7451905D01*
X20633390Y-7451905D02*
X20585771Y-7547143D01*
X20585771Y-7547143D02*
X20585771Y-7785238D01*
X20585771Y-7785238D02*
X20633390Y-7880476D01*
X20633390Y-7880476D02*
X20681009Y-7928095D01*
X20681009Y-7928095D02*
X20776247Y-7975714D01*
X20776247Y-7975714D02*
X21014342Y-7975714D01*
X21014342Y-7975714D02*
X21109580Y-7928095D01*
X21109580Y-7928095D02*
X21157200Y-7880476D01*
X21157200Y-7880476D02*
X21204819Y-7785238D01*
X21204819Y-7785238D02*
X21204819Y-7547143D01*
X21204819Y-7547143D02*
X21157200Y-7451905D01*
X21157200Y-7451905D02*
X21109580Y-7404286D01*
D11*
%TO.C,R1*%
X40465000Y227064D02*
X40465000Y-227064D01*
X41935000Y227064D02*
X41935000Y-227064D01*
%TO.C,C9*%
X27401252Y-1121250D02*
X26878748Y-1121250D01*
X27401252Y-2591250D02*
X26878748Y-2591250D01*
%TO.C,C1*%
X31951365Y-3123872D02*
X32232525Y-3123872D01*
X31951365Y-4143872D02*
X32232525Y-4143872D01*
%TO.C,R2*%
X-3835000Y-1872936D02*
X-3835000Y-2327064D01*
X-2365000Y-1872936D02*
X-2365000Y-2327064D01*
%TO.C,C3*%
X21415000Y-38361252D02*
X21415000Y-37838748D01*
X22885000Y-38361252D02*
X22885000Y-37838748D01*
%TO.C,C4*%
X31951365Y-1426815D02*
X32232525Y-1426815D01*
X31951365Y-2446815D02*
X32232525Y-2446815D01*
%TO.C,C2*%
X35188190Y-12190705D02*
X35188190Y-12471865D01*
X36208190Y-12190705D02*
X36208190Y-12471865D01*
%TO.C,C7*%
X27830580Y-16970000D02*
X27549420Y-16970000D01*
X27830580Y-17990000D02*
X27549420Y-17990000D01*
%TO.C,U2*%
X25580000Y2343750D02*
X25580000Y1543750D01*
X25580000Y743750D02*
X25580000Y1543750D01*
X28700000Y2343750D02*
X28700000Y1543750D01*
X28700000Y743750D02*
X28700000Y1543750D01*
X28980000Y3750D02*
X28650000Y243750D01*
X28980000Y483750D01*
X28980000Y3750D01*
G36*
X28980000Y3750D02*
G01*
X28650000Y243750D01*
X28980000Y483750D01*
X28980000Y3750D01*
G37*
%TO.C,U1*%
X25490000Y-6790000D02*
X25490000Y-7240000D01*
X25490000Y-14010000D02*
X25490000Y-13560000D01*
X25940000Y-6790000D02*
X25490000Y-6790000D01*
X25940000Y-14010000D02*
X25490000Y-14010000D01*
X32260000Y-6790000D02*
X32710000Y-6790000D01*
X32260000Y-14010000D02*
X32710000Y-14010000D01*
X32710000Y-6790000D02*
X32710000Y-7240000D01*
X32710000Y-14010000D02*
X32710000Y-13560000D01*
X32730000Y-14940000D02*
X32260000Y-14600000D01*
X32730000Y-14260000D01*
X32730000Y-14940000D01*
G36*
X32730000Y-14940000D02*
G01*
X32260000Y-14600000D01*
X32730000Y-14260000D01*
X32730000Y-14940000D01*
G37*
%TO.C,C8*%
X27401252Y5678750D02*
X26878748Y5678750D01*
X27401252Y4208750D02*
X26878748Y4208750D01*
%TO.C,C6*%
X36955957Y-11029420D02*
X36955957Y-11310580D01*
X37975957Y-11029420D02*
X37975957Y-11310580D01*
%TO.C,J5*%
X25465000Y9415000D02*
X25465000Y11915000D01*
X26515000Y9415000D02*
X25465000Y9415000D01*
X26515000Y8425000D02*
X26515000Y9415000D01*
X30515000Y13885000D02*
X26635000Y13885000D01*
X30635000Y9415000D02*
X31685000Y9415000D01*
X31685000Y9415000D02*
X31685000Y11915000D01*
%TO.C,C5*%
X21670000Y-7330580D02*
X21670000Y-7049420D01*
X22690000Y-7330580D02*
X22690000Y-7049420D01*
%TD*%
M02*
