<?xml version="1.0" encoding="UTF-8" standalone="no"?>
<!-- Created with Inkscape (http://www.inkscape.org/) -->

<svg
   width="100mm"
   height="50mm"
   viewBox="0 0 100 50"
   version="1.1"
   id="svg1"
   inkscape:version="1.3.2 (091e20e, 2023-11-25, custom)"
   sodipodi:docname="madeingermany.svg"
   inkscape:export-filename="madeingermany_1.svg"
   inkscape:export-xdpi="96"
   inkscape:export-ydpi="96"
   xmlns:inkscape="http://www.inkscape.org/namespaces/inkscape"
   xmlns:sodipodi="http://sodipodi.sourceforge.net/DTD/sodipodi-0.dtd"
   xmlns="http://www.w3.org/2000/svg"
   xmlns:svg="http://www.w3.org/2000/svg">
  <sodipodi:namedview
     id="namedview1"
     pagecolor="#ffffff"
     bordercolor="#000000"
     borderopacity="0.25"
     inkscape:showpageshadow="2"
     inkscape:pageopacity="0.0"
     inkscape:pagecheckerboard="0"
     inkscape:deskcolor="#d1d1d1"
     inkscape:document-units="mm"
     inkscape:zoom="3.175"
     inkscape:cx="188.8189"
     inkscape:cy="94.330709"
     inkscape:window-width="2560"
     inkscape:window-height="1387"
     inkscape:window-x="1912"
     inkscape:window-y="-8"
     inkscape:window-maximized="1"
     inkscape:current-layer="layer1" />
  <defs
     id="defs1" />
  <g
     inkscape:label="Layer 1"
     inkscape:groupmode="layer"
     id="layer1">
    <path
       d="M 31.291756,21.203789 30.69909,19.684023 c -0.0635,-0.169334 -0.08467,-0.300567 -0.287867,-0.300567 h -0.8255 c -0.110067,0 -0.2413,0.0042 -0.2413,0.143933 0,0.1016 0.08043,0.122767 0.160867,0.148167 0.1016,0.02963 0.148166,0.08467 0.1651,0.156633 0.0127,0.03387 0.0127,0.07197 0.0127,0.0889 v 2.032 c -0.0042,0.0508 -0.0127,0.1016 -0.0254,0.1397 -0.02963,0.0762 -0.09313,0.09313 -0.160867,0.118534 -0.07197,0.02963 -0.105833,0.05927 -0.105833,0.1397 0,0.143933 0.1905,0.131233 0.287866,0.131233 h 0.3683 c 0.09737,0 0.287867,0.0127 0.287867,-0.131233 0,-0.08043 -0.03387,-0.110067 -0.105833,-0.1397 -0.06773,-0.0254 -0.131234,-0.04233 -0.160867,-0.118534 -0.0127,-0.0381 -0.02117,-0.0889 -0.0254,-0.1397 v -1.799166 l 0.745067,1.744133 c 0.0762,0.1651 0.131233,0.1778 0.3175,0.1778 0.2159,0 0.232833,-0.0889 0.309033,-0.2667 l 0.6858,-1.7018 v 1.837267 c 0,0.0889 0.01693,0.186266 -0.0762,0.232833 l -0.04657,0.0254 c -0.05503,0.03387 -0.1016,0.05927 -0.1016,0.135467 0,0.1143 0.1143,0.143933 0.207434,0.143933 h 0.804333 c 0.09313,0 0.207433,-0.02963 0.207433,-0.143933 0,-0.0762 -0.04657,-0.1016 -0.1016,-0.135467 l -0.04657,-0.0254 c -0.09313,-0.04657 -0.0762,-0.143933 -0.0762,-0.232833 v -2.0447 c 0,-0.110067 0.0085,-0.173567 0.122766,-0.207434 0.08043,-0.0254 0.1651,-0.0508 0.1651,-0.156633 0,-0.09737 -0.0635,-0.1524 -0.143933,-0.1524 h -0.7874 c -0.1905,0 -0.207433,0.04657 -0.2794,0.220133 z m 4.238096,0.02963 c 0,-0.296334 -0.08043,-0.512234 -0.3429,-0.664634 -0.207434,-0.118533 -0.4699,-0.156633 -0.706967,-0.156633 -0.207433,0 -0.8763,0.05503 -0.8763,0.351367 0,0.148166 0.1397,0.2032 0.262467,0.2032 0.2667,0 0.3048,-0.270934 0.563033,-0.270934 0.270933,0 0.3937,0.1905 0.3937,0.4445 h -0.143933 c -0.465667,0 -1.227667,0.148167 -1.227667,0.7493 0,0.436034 0.364067,0.656167 0.762,0.656167 0.258233,0 0.512233,-0.0889 0.656167,-0.325967 0.0127,0.1905 0.0127,0.262467 0.2286,0.262467 h 0.423333 c 0.1016,0 0.2286,0 0.2286,-0.135467 0,-0.07197 -0.04657,-0.1016 -0.105833,-0.131233 -0.0381,-0.01693 -0.07197,-0.0381 -0.09313,-0.08043 -0.0254,-0.05503 -0.02117,-0.173567 -0.02117,-0.232834 z m -0.6858,0.173566 v 0.135467 c 0,0.169333 0.0042,0.3048 -0.0889,0.452967 -0.0762,0.1143 -0.186267,0.2032 -0.325967,0.2032 -0.173567,0 -0.2667,-0.143934 -0.2667,-0.3048 0,-0.338667 0.3048,-0.486834 0.605367,-0.486834 z m 2.731028,-0.855133 c -0.1651,-0.09313 -0.3048,-0.1397 -0.4953,-0.1397 -0.6223,0 -1.0795,0.478367 -1.0795,1.100667 0,0.5715 0.4064,1.032933 0.982133,1.032933 0.258234,0 0.478367,-0.08467 0.6223,-0.325967 0.0127,0.1905 0.0127,0.262467 0.2286,0.262467 h 0.423334 c 0.1016,0 0.2286,0 0.2286,-0.135467 0,-0.07197 -0.04657,-0.1016 -0.105834,-0.131233 -0.0381,-0.01693 -0.07197,-0.0381 -0.09313,-0.08043 -0.0254,-0.05503 -0.02117,-0.173567 -0.02117,-0.232834 v -2.2098 c 0,-0.127 0.0254,-0.414866 -0.173566,-0.414866 -0.131234,0 -0.372534,0.08043 -0.499534,0.122766 -0.08043,0.02117 -0.258233,0.04657 -0.258233,0.160867 0,0.06773 0.05503,0.0889 0.105833,0.118533 0.07197,0.04233 0.105834,0.0635 0.122767,0.1524 0.0127,0.09313 0.0127,0.224367 0.0127,0.3175 z m 0,1.176867 c 0,0.110066 -0.0042,0.2032 -0.0635,0.300566 -0.07197,0.110067 -0.194733,0.1778 -0.325967,0.1778 -0.372533,0 -0.452966,-0.4318 -0.452966,-0.7239 0,-0.300566 0.09737,-0.762 0.474133,-0.762 0.105833,0 0.211667,0.04657 0.2794,0.127 0.08043,0.09313 0.0889,0.198967 0.0889,0.313267 z m 1.947865,0.0254 c 0.262467,-0.04233 0.537634,-0.06773 0.791634,-0.148167 0.258233,-0.08467 0.579966,-0.262467 0.579966,-0.575733 0,-0.4445 -0.491066,-0.618067 -0.867833,-0.618067 -0.6604,0 -1.274233,0.423333 -1.274233,1.134533 0,0.6223 0.563033,0.999067 1.138766,0.999067 0.262467,0 0.4826,-0.04657 0.702734,-0.1778 0.1143,-0.0635 0.3429,-0.2413 0.3429,-0.3937 0,-0.0635 -0.0635,-0.1143 -0.122767,-0.1143 -0.08467,0 -0.1143,0.04233 -0.173567,0.09313 -0.169333,0.1524 -0.3429,0.254 -0.5715,0.254 -0.275166,0 -0.486833,-0.186266 -0.5461,-0.452966 z m -0.0381,-0.283634 c -0.02117,-0.296333 0.1397,-0.762 0.4953,-0.762 0.169334,0 0.254,0.1143 0.254,0.275167 0,0.351367 -0.4699,0.465667 -0.7493,0.486833 z m 3.832223,-1.299633 c 0.1905,0 0.423333,-0.1143 0.423333,-0.334433 0,-0.2286 -0.207433,-0.338667 -0.414866,-0.338667 -0.2032,0 -0.410634,0.131233 -0.410634,0.3556 0,0.207433 0.2159,0.3175 0.402167,0.3175 z m -0.275167,1.773767 c 0,0.05503 0.0042,0.169333 -0.01693,0.224366 -0.01693,0.02963 -0.0508,0.0508 -0.08043,0.07197 -0.04233,0.0254 -0.0762,0.05503 -0.0762,0.110067 0,0.09737 0.0762,0.131233 0.160866,0.131233 h 0.715434 c 0.08467,0 0.160866,-0.03387 0.160866,-0.131233 0,-0.05503 -0.03387,-0.08467 -0.0762,-0.110067 -0.02963,-0.02117 -0.0635,-0.04233 -0.08043,-0.07197 -0.02117,-0.05503 -0.01693,-0.169333 -0.01693,-0.224366 v -1.1176 c 0,-0.127 0.0254,-0.414867 -0.173567,-0.414867 -0.131233,0 -0.372533,0.08043 -0.499533,0.122767 -0.08043,0.02117 -0.258234,0.04657 -0.258234,0.160866 0,0.06773 0.05503,0.0889 0.105834,0.118534 0.07197,0.04233 0.105833,0.0635 0.122766,0.1524 0.0127,0.09313 0.0127,0.224366 0.0127,0.3175 z m 3.433758,-0.694267 c 0,-0.211667 -0.02963,-0.448733 -0.182033,-0.613833 -0.1524,-0.160867 -0.385233,-0.224367 -0.601133,-0.224367 -0.275167,0 -0.503767,0.09737 -0.6731,0.3048 -0.01693,-0.110067 -0.04657,-0.3048 -0.1905,-0.3048 -0.131234,0 -0.651934,0.160867 -0.651934,0.313267 0,0.06773 0.04657,0.09737 0.0889,0.1143 0.143934,0.07197 0.127,0.148166 0.127,0.296333 v 0.808567 c 0,0.05503 0.0042,0.169333 -0.01693,0.224366 -0.01693,0.02963 -0.0508,0.0508 -0.08043,0.07197 -0.04233,0.0254 -0.0762,0.05503 -0.0762,0.110067 0,0.09737 0.0762,0.131233 0.160866,0.131233 h 0.715434 c 0.08467,0 0.160866,-0.03387 0.160866,-0.131233 0,-0.05503 -0.03387,-0.08467 -0.0762,-0.110067 -0.02963,-0.02117 -0.0635,-0.04233 -0.08043,-0.07197 -0.02117,-0.05503 -0.01693,-0.169333 -0.01693,-0.224366 v -0.656167 c 0,-0.1143 0,-0.245533 0.0635,-0.347133 0.07197,-0.118534 0.186266,-0.173567 0.325966,-0.173567 0.3048,0 0.313267,0.262467 0.313267,0.4953 v 0.681567 c 0,0.05503 0.0042,0.169333 -0.01693,0.224366 -0.01693,0.02963 -0.0508,0.0508 -0.08043,0.07197 -0.04233,0.0254 -0.0762,0.05503 -0.0762,0.110067 0,0.09737 0.0762,0.131233 0.160867,0.131233 h 0.715433 c 0.08467,0 0.160867,-0.03387 0.160867,-0.131233 0,-0.05503 -0.03387,-0.08467 -0.0762,-0.110067 -0.02963,-0.02117 -0.0635,-0.04233 -0.08043,-0.07197 -0.02117,-0.05503 -0.01693,-0.169333 -0.01693,-0.224366 z m 5.000629,-1.176867 c 0,-0.0889 0.0042,-0.296333 -0.03387,-0.372533 -0.0381,-0.07197 -0.105833,-0.1143 -0.1778,-0.156633 -0.262466,-0.148167 -0.656166,-0.224367 -0.9525,-0.224367 -0.9779,0 -1.773766,0.635 -1.773766,1.651 0,0.999067 0.762,1.5748 1.710266,1.5748 0.3302,0 0.5588,-0.05503 0.867834,-0.169333 0.143933,-0.0508 0.512233,-0.207434 0.512233,-0.389467 0,-0.02117 -0.0085,-0.0635 -0.0127,-0.08467 -0.03387,-0.1397 -0.04657,-0.270933 -0.04657,-0.414866 l 0.0254,-0.296334 c 0.0085,-0.05503 0.02117,-0.135466 0.02117,-0.194733 0,-0.05927 -0.01693,-0.09313 -0.07197,-0.1143 -0.0762,-0.0254 -0.249766,-0.02963 -0.334433,-0.02963 h -0.681567 c -0.122766,0 -0.313266,0 -0.313266,0.169333 0,0.1905 0.2032,0.160867 0.3302,0.160867 0.2921,0 0.313266,0.0762 0.313266,0.351366 0,0.1651 -0.0042,0.381 -0.122766,0.503767 -0.110067,0.1143 -0.3048,0.156633 -0.448734,0.156633 -0.630766,0 -0.922866,-0.6858 -0.922866,-1.227666 0,-0.618067 0.309033,-1.325034 1.024466,-1.325034 0.1778,0 0.364067,0.05503 0.508,0.173567 0.127,0.1016 0.186267,0.2159 0.254,0.359833 0.0381,0.08043 0.07197,0.1397 0.169334,0.1397 0.0889,0 0.1397,-0.05503 0.156633,-0.135466 z m 1.207031,1.680634 c 0.262467,-0.04233 0.537633,-0.06773 0.791633,-0.148167 0.258234,-0.08467 0.579967,-0.262467 0.579967,-0.575733 0,-0.4445 -0.491067,-0.618067 -0.867833,-0.618067 -0.6604,0 -1.274233,0.423333 -1.274233,1.134533 0,0.6223 0.563033,0.999067 1.138766,0.999067 0.262467,0 0.4826,-0.04657 0.702733,-0.1778 0.1143,-0.0635 0.3429,-0.2413 0.3429,-0.3937 0,-0.0635 -0.0635,-0.1143 -0.122766,-0.1143 -0.08467,0 -0.1143,0.04233 -0.173567,0.09313 -0.169333,0.1524 -0.3429,0.254 -0.5715,0.254 -0.275167,0 -0.486833,-0.186266 -0.5461,-0.452966 z m -0.0381,-0.283634 c -0.02117,-0.296333 0.1397,-0.762 0.4953,-0.762 0.169333,0 0.254,0.1143 0.254,0.275167 0,0.351367 -0.4699,0.465667 -0.7493,0.486833 z m 2.739494,0.105834 c 0,-0.148167 0.0085,-0.325967 0.08043,-0.4572 0.0381,-0.0762 0.105833,-0.156634 0.194733,-0.156634 0.0889,0 0.173567,0.05503 0.283634,0.05503 0.148166,0 0.224366,-0.160867 0.224366,-0.2921 0,-0.182034 -0.135466,-0.313267 -0.3175,-0.313267 -0.245533,0 -0.452966,0.232833 -0.554566,0.440267 -0.02117,-0.1397 -0.0508,-0.440267 -0.2413,-0.440267 -0.09313,0 -0.3556,0.0889 -0.4445,0.122767 -0.08043,0.03387 -0.207433,0.08467 -0.207433,0.1905 0,0.0762 0.0508,0.110066 0.1143,0.1397 0.0889,0.04233 0.127,0.0635 0.1524,0.156633 0.0254,0.08467 0.0254,0.173567 0.0254,0.1143 v 0.7747 c 0,0.05927 0,0.1778 -0.02117,0.232833 -0.01693,0.0381 -0.05927,0.05927 -0.09313,0.0762 -0.05503,0.02963 -0.1016,0.05927 -0.1016,0.127 0,0.135467 0.127,0.135467 0.2286,0.135467 h 0.664633 c 0.1016,0 0.2286,0 0.2286,-0.135467 0,-0.06773 -0.04657,-0.09737 -0.1016,-0.127 -0.03387,-0.01693 -0.0762,-0.0381 -0.09313,-0.0762 -0.02117,-0.05503 -0.02117,-0.173566 -0.02117,-0.232833 z m 4.67413,-0.389467 c 0,-0.211667 -0.0254,-0.427567 -0.186267,-0.579967 -0.1397,-0.131233 -0.347133,-0.194733 -0.5334,-0.194733 -0.287866,0 -0.5588,0.09737 -0.7239,0.3429 -0.127,-0.2286 -0.351366,-0.3429 -0.605366,-0.3429 -0.2667,0 -0.512234,0.110067 -0.681567,0.3048 -0.01693,-0.110067 -0.04657,-0.3048 -0.1905,-0.3048 -0.131233,0 -0.651933,0.160867 -0.651933,0.313267 0,0.06773 0.04657,0.09737 0.0889,0.1143 0.143933,0.07197 0.127,0.148166 0.127,0.296333 v 0.808567 c 0,0.05503 0.0042,0.169333 -0.01693,0.224366 -0.01693,0.02963 -0.0508,0.0508 -0.08043,0.07197 -0.04233,0.0254 -0.0762,0.05503 -0.0762,0.110067 0,0.09737 0.0762,0.131233 0.160867,0.131233 h 0.715433 c 0.08467,0 0.160867,-0.03387 0.160867,-0.131233 0,-0.05503 -0.03387,-0.08467 -0.0762,-0.110067 -0.02963,-0.02117 -0.0635,-0.04233 -0.08043,-0.07197 -0.02117,-0.05503 -0.01693,-0.169333 -0.01693,-0.224366 v -0.635 c 0,-0.122767 0,-0.270934 0.0762,-0.372534 0.07197,-0.09313 0.169333,-0.143933 0.2921,-0.143933 0.2794,0 0.275167,0.2921 0.275167,0.4953 v 0.656167 c 0,0.05503 0.0042,0.169333 -0.01693,0.224366 -0.01693,0.02963 -0.0508,0.0508 -0.08043,0.07197 -0.04233,0.0254 -0.0762,0.05503 -0.0762,0.110067 0,0.09737 0.0762,0.131233 0.160867,0.131233 h 0.715433 c 0.08467,0 0.160867,-0.03387 0.160867,-0.131233 0,-0.05503 -0.03387,-0.08467 -0.0762,-0.110067 -0.02963,-0.02117 -0.0635,-0.04233 -0.08043,-0.07197 -0.02117,-0.05503 -0.01693,-0.169333 -0.01693,-0.224366 v -0.635 c 0,-0.122767 0,-0.270934 0.0762,-0.372534 0.07197,-0.09313 0.169333,-0.143933 0.2921,-0.143933 0.2794,0 0.275167,0.2921 0.275167,0.4953 v 0.656167 c 0,0.05503 0.0042,0.169333 -0.01693,0.224366 -0.01693,0.02963 -0.0508,0.0508 -0.08043,0.07197 -0.04233,0.0254 -0.0762,0.05503 -0.0762,0.110067 0,0.09737 0.0762,0.131233 0.160867,0.131233 h 0.715433 c 0.08467,0 0.160867,-0.03387 0.160867,-0.131233 0,-0.05503 -0.03387,-0.08467 -0.0762,-0.110067 -0.02963,-0.02117 -0.0635,-0.04233 -0.08043,-0.07197 -0.02117,-0.05503 -0.01693,-0.169333 -0.01693,-0.224366 z m 2.553227,0.04657 c 0,-0.296334 -0.08043,-0.512234 -0.3429,-0.664634 -0.207433,-0.118533 -0.4699,-0.156633 -0.706966,-0.156633 -0.207434,0 -0.8763,0.05503 -0.8763,0.351367 0,0.148166 0.1397,0.2032 0.262466,0.2032 0.2667,0 0.3048,-0.270934 0.563034,-0.270934 0.270933,0 0.3937,0.1905 0.3937,0.4445 H 61.76117 c -0.465666,0 -1.227666,0.148167 -1.227666,0.7493 0,0.436034 0.364066,0.656167 0.762,0.656167 0.258233,0 0.512233,-0.0889 0.656166,-0.325967 0.0127,0.1905 0.0127,0.262467 0.2286,0.262467 h 0.423334 c 0.1016,0 0.2286,0 0.2286,-0.135467 0,-0.07197 -0.04657,-0.1016 -0.105834,-0.131233 -0.0381,-0.01693 -0.07197,-0.0381 -0.09313,-0.08043 -0.0254,-0.05503 -0.02117,-0.173567 -0.02117,-0.232834 z m -0.6858,0.173566 v 0.135467 c 0,0.169333 0.0042,0.3048 -0.0889,0.452967 -0.0762,0.1143 -0.186266,0.2032 -0.325966,0.2032 -0.173567,0 -0.2667,-0.143934 -0.2667,-0.3048 0,-0.338667 0.3048,-0.486834 0.605366,-0.486834 z m 3.450694,-0.156633 c 0,-0.211667 -0.02963,-0.448733 -0.182033,-0.613833 -0.1524,-0.160867 -0.385233,-0.224367 -0.601133,-0.224367 -0.275167,0 -0.503767,0.09737 -0.6731,0.3048 -0.01693,-0.110067 -0.04657,-0.3048 -0.1905,-0.3048 -0.131233,0 -0.651933,0.160867 -0.651933,0.313267 0,0.06773 0.04657,0.09737 0.0889,0.1143 0.143933,0.07197 0.127,0.148166 0.127,0.296333 v 0.808567 c 0,0.05503 0.0042,0.169333 -0.01693,0.224366 -0.01693,0.02963 -0.0508,0.0508 -0.08043,0.07197 -0.04233,0.0254 -0.0762,0.05503 -0.0762,0.110067 0,0.09737 0.0762,0.131233 0.160867,0.131233 h 0.715433 c 0.08467,0 0.160866,-0.03387 0.160866,-0.131233 0,-0.05503 -0.03387,-0.08467 -0.0762,-0.110067 -0.02963,-0.02117 -0.0635,-0.04233 -0.08043,-0.07197 -0.02117,-0.05503 -0.01693,-0.169333 -0.01693,-0.224366 v -0.656167 c 0,-0.1143 0,-0.245533 0.0635,-0.347133 0.07197,-0.118534 0.186266,-0.173567 0.325966,-0.173567 0.3048,0 0.313267,0.262467 0.313267,0.4953 v 0.681567 c 0,0.05503 0.0042,0.169333 -0.01693,0.224366 -0.01693,0.02963 -0.0508,0.0508 -0.08043,0.07197 -0.04233,0.0254 -0.0762,0.05503 -0.0762,0.110067 0,0.09737 0.0762,0.131233 0.160867,0.131233 h 0.715433 c 0.08467,0 0.160867,-0.03387 0.160867,-0.131233 0,-0.05503 -0.03387,-0.08467 -0.0762,-0.110067 -0.02963,-0.02117 -0.0635,-0.04233 -0.08043,-0.07197 -0.02117,-0.05503 -0.01693,-0.169333 -0.01693,-0.224366 z m 0.563566,-0.804333 c -0.08043,-0.0042 -0.207433,0.0042 -0.207433,0.118533 0,0.127 0.1143,0.0762 0.143933,0.270933 0.05503,0.372534 0.169334,1.113367 0.4318,1.3843 0.127,0.127 0.3302,0.2286 0.516467,0.2286 0.06773,0 0.135467,-0.0085 0.2032,-0.0254 -0.0508,0.1016 -0.110067,0.198967 -0.186267,0.283634 -0.05927,0.06773 -0.2159,0.207433 -0.309033,0.207433 -0.07197,0 -0.1905,-0.09313 -0.325967,-0.09313 -0.127,0 -0.249766,0.08467 -0.249766,0.224366 0,0.182034 0.224366,0.262467 0.376766,0.262467 0.893234,0 1.397,-1.4097 1.507067,-2.137833 0.01693,-0.0889 0.04233,-0.309034 0.07197,-0.385234 0.0127,-0.04233 0.02963,-0.05927 0.05503,-0.09313 0.03387,-0.0381 0.06773,-0.08043 0.06773,-0.135467 0,-0.135466 -0.1778,-0.110066 -0.2667,-0.110066 h -0.2413 c -0.09313,0 -0.2413,-0.02117 -0.2413,0.118533 0,0.05927 0.04233,0.09737 0.0889,0.127 0.110067,0.0635 0.110067,0.1143 0.110067,0.245533 0,0.198967 -0.1397,1.1938 -0.397933,1.1938 -0.156634,0 -0.296334,-0.359833 -0.338667,-0.478366 -0.0762,-0.220134 -0.135467,-0.5334 -0.135467,-0.766234 0,-0.198966 0.143934,-0.1905 0.143934,-0.300566 0,-0.1524 -0.1524,-0.1397 -0.2667,-0.1397 z m 2.938468,2.099733 c 0.1905,0 0.3937,-0.127 0.3937,-0.334433 0,-0.211667 -0.2032,-0.347134 -0.397934,-0.347134 -0.198966,0 -0.4064,0.122767 -0.4064,0.3429 0,0.2159 0.2159,0.338667 0.410634,0.338667 z"
       id="text1"
       style="font-size:4.23333px;font-family:'ITC Souvenir Demi';-inkscape-font-specification:'ITC Souvenir Demi';text-align:center;letter-spacing:0.119062px;text-anchor:middle;stroke:#000000;stroke-width:0.1"
       aria-label="Made in Germany." />
  </g>
</svg>
