%TF.GenerationSoftware,KiCad,Pcbnew,8.0.2*%
%TF.CreationDate,2025-12-10T20:50:01-08:00*%
%TF.ProjectId,Numpad_Daughterboard,4e756d70-6164-45f4-9461-756768746572,rev?*%
%TF.SameCoordinates,Original*%
%TF.FileFunction,Copper,L1,Top*%
%TF.FilePolarity,Positive*%
%FSLAX46Y46*%
G04 Gerber Fmt 4.6, Leading zero omitted, Abs format (unit mm)*
G04 Created by KiCad (PCBNEW 8.0.2) date 2025-12-10 20:50:01*
%MOMM*%
%LPD*%
G01*
G04 APERTURE LIST*
%TA.AperFunction,ComponentPad*%
%ADD10O,1.050000X2.150000*%
%TD*%
%TA.AperFunction,ComponentPad*%
%ADD11O,1.050000X1.850000*%
%TD*%
%TA.AperFunction,ComponentPad*%
%ADD12C,5.000000*%
%TD*%
%TA.AperFunction,ViaPad*%
%ADD13C,0.600000*%
%TD*%
%TA.AperFunction,Conductor*%
%ADD14C,0.200000*%
%TD*%
G04 APERTURE END LIST*
D10*
%TO.P,J1,S1,SHIELD*%
%TO.N,GND*%
X16320000Y-5750000D03*
D11*
X16320000Y-1600000D03*
D10*
X7680000Y-5750000D03*
D11*
X7680000Y-1600000D03*
%TD*%
D12*
%TO.P,H1,1,1*%
%TO.N,GND*%
X21650038Y-2349952D03*
%TD*%
D13*
%TO.N,GND*%
X17000000Y-14500000D03*
X16200000Y-7900000D03*
X8500000Y-10800000D03*
X15500000Y-12000000D03*
X13300000Y-8600000D03*
X11850000Y-4480000D03*
%TO.N,Net-(J1-CC1)*%
X5600000Y-7300000D03*
X10764953Y-5196829D03*
%TO.N,Net-(J1-CC2)*%
X12943981Y-5301936D03*
X4300000Y-9900000D03*
%TD*%
D14*
%TO.N,Net-(J1-CC1)*%
X5600000Y-4840000D02*
X5600000Y-7300000D01*
X10764953Y-5196829D02*
X9368124Y-3800000D01*
X9368124Y-3800000D02*
X6640000Y-3800000D01*
X6640000Y-3800000D02*
X5600000Y-4840000D01*
%TO.N,Net-(J1-CC2)*%
X6474314Y-3400000D02*
X12070000Y-3400000D01*
X12070000Y-3400000D02*
X12943981Y-4273981D01*
X4300000Y-7220000D02*
X4300000Y-9900000D01*
X4300000Y-5574314D02*
X6474314Y-3400000D01*
X4300000Y-7220000D02*
X4300000Y-5574314D01*
X12943981Y-4273981D02*
X12943981Y-5301936D01*
%TD*%
%TA.AperFunction,Conductor*%
%TO.N,GND*%
G36*
X6749684Y-520185D02*
G01*
X6795439Y-572989D01*
X6805383Y-642147D01*
X6785746Y-693392D01*
X6771660Y-714471D01*
X6771652Y-714486D01*
X6694390Y-901016D01*
X6694387Y-901025D01*
X6655000Y-1099041D01*
X6655000Y-1350000D01*
X7355000Y-1350000D01*
X7355000Y-1850000D01*
X6655000Y-1850000D01*
X6655000Y-2100958D01*
X6694387Y-2298974D01*
X6694390Y-2298983D01*
X6771652Y-2485513D01*
X6771659Y-2485526D01*
X6883829Y-2653399D01*
X6883832Y-2653403D01*
X7026596Y-2796167D01*
X7026600Y-2796170D01*
X7065852Y-2822398D01*
X7110657Y-2876011D01*
X7119364Y-2945336D01*
X7089209Y-3008363D01*
X7029766Y-3045082D01*
X6996961Y-3049500D01*
X6428170Y-3049500D01*
X6339026Y-3073386D01*
X6339025Y-3073386D01*
X6339023Y-3073387D01*
X6339020Y-3073388D01*
X6259108Y-3119526D01*
X6259099Y-3119533D01*
X4019531Y-5359100D01*
X4019529Y-5359103D01*
X3980193Y-5427237D01*
X3980191Y-5427240D01*
X3973386Y-5439026D01*
X3949500Y-5528170D01*
X3949500Y-9413908D01*
X3929815Y-9480947D01*
X3911913Y-9500412D01*
X3913129Y-9501628D01*
X3907384Y-9507372D01*
X3819137Y-9622377D01*
X3763671Y-9756287D01*
X3763670Y-9756291D01*
X3744750Y-9899999D01*
X3744750Y-9900000D01*
X3763670Y-10043708D01*
X3763671Y-10043712D01*
X3819137Y-10177622D01*
X3819138Y-10177624D01*
X3819139Y-10177625D01*
X3907379Y-10292621D01*
X4022375Y-10380861D01*
X4156291Y-10436330D01*
X4283280Y-10453048D01*
X4299999Y-10455250D01*
X4300000Y-10455250D01*
X4300001Y-10455250D01*
X4314977Y-10453278D01*
X4443709Y-10436330D01*
X4577625Y-10380861D01*
X4692621Y-10292621D01*
X4780861Y-10177625D01*
X4836330Y-10043709D01*
X4855250Y-9900000D01*
X4836330Y-9756291D01*
X4780861Y-9622375D01*
X4692621Y-9507379D01*
X4692619Y-9507377D01*
X4692615Y-9507372D01*
X4686871Y-9501628D01*
X4689387Y-9499111D01*
X4657797Y-9455817D01*
X4650500Y-9413908D01*
X4650500Y-5770857D01*
X4670185Y-5703818D01*
X4686819Y-5683176D01*
X5037819Y-5332176D01*
X5099142Y-5298691D01*
X5168834Y-5303675D01*
X5224767Y-5345547D01*
X5249184Y-5411011D01*
X5249500Y-5419857D01*
X5249500Y-6813908D01*
X5229815Y-6880947D01*
X5211913Y-6900412D01*
X5213129Y-6901628D01*
X5207384Y-6907372D01*
X5119137Y-7022377D01*
X5063671Y-7156287D01*
X5063670Y-7156291D01*
X5044750Y-7299999D01*
X5044750Y-7300000D01*
X5063670Y-7443708D01*
X5063671Y-7443712D01*
X5119137Y-7577622D01*
X5119138Y-7577624D01*
X5119139Y-7577625D01*
X5207379Y-7692621D01*
X5322375Y-7780861D01*
X5456291Y-7836330D01*
X5583280Y-7853048D01*
X5599999Y-7855250D01*
X5600000Y-7855250D01*
X5600001Y-7855250D01*
X5614977Y-7853278D01*
X5743709Y-7836330D01*
X5877625Y-7780861D01*
X5992621Y-7692621D01*
X6080861Y-7577625D01*
X6136330Y-7443709D01*
X6155250Y-7300000D01*
X6136330Y-7156291D01*
X6080861Y-7022375D01*
X5992621Y-6907379D01*
X5992619Y-6907377D01*
X5992615Y-6907372D01*
X5986871Y-6901628D01*
X5989387Y-6899111D01*
X5957797Y-6855817D01*
X5950500Y-6813908D01*
X5950500Y-5036544D01*
X5970185Y-4969505D01*
X5986819Y-4948863D01*
X6748863Y-4186819D01*
X6810186Y-4153334D01*
X6836544Y-4150500D01*
X6996961Y-4150500D01*
X7064000Y-4170185D01*
X7109755Y-4222989D01*
X7119699Y-4292147D01*
X7090674Y-4355703D01*
X7065852Y-4377602D01*
X7026600Y-4403829D01*
X7026596Y-4403832D01*
X6883832Y-4546596D01*
X6883829Y-4546600D01*
X6771659Y-4714473D01*
X6771652Y-4714486D01*
X6694390Y-4901016D01*
X6694387Y-4901025D01*
X6655000Y-5099041D01*
X6655000Y-5500000D01*
X7355000Y-5500000D01*
X7355000Y-6000000D01*
X6655000Y-6000000D01*
X6655000Y-6400958D01*
X6694387Y-6598974D01*
X6694390Y-6598983D01*
X6771652Y-6785513D01*
X6771659Y-6785526D01*
X6883829Y-6953399D01*
X6883832Y-6953403D01*
X7026596Y-7096167D01*
X7026600Y-7096170D01*
X7194473Y-7208340D01*
X7194486Y-7208347D01*
X7381016Y-7285609D01*
X7381025Y-7285612D01*
X7430000Y-7295353D01*
X7430000Y-6409618D01*
X7480446Y-6460064D01*
X7554555Y-6502851D01*
X7637213Y-6525000D01*
X7722787Y-6525000D01*
X7805445Y-6502851D01*
X7879554Y-6460064D01*
X7930000Y-6409618D01*
X7930000Y-7295352D01*
X7978974Y-7285612D01*
X7978983Y-7285609D01*
X8165513Y-7208347D01*
X8165526Y-7208340D01*
X8333399Y-7096170D01*
X8333403Y-7096167D01*
X8476167Y-6953403D01*
X8476170Y-6953399D01*
X8588340Y-6785526D01*
X8588347Y-6785513D01*
X8665609Y-6598983D01*
X8665612Y-6598974D01*
X8704999Y-6400958D01*
X8705000Y-6400955D01*
X8705000Y-6000000D01*
X8005000Y-6000000D01*
X8005000Y-5500000D01*
X8633613Y-5500000D01*
X8700652Y-5519685D01*
X8721103Y-5538499D01*
X8722158Y-5537445D01*
X8727905Y-5543192D01*
X8816808Y-5632095D01*
X8925692Y-5694959D01*
X9047136Y-5727500D01*
X9047139Y-5727500D01*
X9172861Y-5727500D01*
X9172864Y-5727500D01*
X9294308Y-5694959D01*
X9403192Y-5632095D01*
X9492095Y-5543192D01*
X9554959Y-5434308D01*
X9587500Y-5312864D01*
X9587500Y-5187136D01*
X9554959Y-5065692D01*
X9492095Y-4956808D01*
X9403192Y-4867905D01*
X9403191Y-4867904D01*
X9403188Y-4867902D01*
X9294310Y-4805042D01*
X9294309Y-4805041D01*
X9263947Y-4796905D01*
X9172864Y-4772500D01*
X9047136Y-4772500D01*
X8974269Y-4792024D01*
X8925690Y-4805041D01*
X8925689Y-4805042D01*
X8809770Y-4871968D01*
X8808587Y-4869919D01*
X8754684Y-4890748D01*
X8686242Y-4876698D01*
X8636260Y-4827876D01*
X8629825Y-4814628D01*
X8588342Y-4714477D01*
X8588340Y-4714473D01*
X8476170Y-4546600D01*
X8476167Y-4546596D01*
X8333403Y-4403832D01*
X8333399Y-4403829D01*
X8294148Y-4377602D01*
X8249343Y-4323989D01*
X8240636Y-4254664D01*
X8270791Y-4191637D01*
X8330234Y-4154918D01*
X8363039Y-4150500D01*
X9171580Y-4150500D01*
X9238619Y-4170185D01*
X9259261Y-4186819D01*
X10173393Y-5100951D01*
X10206878Y-5162274D01*
X10208020Y-5188702D01*
X10209703Y-5188702D01*
X10209703Y-5196829D01*
X10228623Y-5340537D01*
X10228624Y-5340541D01*
X10284090Y-5474451D01*
X10284091Y-5474453D01*
X10284092Y-5474454D01*
X10372332Y-5589450D01*
X10487328Y-5677690D01*
X10487329Y-5677690D01*
X10487330Y-5677691D01*
X10528047Y-5694556D01*
X10621244Y-5733159D01*
X10748233Y-5749877D01*
X10764952Y-5752079D01*
X10764953Y-5752079D01*
X10764954Y-5752079D01*
X10779930Y-5750107D01*
X10908662Y-5733159D01*
X11042578Y-5677690D01*
X11157574Y-5589450D01*
X11245814Y-5474454D01*
X11301283Y-5340538D01*
X11320203Y-5196829D01*
X11301283Y-5053120D01*
X11245814Y-4919204D01*
X11157574Y-4804208D01*
X11042578Y-4715968D01*
X11042577Y-4715967D01*
X11042575Y-4715966D01*
X10908665Y-4660500D01*
X10908663Y-4660499D01*
X10908662Y-4660499D01*
X10817591Y-4648509D01*
X10764954Y-4641579D01*
X10756826Y-4641579D01*
X10756826Y-4638072D01*
X10703566Y-4629601D01*
X10669075Y-4605269D01*
X10025987Y-3962181D01*
X9992502Y-3900858D01*
X9997486Y-3831166D01*
X10039358Y-3775233D01*
X10104822Y-3750816D01*
X10113668Y-3750500D01*
X11873456Y-3750500D01*
X11940495Y-3770185D01*
X11961137Y-3786819D01*
X12557162Y-4382844D01*
X12590647Y-4444167D01*
X12593481Y-4470525D01*
X12593481Y-4815844D01*
X12573796Y-4882883D01*
X12555894Y-4902348D01*
X12557110Y-4903564D01*
X12551365Y-4909308D01*
X12463118Y-5024313D01*
X12407652Y-5158223D01*
X12407651Y-5158227D01*
X12388731Y-5301936D01*
X12406158Y-5434308D01*
X12407651Y-5445644D01*
X12407652Y-5445648D01*
X12463118Y-5579558D01*
X12463119Y-5579560D01*
X12463120Y-5579561D01*
X12551360Y-5694557D01*
X12666356Y-5782797D01*
X12800272Y-5838266D01*
X12927261Y-5854984D01*
X12943980Y-5857186D01*
X12943981Y-5857186D01*
X12943982Y-5857186D01*
X12958958Y-5855214D01*
X13087690Y-5838266D01*
X13221606Y-5782797D01*
X13336602Y-5694557D01*
X13424842Y-5579561D01*
X13480311Y-5445645D01*
X13499231Y-5301936D01*
X13484117Y-5187136D01*
X14412500Y-5187136D01*
X14412500Y-5312864D01*
X14422438Y-5349952D01*
X14445041Y-5434309D01*
X14445042Y-5434310D01*
X14507902Y-5543188D01*
X14507904Y-5543191D01*
X14507905Y-5543192D01*
X14596808Y-5632095D01*
X14705692Y-5694959D01*
X14827136Y-5727500D01*
X14827139Y-5727500D01*
X14952861Y-5727500D01*
X14952864Y-5727500D01*
X15074308Y-5694959D01*
X15183192Y-5632095D01*
X15272095Y-5543192D01*
X15272095Y-5543191D01*
X15277842Y-5537445D01*
X15280090Y-5539693D01*
X15324438Y-5507311D01*
X15366387Y-5500000D01*
X15995000Y-5500000D01*
X15995000Y-6000000D01*
X15295000Y-6000000D01*
X15295000Y-6400958D01*
X15334387Y-6598974D01*
X15334390Y-6598983D01*
X15411652Y-6785513D01*
X15411659Y-6785526D01*
X15523829Y-6953399D01*
X15523832Y-6953403D01*
X15666596Y-7096167D01*
X15666600Y-7096170D01*
X15834473Y-7208340D01*
X15834486Y-7208347D01*
X16021016Y-7285609D01*
X16021025Y-7285612D01*
X16070000Y-7295353D01*
X16070000Y-6409618D01*
X16120446Y-6460064D01*
X16194555Y-6502851D01*
X16277213Y-6525000D01*
X16362787Y-6525000D01*
X16445445Y-6502851D01*
X16519554Y-6460064D01*
X16570000Y-6409618D01*
X16570000Y-7295352D01*
X16618974Y-7285612D01*
X16618983Y-7285609D01*
X16805513Y-7208347D01*
X16805526Y-7208340D01*
X16973399Y-7096170D01*
X16973403Y-7096167D01*
X17116167Y-6953403D01*
X17116170Y-6953399D01*
X17228340Y-6785526D01*
X17228347Y-6785513D01*
X17305609Y-6598983D01*
X17305612Y-6598974D01*
X17344999Y-6400958D01*
X17345000Y-6400955D01*
X17345000Y-6000000D01*
X16645000Y-6000000D01*
X16645000Y-5500000D01*
X17345000Y-5500000D01*
X17345000Y-5099045D01*
X17344999Y-5099041D01*
X17305612Y-4901025D01*
X17305609Y-4901016D01*
X17228347Y-4714486D01*
X17228340Y-4714473D01*
X17116170Y-4546600D01*
X17116167Y-4546596D01*
X16973403Y-4403832D01*
X16973399Y-4403829D01*
X16805526Y-4291659D01*
X16805513Y-4291652D01*
X16618984Y-4214390D01*
X16618977Y-4214388D01*
X16570000Y-4204645D01*
X16570000Y-5090382D01*
X16519554Y-5039936D01*
X16445445Y-4997149D01*
X16362787Y-4975000D01*
X16277213Y-4975000D01*
X16194555Y-4997149D01*
X16120446Y-5039936D01*
X16070000Y-5090382D01*
X16070000Y-4204646D01*
X16069999Y-4204645D01*
X16021022Y-4214388D01*
X16021015Y-4214390D01*
X15834486Y-4291652D01*
X15834473Y-4291659D01*
X15666600Y-4403829D01*
X15666596Y-4403832D01*
X15523832Y-4546596D01*
X15523829Y-4546600D01*
X15411659Y-4714473D01*
X15411652Y-4714486D01*
X15370173Y-4814628D01*
X15326332Y-4869032D01*
X15260038Y-4891097D01*
X15192339Y-4873818D01*
X15185980Y-4869514D01*
X15074310Y-4805042D01*
X15074309Y-4805041D01*
X15043947Y-4796905D01*
X14952864Y-4772500D01*
X14827136Y-4772500D01*
X14754269Y-4792024D01*
X14705690Y-4805041D01*
X14705689Y-4805042D01*
X14596811Y-4867902D01*
X14596806Y-4867906D01*
X14507906Y-4956806D01*
X14507902Y-4956811D01*
X14445042Y-5065689D01*
X14445041Y-5065690D01*
X14435593Y-5100951D01*
X14412500Y-5187136D01*
X13484117Y-5187136D01*
X13480311Y-5158227D01*
X13441982Y-5065692D01*
X13424843Y-5024313D01*
X13424842Y-5024312D01*
X13424842Y-5024311D01*
X13336602Y-4909315D01*
X13336600Y-4909313D01*
X13336596Y-4909308D01*
X13330852Y-4903564D01*
X13333368Y-4901047D01*
X13301778Y-4857753D01*
X13294481Y-4815844D01*
X13294481Y-4227839D01*
X13294481Y-4227837D01*
X13270595Y-4138693D01*
X13236979Y-4080469D01*
X13224451Y-4058769D01*
X13224449Y-4058767D01*
X13224448Y-4058765D01*
X13224447Y-4058764D01*
X12285213Y-3119531D01*
X12285208Y-3119527D01*
X12205290Y-3073387D01*
X12205289Y-3073386D01*
X12205288Y-3073386D01*
X12116144Y-3049500D01*
X8363039Y-3049500D01*
X8296000Y-3029815D01*
X8250245Y-2977011D01*
X8240301Y-2907853D01*
X8269326Y-2844297D01*
X8294148Y-2822398D01*
X8333399Y-2796170D01*
X8333403Y-2796167D01*
X8476167Y-2653403D01*
X8476170Y-2653399D01*
X8588340Y-2485526D01*
X8588347Y-2485513D01*
X8665609Y-2298983D01*
X8665612Y-2298974D01*
X8704999Y-2100958D01*
X8705000Y-2100955D01*
X8705000Y-1850000D01*
X8005000Y-1850000D01*
X8005000Y-1350000D01*
X8705000Y-1350000D01*
X8705000Y-1099045D01*
X8704999Y-1099041D01*
X8665612Y-901025D01*
X8665609Y-901016D01*
X8588347Y-714486D01*
X8588339Y-714471D01*
X8574254Y-693392D01*
X8553375Y-626715D01*
X8571859Y-559334D01*
X8623837Y-512644D01*
X8677355Y-500500D01*
X15322645Y-500500D01*
X15389684Y-520185D01*
X15435439Y-572989D01*
X15445383Y-642147D01*
X15425746Y-693392D01*
X15411660Y-714471D01*
X15411652Y-714486D01*
X15334390Y-901016D01*
X15334387Y-901025D01*
X15295000Y-1099041D01*
X15295000Y-1350000D01*
X15995000Y-1350000D01*
X15995000Y-1850000D01*
X15295000Y-1850000D01*
X15295000Y-2100958D01*
X15334387Y-2298974D01*
X15334390Y-2298983D01*
X15411652Y-2485513D01*
X15411659Y-2485526D01*
X15523829Y-2653399D01*
X15523832Y-2653403D01*
X15666596Y-2796167D01*
X15666600Y-2796170D01*
X15834473Y-2908340D01*
X15834486Y-2908347D01*
X16021016Y-2985609D01*
X16021025Y-2985612D01*
X16070000Y-2995353D01*
X16070000Y-2209618D01*
X16120446Y-2260064D01*
X16194555Y-2302851D01*
X16277213Y-2325000D01*
X16362787Y-2325000D01*
X16445445Y-2302851D01*
X16519554Y-2260064D01*
X16570000Y-2209618D01*
X16570000Y-2995352D01*
X16618974Y-2985612D01*
X16618983Y-2985609D01*
X16805513Y-2908347D01*
X16805526Y-2908340D01*
X16973399Y-2796170D01*
X16973403Y-2796167D01*
X17116167Y-2653403D01*
X17116170Y-2653399D01*
X17228340Y-2485526D01*
X17228347Y-2485513D01*
X17305609Y-2298983D01*
X17305612Y-2298974D01*
X17344999Y-2100958D01*
X17345000Y-2100955D01*
X17345000Y-1850000D01*
X16645000Y-1850000D01*
X16645000Y-1350000D01*
X17345000Y-1350000D01*
X17345000Y-1099045D01*
X17344999Y-1099041D01*
X17305612Y-901025D01*
X17305609Y-901016D01*
X17228347Y-714486D01*
X17228339Y-714471D01*
X17214254Y-693392D01*
X17193375Y-626715D01*
X17211859Y-559334D01*
X17263837Y-512644D01*
X17317355Y-500500D01*
X19039925Y-500500D01*
X19106964Y-520185D01*
X19152719Y-572989D01*
X19162663Y-642147D01*
X19140753Y-695244D01*
X19141312Y-695612D01*
X19139405Y-698511D01*
X19139393Y-698541D01*
X19139330Y-698624D01*
X19139328Y-698627D01*
X18964599Y-1001268D01*
X18964593Y-1001281D01*
X18826183Y-1322151D01*
X18725954Y-1656940D01*
X18725952Y-1656949D01*
X18665274Y-2001071D01*
X18665273Y-2001082D01*
X18644954Y-2349948D01*
X18644954Y-2349955D01*
X18665273Y-2698821D01*
X18665274Y-2698832D01*
X18725952Y-3042954D01*
X18725954Y-3042963D01*
X18826183Y-3377752D01*
X18964593Y-3698622D01*
X18964599Y-3698635D01*
X19139327Y-4001274D01*
X19348005Y-4281577D01*
X19356186Y-4290248D01*
X20606357Y-3040076D01*
X20696592Y-3164272D01*
X20835718Y-3303398D01*
X20959910Y-3393630D01*
X19712856Y-4640685D01*
X19712857Y-4640686D01*
X19855522Y-4760397D01*
X20147499Y-4952432D01*
X20459777Y-5109266D01*
X20459783Y-5109268D01*
X20788168Y-5228790D01*
X20788171Y-5228791D01*
X21128209Y-5309381D01*
X21475314Y-5349951D01*
X21475315Y-5349952D01*
X21824761Y-5349952D01*
X21824761Y-5349951D01*
X22171865Y-5309381D01*
X22171867Y-5309381D01*
X22511904Y-5228791D01*
X22511907Y-5228790D01*
X22840292Y-5109268D01*
X22840298Y-5109266D01*
X23152576Y-4952432D01*
X23307361Y-4850630D01*
X23374189Y-4830238D01*
X23441432Y-4849212D01*
X23487743Y-4901530D01*
X23499500Y-4954231D01*
X23499500Y-13645885D01*
X23499235Y-13653995D01*
X23484208Y-13883261D01*
X23482090Y-13899343D01*
X23438063Y-14120678D01*
X23433865Y-14136344D01*
X23361325Y-14350040D01*
X23355118Y-14365026D01*
X23255302Y-14567431D01*
X23247192Y-14581477D01*
X23121813Y-14769121D01*
X23111939Y-14781990D01*
X22963139Y-14951662D01*
X22951670Y-14963131D01*
X22781998Y-15111930D01*
X22769129Y-15121804D01*
X22581485Y-15247183D01*
X22567439Y-15255293D01*
X22365033Y-15355109D01*
X22350047Y-15361316D01*
X22136351Y-15433856D01*
X22120684Y-15438054D01*
X21899350Y-15482080D01*
X21883269Y-15484197D01*
X21653959Y-15499227D01*
X21645849Y-15499493D01*
X21575955Y-15499493D01*
X21575849Y-15499500D01*
X2354089Y-15499500D01*
X2346024Y-15499237D01*
X2330302Y-15498212D01*
X2118036Y-15484376D01*
X2102044Y-15482283D01*
X1881867Y-15438737D01*
X1866281Y-15434585D01*
X1653626Y-15362831D01*
X1638710Y-15356691D01*
X1437159Y-15257936D01*
X1423176Y-15249917D01*
X1236149Y-15125834D01*
X1223322Y-15116065D01*
X1053994Y-14968765D01*
X1042538Y-14957410D01*
X893751Y-14789364D01*
X883867Y-14776617D01*
X758160Y-14590691D01*
X750014Y-14576769D01*
X649508Y-14376105D01*
X643237Y-14361244D01*
X569623Y-14149218D01*
X565335Y-14133670D01*
X536850Y-13995983D01*
X519863Y-13913877D01*
X517631Y-13897905D01*
X517147Y-13891365D01*
X500838Y-13670852D01*
X500500Y-13661706D01*
X500500Y-13533718D01*
X872500Y-13533718D01*
X872500Y-13766281D01*
X908881Y-13995983D01*
X908881Y-13995986D01*
X980745Y-14217160D01*
X980747Y-14217163D01*
X1086328Y-14424379D01*
X1223026Y-14612527D01*
X1387473Y-14776974D01*
X1575621Y-14913672D01*
X1683748Y-14968765D01*
X1782839Y-15019254D01*
X2004014Y-15091118D01*
X2004015Y-15091118D01*
X2004018Y-15091119D01*
X2233718Y-15127500D01*
X2233719Y-15127500D01*
X2466281Y-15127500D01*
X2466282Y-15127500D01*
X2695982Y-15091119D01*
X2695985Y-15091118D01*
X2695986Y-15091118D01*
X2917160Y-15019254D01*
X2917160Y-15019253D01*
X2917163Y-15019253D01*
X3124379Y-14913672D01*
X3312527Y-14776974D01*
X3476974Y-14612527D01*
X3613672Y-14424379D01*
X3719253Y-14217163D01*
X3741330Y-14149218D01*
X3791118Y-13995986D01*
X3791118Y-13995985D01*
X3791119Y-13995982D01*
X3827500Y-13766282D01*
X3827500Y-13533718D01*
X3791119Y-13304018D01*
X3791118Y-13304014D01*
X3791118Y-13304013D01*
X3719254Y-13082839D01*
X3613671Y-12875620D01*
X3476974Y-12687473D01*
X3312527Y-12523026D01*
X3124379Y-12386328D01*
X2917160Y-12280745D01*
X2695985Y-12208881D01*
X2523707Y-12181595D01*
X2466282Y-12172500D01*
X2233718Y-12172500D01*
X2157151Y-12184627D01*
X2004016Y-12208881D01*
X2004013Y-12208881D01*
X1782839Y-12280745D01*
X1575620Y-12386328D01*
X1468275Y-12464319D01*
X1387473Y-12523026D01*
X1387471Y-12523028D01*
X1387470Y-12523028D01*
X1223028Y-12687470D01*
X1223028Y-12687471D01*
X1223026Y-12687473D01*
X1164319Y-12768275D01*
X1086328Y-12875620D01*
X980745Y-13082839D01*
X908881Y-13304013D01*
X908881Y-13304016D01*
X872500Y-13533718D01*
X500500Y-13533718D01*
X500500Y-2354023D01*
X500766Y-2345901D01*
X503846Y-2298983D01*
X508130Y-2233718D01*
X872500Y-2233718D01*
X872500Y-2466281D01*
X908881Y-2695983D01*
X908881Y-2695986D01*
X980745Y-2917160D01*
X1060346Y-3073386D01*
X1086328Y-3124379D01*
X1223026Y-3312527D01*
X1387473Y-3476974D01*
X1575621Y-3613672D01*
X1742346Y-3698622D01*
X1782839Y-3719254D01*
X2004014Y-3791118D01*
X2004015Y-3791118D01*
X2004018Y-3791119D01*
X2233718Y-3827500D01*
X2233719Y-3827500D01*
X2466281Y-3827500D01*
X2466282Y-3827500D01*
X2695982Y-3791119D01*
X2695985Y-3791118D01*
X2695986Y-3791118D01*
X2917160Y-3719254D01*
X2917160Y-3719253D01*
X2917163Y-3719253D01*
X3124379Y-3613672D01*
X3312527Y-3476974D01*
X3476974Y-3312527D01*
X3613672Y-3124379D01*
X3719253Y-2917163D01*
X3719254Y-2917160D01*
X3791118Y-2695986D01*
X3791118Y-2695985D01*
X3791119Y-2695982D01*
X3827500Y-2466282D01*
X3827500Y-2233718D01*
X3791119Y-2004018D01*
X3791118Y-2004014D01*
X3791118Y-2004013D01*
X3719254Y-1782839D01*
X3655110Y-1656949D01*
X3613672Y-1575621D01*
X3476974Y-1387473D01*
X3312527Y-1223026D01*
X3124379Y-1086328D01*
X3041617Y-1044159D01*
X2917160Y-980745D01*
X2695985Y-908881D01*
X2482066Y-875000D01*
X2466282Y-872500D01*
X2233718Y-872500D01*
X2160517Y-884094D01*
X2004016Y-908881D01*
X2004013Y-908881D01*
X1782839Y-980745D01*
X1575620Y-1086328D01*
X1468275Y-1164319D01*
X1387473Y-1223026D01*
X1387471Y-1223028D01*
X1387470Y-1223028D01*
X1223028Y-1387470D01*
X1223028Y-1387471D01*
X1223026Y-1387473D01*
X1201461Y-1417155D01*
X1086328Y-1575620D01*
X980745Y-1782839D01*
X908881Y-2004013D01*
X908881Y-2004016D01*
X872500Y-2233718D01*
X508130Y-2233718D01*
X515839Y-2116281D01*
X517959Y-2100205D01*
X562125Y-1878521D01*
X566330Y-1862854D01*
X639097Y-1648848D01*
X645314Y-1633865D01*
X745435Y-1431204D01*
X753554Y-1417167D01*
X879301Y-1229346D01*
X889202Y-1216470D01*
X1038424Y-1046697D01*
X1049909Y-1035240D01*
X1220055Y-886423D01*
X1232937Y-876568D01*
X1421063Y-751282D01*
X1435132Y-743189D01*
X1638043Y-643560D01*
X1653033Y-637384D01*
X1867204Y-565144D01*
X1882897Y-560972D01*
X2104684Y-517348D01*
X2120775Y-515267D01*
X2350435Y-500754D01*
X2358503Y-500508D01*
X2420365Y-500659D01*
X2420367Y-500658D01*
X2426866Y-500674D01*
X2429571Y-500500D01*
X6682645Y-500500D01*
X6749684Y-520185D01*
G37*
%TD.AperFunction*%
%TD*%
M02*
