%TF.GenerationSoftware,KiCad,Pcbnew,8.0.2*%
%TF.CreationDate,2025-12-10T20:50:01-08:00*%
%TF.ProjectId,Numpad_Daughterboard,4e756d70-6164-45f4-9461-756768746572,rev?*%
%TF.SameCoordinates,Original*%
%TF.FileFunction,Legend,Bot*%
%TF.FilePolarity,Positive*%
%FSLAX46Y46*%
G04 Gerber Fmt 4.6, Leading zero omitted, Abs format (unit mm)*
G04 Created by KiCad (PCBNEW 8.0.2) date 2025-12-10 20:50:01*
%MOMM*%
%LPD*%
G01*
G04 APERTURE LIST*
%ADD10C,0.150000*%
%ADD11C,0.120000*%
%ADD12C,0.127000*%
%ADD13C,0.200000*%
G04 APERTURE END LIST*
D10*
X6566666Y-11784819D02*
X6899999Y-11308628D01*
X7138094Y-11784819D02*
X7138094Y-10784819D01*
X7138094Y-10784819D02*
X6757142Y-10784819D01*
X6757142Y-10784819D02*
X6661904Y-10832438D01*
X6661904Y-10832438D02*
X6614285Y-10880057D01*
X6614285Y-10880057D02*
X6566666Y-10975295D01*
X6566666Y-10975295D02*
X6566666Y-11118152D01*
X6566666Y-11118152D02*
X6614285Y-11213390D01*
X6614285Y-11213390D02*
X6661904Y-11261009D01*
X6661904Y-11261009D02*
X6757142Y-11308628D01*
X6757142Y-11308628D02*
X7138094Y-11308628D01*
X6185713Y-10880057D02*
X6138094Y-10832438D01*
X6138094Y-10832438D02*
X6042856Y-10784819D01*
X6042856Y-10784819D02*
X5804761Y-10784819D01*
X5804761Y-10784819D02*
X5709523Y-10832438D01*
X5709523Y-10832438D02*
X5661904Y-10880057D01*
X5661904Y-10880057D02*
X5614285Y-10975295D01*
X5614285Y-10975295D02*
X5614285Y-11070533D01*
X5614285Y-11070533D02*
X5661904Y-11213390D01*
X5661904Y-11213390D02*
X6233332Y-11784819D01*
X6233332Y-11784819D02*
X5614285Y-11784819D01*
X3111904Y-10404819D02*
X3111904Y-9404819D01*
X3111904Y-9881009D02*
X2540476Y-9881009D01*
X2540476Y-10404819D02*
X2540476Y-9404819D01*
X2159523Y-9404819D02*
X1540476Y-9404819D01*
X1540476Y-9404819D02*
X1873809Y-9785771D01*
X1873809Y-9785771D02*
X1730952Y-9785771D01*
X1730952Y-9785771D02*
X1635714Y-9833390D01*
X1635714Y-9833390D02*
X1588095Y-9881009D01*
X1588095Y-9881009D02*
X1540476Y-9976247D01*
X1540476Y-9976247D02*
X1540476Y-10214342D01*
X1540476Y-10214342D02*
X1588095Y-10309580D01*
X1588095Y-10309580D02*
X1635714Y-10357200D01*
X1635714Y-10357200D02*
X1730952Y-10404819D01*
X1730952Y-10404819D02*
X2016666Y-10404819D01*
X2016666Y-10404819D02*
X2111904Y-10357200D01*
X2111904Y-10357200D02*
X2159523Y-10309580D01*
X10353333Y-7834819D02*
X10353333Y-8549104D01*
X10353333Y-8549104D02*
X10400952Y-8691961D01*
X10400952Y-8691961D02*
X10496190Y-8787200D01*
X10496190Y-8787200D02*
X10639047Y-8834819D01*
X10639047Y-8834819D02*
X10734285Y-8834819D01*
X9353333Y-8834819D02*
X9924761Y-8834819D01*
X9639047Y-8834819D02*
X9639047Y-7834819D01*
X9639047Y-7834819D02*
X9734285Y-7977676D01*
X9734285Y-7977676D02*
X9829523Y-8072914D01*
X9829523Y-8072914D02*
X9924761Y-8120533D01*
X3836666Y-8914819D02*
X4169999Y-8438628D01*
X4408094Y-8914819D02*
X4408094Y-7914819D01*
X4408094Y-7914819D02*
X4027142Y-7914819D01*
X4027142Y-7914819D02*
X3931904Y-7962438D01*
X3931904Y-7962438D02*
X3884285Y-8010057D01*
X3884285Y-8010057D02*
X3836666Y-8105295D01*
X3836666Y-8105295D02*
X3836666Y-8248152D01*
X3836666Y-8248152D02*
X3884285Y-8343390D01*
X3884285Y-8343390D02*
X3931904Y-8391009D01*
X3931904Y-8391009D02*
X4027142Y-8438628D01*
X4027142Y-8438628D02*
X4408094Y-8438628D01*
X2884285Y-8914819D02*
X3455713Y-8914819D01*
X3169999Y-8914819D02*
X3169999Y-7914819D01*
X3169999Y-7914819D02*
X3265237Y-8057676D01*
X3265237Y-8057676D02*
X3360475Y-8152914D01*
X3360475Y-8152914D02*
X3455713Y-8200533D01*
X11561904Y-12654819D02*
X11561904Y-13464342D01*
X11561904Y-13464342D02*
X11514285Y-13559580D01*
X11514285Y-13559580D02*
X11466666Y-13607200D01*
X11466666Y-13607200D02*
X11371428Y-13654819D01*
X11371428Y-13654819D02*
X11180952Y-13654819D01*
X11180952Y-13654819D02*
X11085714Y-13607200D01*
X11085714Y-13607200D02*
X11038095Y-13559580D01*
X11038095Y-13559580D02*
X10990476Y-13464342D01*
X10990476Y-13464342D02*
X10990476Y-12654819D01*
X9990476Y-13654819D02*
X10561904Y-13654819D01*
X10276190Y-13654819D02*
X10276190Y-12654819D01*
X10276190Y-12654819D02*
X10371428Y-12797676D01*
X10371428Y-12797676D02*
X10466666Y-12892914D01*
X10466666Y-12892914D02*
X10561904Y-12940533D01*
X21643333Y-11514819D02*
X21643333Y-12229104D01*
X21643333Y-12229104D02*
X21690952Y-12371961D01*
X21690952Y-12371961D02*
X21786190Y-12467200D01*
X21786190Y-12467200D02*
X21929047Y-12514819D01*
X21929047Y-12514819D02*
X22024285Y-12514819D01*
X21214761Y-11610057D02*
X21167142Y-11562438D01*
X21167142Y-11562438D02*
X21071904Y-11514819D01*
X21071904Y-11514819D02*
X20833809Y-11514819D01*
X20833809Y-11514819D02*
X20738571Y-11562438D01*
X20738571Y-11562438D02*
X20690952Y-11610057D01*
X20690952Y-11610057D02*
X20643333Y-11705295D01*
X20643333Y-11705295D02*
X20643333Y-11800533D01*
X20643333Y-11800533D02*
X20690952Y-11943390D01*
X20690952Y-11943390D02*
X21262380Y-12514819D01*
X21262380Y-12514819D02*
X20643333Y-12514819D01*
X20133333Y-6111009D02*
X20466666Y-6111009D01*
X20466666Y-6634819D02*
X20466666Y-5634819D01*
X20466666Y-5634819D02*
X19990476Y-5634819D01*
X19085714Y-6634819D02*
X19657142Y-6634819D01*
X19371428Y-6634819D02*
X19371428Y-5634819D01*
X19371428Y-5634819D02*
X19466666Y-5777676D01*
X19466666Y-5777676D02*
X19561904Y-5872914D01*
X19561904Y-5872914D02*
X19657142Y-5920533D01*
X3111904Y895180D02*
X3111904Y1895180D01*
X3111904Y1418990D02*
X2540476Y1418990D01*
X2540476Y895180D02*
X2540476Y1895180D01*
X2111904Y1799942D02*
X2064285Y1847561D01*
X2064285Y1847561D02*
X1969047Y1895180D01*
X1969047Y1895180D02*
X1730952Y1895180D01*
X1730952Y1895180D02*
X1635714Y1847561D01*
X1635714Y1847561D02*
X1588095Y1799942D01*
X1588095Y1799942D02*
X1540476Y1704704D01*
X1540476Y1704704D02*
X1540476Y1609466D01*
X1540476Y1609466D02*
X1588095Y1466609D01*
X1588095Y1466609D02*
X2159523Y895180D01*
X2159523Y895180D02*
X1540476Y895180D01*
X22411942Y695228D02*
X22411942Y1695228D01*
X22411942Y1219038D02*
X21840514Y1219038D01*
X21840514Y695228D02*
X21840514Y1695228D01*
X20840514Y695228D02*
X21411942Y695228D01*
X21126228Y695228D02*
X21126228Y1695228D01*
X21126228Y1695228D02*
X21221466Y1552371D01*
X21221466Y1552371D02*
X21316704Y1457133D01*
X21316704Y1457133D02*
X21411942Y1409514D01*
D11*
%TO.C,R2*%
X6546267Y-9390000D02*
X6253733Y-9390000D01*
X6546267Y-10410000D02*
X6253733Y-10410000D01*
D12*
%TO.C,J1*%
X7530000Y-4355000D02*
X7530000Y-2845000D01*
X16470000Y-4355000D02*
X16470000Y-2845000D01*
D13*
X8900000Y-7950000D02*
G75*
G02*
X8700000Y-7950000I-100000J0D01*
G01*
X8700000Y-7950000D02*
G75*
G02*
X8900000Y-7950000I100000J0D01*
G01*
D11*
%TO.C,R1*%
X6546267Y-7890000D02*
X6253733Y-7890000D01*
X6546267Y-8910000D02*
X6253733Y-8910000D01*
%TO.C,U1*%
X8700000Y-12360000D02*
X8700000Y-11750000D01*
X10000000Y-9240000D02*
X10800000Y-9240000D01*
X11600000Y-9240000D02*
X10800000Y-9240000D01*
X11600000Y-12360000D02*
X8700000Y-12360000D01*
%TO.C,J2*%
X13890000Y-10840000D02*
X13890000Y-13340000D01*
X14940000Y-10840000D02*
X13890000Y-10840000D01*
X15060000Y-15310000D02*
X18940000Y-15310000D01*
X19060000Y-9850000D02*
X19060000Y-10840000D01*
X19060000Y-10840000D02*
X20110000Y-10840000D01*
X20110000Y-10840000D02*
X20110000Y-13340000D01*
%TO.C,F1*%
X19197936Y-7090000D02*
X20402064Y-7090000D01*
X19197936Y-8910000D02*
X20402064Y-8910000D01*
%TD*%
M02*
