%TF.GenerationSoftware,KiCad,Pcbnew,8.0.2*%
%TF.CreationDate,2025-12-10T20:50:01-08:00*%
%TF.ProjectId,Numpad_Daughterboard,4e756d70-6164-45f4-9461-756768746572,rev?*%
%TF.SameCoordinates,Original*%
%TF.FileFunction,Soldermask,Bot*%
%TF.FilePolarity,Negative*%
%FSLAX46Y46*%
G04 Gerber Fmt 4.6, Leading zero omitted, Abs format (unit mm)*
G04 Created by KiCad (PCBNEW 8.0.2) date 2025-12-10 20:50:01*
%MOMM*%
%LPD*%
G01*
G04 APERTURE LIST*
G04 Aperture macros list*
%AMRoundRect*
0 Rectangle with rounded corners*
0 $1 Rounding radius*
0 $2 $3 $4 $5 $6 $7 $8 $9 X,Y pos of 4 corners*
0 Add a 4 corners polygon primitive as box body*
4,1,4,$2,$3,$4,$5,$6,$7,$8,$9,$2,$3,0*
0 Add four circle primitives for the rounded corners*
1,1,$1+$1,$2,$3*
1,1,$1+$1,$4,$5*
1,1,$1+$1,$6,$7*
1,1,$1+$1,$8,$9*
0 Add four rect primitives between the rounded corners*
20,1,$1+$1,$2,$3,$4,$5,0*
20,1,$1+$1,$4,$5,$6,$7,0*
20,1,$1+$1,$6,$7,$8,$9,0*
20,1,$1+$1,$8,$9,$2,$3,0*%
G04 Aperture macros list end*
%ADD10RoundRect,0.262900X-0.325400X-0.262900X0.325400X-0.262900X0.325400X0.262900X-0.325400X0.262900X0*%
%ADD11C,2.801600*%
%ADD12C,0.801600*%
%ADD13RoundRect,0.050800X-0.300000X-0.820000X0.300000X-0.820000X0.300000X0.820000X-0.300000X0.820000X0*%
%ADD14RoundRect,0.050800X-0.150000X-0.820000X0.150000X-0.820000X0.150000X0.820000X-0.150000X0.820000X0*%
%ADD15O,1.254000X2.354000*%
%ADD16O,1.254000X2.054000*%
%ADD17RoundRect,0.175400X-0.500400X-0.175400X0.500400X-0.175400X0.500400X0.175400X-0.500400X0.175400X0*%
%ADD18RoundRect,0.175400X0.175400X0.650400X-0.175400X0.650400X-0.175400X-0.650400X0.175400X-0.650400X0*%
%ADD19RoundRect,0.271166X0.379634X0.679634X-0.379634X0.679634X-0.379634X-0.679634X0.379634X-0.679634X0*%
%ADD20RoundRect,0.270320X0.405480X0.655480X-0.405480X0.655480X-0.405480X-0.655480X0.405480X-0.655480X0*%
%ADD21C,5.101600*%
G04 APERTURE END LIST*
D10*
%TO.C,R2*%
X5537500Y-9900000D03*
X7262500Y-9900000D03*
%TD*%
D11*
%TO.C,H3*%
X2350000Y-13650000D03*
%TD*%
D12*
%TO.C,J1*%
X14890000Y-5250000D03*
X9110000Y-5250000D03*
D13*
X8800000Y-6620000D03*
X9600000Y-6620000D03*
D14*
X10750000Y-6620000D03*
X11750000Y-6620000D03*
X12250000Y-6620000D03*
X13250000Y-6620000D03*
D13*
X14400000Y-6620000D03*
X15200000Y-6620000D03*
X15200000Y-6620000D03*
X14400000Y-6620000D03*
D14*
X13750000Y-6620000D03*
X12750000Y-6620000D03*
X11250000Y-6620000D03*
X10250000Y-6620000D03*
D13*
X9600000Y-6620000D03*
X8800000Y-6620000D03*
D15*
X16320000Y-5750000D03*
D16*
X16320000Y-1600000D03*
D15*
X7680000Y-5750000D03*
D16*
X7680000Y-1600000D03*
%TD*%
D10*
%TO.C,R1*%
X5537500Y-8400000D03*
X7262500Y-8400000D03*
%TD*%
D17*
%TO.C,U1*%
X9625000Y-11750000D03*
X9625000Y-10800000D03*
X9625000Y-9850000D03*
X11975000Y-9850000D03*
X11975000Y-10800000D03*
X11975000Y-11750000D03*
%TD*%
D18*
%TO.C,J2*%
X18500000Y-10625000D03*
X17500000Y-10625000D03*
X16500000Y-10625000D03*
X15500000Y-10625000D03*
D19*
X19800000Y-14500000D03*
X14200000Y-14500000D03*
%TD*%
D20*
%TO.C,F1*%
X21200000Y-8000000D03*
X18400000Y-8000000D03*
%TD*%
D11*
%TO.C,H2*%
X2350000Y-2350000D03*
%TD*%
D21*
%TO.C,H1*%
X21650038Y-2349952D03*
%TD*%
M02*
