%TF.GenerationSoftware,KiCad,Pcbnew,8.0.2*%
%TF.CreationDate,2025-12-13T11:39:42-08:00*%
%TF.ProjectId,mx-unsaver-frow,6d782d75-6e73-4617-9665-722d66726f77,rev?*%
%TF.SameCoordinates,Original*%
%TF.FileFunction,Soldermask,Bot*%
%TF.FilePolarity,Negative*%
%FSLAX46Y46*%
G04 Gerber Fmt 4.6, Leading zero omitted, Abs format (unit mm)*
G04 Created by KiCad (PCBNEW 8.0.2) date 2025-12-13 11:39:42*
%MOMM*%
%LPD*%
G01*
G04 APERTURE LIST*
G04 Aperture macros list*
%AMRoundRect*
0 Rectangle with rounded corners*
0 $1 Rounding radius*
0 $2 $3 $4 $5 $6 $7 $8 $9 X,Y pos of 4 corners*
0 Add a 4 corners polygon primitive as box body*
4,1,4,$2,$3,$4,$5,$6,$7,$8,$9,$2,$3,0*
0 Add four circle primitives for the rounded corners*
1,1,$1+$1,$2,$3*
1,1,$1+$1,$4,$5*
1,1,$1+$1,$6,$7*
1,1,$1+$1,$8,$9*
0 Add four rect primitives between the rounded corners*
20,1,$1+$1,$2,$3,$4,$5,0*
20,1,$1+$1,$4,$5,$6,$7,0*
20,1,$1+$1,$6,$7,$8,$9,0*
20,1,$1+$1,$8,$9,$2,$3,0*%
G04 Aperture macros list end*
%ADD10C,1.701800*%
%ADD11C,3.987800*%
%ADD12C,2.300000*%
%ADD13C,2.700000*%
%ADD14RoundRect,0.225000X0.375000X-0.225000X0.375000X0.225000X-0.375000X0.225000X-0.375000X-0.225000X0*%
%ADD15RoundRect,0.250000X0.450000X-0.262500X0.450000X0.262500X-0.450000X0.262500X-0.450000X-0.262500X0*%
%ADD16RoundRect,0.285750X0.666750X0.666750X-0.666750X0.666750X-0.666750X-0.666750X0.666750X-0.666750X0*%
%ADD17C,1.905000*%
%ADD18R,0.300000X1.400000*%
%ADD19R,1.350000X0.950000*%
G04 APERTURE END LIST*
D10*
%TO.C,MX84*%
X166370000Y0D03*
D11*
X171450000Y0D03*
D10*
X176530000Y0D03*
D12*
X167640000Y2540000D03*
X173990000Y5080000D03*
%TD*%
D10*
%TO.C,MX24*%
X13970000Y0D03*
D11*
X19050000Y0D03*
D10*
X24130000Y0D03*
D12*
X15240000Y2540000D03*
X21590000Y5080000D03*
%TD*%
D10*
%TO.C,MX85*%
X166370000Y-19050000D03*
D11*
X171450000Y-19050000D03*
D10*
X176530000Y-19050000D03*
D12*
X167640000Y-16510000D03*
X173990000Y-13970000D03*
%TD*%
D10*
%TO.C,MX92*%
X128270000Y-19050000D03*
D11*
X133350000Y-19050000D03*
D10*
X138430000Y-19050000D03*
D12*
X129540000Y-16510000D03*
X135890000Y-13970000D03*
%TD*%
D10*
%TO.C,MX46*%
X52070000Y-19050000D03*
D11*
X57150000Y-19050000D03*
D10*
X62230000Y-19050000D03*
D12*
X53340000Y-16510000D03*
X59690000Y-13970000D03*
%TD*%
D10*
%TO.C,MX86*%
X147320000Y-19050000D03*
D11*
X152400000Y-19050000D03*
D10*
X157480000Y-19050000D03*
D12*
X148590000Y-16510000D03*
X154940000Y-13970000D03*
%TD*%
D10*
%TO.C,MX107*%
X185420000Y0D03*
D11*
X190500000Y0D03*
D10*
X195580000Y0D03*
D12*
X186690000Y2540000D03*
X193040000Y5080000D03*
%TD*%
D10*
%TO.C,MX63*%
X90170000Y0D03*
D11*
X95250000Y0D03*
D10*
X100330000Y0D03*
D12*
X91440000Y2540000D03*
X97790000Y5080000D03*
%TD*%
D10*
%TO.C,MX26*%
X-5080000Y-19050000D03*
D11*
X0Y-19050000D03*
D10*
X5080000Y-19050000D03*
D12*
X-3810000Y-16510000D03*
X2540000Y-13970000D03*
%TD*%
D10*
%TO.C,MX66*%
X90170000Y-19050000D03*
D11*
X95250000Y-19050000D03*
D10*
X100330000Y-19050000D03*
D12*
X91440000Y-16510000D03*
X97790000Y-13970000D03*
%TD*%
D10*
%TO.C,MX44*%
X71120000Y0D03*
D11*
X76200000Y0D03*
D10*
X81280000Y0D03*
D12*
X72390000Y2540000D03*
X78740000Y5080000D03*
%TD*%
D10*
%TO.C,MX109*%
X204470000Y-19050000D03*
D11*
X209550000Y-19050000D03*
D10*
X214630000Y-19050000D03*
D12*
X205740000Y-16510000D03*
X212090000Y-13970000D03*
%TD*%
D10*
%TO.C,MX64*%
X109220000Y0D03*
D11*
X114300000Y0D03*
D10*
X119380000Y0D03*
D12*
X110490000Y2540000D03*
X116840000Y5080000D03*
%TD*%
D10*
%TO.C,MX25*%
X33020000Y0D03*
D11*
X38100000Y0D03*
D10*
X43180000Y0D03*
D12*
X34290000Y2540000D03*
X40640000Y5080000D03*
%TD*%
D10*
%TO.C,MX23*%
X-5080000Y0D03*
D11*
X0Y0D03*
D10*
X5080000Y0D03*
D12*
X-3810000Y2540000D03*
X2540000Y5080000D03*
%TD*%
D10*
%TO.C,MX47*%
X33020000Y-19050000D03*
D11*
X38100000Y-19050000D03*
D10*
X43180000Y-19050000D03*
D12*
X34290000Y-16510000D03*
X40640000Y-13970000D03*
%TD*%
D10*
%TO.C,MX67*%
X109220000Y-19050000D03*
D11*
X114300000Y-19050000D03*
D10*
X119380000Y-19050000D03*
D12*
X110490000Y-16510000D03*
X116840000Y-13970000D03*
%TD*%
D10*
%TO.C,MX83*%
X147320000Y0D03*
D11*
X152400000Y0D03*
D10*
X157480000Y0D03*
D12*
X148590000Y2540000D03*
X154940000Y5080000D03*
%TD*%
D10*
%TO.C,MX43*%
X52070000Y0D03*
D11*
X57150000Y0D03*
D10*
X62230000Y0D03*
D12*
X53340000Y2540000D03*
X59690000Y5080000D03*
%TD*%
D10*
%TO.C,MX108*%
X204470000Y0D03*
D11*
X209550000Y0D03*
D10*
X214630000Y0D03*
D12*
X205740000Y2540000D03*
X212090000Y5080000D03*
%TD*%
D10*
%TO.C,MX110*%
X185420000Y-19050000D03*
D11*
X190500000Y-19050000D03*
D10*
X195580000Y-19050000D03*
D12*
X186690000Y-16510000D03*
X193040000Y-13970000D03*
%TD*%
D10*
%TO.C,MX65*%
X128270000Y0D03*
D11*
X133350000Y0D03*
D10*
X138430000Y0D03*
D12*
X129540000Y2540000D03*
X135890000Y5080000D03*
%TD*%
D10*
%TO.C,MX27*%
X13970000Y-19050000D03*
D11*
X19050000Y-19050000D03*
D10*
X24130000Y-19050000D03*
D12*
X15240000Y-16510000D03*
X21590000Y-13970000D03*
%TD*%
D10*
%TO.C,MX45*%
X71120000Y-19050000D03*
D11*
X76200000Y-19050000D03*
D10*
X81280000Y-19050000D03*
D12*
X72390000Y-16510000D03*
X78740000Y-13970000D03*
%TD*%
D13*
%TO.C,H2*%
X104774966Y12175040D03*
%TD*%
D14*
%TO.C,D103*%
X212725000Y-1443750D03*
X212725000Y1856250D03*
%TD*%
%TO.C,D104*%
X212725000Y-20493750D03*
X212725000Y-17193750D03*
%TD*%
%TO.C,D46*%
X41275000Y-20493750D03*
X41275000Y-17193750D03*
%TD*%
D13*
%TO.C,H3*%
X9525000Y-31225000D03*
%TD*%
D14*
%TO.C,D44*%
X79375000Y-20493750D03*
X79375000Y-17193750D03*
%TD*%
%TO.C,D24*%
X41275000Y-1443750D03*
X41275000Y1856250D03*
%TD*%
D15*
%TO.C,R1*%
X206430000Y-22092500D03*
X206430000Y-20267500D03*
%TD*%
D14*
%TO.C,D43*%
X79375000Y-1443750D03*
X79375000Y1856250D03*
%TD*%
%TO.C,D85*%
X155575000Y-20493750D03*
X155575000Y-17193750D03*
%TD*%
D13*
%TO.C,H6*%
X200025000Y-31225000D03*
%TD*%
%TO.C,H1*%
X9525000Y12175000D03*
%TD*%
D14*
%TO.C,D26*%
X22225000Y-20493750D03*
X22225000Y-17193750D03*
%TD*%
%TO.C,D82*%
X155575000Y-1443750D03*
X155575000Y1856250D03*
%TD*%
%TO.C,D66*%
X117475000Y-20493750D03*
X117475000Y-17193750D03*
%TD*%
%TO.C,D83*%
X174625000Y-1443750D03*
X174625000Y1856250D03*
%TD*%
%TO.C,D23*%
X22225000Y-1443750D03*
X22225000Y1856250D03*
%TD*%
D16*
%TO.C,D1*%
X208280000Y-24130000D03*
D17*
X210820000Y-24130000D03*
%TD*%
D14*
%TO.C,D45*%
X60325000Y-20493750D03*
X60325000Y-17193750D03*
%TD*%
%TO.C,D25*%
X3175000Y-20493750D03*
X3175000Y-17193750D03*
%TD*%
%TO.C,D105*%
X193675000Y-20493750D03*
X193675000Y-17193750D03*
%TD*%
%TO.C,D42*%
X60325000Y-1443750D03*
X60325000Y1856250D03*
%TD*%
%TO.C,D22*%
X3175000Y-1443750D03*
X3175000Y1856250D03*
%TD*%
D13*
%TO.C,H4*%
X200025000Y12175000D03*
%TD*%
D14*
%TO.C,D84*%
X174625000Y-20493750D03*
X174625000Y-17193750D03*
%TD*%
%TO.C,D63*%
X117475000Y-1443750D03*
X117475000Y1856250D03*
%TD*%
%TO.C,D62*%
X98425000Y-1443750D03*
X98425000Y1856250D03*
%TD*%
%TO.C,D64*%
X136525000Y-1443750D03*
X136525000Y1856250D03*
%TD*%
%TO.C,D65*%
X87900000Y-20493750D03*
X87900000Y-17193750D03*
%TD*%
%TO.C,D91*%
X136525000Y-20493750D03*
X136525000Y-17193750D03*
%TD*%
%TO.C,D102*%
X193675000Y-1443750D03*
X193675000Y1856250D03*
%TD*%
D13*
%TO.C,H5*%
X104775000Y-31225000D03*
%TD*%
D18*
%TO.C,J2*%
X109024900Y-5766785D03*
X108524800Y-5766785D03*
X108024900Y-5766785D03*
X107524800Y-5766785D03*
X107024900Y-5766785D03*
X106524800Y-5766785D03*
X106024900Y-5766785D03*
X105524800Y-5766785D03*
X105024900Y-5766785D03*
X104524800Y-5766785D03*
X104024900Y-5766785D03*
X103524800Y-5766785D03*
X103024700Y-5766785D03*
X102524800Y-5766785D03*
X102024700Y-5766785D03*
X101524800Y-5766785D03*
X101024700Y-5766785D03*
X100524800Y-5766785D03*
X100024700Y-5766785D03*
X99524800Y-5766785D03*
D19*
X110450000Y-8741985D03*
X98100000Y-8741985D03*
%TD*%
M02*
