%TF.GenerationSoftware,KiCad,Pcbnew,8.0.2*%
%TF.CreationDate,2025-12-13T11:39:42-08:00*%
%TF.ProjectId,mx-unsaver-frow,6d782d75-6e73-4617-9665-722d66726f77,rev?*%
%TF.SameCoordinates,Original*%
%TF.FileFunction,Paste,Bot*%
%TF.FilePolarity,Positive*%
%FSLAX46Y46*%
G04 Gerber Fmt 4.6, Leading zero omitted, Abs format (unit mm)*
G04 Created by KiCad (PCBNEW 8.0.2) date 2025-12-13 11:39:42*
%MOMM*%
%LPD*%
G01*
G04 APERTURE LIST*
G04 Aperture macros list*
%AMRoundRect*
0 Rectangle with rounded corners*
0 $1 Rounding radius*
0 $2 $3 $4 $5 $6 $7 $8 $9 X,Y pos of 4 corners*
0 Add a 4 corners polygon primitive as box body*
4,1,4,$2,$3,$4,$5,$6,$7,$8,$9,$2,$3,0*
0 Add four circle primitives for the rounded corners*
1,1,$1+$1,$2,$3*
1,1,$1+$1,$4,$5*
1,1,$1+$1,$6,$7*
1,1,$1+$1,$8,$9*
0 Add four rect primitives between the rounded corners*
20,1,$1+$1,$2,$3,$4,$5,0*
20,1,$1+$1,$4,$5,$6,$7,0*
20,1,$1+$1,$6,$7,$8,$9,0*
20,1,$1+$1,$8,$9,$2,$3,0*%
G04 Aperture macros list end*
%ADD10RoundRect,0.225000X0.375000X-0.225000X0.375000X0.225000X-0.375000X0.225000X-0.375000X-0.225000X0*%
%ADD11RoundRect,0.250000X0.450000X-0.262500X0.450000X0.262500X-0.450000X0.262500X-0.450000X-0.262500X0*%
%ADD12R,0.300000X1.400000*%
%ADD13R,1.350000X0.950000*%
G04 APERTURE END LIST*
D10*
%TO.C,D103*%
X212725000Y-1443750D03*
X212725000Y1856250D03*
%TD*%
%TO.C,D104*%
X212725000Y-20493750D03*
X212725000Y-17193750D03*
%TD*%
%TO.C,D46*%
X41275000Y-20493750D03*
X41275000Y-17193750D03*
%TD*%
%TO.C,D44*%
X79375000Y-20493750D03*
X79375000Y-17193750D03*
%TD*%
%TO.C,D24*%
X41275000Y-1443750D03*
X41275000Y1856250D03*
%TD*%
D11*
%TO.C,R1*%
X206430000Y-22092500D03*
X206430000Y-20267500D03*
%TD*%
D10*
%TO.C,D43*%
X79375000Y-1443750D03*
X79375000Y1856250D03*
%TD*%
%TO.C,D85*%
X155575000Y-20493750D03*
X155575000Y-17193750D03*
%TD*%
%TO.C,D26*%
X22225000Y-20493750D03*
X22225000Y-17193750D03*
%TD*%
%TO.C,D82*%
X155575000Y-1443750D03*
X155575000Y1856250D03*
%TD*%
%TO.C,D66*%
X117475000Y-20493750D03*
X117475000Y-17193750D03*
%TD*%
%TO.C,D83*%
X174625000Y-1443750D03*
X174625000Y1856250D03*
%TD*%
%TO.C,D23*%
X22225000Y-1443750D03*
X22225000Y1856250D03*
%TD*%
%TO.C,D45*%
X60325000Y-20493750D03*
X60325000Y-17193750D03*
%TD*%
%TO.C,D25*%
X3175000Y-20493750D03*
X3175000Y-17193750D03*
%TD*%
%TO.C,D105*%
X193675000Y-20493750D03*
X193675000Y-17193750D03*
%TD*%
%TO.C,D42*%
X60325000Y-1443750D03*
X60325000Y1856250D03*
%TD*%
%TO.C,D22*%
X3175000Y-1443750D03*
X3175000Y1856250D03*
%TD*%
%TO.C,D84*%
X174625000Y-20493750D03*
X174625000Y-17193750D03*
%TD*%
%TO.C,D63*%
X117475000Y-1443750D03*
X117475000Y1856250D03*
%TD*%
%TO.C,D62*%
X98425000Y-1443750D03*
X98425000Y1856250D03*
%TD*%
%TO.C,D64*%
X136525000Y-1443750D03*
X136525000Y1856250D03*
%TD*%
%TO.C,D65*%
X87900000Y-20493750D03*
X87900000Y-17193750D03*
%TD*%
%TO.C,D91*%
X136525000Y-20493750D03*
X136525000Y-17193750D03*
%TD*%
%TO.C,D102*%
X193675000Y-1443750D03*
X193675000Y1856250D03*
%TD*%
D12*
%TO.C,J2*%
X109024900Y-5766785D03*
X108524800Y-5766785D03*
X108024900Y-5766785D03*
X107524800Y-5766785D03*
X107024900Y-5766785D03*
X106524800Y-5766785D03*
X106024900Y-5766785D03*
X105524800Y-5766785D03*
X105024900Y-5766785D03*
X104524800Y-5766785D03*
X104024900Y-5766785D03*
X103524800Y-5766785D03*
X103024700Y-5766785D03*
X102524800Y-5766785D03*
X102024700Y-5766785D03*
X101524800Y-5766785D03*
X101024700Y-5766785D03*
X100524800Y-5766785D03*
X100024700Y-5766785D03*
X99524800Y-5766785D03*
D13*
X110450000Y-8741985D03*
X98100000Y-8741985D03*
%TD*%
M02*
