M48
; DRILL file {KiCad 8.0.2} date 2025-12-13T11:39:44-0800
; FORMAT={-:-/ absolute / inch / decimal}
; #@! TF.CreationDate,2025-12-13T11:39:44-08:00
; #@! TF.GenerationSoftware,Kicad,Pcbnew,8.0.2
; #@! TF.FileFunction,NonPlated,1,2,NPTH
FMAT,2
INCH
; #@! TA.AperFunction,NonPlated,NPTH,ComponentDrill
T1C0.0689
; #@! TA.AperFunction,NonPlated,NPTH,ComponentDrill
T2C0.1063
; #@! TA.AperFunction,NonPlated,NPTH,ComponentDrill
T3C0.1570
%
G90
G05
T1
X-0.2Y0.0
X-0.2Y-0.75
X0.2Y0.0
X0.2Y-0.75
X0.55Y0.0
X0.55Y-0.75
X0.95Y0.0
X0.95Y-0.75
X1.3Y0.0
X1.3Y-0.75
X1.7Y0.0
X1.7Y-0.75
X2.05Y0.0
X2.05Y-0.75
X2.45Y0.0
X2.45Y-0.75
X2.8Y0.0
X2.8Y-0.75
X3.2Y0.0
X3.2Y-0.75
X3.55Y0.0
X3.55Y-0.75
X3.95Y0.0
X3.95Y-0.75
X4.3Y0.0
X4.3Y-0.75
X4.7Y0.0
X4.7Y-0.75
X5.05Y0.0
X5.05Y-0.75
X5.45Y0.0
X5.45Y-0.75
X5.8Y0.0
X5.8Y-0.75
X6.2Y0.0
X6.2Y-0.75
X6.55Y0.0
X6.55Y-0.75
X6.95Y0.0
X6.95Y-0.75
X7.3Y0.0
X7.3Y-0.75
X7.7Y0.0
X7.7Y-0.75
X8.05Y0.0
X8.05Y-0.75
X8.45Y0.0
X8.45Y-0.75
T2
X0.375Y0.4793
X0.375Y-1.2293
X4.125Y0.4793
X4.125Y-1.2293
X7.875Y0.4793
X7.875Y-1.2293
T3
X0.0Y0.0
X0.0Y-0.75
X0.75Y0.0
X0.75Y-0.75
X1.5Y0.0
X1.5Y-0.75
X2.25Y0.0
X2.25Y-0.75
X3.0Y0.0
X3.0Y-0.75
X3.75Y0.0
X3.75Y-0.75
X4.5Y0.0
X4.5Y-0.75
X5.25Y0.0
X5.25Y-0.75
X6.0Y0.0
X6.0Y-0.75
X6.75Y0.0
X6.75Y-0.75
X7.5Y0.0
X7.5Y-0.75
X8.25Y0.0
X8.25Y-0.75
M30
