M48
; DRILL file {KiCad 8.0.2} date 2025-12-13T11:39:44-0800
; FORMAT={-:-/ absolute / inch / decimal}
; #@! TF.CreationDate,2025-12-13T11:39:44-08:00
; #@! TF.GenerationSoftware,Kicad,Pcbnew,8.0.2
; #@! TF.FileFunction,Plated,1,2,PTH
FMAT,2
INCH
; #@! TA.AperFunction,Plated,PTH,ViaDrill
T1C0.0118
; #@! TA.AperFunction,Plated,PTH,ComponentDrill
T2C0.0409
; #@! TA.AperFunction,Plated,PTH,ComponentDrill
T3C0.0600
%
G90
G05
T1
X0.9291Y-0.0687
X0.9291Y-0.1198
X0.9291Y-0.8187
X0.9291Y-0.8698
X1.6772Y-0.0687
X1.6772Y-0.8187
X1.6772Y-0.8698
X1.6811Y-0.1395
X2.622Y-0.6795
X2.622Y-0.8895
X2.7283Y-0.4331
X2.8541Y-0.1732
X3.1811Y-0.0687
X3.1811Y-0.1198
X3.1811Y-0.8187
X3.1811Y-0.8895
X3.7559Y-0.1732
X3.7598Y-0.4331
X3.8031Y-0.3425
X3.8898Y-0.2244
X3.9606Y-0.1457
X4.0Y-0.1395
X4.0039Y-0.0883
X4.0472Y-0.1417
X4.0787Y-0.1732
X4.1024Y-0.2736
X4.185Y-0.8895
X4.187Y-0.6795
X4.2126Y-0.1772
X4.2382Y-0.6795
X4.2402Y-0.8698
X4.374Y-0.2283
X4.4134Y-0.3425
X4.6811Y-0.0687
X4.6811Y-0.1198
X4.685Y-0.8187
X4.685Y-0.8698
X5.4252Y-0.8187
X5.4252Y-0.8698
X5.4291Y-0.0687
X5.4291Y-0.1594
X5.6142Y-0.1594
X5.6142Y-0.3248
X5.6142Y-0.7126
X5.6142Y-0.8698
X6.5746Y-0.4173
X6.6041Y-0.1395
X6.6337Y-0.4173
X6.9331Y-0.8187
X6.9331Y-0.8698
X6.937Y-0.0687
X6.937Y-0.122
X8.0591Y-0.8622
X8.1041Y-0.2795
X8.2047Y-0.8622
T2
X8.2Y-0.95
X8.3Y-0.95
T3
X-0.15Y0.1
X-0.15Y-0.65
X0.1Y0.2
X0.1Y-0.55
X0.6Y0.1
X0.6Y-0.65
X0.85Y0.2
X0.85Y-0.55
X1.35Y0.1
X1.35Y-0.65
X1.6Y0.2
X1.6Y-0.55
X2.1Y0.1
X2.1Y-0.65
X2.35Y0.2
X2.35Y-0.55
X2.85Y0.1
X2.85Y-0.65
X3.1Y0.2
X3.1Y-0.55
X3.6Y0.1
X3.6Y-0.65
X3.85Y0.2
X3.85Y-0.55
X4.35Y0.1
X4.35Y-0.65
X4.6Y0.2
X4.6Y-0.55
X5.1Y0.1
X5.1Y-0.65
X5.35Y0.2
X5.35Y-0.55
X5.85Y0.1
X5.85Y-0.65
X6.1Y0.2
X6.1Y-0.55
X6.6Y0.1
X6.6Y-0.65
X6.85Y0.2
X6.85Y-0.55
X7.35Y0.1
X7.35Y-0.65
X7.6Y0.2
X7.6Y-0.55
X8.1Y0.1
X8.1Y-0.65
X8.35Y0.2
X8.35Y-0.55
M30
