%TF.GenerationSoftware,KiCad,Pcbnew,8.0.2*%
%TF.CreationDate,2025-12-10T20:43:24-08:00*%
%TF.ProjectId,USBHubV3,55534248-7562-4563-932e-6b696361645f,rev?*%
%TF.SameCoordinates,Original*%
%TF.FileFunction,Soldermask,Top*%
%TF.FilePolarity,Negative*%
%FSLAX46Y46*%
G04 Gerber Fmt 4.6, Leading zero omitted, Abs format (unit mm)*
G04 Created by KiCad (PCBNEW 8.0.2) date 2025-12-10 20:43:24*
%MOMM*%
%LPD*%
G01*
G04 APERTURE LIST*
G04 Aperture macros list*
%AMRoundRect*
0 Rectangle with rounded corners*
0 $1 Rounding radius*
0 $2 $3 $4 $5 $6 $7 $8 $9 X,Y pos of 4 corners*
0 Add a 4 corners polygon primitive as box body*
4,1,4,$2,$3,$4,$5,$6,$7,$8,$9,$2,$3,0*
0 Add four circle primitives for the rounded corners*
1,1,$1+$1,$2,$3*
1,1,$1+$1,$4,$5*
1,1,$1+$1,$6,$7*
1,1,$1+$1,$8,$9*
0 Add four rect primitives between the rounded corners*
20,1,$1+$1,$2,$3,$4,$5,0*
20,1,$1+$1,$4,$5,$6,$7,0*
20,1,$1+$1,$6,$7,$8,$9,0*
20,1,$1+$1,$8,$9,$2,$3,0*%
G04 Aperture macros list end*
%ADD10RoundRect,0.225400X-0.300400X0.225400X-0.300400X-0.225400X0.300400X-0.225400X0.300400X0.225400X0*%
%ADD11RoundRect,0.250400X-0.275400X0.250400X-0.275400X-0.250400X0.275400X-0.250400X0.275400X0.250400X0*%
%ADD12RoundRect,0.050800X0.700000X0.600000X-0.700000X0.600000X-0.700000X-0.600000X0.700000X-0.600000X0*%
%ADD13RoundRect,0.225400X0.225400X0.300400X-0.225400X0.300400X-0.225400X-0.300400X0.225400X-0.300400X0*%
%ADD14RoundRect,0.225400X0.300400X-0.225400X0.300400X0.225400X-0.300400X0.225400X-0.300400X-0.225400X0*%
%ADD15RoundRect,0.050800X-0.600000X-0.200000X0.600000X-0.200000X0.600000X0.200000X-0.600000X0.200000X0*%
%ADD16RoundRect,0.250400X-0.250400X-0.275400X0.250400X-0.275400X0.250400X0.275400X-0.250400X0.275400X0*%
%ADD17RoundRect,0.175400X0.500400X0.175400X-0.500400X0.175400X-0.500400X-0.175400X0.500400X-0.175400X0*%
%ADD18C,2.801600*%
%ADD19C,4.801600*%
%ADD20RoundRect,0.272087X-0.353713X-0.678713X0.353713X-0.678713X0.353713X0.678713X-0.353713X0.678713X0*%
%ADD21RoundRect,0.175400X0.650400X-0.175400X0.650400X0.175400X-0.650400X0.175400X-0.650400X-0.175400X0*%
%ADD22RoundRect,0.271166X0.679634X-0.379634X0.679634X0.379634X-0.679634X0.379634X-0.679634X-0.379634X0*%
%ADD23RoundRect,0.250400X0.275400X-0.250400X0.275400X0.250400X-0.275400X0.250400X-0.275400X-0.250400X0*%
%ADD24RoundRect,0.225400X-0.225400X-0.300400X0.225400X-0.300400X0.225400X0.300400X-0.225400X0.300400X0*%
%ADD25RoundRect,0.244150X0.244150X0.281650X-0.244150X0.281650X-0.244150X-0.281650X0.244150X-0.281650X0*%
%ADD26RoundRect,0.244150X-0.244150X-0.281650X0.244150X-0.281650X0.244150X0.281650X-0.244150X0.281650X0*%
%ADD27RoundRect,0.102000X-0.714000X-0.714000X0.714000X-0.714000X0.714000X0.714000X-0.714000X0.714000X0*%
%ADD28C,1.632000*%
%ADD29O,2.204000X3.520000*%
G04 APERTURE END LIST*
D10*
%TO.C,R9*%
X32900000Y-6675000D03*
X32900000Y-8325000D03*
%TD*%
D11*
%TO.C,C1*%
X26500000Y-6025000D03*
X26500000Y-7575000D03*
%TD*%
D12*
%TO.C,Y1*%
X30800000Y-6650000D03*
X28600000Y-6650000D03*
X28600000Y-8350000D03*
X30800000Y-8350000D03*
%TD*%
D13*
%TO.C,R4*%
X37425000Y-12600000D03*
X35775000Y-12600000D03*
%TD*%
%TO.C,R7*%
X25625000Y-15800000D03*
X23975000Y-15800000D03*
%TD*%
D14*
%TO.C,R1*%
X2400000Y-18895000D03*
X2400000Y-17245000D03*
%TD*%
D15*
%TO.C,U1*%
X27900000Y-11872500D03*
X27900000Y-12507500D03*
X27900000Y-13142500D03*
X27900000Y-13777500D03*
X27900000Y-14412500D03*
X27900000Y-15047500D03*
X27900000Y-15682500D03*
X27900000Y-16317500D03*
X27900000Y-16952500D03*
X27900000Y-17587500D03*
X27900000Y-18222500D03*
X27900000Y-18857500D03*
X27900000Y-19492500D03*
X27900000Y-20127500D03*
X33100000Y-20127500D03*
X33100000Y-19492500D03*
X33100000Y-18857500D03*
X33100000Y-18222500D03*
X33100000Y-17587500D03*
X33100000Y-16952500D03*
X33100000Y-16317500D03*
X33100000Y-15682500D03*
X33100000Y-15047500D03*
X33100000Y-14412500D03*
X33100000Y-13777500D03*
X33100000Y-13142500D03*
X33100000Y-12507500D03*
X33100000Y-11872500D03*
%TD*%
D16*
%TO.C,C4*%
X46825000Y-14400000D03*
X48375000Y-14400000D03*
%TD*%
D11*
%TO.C,C11*%
X37600000Y-17625000D03*
X37600000Y-19175000D03*
%TD*%
D17*
%TO.C,U5*%
X13925000Y-15450000D03*
X13925000Y-14500000D03*
X13925000Y-13550000D03*
X11575000Y-13550000D03*
X11575000Y-14500000D03*
X11575000Y-15450000D03*
%TD*%
D16*
%TO.C,C6*%
X46825000Y-16000000D03*
X48375000Y-16000000D03*
%TD*%
D18*
%TO.C,H2*%
X22800000Y-9600000D03*
%TD*%
D19*
%TO.C,H1*%
X61500000Y-5000000D03*
%TD*%
D20*
%TO.C,C8*%
X45325000Y-12400000D03*
X48275000Y-12400000D03*
%TD*%
D18*
%TO.C,H3*%
X2800000Y-5000000D03*
%TD*%
D14*
%TO.C,R2*%
X4070000Y-18895000D03*
X4070000Y-17245000D03*
%TD*%
D16*
%TO.C,C3*%
X8025000Y-14400000D03*
X9575000Y-14400000D03*
%TD*%
D21*
%TO.C,J3*%
X57500000Y-18500000D03*
X57500000Y-17500000D03*
X57500000Y-16500000D03*
X57500000Y-15500000D03*
D22*
X61375000Y-19800000D03*
X61375000Y-14200000D03*
%TD*%
D23*
%TO.C,C10*%
X35800000Y-15775000D03*
X35800000Y-14225000D03*
%TD*%
%TO.C,C12*%
X37600000Y-15775000D03*
X37600000Y-14225000D03*
%TD*%
D16*
%TO.C,C5*%
X8025000Y-16000000D03*
X9575000Y-16000000D03*
%TD*%
D13*
%TO.C,R8*%
X18825000Y-15800000D03*
X17175000Y-15800000D03*
%TD*%
D20*
%TO.C,C7*%
X6525000Y-12400000D03*
X9475000Y-12400000D03*
%TD*%
D13*
%TO.C,R3*%
X41825000Y-19200000D03*
X40175000Y-19200000D03*
%TD*%
D24*
%TO.C,R5*%
X23175000Y-20000000D03*
X24825000Y-20000000D03*
%TD*%
D25*
%TO.C,D1*%
X22187500Y-15800000D03*
X20612500Y-15800000D03*
%TD*%
D26*
%TO.C,D4*%
X20612500Y-14000000D03*
X22187500Y-14000000D03*
%TD*%
D11*
%TO.C,C9*%
X35800000Y-17625000D03*
X35800000Y-19175000D03*
%TD*%
D13*
%TO.C,R10*%
X25625000Y-14000000D03*
X23975000Y-14000000D03*
%TD*%
D16*
%TO.C,C2*%
X28700000Y-4800000D03*
X30250000Y-4800000D03*
%TD*%
D26*
%TO.C,D3*%
X17212500Y-14000000D03*
X18787500Y-14000000D03*
%TD*%
D17*
%TO.C,U6*%
X52725000Y-15450000D03*
X52725000Y-14500000D03*
X52725000Y-13550000D03*
X50375000Y-13550000D03*
X50375000Y-14500000D03*
X50375000Y-15450000D03*
%TD*%
D27*
%TO.C,J1*%
X9250000Y-10190000D03*
D28*
X11750000Y-9790000D03*
X13750000Y-9790000D03*
X16250000Y-10190000D03*
D29*
X6180000Y-7280000D03*
X19320000Y-7280000D03*
%TD*%
D27*
%TO.C,J2*%
X48050000Y-10190000D03*
D28*
X50550000Y-9790000D03*
X52550000Y-9790000D03*
X55050000Y-10190000D03*
D29*
X44980000Y-7280000D03*
X58120000Y-7280000D03*
%TD*%
M02*
