%TF.GenerationSoftware,KiCad,Pcbnew,8.0.2*%
%TF.CreationDate,2025-12-10T20:43:24-08:00*%
%TF.ProjectId,USBHubV3,55534248-7562-4563-932e-6b696361645f,rev?*%
%TF.SameCoordinates,Original*%
%TF.FileFunction,Copper,L1,Top*%
%TF.FilePolarity,Positive*%
%FSLAX46Y46*%
G04 Gerber Fmt 4.6, Leading zero omitted, Abs format (unit mm)*
G04 Created by KiCad (PCBNEW 8.0.2) date 2025-12-10 20:43:24*
%MOMM*%
%LPD*%
G01*
G04 APERTURE LIST*
G04 Aperture macros list*
%AMRoundRect*
0 Rectangle with rounded corners*
0 $1 Rounding radius*
0 $2 $3 $4 $5 $6 $7 $8 $9 X,Y pos of 4 corners*
0 Add a 4 corners polygon primitive as box body*
4,1,4,$2,$3,$4,$5,$6,$7,$8,$9,$2,$3,0*
0 Add four circle primitives for the rounded corners*
1,1,$1+$1,$2,$3*
1,1,$1+$1,$4,$5*
1,1,$1+$1,$6,$7*
1,1,$1+$1,$8,$9*
0 Add four rect primitives between the rounded corners*
20,1,$1+$1,$2,$3,$4,$5,0*
20,1,$1+$1,$4,$5,$6,$7,0*
20,1,$1+$1,$6,$7,$8,$9,0*
20,1,$1+$1,$8,$9,$2,$3,0*%
G04 Aperture macros list end*
%TA.AperFunction,SMDPad,CuDef*%
%ADD10RoundRect,0.200000X-0.275000X0.200000X-0.275000X-0.200000X0.275000X-0.200000X0.275000X0.200000X0*%
%TD*%
%TA.AperFunction,SMDPad,CuDef*%
%ADD11RoundRect,0.225000X-0.250000X0.225000X-0.250000X-0.225000X0.250000X-0.225000X0.250000X0.225000X0*%
%TD*%
%TA.AperFunction,SMDPad,CuDef*%
%ADD12R,1.400000X1.200000*%
%TD*%
%TA.AperFunction,SMDPad,CuDef*%
%ADD13RoundRect,0.200000X0.200000X0.275000X-0.200000X0.275000X-0.200000X-0.275000X0.200000X-0.275000X0*%
%TD*%
%TA.AperFunction,SMDPad,CuDef*%
%ADD14RoundRect,0.200000X0.275000X-0.200000X0.275000X0.200000X-0.275000X0.200000X-0.275000X-0.200000X0*%
%TD*%
%TA.AperFunction,SMDPad,CuDef*%
%ADD15R,1.200000X0.400000*%
%TD*%
%TA.AperFunction,SMDPad,CuDef*%
%ADD16RoundRect,0.225000X-0.225000X-0.250000X0.225000X-0.250000X0.225000X0.250000X-0.225000X0.250000X0*%
%TD*%
%TA.AperFunction,SMDPad,CuDef*%
%ADD17RoundRect,0.150000X0.475000X0.150000X-0.475000X0.150000X-0.475000X-0.150000X0.475000X-0.150000X0*%
%TD*%
%TA.AperFunction,ComponentPad*%
%ADD18C,4.700000*%
%TD*%
%TA.AperFunction,SMDPad,CuDef*%
%ADD19RoundRect,0.250000X-0.325000X-0.650000X0.325000X-0.650000X0.325000X0.650000X-0.325000X0.650000X0*%
%TD*%
%TA.AperFunction,SMDPad,CuDef*%
%ADD20RoundRect,0.150000X0.625000X-0.150000X0.625000X0.150000X-0.625000X0.150000X-0.625000X-0.150000X0*%
%TD*%
%TA.AperFunction,SMDPad,CuDef*%
%ADD21RoundRect,0.250000X0.650000X-0.350000X0.650000X0.350000X-0.650000X0.350000X-0.650000X-0.350000X0*%
%TD*%
%TA.AperFunction,SMDPad,CuDef*%
%ADD22RoundRect,0.225000X0.250000X-0.225000X0.250000X0.225000X-0.250000X0.225000X-0.250000X-0.225000X0*%
%TD*%
%TA.AperFunction,SMDPad,CuDef*%
%ADD23RoundRect,0.200000X-0.200000X-0.275000X0.200000X-0.275000X0.200000X0.275000X-0.200000X0.275000X0*%
%TD*%
%TA.AperFunction,SMDPad,CuDef*%
%ADD24RoundRect,0.218750X0.218750X0.256250X-0.218750X0.256250X-0.218750X-0.256250X0.218750X-0.256250X0*%
%TD*%
%TA.AperFunction,SMDPad,CuDef*%
%ADD25RoundRect,0.218750X-0.218750X-0.256250X0.218750X-0.256250X0.218750X0.256250X-0.218750X0.256250X0*%
%TD*%
%TA.AperFunction,ComponentPad*%
%ADD26R,1.428000X1.428000*%
%TD*%
%TA.AperFunction,ComponentPad*%
%ADD27C,1.428000*%
%TD*%
%TA.AperFunction,ComponentPad*%
%ADD28O,2.000000X3.316000*%
%TD*%
%TA.AperFunction,ViaPad*%
%ADD29C,0.600000*%
%TD*%
%TA.AperFunction,Conductor*%
%ADD30C,0.200000*%
%TD*%
%TA.AperFunction,Conductor*%
%ADD31C,0.500000*%
%TD*%
%TA.AperFunction,Conductor*%
%ADD32C,0.300000*%
%TD*%
G04 APERTURE END LIST*
D10*
%TO.P,R9,1*%
%TO.N,Net-(C2-Pad2)*%
X32900000Y-6675000D03*
%TO.P,R9,2*%
%TO.N,XOUT*%
X32900000Y-8325000D03*
%TD*%
D11*
%TO.P,C1,1*%
%TO.N,GND*%
X26500000Y-6025000D03*
%TO.P,C1,2*%
%TO.N,XIN*%
X26500000Y-7575000D03*
%TD*%
D12*
%TO.P,Y1,1,1*%
%TO.N,Net-(C2-Pad2)*%
X30800000Y-6650000D03*
%TO.P,Y1,2,2*%
%TO.N,GND*%
X28600000Y-6650000D03*
%TO.P,Y1,3,3*%
%TO.N,XIN*%
X28600000Y-8350000D03*
%TO.P,Y1,4,4*%
%TO.N,GND*%
X30800000Y-8350000D03*
%TD*%
D13*
%TO.P,R4,1*%
%TO.N,+5V*%
X37425000Y-12600000D03*
%TO.P,R4,2*%
%TO.N,Net-(U1-~{OVCJ})*%
X35775000Y-12600000D03*
%TD*%
%TO.P,R7,1*%
%TO.N,LED1*%
X25625000Y-15800000D03*
%TO.P,R7,2*%
%TO.N,Net-(D1-K)*%
X23975000Y-15800000D03*
%TD*%
D14*
%TO.P,R1,1*%
%TO.N,Net-(U1-VBUSM)*%
X2400000Y-18895000D03*
%TO.P,R1,2*%
%TO.N,+5V*%
X2400000Y-17245000D03*
%TD*%
D15*
%TO.P,U1,1,VSS*%
%TO.N,GND*%
X27900000Y-11872500D03*
%TO.P,U1,2,XOUT*%
%TO.N,XOUT*%
X27900000Y-12507500D03*
%TO.P,U1,3,XIN*%
%TO.N,XIN*%
X27900000Y-13142500D03*
%TO.P,U1,4,DM4*%
%TO.N,D4-*%
X27900000Y-13777500D03*
%TO.P,U1,5,DP4*%
%TO.N,D4+*%
X27900000Y-14412500D03*
%TO.P,U1,6,DM3*%
%TO.N,unconnected-(U1-DM3-Pad6)*%
X27900000Y-15047500D03*
%TO.P,U1,7,DP3*%
%TO.N,unconnected-(U1-DP3-Pad7)*%
X27900000Y-15682500D03*
%TO.P,U1,8,DM2*%
%TO.N,unconnected-(U1-DM2-Pad8)*%
X27900000Y-16317500D03*
%TO.P,U1,9,DP2*%
%TO.N,unconnected-(U1-DP2-Pad9)*%
X27900000Y-16952500D03*
%TO.P,U1,10,DM1*%
%TO.N,D1-*%
X27900000Y-17587500D03*
%TO.P,U1,11,DP1*%
%TO.N,D1+*%
X27900000Y-18222500D03*
%TO.P,U1,12,NC*%
%TO.N,unconnected-(U1-NC-Pad12)*%
X27900000Y-18857500D03*
%TO.P,U1,13,NC*%
%TO.N,unconnected-(U1-NC-Pad13)*%
X27900000Y-19492500D03*
%TO.P,U1,14,REXT*%
%TO.N,Net-(U1-REXT)*%
X27900000Y-20127500D03*
%TO.P,U1,15,DMU*%
%TO.N,D0-*%
X33100000Y-20127500D03*
%TO.P,U1,16,DPU*%
%TO.N,D0+*%
X33100000Y-19492500D03*
%TO.P,U1,17,~{XRSTJ}*%
%TO.N,Net-(U1-~{XRSTJ})*%
X33100000Y-18857500D03*
%TO.P,U1,18,VBUSM*%
%TO.N,Net-(U1-VBUSM)*%
X33100000Y-18222500D03*
%TO.P,U1,19,BUSJ*%
%TO.N,Net-(U1-BUSJ)*%
X33100000Y-17587500D03*
%TO.P,U1,20,VDD5*%
%TO.N,+5V*%
X33100000Y-16952500D03*
%TO.P,U1,21,VDD3F*%
%TO.N,+3.3V*%
X33100000Y-16317500D03*
%TO.P,U1,22,DRV*%
%TO.N,DRV*%
X33100000Y-15682500D03*
%TO.P,U1,23,LED1*%
%TO.N,LED1*%
X33100000Y-15047500D03*
%TO.P,U1,24,LED2*%
%TO.N,LED2*%
X33100000Y-14412500D03*
%TO.P,U1,25,~{PWRJ}*%
%TO.N,unconnected-(U1-~{PWRJ}-Pad25)*%
X33100000Y-13777500D03*
%TO.P,U1,26,~{OVCJ}*%
%TO.N,Net-(U1-~{OVCJ})*%
X33100000Y-13142500D03*
%TO.P,U1,27,~{TESTJ}*%
%TO.N,unconnected-(U1-~{TESTJ}-Pad27)*%
X33100000Y-12507500D03*
%TO.P,U1,28,NC*%
%TO.N,unconnected-(U1-NC-Pad28)*%
X33100000Y-11872500D03*
%TD*%
D16*
%TO.P,C4,1*%
%TO.N,GND*%
X46825000Y-14400000D03*
%TO.P,C4,2*%
%TO.N,+5V*%
X48375000Y-14400000D03*
%TD*%
D11*
%TO.P,C11,1*%
%TO.N,+5V*%
X37600000Y-17625000D03*
%TO.P,C11,2*%
%TO.N,GND*%
X37600000Y-19175000D03*
%TD*%
D17*
%TO.P,U5,1,IO1*%
%TO.N,D1+*%
X13925000Y-15450000D03*
%TO.P,U5,2,VN*%
%TO.N,GND*%
X13925000Y-14500000D03*
%TO.P,U5,3,IO2*%
%TO.N,unconnected-(U5-IO2-Pad3)*%
X13925000Y-13550000D03*
%TO.P,U5,4,IO3*%
%TO.N,unconnected-(U5-IO3-Pad4)*%
X11575000Y-13550000D03*
%TO.P,U5,5,VP*%
%TO.N,+5V*%
X11575000Y-14500000D03*
%TO.P,U5,6,IO4*%
%TO.N,D1-*%
X11575000Y-15450000D03*
%TD*%
D16*
%TO.P,C6,1*%
%TO.N,GND*%
X46825000Y-16000000D03*
%TO.P,C6,2*%
%TO.N,+5V*%
X48375000Y-16000000D03*
%TD*%
D18*
%TO.P,H1,1,1*%
%TO.N,GND*%
X61500000Y-5000000D03*
%TD*%
D19*
%TO.P,C8,1*%
%TO.N,GND*%
X45325000Y-12400000D03*
%TO.P,C8,2*%
%TO.N,+5V*%
X48275000Y-12400000D03*
%TD*%
D14*
%TO.P,R2,1*%
%TO.N,Net-(U1-BUSJ)*%
X4070000Y-18895000D03*
%TO.P,R2,2*%
%TO.N,+5V*%
X4070000Y-17245000D03*
%TD*%
D16*
%TO.P,C3,1*%
%TO.N,GND*%
X8025000Y-14400000D03*
%TO.P,C3,2*%
%TO.N,+5V*%
X9575000Y-14400000D03*
%TD*%
D20*
%TO.P,J3,1,Pin_1*%
%TO.N,+5V*%
X57500000Y-18500000D03*
%TO.P,J3,2,Pin_2*%
%TO.N,D0-*%
X57500000Y-17500000D03*
%TO.P,J3,3,Pin_3*%
%TO.N,D0+*%
X57500000Y-16500000D03*
%TO.P,J3,4,Pin_4*%
%TO.N,GND*%
X57500000Y-15500000D03*
D21*
%TO.P,J3,MP,MountPin*%
X61375000Y-19800000D03*
X61375000Y-14200000D03*
%TD*%
D22*
%TO.P,C10,1*%
%TO.N,+3.3V*%
X35800000Y-15775000D03*
%TO.P,C10,2*%
%TO.N,GND*%
X35800000Y-14225000D03*
%TD*%
%TO.P,C12,1*%
%TO.N,+3.3V*%
X37600000Y-15775000D03*
%TO.P,C12,2*%
%TO.N,GND*%
X37600000Y-14225000D03*
%TD*%
D16*
%TO.P,C5,1*%
%TO.N,GND*%
X8025000Y-16000000D03*
%TO.P,C5,2*%
%TO.N,+5V*%
X9575000Y-16000000D03*
%TD*%
D13*
%TO.P,R8,1*%
%TO.N,GND*%
X18825000Y-15800000D03*
%TO.P,R8,2*%
%TO.N,Net-(D3-K)*%
X17175000Y-15800000D03*
%TD*%
D19*
%TO.P,C7,1*%
%TO.N,GND*%
X6525000Y-12400000D03*
%TO.P,C7,2*%
%TO.N,+5V*%
X9475000Y-12400000D03*
%TD*%
D13*
%TO.P,R3,1*%
%TO.N,+3.3V*%
X41825000Y-19200000D03*
%TO.P,R3,2*%
%TO.N,Net-(U1-~{XRSTJ})*%
X40175000Y-19200000D03*
%TD*%
D23*
%TO.P,R5,1*%
%TO.N,GND*%
X23175000Y-20000000D03*
%TO.P,R5,2*%
%TO.N,Net-(U1-REXT)*%
X24825000Y-20000000D03*
%TD*%
D24*
%TO.P,D1,1,K*%
%TO.N,Net-(D1-K)*%
X22187500Y-15800000D03*
%TO.P,D1,2,A*%
%TO.N,DRV*%
X20612500Y-15800000D03*
%TD*%
D25*
%TO.P,D4,1,K*%
%TO.N,DRV*%
X20612500Y-14000000D03*
%TO.P,D4,2,A*%
%TO.N,Net-(D4-A)*%
X22187500Y-14000000D03*
%TD*%
D11*
%TO.P,C9,1*%
%TO.N,+5V*%
X35800000Y-17625000D03*
%TO.P,C9,2*%
%TO.N,GND*%
X35800000Y-19175000D03*
%TD*%
D13*
%TO.P,R10,1*%
%TO.N,LED2*%
X25625000Y-14000000D03*
%TO.P,R10,2*%
%TO.N,Net-(D4-A)*%
X23975000Y-14000000D03*
%TD*%
D16*
%TO.P,C2,1*%
%TO.N,GND*%
X28700000Y-4800000D03*
%TO.P,C2,2*%
%TO.N,Net-(C2-Pad2)*%
X30250000Y-4800000D03*
%TD*%
D25*
%TO.P,D3,1,K*%
%TO.N,Net-(D3-K)*%
X17212500Y-14000000D03*
%TO.P,D3,2,A*%
%TO.N,DRV*%
X18787500Y-14000000D03*
%TD*%
D17*
%TO.P,U6,1,IO1*%
%TO.N,D4+*%
X52725000Y-15450000D03*
%TO.P,U6,2,VN*%
%TO.N,GND*%
X52725000Y-14500000D03*
%TO.P,U6,3,IO2*%
%TO.N,unconnected-(U6-IO2-Pad3)*%
X52725000Y-13550000D03*
%TO.P,U6,4,IO3*%
%TO.N,unconnected-(U6-IO3-Pad4)*%
X50375000Y-13550000D03*
%TO.P,U6,5,VP*%
%TO.N,+5V*%
X50375000Y-14500000D03*
%TO.P,U6,6,IO4*%
%TO.N,D4-*%
X50375000Y-15450000D03*
%TD*%
D26*
%TO.P,J1,1,VUSB*%
%TO.N,+5V*%
X9250000Y-10190000D03*
D27*
%TO.P,J1,2,D-*%
%TO.N,D1-*%
X11750000Y-9790000D03*
%TO.P,J1,3,D+*%
%TO.N,D1+*%
X13750000Y-9790000D03*
%TO.P,J1,4,GND*%
%TO.N,GND*%
X16250000Y-10190000D03*
D28*
%TO.P,J1,5,SHIELD*%
X6180000Y-7280000D03*
%TO.P,J1,6,SHIELD__1*%
X19320000Y-7280000D03*
%TD*%
D26*
%TO.P,J2,1,VUSB*%
%TO.N,+5V*%
X48050000Y-10190000D03*
D27*
%TO.P,J2,2,D-*%
%TO.N,D4-*%
X50550000Y-9790000D03*
%TO.P,J2,3,D+*%
%TO.N,D4+*%
X52550000Y-9790000D03*
%TO.P,J2,4,GND*%
%TO.N,GND*%
X55050000Y-10190000D03*
D28*
%TO.P,J2,5,SHIELD*%
X44980000Y-7280000D03*
%TO.P,J2,6,SHIELD__1*%
X58120000Y-7280000D03*
%TD*%
D29*
%TO.N,GND*%
X28975735Y-11175735D03*
X38600000Y-14200000D03*
X29200000Y-17400000D03*
X45800000Y-14400000D03*
X59800000Y-19800000D03*
X58800000Y-15400000D03*
X34800000Y-18800000D03*
X5400000Y-12400000D03*
X15200000Y-14400000D03*
X60000000Y-14200000D03*
X38800000Y-19200000D03*
X44200000Y-12800000D03*
X45800000Y-16000000D03*
X7000000Y-16000000D03*
X27500000Y-4800000D03*
X18800000Y-16800000D03*
X34600000Y-14200000D03*
X53800000Y-14600000D03*
X7000000Y-14400000D03*
%TO.N,+5V*%
X49200000Y-19200000D03*
X21000000Y-19200000D03*
X49400000Y-16200000D03*
X34759648Y-16985312D03*
%TO.N,+3.3V*%
X38600000Y-15800000D03*
X42800000Y-19200000D03*
%TO.N,DRV*%
X31800000Y-15800000D03*
X21400000Y-15000000D03*
%TO.N,D1+*%
X26818015Y-18218015D03*
X25769485Y-17400000D03*
%TO.N,Net-(U1-BUSJ)*%
X20600000Y-20550000D03*
X32000000Y-17800000D03*
%TO.N,LED1*%
X26400000Y-15800000D03*
X31800000Y-15000000D03*
%TO.N,LED2*%
X26600000Y-14800000D03*
X31847139Y-14201391D03*
%TO.N,Net-(U1-VBUSM)*%
X31678861Y-18878860D03*
X19802761Y-20800000D03*
%TD*%
D30*
%TO.N,XIN*%
X27900000Y-13142500D02*
X27135000Y-13142500D01*
X27100000Y-13142500D02*
X27000000Y-13042500D01*
X26500000Y-7575000D02*
X27825000Y-7575000D01*
X27825000Y-7575000D02*
X28600000Y-8350000D01*
X27000000Y-9950000D02*
X28600000Y-8350000D01*
X27000000Y-13007500D02*
X27000000Y-9950000D01*
X27135000Y-13142500D02*
X27000000Y-13007500D01*
X27900000Y-13142500D02*
X27100000Y-13142500D01*
D31*
%TO.N,GND*%
X38775000Y-19175000D02*
X38800000Y-19200000D01*
X37600000Y-14225000D02*
X38575000Y-14225000D01*
X6525000Y-12400000D02*
X5400000Y-12400000D01*
D32*
X29000000Y-6650000D02*
X28600000Y-6650000D01*
D31*
X61375000Y-14200000D02*
X60000000Y-14200000D01*
D32*
X30800000Y-8350000D02*
X30800000Y-9400000D01*
D31*
X37600000Y-14225000D02*
X35800000Y-14225000D01*
X45325000Y-12800000D02*
X44200000Y-12800000D01*
X8025000Y-16000000D02*
X7000000Y-16000000D01*
X35175000Y-19175000D02*
X34800000Y-18800000D01*
X37600000Y-19175000D02*
X38775000Y-19175000D01*
D32*
X27900000Y-11872500D02*
X28278970Y-11872500D01*
D31*
X35800000Y-14225000D02*
X34625000Y-14225000D01*
X28600000Y-4700000D02*
X28700000Y-4600000D01*
X13925000Y-14500000D02*
X15100000Y-14500000D01*
X61375000Y-19800000D02*
X59800000Y-19800000D01*
X35800000Y-14225000D02*
X35571361Y-14225000D01*
X46825000Y-16000000D02*
X45800000Y-16000000D01*
X38575000Y-14225000D02*
X38600000Y-14200000D01*
X26500000Y-5800000D02*
X27500000Y-4800000D01*
X57500000Y-15500000D02*
X58700000Y-15500000D01*
D32*
X30800000Y-8350000D02*
X30700000Y-8350000D01*
D31*
X18825000Y-16775000D02*
X18800000Y-16800000D01*
D32*
X30800000Y-8350000D02*
X30800000Y-9351470D01*
D31*
X37600000Y-19175000D02*
X35175000Y-19175000D01*
X58700000Y-15500000D02*
X58800000Y-15400000D01*
X15100000Y-14500000D02*
X15200000Y-14400000D01*
X34625000Y-14225000D02*
X34600000Y-14200000D01*
D32*
X28278970Y-11872500D02*
X28975735Y-11175735D01*
D31*
X26500000Y-6025000D02*
X26500000Y-5800000D01*
X28700000Y-4800000D02*
X27500000Y-4800000D01*
X8025000Y-14400000D02*
X7000000Y-14400000D01*
D32*
X30700000Y-8350000D02*
X29000000Y-6650000D01*
D31*
X53700000Y-14500000D02*
X53800000Y-14600000D01*
X18825000Y-15800000D02*
X18825000Y-16775000D01*
D32*
X28327500Y-11872500D02*
X27900000Y-11872500D01*
D31*
X28600000Y-6650000D02*
X28600000Y-4700000D01*
X52725000Y-14500000D02*
X53700000Y-14500000D01*
X46825000Y-14400000D02*
X45800000Y-14400000D01*
D32*
X30800000Y-9400000D02*
X28327500Y-11872500D01*
D31*
X37600000Y-14225000D02*
X37825000Y-14225000D01*
D30*
%TO.N,Net-(C2-Pad2)*%
X30250000Y-5950000D02*
X30250000Y-4600000D01*
X30800000Y-6650000D02*
X30800000Y-6500000D01*
X32900000Y-6675000D02*
X30825000Y-6675000D01*
X30825000Y-6675000D02*
X30800000Y-6650000D01*
X30800000Y-6500000D02*
X30250000Y-5950000D01*
D31*
%TO.N,+5V*%
X9675000Y-14500000D02*
X9575000Y-14400000D01*
X50375000Y-14500000D02*
X48475000Y-14500000D01*
X9575000Y-17600000D02*
X8975000Y-18200000D01*
X34752500Y-16978164D02*
X34759648Y-16985312D01*
X57500000Y-18500000D02*
X58900000Y-18500000D01*
X51400000Y-19200000D02*
X49200000Y-19200000D01*
X56200000Y-14400000D02*
X51400000Y-19200000D01*
X58860661Y-14400000D02*
X56200000Y-14400000D01*
X11575000Y-14500000D02*
X9675000Y-14500000D01*
X9575000Y-16000000D02*
X9575000Y-17600000D01*
X4070000Y-17245000D02*
X2270000Y-17245000D01*
X39000000Y-17625000D02*
X37600000Y-17625000D01*
X44000000Y-18400000D02*
X38200000Y-12600000D01*
X48475000Y-14500000D02*
X48375000Y-14400000D01*
X48275000Y-12800000D02*
X48275000Y-10215000D01*
X39000000Y-17625000D02*
X35800000Y-17625000D01*
X44800000Y-19200000D02*
X44000000Y-18400000D01*
X9250000Y-9990000D02*
X9250000Y-12625000D01*
X5445000Y-17245000D02*
X4070000Y-17245000D01*
X34752500Y-16952500D02*
X34150000Y-16952500D01*
X48375000Y-16000000D02*
X49200000Y-16000000D01*
X48375000Y-14400000D02*
X48375000Y-12500000D01*
X59600000Y-17800000D02*
X59600000Y-15139339D01*
X9575000Y-14400000D02*
X9575000Y-12500000D01*
X59600000Y-15139339D02*
X58860661Y-14400000D01*
X9575000Y-17600000D02*
X11175000Y-19200000D01*
X48375000Y-14400000D02*
X48375000Y-16000000D01*
X49200000Y-16000000D02*
X49400000Y-16200000D01*
X49200000Y-19200000D02*
X44800000Y-19200000D01*
X21000000Y-19200000D02*
X11175000Y-19200000D01*
X8975000Y-18200000D02*
X6400000Y-18200000D01*
X43225000Y-17625000D02*
X39000000Y-17625000D01*
X48375000Y-12500000D02*
X48275000Y-12400000D01*
X9575000Y-12500000D02*
X9475000Y-12400000D01*
X48275000Y-10215000D02*
X48050000Y-9990000D01*
X44000000Y-18400000D02*
X43225000Y-17625000D01*
X9575000Y-14400000D02*
X9575000Y-16000000D01*
X37975000Y-12600000D02*
X37425000Y-12600000D01*
X35425000Y-17625000D02*
X34752500Y-16952500D01*
X6400000Y-18200000D02*
X5445000Y-17245000D01*
X58900000Y-18500000D02*
X59600000Y-17800000D01*
X38200000Y-12600000D02*
X37975000Y-12600000D01*
D32*
X33100000Y-16952500D02*
X34150000Y-16952500D01*
X37600000Y-17625000D02*
X37825000Y-17625000D01*
D31*
X35800000Y-17625000D02*
X35425000Y-17625000D01*
X34752500Y-16952500D02*
X34752500Y-16978164D01*
%TO.N,+3.3V*%
X35800000Y-15775000D02*
X35077500Y-15775000D01*
D30*
X37625000Y-15800000D02*
X37600000Y-15775000D01*
D32*
X33100000Y-16317500D02*
X34135000Y-16317500D01*
D31*
X35077500Y-15775000D02*
X34600000Y-16252500D01*
D30*
X41825000Y-19200000D02*
X42800000Y-19200000D01*
D31*
X35800000Y-15775000D02*
X37600000Y-15775000D01*
D32*
X34135000Y-16317500D02*
X34200000Y-16252500D01*
D31*
X34600000Y-16252500D02*
X34135000Y-16252500D01*
D30*
X38600000Y-15800000D02*
X37625000Y-15800000D01*
D31*
%TO.N,DRV*%
X20612500Y-14000000D02*
X20612500Y-15000000D01*
X20612500Y-15000000D02*
X20612500Y-15800000D01*
D30*
X31917500Y-15682500D02*
X31800000Y-15800000D01*
X33100000Y-15682500D02*
X31917500Y-15682500D01*
D31*
X18787500Y-14000000D02*
X20612500Y-14000000D01*
X20612500Y-15000000D02*
X21400000Y-15000000D01*
%TO.N,Net-(D1-K)*%
X22187500Y-15800000D02*
X23975000Y-15800000D01*
%TO.N,Net-(D3-K)*%
X17175000Y-14037500D02*
X17212500Y-14000000D01*
X17175000Y-15800000D02*
X17175000Y-14037500D01*
D30*
%TO.N,D1-*%
X26600000Y-17587500D02*
X27900000Y-17587500D01*
X12500000Y-16100000D02*
X14400000Y-18000000D01*
X12500000Y-15149999D02*
X12500000Y-10540000D01*
X11575000Y-15450000D02*
X12199999Y-15450000D01*
X12199999Y-15450000D02*
X12500000Y-15149999D01*
X26187500Y-18000000D02*
X26600000Y-17587500D01*
X12500000Y-15149999D02*
X12500000Y-16100000D01*
X14400000Y-18000000D02*
X26187500Y-18000000D01*
X12500000Y-10540000D02*
X11750000Y-9790000D01*
%TO.N,D1+*%
X12900000Y-15100000D02*
X13250000Y-15450000D01*
X14082843Y-17117157D02*
X14565686Y-17600000D01*
X12900000Y-15100000D02*
X12900000Y-10640000D01*
X12900000Y-10640000D02*
X13750000Y-9790000D01*
X27895515Y-18218015D02*
X27900000Y-18222500D01*
X12900000Y-15100000D02*
X12900000Y-15934314D01*
X19000000Y-17600000D02*
X25569485Y-17600000D01*
X25569485Y-17600000D02*
X25769485Y-17400000D01*
X26818015Y-18218015D02*
X27895515Y-18218015D01*
X14565686Y-17600000D02*
X19000000Y-17600000D01*
X13250000Y-15450000D02*
X13925000Y-15450000D01*
X12900000Y-15934314D02*
X14082843Y-17117157D01*
%TO.N,D4-*%
X51300000Y-10540000D02*
X50550000Y-9790000D01*
X38237279Y-10071593D02*
X45765686Y-17600000D01*
X51300000Y-14400000D02*
X51300000Y-14200000D01*
X27900000Y-13777500D02*
X28600000Y-13777500D01*
X51300000Y-16900000D02*
X51300000Y-14200000D01*
X28600000Y-13777500D02*
X32305907Y-10071593D01*
X51300000Y-14200000D02*
X51300000Y-10540000D01*
X51300000Y-14840552D02*
X51300000Y-14400000D01*
X50600000Y-17600000D02*
X51300000Y-16900000D01*
X32305907Y-10071593D02*
X38237279Y-10071593D01*
X50690552Y-15450000D02*
X51300000Y-14840552D01*
X50375000Y-15450000D02*
X50690552Y-15450000D01*
X45765686Y-17600000D02*
X50600000Y-17600000D01*
%TO.N,D4+*%
X51700000Y-10640000D02*
X52550000Y-9790000D01*
X45600000Y-18000000D02*
X50765686Y-18000000D01*
X38071593Y-10471593D02*
X45600000Y-18000000D01*
X52725000Y-15450000D02*
X52100001Y-15450000D01*
X27900000Y-14412500D02*
X28530686Y-14412500D01*
X52100001Y-15450000D02*
X51700000Y-15049999D01*
X51700000Y-15049999D02*
X51700000Y-10640000D01*
X51700000Y-17065686D02*
X51700000Y-15049999D01*
X28530686Y-14412500D02*
X32471593Y-10471593D01*
X32471593Y-10471593D02*
X38071593Y-10471593D01*
X50765686Y-18000000D02*
X51700000Y-17065686D01*
%TO.N,D0+*%
X33100000Y-19492500D02*
X34058186Y-19492500D01*
X57400000Y-16600000D02*
X57500000Y-16500000D01*
X55000000Y-17834314D02*
X56234314Y-16600000D01*
X34058186Y-19492500D02*
X34965686Y-20400000D01*
X56234314Y-16600000D02*
X57400000Y-16600000D01*
X34965686Y-20400000D02*
X53400000Y-20400000D01*
X55000000Y-18800000D02*
X55000000Y-17834314D01*
X53400000Y-20400000D02*
X55000000Y-18800000D01*
%TO.N,D0-*%
X34127500Y-20127500D02*
X34800000Y-20800000D01*
X55400000Y-18000000D02*
X56000000Y-17400000D01*
X56000000Y-17400000D02*
X57400000Y-17400000D01*
X57400000Y-17400000D02*
X57500000Y-17500000D01*
X34800000Y-20800000D02*
X53600000Y-20800000D01*
X53600000Y-20800000D02*
X55400000Y-19000000D01*
X55400000Y-19000000D02*
X55400000Y-18000000D01*
X33100000Y-20127500D02*
X34127500Y-20127500D01*
%TO.N,Net-(U1-BUSJ)*%
X32000000Y-17800000D02*
X32212500Y-17587500D01*
X4925000Y-19750000D02*
X4070000Y-18895000D01*
X32212500Y-17587500D02*
X33100000Y-17587500D01*
X19800000Y-19750000D02*
X4925000Y-19750000D01*
X20600000Y-20550000D02*
X19800000Y-19750000D01*
%TO.N,Net-(U1-~{XRSTJ})*%
X34008971Y-18857500D02*
X34551471Y-19400000D01*
X35131372Y-20000000D02*
X38800000Y-20000000D01*
X38800000Y-20000000D02*
X39375000Y-20000000D01*
X34551471Y-19400000D02*
X34551471Y-19420099D01*
X39375000Y-20000000D02*
X40175000Y-19200000D01*
X33100000Y-18857500D02*
X34008971Y-18857500D01*
X34551471Y-19420099D02*
X35131372Y-20000000D01*
%TO.N,Net-(U1-~{OVCJ})*%
X35232500Y-13142500D02*
X35775000Y-12600000D01*
X33100000Y-13142500D02*
X35232500Y-13142500D01*
%TO.N,Net-(U1-REXT)*%
X27900000Y-20127500D02*
X24952500Y-20127500D01*
X24952500Y-20127500D02*
X24825000Y-20000000D01*
%TO.N,LED1*%
X33052500Y-15000000D02*
X33100000Y-15047500D01*
X25625000Y-15800000D02*
X26400000Y-15800000D01*
X31800000Y-15000000D02*
X33052500Y-15000000D01*
%TO.N,XOUT*%
X28492500Y-12507500D02*
X32675000Y-8325000D01*
X27900000Y-12507500D02*
X28492500Y-12507500D01*
X32675000Y-8325000D02*
X32900000Y-8325000D01*
%TO.N,LED2*%
X32058248Y-14412500D02*
X31847139Y-14201391D01*
X33100000Y-14412500D02*
X32058248Y-14412500D01*
X26600000Y-14800000D02*
X26425000Y-14800000D01*
X26425000Y-14800000D02*
X25625000Y-14000000D01*
%TO.N,Net-(U1-VBUSM)*%
X19602761Y-20600000D02*
X19802761Y-20800000D01*
X31769669Y-18878860D02*
X31678861Y-18878860D01*
X33100000Y-18222500D02*
X32426029Y-18222500D01*
X19802761Y-20800000D02*
X19152761Y-20150000D01*
X19152761Y-20150000D02*
X3655000Y-20150000D01*
X3655000Y-20150000D02*
X2400000Y-18895000D01*
X32426029Y-18222500D02*
X31769669Y-18878860D01*
D31*
%TO.N,Net-(D4-A)*%
X22187500Y-14000000D02*
X23975000Y-14000000D01*
%TD*%
%TA.AperFunction,Conductor*%
%TO.N,GND*%
G36*
X58925293Y-15191275D02*
G01*
X58974236Y-15221388D01*
X59063181Y-15310333D01*
X59096666Y-15371656D01*
X59099500Y-15398014D01*
X59099500Y-17541324D01*
X59079815Y-17608363D01*
X59063181Y-17629005D01*
X58729005Y-17963181D01*
X58667682Y-17996666D01*
X58641324Y-17999500D01*
X58598762Y-17999500D01*
X58531723Y-17979815D01*
X58485968Y-17927011D01*
X58476024Y-17857853D01*
X58488277Y-17819205D01*
X58488787Y-17818204D01*
X58510646Y-17775304D01*
X58510646Y-17775302D01*
X58510647Y-17775301D01*
X58525499Y-17681524D01*
X58525500Y-17681519D01*
X58525499Y-17318482D01*
X58510646Y-17224696D01*
X58453050Y-17111658D01*
X58429072Y-17087680D01*
X58395588Y-17026360D01*
X58400572Y-16956668D01*
X58429072Y-16912319D01*
X58453050Y-16888342D01*
X58510646Y-16775304D01*
X58510646Y-16775302D01*
X58510647Y-16775301D01*
X58525499Y-16681524D01*
X58525500Y-16681519D01*
X58525499Y-16318482D01*
X58525097Y-16315946D01*
X58514909Y-16251614D01*
X58523865Y-16182321D01*
X58549702Y-16144536D01*
X58642681Y-16051557D01*
X58642685Y-16051552D01*
X58726281Y-15910198D01*
X58772100Y-15752486D01*
X58772295Y-15750001D01*
X58772295Y-15750000D01*
X56227705Y-15750000D01*
X56227704Y-15750001D01*
X56227899Y-15752486D01*
X56273718Y-15910198D01*
X56361288Y-16058271D01*
X56359566Y-16059288D01*
X56381257Y-16114545D01*
X56367572Y-16183062D01*
X56319017Y-16233303D01*
X56257742Y-16249500D01*
X56188170Y-16249500D01*
X56125129Y-16266391D01*
X56125128Y-16266392D01*
X56099026Y-16273386D01*
X56099025Y-16273386D01*
X56099023Y-16273387D01*
X56019105Y-16319527D01*
X56019100Y-16319531D01*
X54719531Y-17619100D01*
X54719529Y-17619103D01*
X54703481Y-17646899D01*
X54698062Y-17656287D01*
X54687434Y-17674695D01*
X54687432Y-17674698D01*
X54673386Y-17699023D01*
X54649500Y-17788170D01*
X54649500Y-18603456D01*
X54629815Y-18670495D01*
X54613181Y-18691137D01*
X53291137Y-20013181D01*
X53229814Y-20046666D01*
X53203456Y-20049500D01*
X42382059Y-20049500D01*
X42315020Y-20029815D01*
X42269265Y-19977011D01*
X42259321Y-19907853D01*
X42288346Y-19844297D01*
X42308425Y-19825730D01*
X42347150Y-19797150D01*
X42396305Y-19730546D01*
X42451949Y-19688298D01*
X42521605Y-19682839D01*
X42543517Y-19689618D01*
X42656291Y-19736330D01*
X42783280Y-19753048D01*
X42799999Y-19755250D01*
X42800000Y-19755250D01*
X42800001Y-19755250D01*
X42814977Y-19753278D01*
X42943709Y-19736330D01*
X43077625Y-19680861D01*
X43192621Y-19592621D01*
X43280861Y-19477625D01*
X43336330Y-19343709D01*
X43355250Y-19200000D01*
X43336330Y-19056291D01*
X43280861Y-18922375D01*
X43192621Y-18807379D01*
X43077625Y-18719139D01*
X43077624Y-18719138D01*
X43077622Y-18719137D01*
X42943712Y-18663671D01*
X42943710Y-18663670D01*
X42943709Y-18663670D01*
X42867829Y-18653680D01*
X42800001Y-18644750D01*
X42799999Y-18644750D01*
X42656291Y-18663670D01*
X42656287Y-18663671D01*
X42543525Y-18710378D01*
X42474055Y-18717847D01*
X42411576Y-18686571D01*
X42396303Y-18669450D01*
X42347151Y-18602851D01*
X42344961Y-18601235D01*
X42237882Y-18522207D01*
X42237880Y-18522206D01*
X42109700Y-18477353D01*
X42079270Y-18474500D01*
X42079266Y-18474500D01*
X41570734Y-18474500D01*
X41570730Y-18474500D01*
X41540300Y-18477353D01*
X41540298Y-18477353D01*
X41412119Y-18522206D01*
X41412117Y-18522207D01*
X41302850Y-18602850D01*
X41222207Y-18712117D01*
X41222206Y-18712119D01*
X41177353Y-18840298D01*
X41177353Y-18840300D01*
X41174500Y-18870730D01*
X41174500Y-19529269D01*
X41177353Y-19559699D01*
X41177353Y-19559701D01*
X41220442Y-19682839D01*
X41222207Y-19687882D01*
X41302850Y-19797150D01*
X41341575Y-19825730D01*
X41383825Y-19881378D01*
X41389284Y-19951034D01*
X41356216Y-20012583D01*
X41295122Y-20046484D01*
X41267941Y-20049500D01*
X40732059Y-20049500D01*
X40665020Y-20029815D01*
X40619265Y-19977011D01*
X40609321Y-19907853D01*
X40638346Y-19844297D01*
X40658425Y-19825730D01*
X40697150Y-19797150D01*
X40777793Y-19687882D01*
X40808370Y-19600497D01*
X40822646Y-19559701D01*
X40822646Y-19559699D01*
X40825500Y-19529269D01*
X40825500Y-18870730D01*
X40822646Y-18840300D01*
X40822646Y-18840298D01*
X40786314Y-18736470D01*
X40777793Y-18712118D01*
X40697150Y-18602850D01*
X40587882Y-18522207D01*
X40587880Y-18522206D01*
X40459700Y-18477353D01*
X40429270Y-18474500D01*
X40429266Y-18474500D01*
X39920734Y-18474500D01*
X39920730Y-18474500D01*
X39890300Y-18477353D01*
X39890298Y-18477353D01*
X39762119Y-18522206D01*
X39762117Y-18522207D01*
X39652850Y-18602850D01*
X39572207Y-18712117D01*
X39572206Y-18712119D01*
X39527353Y-18840298D01*
X39527353Y-18840300D01*
X39524500Y-18870730D01*
X39524500Y-19303456D01*
X39504815Y-19370495D01*
X39488181Y-19391137D01*
X39266137Y-19613181D01*
X39204814Y-19646666D01*
X39178456Y-19649500D01*
X38691760Y-19649500D01*
X38624721Y-19629815D01*
X38578966Y-19577011D01*
X38568402Y-19512897D01*
X38574999Y-19448322D01*
X38575000Y-19448309D01*
X38575000Y-19425000D01*
X35674000Y-19425000D01*
X35606961Y-19405315D01*
X35561206Y-19352511D01*
X35550000Y-19301000D01*
X35550000Y-19049000D01*
X35569685Y-18981961D01*
X35622489Y-18936206D01*
X35674000Y-18925000D01*
X38574999Y-18925000D01*
X38574999Y-18901692D01*
X38574998Y-18901677D01*
X38564855Y-18802392D01*
X38511547Y-18641518D01*
X38511542Y-18641507D01*
X38422575Y-18497271D01*
X38422572Y-18497267D01*
X38302732Y-18377427D01*
X38302728Y-18377424D01*
X38266435Y-18355038D01*
X38219710Y-18303090D01*
X38208489Y-18234128D01*
X38236332Y-18170046D01*
X38294401Y-18131190D01*
X38331532Y-18125500D01*
X38934108Y-18125500D01*
X42966324Y-18125500D01*
X43033363Y-18145185D01*
X43054005Y-18161819D01*
X43599500Y-18707314D01*
X44399500Y-19507314D01*
X44492686Y-19600500D01*
X44606814Y-19666392D01*
X44734108Y-19700500D01*
X48945124Y-19700500D01*
X48992572Y-19709937D01*
X49056291Y-19736330D01*
X49152097Y-19748943D01*
X49199999Y-19755250D01*
X49200000Y-19755250D01*
X49200001Y-19755250D01*
X49239877Y-19750000D01*
X49343709Y-19736330D01*
X49407427Y-19709937D01*
X49454876Y-19700500D01*
X51465890Y-19700500D01*
X51465892Y-19700500D01*
X51593186Y-19666392D01*
X51707314Y-19600500D01*
X56054906Y-15252907D01*
X56116225Y-15219425D01*
X56185917Y-15224409D01*
X56224068Y-15250000D01*
X58772295Y-15250000D01*
X58795499Y-15224898D01*
X58855460Y-15189031D01*
X58925293Y-15191275D01*
G37*
%TD.AperFunction*%
%TA.AperFunction,Conductor*%
G36*
X34473418Y-17465708D02*
G01*
X34474514Y-17463063D01*
X34561918Y-17499266D01*
X34587265Y-17509765D01*
X34589547Y-17510710D01*
X34629776Y-17537590D01*
X35083100Y-17990914D01*
X35111600Y-18035261D01*
X35128369Y-18080221D01*
X35128374Y-18080230D01*
X35189438Y-18161802D01*
X35213855Y-18227266D01*
X35199003Y-18295539D01*
X35155270Y-18341649D01*
X35097270Y-18377424D01*
X34977427Y-18497267D01*
X34977424Y-18497271D01*
X34888457Y-18641507D01*
X34888452Y-18641518D01*
X34835144Y-18802392D01*
X34825922Y-18892653D01*
X34799525Y-18957344D01*
X34742344Y-18997495D01*
X34672533Y-19000357D01*
X34614883Y-18967730D01*
X34224184Y-18577031D01*
X34224179Y-18577027D01*
X34144261Y-18530887D01*
X34144260Y-18530886D01*
X34144259Y-18530886D01*
X34055115Y-18507000D01*
X34055114Y-18507000D01*
X34047265Y-18504897D01*
X34047830Y-18502785D01*
X33994410Y-18479148D01*
X33955944Y-18420820D01*
X33950500Y-18384482D01*
X33950500Y-17997823D01*
X33936848Y-17929192D01*
X33936848Y-17880808D01*
X33950500Y-17812176D01*
X33950500Y-17576804D01*
X33970185Y-17509765D01*
X34022989Y-17464010D01*
X34075981Y-17456087D01*
X34075981Y-17453000D01*
X34084108Y-17453000D01*
X34425981Y-17453000D01*
X34473418Y-17465708D01*
G37*
%TD.AperFunction*%
%TA.AperFunction,Conductor*%
G36*
X34855763Y-13512685D02*
G01*
X34901518Y-13565489D01*
X34911462Y-13634647D01*
X34894263Y-13682096D01*
X34888457Y-13691509D01*
X34888452Y-13691518D01*
X34835144Y-13852393D01*
X34825000Y-13951677D01*
X34825000Y-13975000D01*
X38574999Y-13975000D01*
X38577981Y-13972017D01*
X38594684Y-13915136D01*
X38647488Y-13869381D01*
X38716646Y-13859437D01*
X38780202Y-13888462D01*
X38786680Y-13894494D01*
X41805005Y-16912819D01*
X41838490Y-16974142D01*
X41833506Y-17043834D01*
X41791634Y-17099767D01*
X41726170Y-17124184D01*
X41717324Y-17124500D01*
X38299807Y-17124500D01*
X38232768Y-17104815D01*
X38200541Y-17074812D01*
X38189687Y-17060313D01*
X38189681Y-17060307D01*
X38080230Y-16978374D01*
X38080227Y-16978373D01*
X38080226Y-16978372D01*
X37952114Y-16930588D01*
X37952112Y-16930587D01*
X37952110Y-16930587D01*
X37895493Y-16924500D01*
X37304518Y-16924500D01*
X37304509Y-16924501D01*
X37247885Y-16930587D01*
X37119771Y-16978373D01*
X37119770Y-16978373D01*
X37010318Y-17060307D01*
X37010312Y-17060313D01*
X36999459Y-17074812D01*
X36943524Y-17116683D01*
X36900193Y-17124500D01*
X36499807Y-17124500D01*
X36432768Y-17104815D01*
X36400541Y-17074812D01*
X36389687Y-17060313D01*
X36389681Y-17060307D01*
X36280230Y-16978374D01*
X36280227Y-16978373D01*
X36280226Y-16978372D01*
X36152114Y-16930588D01*
X36152112Y-16930587D01*
X36152110Y-16930587D01*
X36095493Y-16924500D01*
X35504518Y-16924500D01*
X35504499Y-16924502D01*
X35498302Y-16925168D01*
X35429543Y-16912759D01*
X35397373Y-16889559D01*
X35275632Y-16767818D01*
X35248753Y-16727591D01*
X35240509Y-16707687D01*
X35162777Y-16606386D01*
X35137583Y-16541218D01*
X35151621Y-16472773D01*
X35200434Y-16422783D01*
X35268526Y-16407119D01*
X35311154Y-16419360D01*
X35311465Y-16418528D01*
X35319771Y-16421626D01*
X35319774Y-16421628D01*
X35447886Y-16469412D01*
X35504515Y-16475500D01*
X36095484Y-16475499D01*
X36152114Y-16469412D01*
X36280226Y-16421628D01*
X36280229Y-16421626D01*
X36389681Y-16339692D01*
X36389683Y-16339689D01*
X36389687Y-16339687D01*
X36400541Y-16325188D01*
X36456476Y-16283317D01*
X36499807Y-16275500D01*
X36900193Y-16275500D01*
X36967232Y-16295185D01*
X36999459Y-16325188D01*
X37010312Y-16339686D01*
X37010318Y-16339692D01*
X37119769Y-16421625D01*
X37119770Y-16421625D01*
X37119774Y-16421628D01*
X37247886Y-16469412D01*
X37304515Y-16475500D01*
X37895484Y-16475499D01*
X37952114Y-16469412D01*
X38080226Y-16421628D01*
X38189687Y-16339687D01*
X38196978Y-16329946D01*
X38252910Y-16288074D01*
X38322602Y-16283088D01*
X38343699Y-16289694D01*
X38388663Y-16308318D01*
X38456291Y-16336330D01*
X38583280Y-16353048D01*
X38599999Y-16355250D01*
X38600000Y-16355250D01*
X38600001Y-16355250D01*
X38614977Y-16353278D01*
X38743709Y-16336330D01*
X38877625Y-16280861D01*
X38992621Y-16192621D01*
X39080861Y-16077625D01*
X39136330Y-15943709D01*
X39155250Y-15800000D01*
X39136330Y-15656291D01*
X39094478Y-15555250D01*
X39080862Y-15522377D01*
X39080861Y-15522376D01*
X39080861Y-15522375D01*
X38992621Y-15407379D01*
X38877625Y-15319139D01*
X38877624Y-15319138D01*
X38877622Y-15319137D01*
X38743712Y-15263671D01*
X38743710Y-15263670D01*
X38743709Y-15263670D01*
X38639877Y-15250000D01*
X38600001Y-15244750D01*
X38599999Y-15244750D01*
X38456291Y-15263670D01*
X38456287Y-15263671D01*
X38372269Y-15298472D01*
X38302799Y-15305941D01*
X38240320Y-15274665D01*
X38225556Y-15258228D01*
X38210558Y-15238194D01*
X38186143Y-15172734D01*
X38200994Y-15104461D01*
X38244731Y-15058348D01*
X38302731Y-15022573D01*
X38422572Y-14902732D01*
X38422575Y-14902728D01*
X38511542Y-14758492D01*
X38511547Y-14758481D01*
X38564855Y-14597606D01*
X38574999Y-14498322D01*
X38575000Y-14498309D01*
X38575000Y-14475000D01*
X34825001Y-14475000D01*
X34825001Y-14498322D01*
X34835144Y-14597607D01*
X34888452Y-14758481D01*
X34888457Y-14758492D01*
X34977424Y-14902728D01*
X34977427Y-14902732D01*
X35097267Y-15022572D01*
X35097271Y-15022575D01*
X35133565Y-15044962D01*
X35180290Y-15096910D01*
X35191511Y-15165872D01*
X35163668Y-15229954D01*
X35105599Y-15268810D01*
X35068468Y-15274500D01*
X35011608Y-15274500D01*
X34884312Y-15308608D01*
X34770186Y-15374500D01*
X34770183Y-15374502D01*
X34429005Y-15715681D01*
X34367682Y-15749166D01*
X34341324Y-15752000D01*
X34074500Y-15752000D01*
X34007461Y-15732315D01*
X33961706Y-15679511D01*
X33950500Y-15628000D01*
X33950500Y-15457823D01*
X33936848Y-15389192D01*
X33936848Y-15340808D01*
X33950500Y-15272176D01*
X33950500Y-14822823D01*
X33936848Y-14754192D01*
X33936848Y-14705808D01*
X33950500Y-14637176D01*
X33950500Y-14187823D01*
X33936848Y-14119192D01*
X33936848Y-14070808D01*
X33950500Y-14002176D01*
X33950500Y-13617000D01*
X33970185Y-13549961D01*
X34022989Y-13504206D01*
X34074500Y-13493000D01*
X34788724Y-13493000D01*
X34855763Y-13512685D01*
G37*
%TD.AperFunction*%
%TA.AperFunction,Conductor*%
G36*
X35178834Y-500853D02*
G01*
X35378392Y-515667D01*
X35395866Y-518226D01*
X35491500Y-539275D01*
X35587136Y-560324D01*
X35604067Y-565337D01*
X35787435Y-634187D01*
X35803475Y-641553D01*
X35889337Y-688652D01*
X35975194Y-735749D01*
X35990033Y-745323D01*
X36023448Y-770424D01*
X36146637Y-862963D01*
X36159947Y-874532D01*
X36298259Y-1013236D01*
X36309798Y-1026589D01*
X36426991Y-1183519D01*
X36436524Y-1198385D01*
X36530233Y-1370368D01*
X36537557Y-1386439D01*
X36605885Y-1569996D01*
X36610851Y-1586942D01*
X36651276Y-1773119D01*
X36652408Y-1778330D01*
X36654917Y-1795812D01*
X36669185Y-1995678D01*
X36669500Y-2004508D01*
X36669500Y-6185135D01*
X36706957Y-6553497D01*
X36714541Y-6590402D01*
X36772924Y-6874501D01*
X36781492Y-6916191D01*
X36781493Y-6916197D01*
X36892330Y-7269463D01*
X37038349Y-7609730D01*
X37218037Y-7933467D01*
X37218040Y-7933472D01*
X37429561Y-8237374D01*
X37628823Y-8469487D01*
X37670740Y-8518315D01*
X37939106Y-8773416D01*
X38194831Y-8971363D01*
X38231901Y-9000057D01*
X38231914Y-9000066D01*
X38546117Y-9195910D01*
X38546126Y-9195915D01*
X38878552Y-9358978D01*
X38878559Y-9358980D01*
X38878560Y-9358981D01*
X39225760Y-9487571D01*
X39225762Y-9487571D01*
X39225769Y-9487574D01*
X39584214Y-9580382D01*
X39877010Y-9625236D01*
X39950209Y-9636450D01*
X39968057Y-9637355D01*
X40320000Y-9655204D01*
X40689790Y-9636450D01*
X41055786Y-9580382D01*
X41414231Y-9487574D01*
X41761448Y-9358978D01*
X42093874Y-9195915D01*
X42408098Y-9000058D01*
X42700894Y-8773416D01*
X42969260Y-8518315D01*
X43210440Y-8237372D01*
X43277384Y-8141189D01*
X43331836Y-8097413D01*
X43401314Y-8090023D01*
X43463758Y-8121370D01*
X43499341Y-8181500D01*
X43501631Y-8192629D01*
X43516934Y-8289248D01*
X43589897Y-8513802D01*
X43697085Y-8724171D01*
X43835866Y-8915186D01*
X44002813Y-9082133D01*
X44193828Y-9220914D01*
X44404195Y-9328102D01*
X44628744Y-9401063D01*
X44628750Y-9401065D01*
X44730000Y-9417101D01*
X44730000Y-8380001D01*
X44790402Y-8405021D01*
X44915981Y-8430000D01*
X45044019Y-8430000D01*
X45169598Y-8405021D01*
X45230000Y-8380001D01*
X45230000Y-9417100D01*
X45331249Y-9401065D01*
X45331255Y-9401063D01*
X45555804Y-9328102D01*
X45766171Y-9220914D01*
X45957186Y-9082133D01*
X46124133Y-8915186D01*
X46262914Y-8724171D01*
X46370102Y-8513802D01*
X46443065Y-8289247D01*
X46480000Y-8056052D01*
X46480000Y-7530000D01*
X45630000Y-7530000D01*
X45630000Y-7030000D01*
X46480000Y-7030000D01*
X46480000Y-6503947D01*
X46443065Y-6270752D01*
X46370102Y-6046197D01*
X46262914Y-5835828D01*
X46124133Y-5644813D01*
X45957186Y-5477866D01*
X45766171Y-5339085D01*
X45555802Y-5231897D01*
X45331247Y-5158934D01*
X45230000Y-5142897D01*
X45230000Y-6179998D01*
X45169598Y-6154979D01*
X45044019Y-6130000D01*
X44915981Y-6130000D01*
X44790402Y-6154979D01*
X44730000Y-6179998D01*
X44730000Y-5142897D01*
X44628752Y-5158934D01*
X44404197Y-5231897D01*
X44193825Y-5339087D01*
X44167385Y-5358297D01*
X44101579Y-5381777D01*
X44033525Y-5365952D01*
X43984830Y-5315846D01*
X43970500Y-5257979D01*
X43970500Y-2065905D01*
X43970501Y-2065902D01*
X43970500Y-2004435D01*
X43970816Y-1995590D01*
X43985128Y-1795446D01*
X43987644Y-1777947D01*
X44029354Y-1586208D01*
X44034333Y-1569250D01*
X44102905Y-1385400D01*
X44110253Y-1369310D01*
X44146158Y-1303554D01*
X44204293Y-1197085D01*
X44213848Y-1182218D01*
X44331437Y-1025136D01*
X44343010Y-1011779D01*
X44481769Y-873019D01*
X44495134Y-861440D01*
X44652209Y-743855D01*
X44667086Y-734293D01*
X44839307Y-640253D01*
X44855376Y-632914D01*
X45039246Y-564334D01*
X45056197Y-559357D01*
X45247936Y-517647D01*
X45265437Y-515130D01*
X45465400Y-500829D01*
X45474246Y-500513D01*
X45535892Y-500513D01*
X60703153Y-500513D01*
X60709894Y-500695D01*
X61023587Y-517777D01*
X61036455Y-519155D01*
X61343554Y-568393D01*
X61356218Y-571109D01*
X61656505Y-652136D01*
X61668812Y-656157D01*
X61959001Y-768089D01*
X61970825Y-773375D01*
X62247743Y-914987D01*
X62258959Y-921484D01*
X62519568Y-1091221D01*
X62530044Y-1098853D01*
X62771515Y-1294869D01*
X62781139Y-1303554D01*
X63000832Y-1523712D01*
X63009495Y-1533353D01*
X63205000Y-1775234D01*
X63212610Y-1785726D01*
X63381800Y-2046697D01*
X63388273Y-2057927D01*
X63529294Y-2335129D01*
X63534560Y-2346974D01*
X63645875Y-2637390D01*
X63649875Y-2649718D01*
X63730267Y-2950166D01*
X63732956Y-2962834D01*
X63744634Y-3036663D01*
X63735664Y-3105954D01*
X63709837Y-3143715D01*
X62615270Y-4238281D01*
X62529722Y-4120534D01*
X62379466Y-3970278D01*
X62261717Y-3884728D01*
X63330709Y-2815736D01*
X63330709Y-2815735D01*
X63204784Y-2710074D01*
X62927411Y-2527643D01*
X62630747Y-2378652D01*
X62630741Y-2378649D01*
X62318786Y-2265107D01*
X62318765Y-2265100D01*
X61995751Y-2188543D01*
X61995736Y-2188541D01*
X61665987Y-2150000D01*
X61334013Y-2150000D01*
X61004263Y-2188541D01*
X61004248Y-2188543D01*
X60681234Y-2265100D01*
X60681213Y-2265107D01*
X60369258Y-2378649D01*
X60369252Y-2378652D01*
X60072581Y-2527646D01*
X59795220Y-2710070D01*
X59795213Y-2710075D01*
X59669289Y-2815735D01*
X60738282Y-3884728D01*
X60620534Y-3970278D01*
X60470278Y-4120534D01*
X60384729Y-4238282D01*
X59312357Y-3165910D01*
X59312356Y-3165911D01*
X59114829Y-3431236D01*
X59114825Y-3431242D01*
X58948833Y-3718750D01*
X58948827Y-3718763D01*
X58817336Y-4023591D01*
X58722121Y-4341634D01*
X58722118Y-4341648D01*
X58664474Y-4668562D01*
X58664473Y-4668573D01*
X58645170Y-4999999D01*
X58647404Y-5038356D01*
X58631651Y-5106427D01*
X58581597Y-5155174D01*
X58513133Y-5169122D01*
X58485301Y-5163499D01*
X58471252Y-5158935D01*
X58370000Y-5142897D01*
X58370000Y-6175879D01*
X58324182Y-6156901D01*
X58188944Y-6130000D01*
X58051056Y-6130000D01*
X57915818Y-6156901D01*
X57870000Y-6175879D01*
X57870000Y-5142897D01*
X57768752Y-5158934D01*
X57544197Y-5231897D01*
X57333828Y-5339085D01*
X57142813Y-5477866D01*
X56975866Y-5644813D01*
X56837085Y-5835828D01*
X56729897Y-6046197D01*
X56656934Y-6270752D01*
X56620000Y-6503947D01*
X56620000Y-7030000D01*
X57420000Y-7030000D01*
X57420000Y-7530000D01*
X56620000Y-7530000D01*
X56620000Y-8056052D01*
X56656934Y-8289247D01*
X56729897Y-8513802D01*
X56837085Y-8724171D01*
X56975866Y-8915186D01*
X57142813Y-9082133D01*
X57333828Y-9220914D01*
X57544195Y-9328102D01*
X57768744Y-9401063D01*
X57768750Y-9401065D01*
X57870000Y-9417101D01*
X57870000Y-8384120D01*
X57915818Y-8403099D01*
X58051056Y-8430000D01*
X58188944Y-8430000D01*
X58324182Y-8403099D01*
X58370000Y-8384120D01*
X58370000Y-9417100D01*
X58471249Y-9401065D01*
X58471255Y-9401063D01*
X58695804Y-9328102D01*
X58906171Y-9220914D01*
X59097186Y-9082133D01*
X59264133Y-8915186D01*
X59402914Y-8724171D01*
X59510102Y-8513802D01*
X59583065Y-8289247D01*
X59620000Y-8056052D01*
X59620000Y-7404657D01*
X59639685Y-7337618D01*
X59692489Y-7291863D01*
X59761647Y-7281919D01*
X59812139Y-7301057D01*
X60072581Y-7472353D01*
X60369252Y-7621347D01*
X60369258Y-7621350D01*
X60681213Y-7734892D01*
X60681234Y-7734899D01*
X61004248Y-7811456D01*
X61004263Y-7811458D01*
X61334012Y-7849999D01*
X61334013Y-7850000D01*
X61665987Y-7850000D01*
X61665987Y-7849999D01*
X61995736Y-7811458D01*
X61995751Y-7811456D01*
X62318765Y-7734899D01*
X62318786Y-7734892D01*
X62630741Y-7621350D01*
X62630747Y-7621347D01*
X62927411Y-7472356D01*
X63204789Y-7289922D01*
X63330708Y-7184263D01*
X63330709Y-7184262D01*
X62261717Y-6115270D01*
X62379466Y-6029722D01*
X62529722Y-5879466D01*
X62615270Y-5761717D01*
X63695440Y-6841886D01*
X63734782Y-6850390D01*
X63784253Y-6899730D01*
X63799500Y-6959301D01*
X63799500Y-18403173D01*
X63799317Y-18409915D01*
X63782237Y-18723581D01*
X63780856Y-18736470D01*
X63731620Y-19043556D01*
X63728902Y-19056229D01*
X63647878Y-19356504D01*
X63643852Y-19368825D01*
X63531924Y-19659004D01*
X63526634Y-19670837D01*
X63385024Y-19947751D01*
X63378527Y-19958967D01*
X63208790Y-20219577D01*
X63201158Y-20230054D01*
X63005140Y-20471525D01*
X62996456Y-20481148D01*
X62931049Y-20546417D01*
X62869690Y-20579837D01*
X62800004Y-20574779D01*
X62744114Y-20532849D01*
X62719767Y-20467358D01*
X62725754Y-20419639D01*
X62764505Y-20302697D01*
X62764506Y-20302690D01*
X62774999Y-20199986D01*
X62775000Y-20199973D01*
X62775000Y-20050000D01*
X61625000Y-20050000D01*
X61625000Y-20899999D01*
X62074972Y-20899999D01*
X62074991Y-20899997D01*
X62085803Y-20898893D01*
X62154497Y-20911659D01*
X62205383Y-20959537D01*
X62222307Y-21027326D01*
X62199895Y-21093504D01*
X62154636Y-21132770D01*
X61964880Y-21229304D01*
X61953036Y-21234570D01*
X61662612Y-21345889D01*
X61650283Y-21349889D01*
X61349838Y-21430280D01*
X61337158Y-21432971D01*
X61029971Y-21481558D01*
X61017080Y-21482911D01*
X60703137Y-21499343D01*
X60696656Y-21499513D01*
X20160725Y-21499513D01*
X20093686Y-21479828D01*
X20047931Y-21427024D01*
X20037987Y-21357866D01*
X20067012Y-21294310D01*
X20085232Y-21277141D01*
X20195382Y-21192621D01*
X20262275Y-21105443D01*
X20318702Y-21064242D01*
X20388448Y-21060087D01*
X20408102Y-21066370D01*
X20427983Y-21074604D01*
X20456291Y-21086330D01*
X20583280Y-21103048D01*
X20599999Y-21105250D01*
X20600000Y-21105250D01*
X20600001Y-21105250D01*
X20614977Y-21103278D01*
X20743709Y-21086330D01*
X20877625Y-21030861D01*
X20992621Y-20942621D01*
X21080861Y-20827625D01*
X21136330Y-20693709D01*
X21155250Y-20550000D01*
X21136330Y-20406291D01*
X21105385Y-20331582D01*
X22275001Y-20331582D01*
X22281408Y-20402102D01*
X22281409Y-20402107D01*
X22331981Y-20564396D01*
X22419927Y-20709877D01*
X22540122Y-20830072D01*
X22685604Y-20918019D01*
X22685603Y-20918019D01*
X22847894Y-20968590D01*
X22847893Y-20968590D01*
X22918408Y-20974998D01*
X22918426Y-20974999D01*
X22924999Y-20974998D01*
X22925000Y-20974998D01*
X22925000Y-20250000D01*
X22275001Y-20250000D01*
X22275001Y-20331582D01*
X21105385Y-20331582D01*
X21080861Y-20272375D01*
X20992621Y-20157379D01*
X20877625Y-20069139D01*
X20877624Y-20069138D01*
X20877622Y-20069137D01*
X20743712Y-20013671D01*
X20743710Y-20013670D01*
X20743709Y-20013670D01*
X20652638Y-20001680D01*
X20600001Y-19994750D01*
X20591873Y-19994750D01*
X20591873Y-19991243D01*
X20538613Y-19982772D01*
X20504122Y-19958440D01*
X20457863Y-19912181D01*
X20424378Y-19850858D01*
X20429362Y-19781166D01*
X20471234Y-19725233D01*
X20536698Y-19700816D01*
X20545544Y-19700500D01*
X20745124Y-19700500D01*
X20792572Y-19709937D01*
X20856291Y-19736330D01*
X20952097Y-19748943D01*
X20999999Y-19755250D01*
X21000000Y-19755250D01*
X21000001Y-19755250D01*
X21014977Y-19753278D01*
X21143709Y-19736330D01*
X21277625Y-19680861D01*
X21293829Y-19668427D01*
X22275000Y-19668427D01*
X22275000Y-19750000D01*
X22925000Y-19750000D01*
X22925000Y-19025000D01*
X22924999Y-19024999D01*
X22918436Y-19025000D01*
X22918417Y-19025001D01*
X22847897Y-19031408D01*
X22847892Y-19031409D01*
X22685603Y-19081981D01*
X22540122Y-19169927D01*
X22419927Y-19290122D01*
X22331980Y-19435604D01*
X22281409Y-19597893D01*
X22275000Y-19668427D01*
X21293829Y-19668427D01*
X21392621Y-19592621D01*
X21480861Y-19477625D01*
X21536330Y-19343709D01*
X21555250Y-19200000D01*
X21536330Y-19056291D01*
X21480861Y-18922375D01*
X21392621Y-18807379D01*
X21277625Y-18719139D01*
X21277624Y-18719138D01*
X21277622Y-18719137D01*
X21143712Y-18663671D01*
X21143710Y-18663670D01*
X21143709Y-18663670D01*
X21067829Y-18653680D01*
X21000001Y-18644750D01*
X20999999Y-18644750D01*
X20856293Y-18663669D01*
X20850738Y-18665970D01*
X20792572Y-18690062D01*
X20745124Y-18699500D01*
X11433676Y-18699500D01*
X11366637Y-18679815D01*
X11345995Y-18663181D01*
X10111819Y-17429005D01*
X10078334Y-17367682D01*
X10075500Y-17341324D01*
X10075500Y-16699807D01*
X10095185Y-16632768D01*
X10125190Y-16600539D01*
X10135674Y-16592691D01*
X10139687Y-16589687D01*
X10221628Y-16480226D01*
X10269412Y-16352114D01*
X10272915Y-16319530D01*
X10275499Y-16295501D01*
X10275499Y-16295494D01*
X10275500Y-16295485D01*
X10275499Y-15704516D01*
X10269412Y-15647886D01*
X10263307Y-15631519D01*
X10240244Y-15569685D01*
X10221628Y-15519774D01*
X10221626Y-15519771D01*
X10221626Y-15519770D01*
X10139692Y-15410318D01*
X10139686Y-15410312D01*
X10125188Y-15399459D01*
X10083317Y-15343524D01*
X10075500Y-15300193D01*
X10075500Y-15124500D01*
X10095185Y-15057461D01*
X10147989Y-15011706D01*
X10199500Y-15000500D01*
X10600762Y-15000500D01*
X10667801Y-15020185D01*
X10713556Y-15072989D01*
X10723500Y-15142147D01*
X10716237Y-15165049D01*
X10717369Y-15165417D01*
X10714352Y-15174698D01*
X10699500Y-15268475D01*
X10699500Y-15631517D01*
X10710292Y-15699657D01*
X10714354Y-15725304D01*
X10771950Y-15838342D01*
X10771952Y-15838344D01*
X10771954Y-15838347D01*
X10861652Y-15928045D01*
X10861654Y-15928046D01*
X10861658Y-15928050D01*
X10955388Y-15975808D01*
X10974698Y-15985647D01*
X11068475Y-16000499D01*
X11068481Y-16000500D01*
X12025500Y-16000499D01*
X12092539Y-16020183D01*
X12138294Y-16072987D01*
X12149500Y-16124499D01*
X12149500Y-16146143D01*
X12167194Y-16212180D01*
X12167892Y-16214783D01*
X12170548Y-16224696D01*
X12173386Y-16235289D01*
X12219527Y-16315208D01*
X12219529Y-16315211D01*
X12219530Y-16315212D01*
X14184788Y-18280470D01*
X14264712Y-18326614D01*
X14353856Y-18350500D01*
X14353858Y-18350500D01*
X26194181Y-18350500D01*
X26261220Y-18370185D01*
X26306975Y-18422989D01*
X26308742Y-18427047D01*
X26333260Y-18486239D01*
X26337154Y-18495640D01*
X26425394Y-18610636D01*
X26540390Y-18698876D01*
X26540391Y-18698876D01*
X26540392Y-18698877D01*
X26560761Y-18707314D01*
X26674306Y-18754345D01*
X26801295Y-18771063D01*
X26818014Y-18773265D01*
X26818014Y-18773264D01*
X26818015Y-18773265D01*
X26909317Y-18761244D01*
X26978348Y-18772009D01*
X27030605Y-18818388D01*
X27049500Y-18884183D01*
X27049500Y-19082174D01*
X27049500Y-19082176D01*
X27049499Y-19082176D01*
X27063152Y-19150808D01*
X27063152Y-19199192D01*
X27049500Y-19267823D01*
X27049500Y-19653000D01*
X27029815Y-19720039D01*
X26977011Y-19765794D01*
X26925500Y-19777000D01*
X25598381Y-19777000D01*
X25531342Y-19757315D01*
X25485587Y-19704511D01*
X25474923Y-19664577D01*
X25472646Y-19640300D01*
X25472646Y-19640298D01*
X25433789Y-19529255D01*
X25427793Y-19512118D01*
X25347150Y-19402850D01*
X25237882Y-19322207D01*
X25237880Y-19322206D01*
X25109700Y-19277353D01*
X25079270Y-19274500D01*
X25079266Y-19274500D01*
X24570734Y-19274500D01*
X24570730Y-19274500D01*
X24540300Y-19277353D01*
X24540298Y-19277353D01*
X24412119Y-19322206D01*
X24412117Y-19322207D01*
X24302850Y-19402850D01*
X24240741Y-19487004D01*
X24185093Y-19529255D01*
X24115437Y-19534712D01*
X24053887Y-19501645D01*
X24022585Y-19450258D01*
X24018018Y-19435602D01*
X23930072Y-19290122D01*
X23809877Y-19169927D01*
X23664395Y-19081980D01*
X23664396Y-19081980D01*
X23502105Y-19031409D01*
X23502106Y-19031409D01*
X23431572Y-19025000D01*
X23425000Y-19025000D01*
X23425000Y-20974999D01*
X23431581Y-20974999D01*
X23502102Y-20968591D01*
X23502107Y-20968590D01*
X23664396Y-20918018D01*
X23809877Y-20830072D01*
X23930072Y-20709877D01*
X24018018Y-20564396D01*
X24022585Y-20549742D01*
X24061321Y-20491593D01*
X24125345Y-20463618D01*
X24194331Y-20474697D01*
X24240741Y-20512995D01*
X24302850Y-20597150D01*
X24412118Y-20677793D01*
X24454845Y-20692744D01*
X24540299Y-20722646D01*
X24570730Y-20725500D01*
X24570734Y-20725500D01*
X25079270Y-20725500D01*
X25109699Y-20722646D01*
X25109701Y-20722646D01*
X25177899Y-20698782D01*
X25237882Y-20677793D01*
X25347150Y-20597150D01*
X25397914Y-20528367D01*
X25453561Y-20486116D01*
X25497684Y-20478000D01*
X27037935Y-20478000D01*
X27104974Y-20497685D01*
X27110624Y-20502238D01*
X27119399Y-20508101D01*
X27202260Y-20563466D01*
X27202263Y-20563466D01*
X27202264Y-20563467D01*
X27275321Y-20577999D01*
X27275324Y-20578000D01*
X27275326Y-20578000D01*
X28524676Y-20578000D01*
X28524677Y-20577999D01*
X28597740Y-20563466D01*
X28680601Y-20508101D01*
X28735966Y-20425240D01*
X28750500Y-20352174D01*
X28750500Y-19902826D01*
X28750500Y-19902823D01*
X28736848Y-19834192D01*
X28736848Y-19785808D01*
X28750500Y-19717176D01*
X28750500Y-19267823D01*
X28736848Y-19199192D01*
X28736848Y-19150808D01*
X28750500Y-19082176D01*
X28750500Y-18878859D01*
X31123611Y-18878859D01*
X31123611Y-18878860D01*
X31142531Y-19022568D01*
X31142532Y-19022572D01*
X31197998Y-19156482D01*
X31197999Y-19156484D01*
X31198000Y-19156485D01*
X31286240Y-19271481D01*
X31401236Y-19359721D01*
X31401237Y-19359721D01*
X31401238Y-19359722D01*
X31423215Y-19368825D01*
X31535152Y-19415190D01*
X31662141Y-19431908D01*
X31678860Y-19434110D01*
X31678861Y-19434110D01*
X31678862Y-19434110D01*
X31693838Y-19432138D01*
X31822570Y-19415190D01*
X31956486Y-19359721D01*
X32050015Y-19287953D01*
X32115182Y-19262759D01*
X32183627Y-19276797D01*
X32233617Y-19325610D01*
X32249500Y-19386329D01*
X32249500Y-19717174D01*
X32249500Y-19717176D01*
X32249499Y-19717176D01*
X32263152Y-19785808D01*
X32263152Y-19834192D01*
X32249500Y-19902823D01*
X32249500Y-20352178D01*
X32264032Y-20425235D01*
X32264033Y-20425239D01*
X32267530Y-20430472D01*
X32319399Y-20508101D01*
X32402259Y-20563465D01*
X32402260Y-20563466D01*
X32402264Y-20563467D01*
X32475321Y-20577999D01*
X32475324Y-20578000D01*
X32475326Y-20578000D01*
X33724676Y-20578000D01*
X33724677Y-20577999D01*
X33797740Y-20563466D01*
X33875009Y-20511837D01*
X33941684Y-20490961D01*
X34009064Y-20509446D01*
X34031578Y-20527260D01*
X34584788Y-21080470D01*
X34584789Y-21080471D01*
X34584791Y-21080472D01*
X34624750Y-21103542D01*
X34664712Y-21126614D01*
X34753856Y-21150500D01*
X34753857Y-21150500D01*
X34753858Y-21150500D01*
X53646142Y-21150500D01*
X53646144Y-21150500D01*
X53735288Y-21126614D01*
X53815212Y-21080470D01*
X54695695Y-20199986D01*
X59975001Y-20199986D01*
X59985494Y-20302697D01*
X60040641Y-20469119D01*
X60040643Y-20469124D01*
X60132684Y-20618345D01*
X60256654Y-20742315D01*
X60405875Y-20834356D01*
X60405880Y-20834358D01*
X60572302Y-20889505D01*
X60572309Y-20889506D01*
X60675019Y-20899999D01*
X61124999Y-20899999D01*
X61125000Y-20899998D01*
X61125000Y-20050000D01*
X59975001Y-20050000D01*
X59975001Y-20199986D01*
X54695695Y-20199986D01*
X55495668Y-19400013D01*
X59975000Y-19400013D01*
X59975000Y-19550000D01*
X61125000Y-19550000D01*
X61625000Y-19550000D01*
X62774999Y-19550000D01*
X62774999Y-19400028D01*
X62774998Y-19400013D01*
X62764505Y-19297302D01*
X62709358Y-19130880D01*
X62709356Y-19130875D01*
X62617315Y-18981654D01*
X62493345Y-18857684D01*
X62344124Y-18765643D01*
X62344119Y-18765641D01*
X62177697Y-18710494D01*
X62177690Y-18710493D01*
X62074986Y-18700000D01*
X61625000Y-18700000D01*
X61625000Y-19550000D01*
X61125000Y-19550000D01*
X61125000Y-18700000D01*
X60675028Y-18700000D01*
X60675012Y-18700001D01*
X60572302Y-18710494D01*
X60405880Y-18765641D01*
X60405875Y-18765643D01*
X60256654Y-18857684D01*
X60132684Y-18981654D01*
X60040643Y-19130875D01*
X60040641Y-19130880D01*
X59985494Y-19297302D01*
X59985493Y-19297309D01*
X59975000Y-19400013D01*
X55495668Y-19400013D01*
X55680469Y-19215212D01*
X55726614Y-19135288D01*
X55729454Y-19124688D01*
X55733334Y-19110211D01*
X55740898Y-19081980D01*
X55750500Y-19046144D01*
X55750500Y-18196544D01*
X55770185Y-18129505D01*
X55786819Y-18108863D01*
X56108863Y-17786819D01*
X56170186Y-17753334D01*
X56196544Y-17750500D01*
X56400728Y-17750500D01*
X56467767Y-17770185D01*
X56511212Y-17818204D01*
X56546949Y-17888340D01*
X56546954Y-17888347D01*
X56570926Y-17912319D01*
X56604411Y-17973642D01*
X56599427Y-18043334D01*
X56570926Y-18087681D01*
X56546954Y-18111652D01*
X56546951Y-18111657D01*
X56546950Y-18111658D01*
X56536998Y-18131190D01*
X56489352Y-18224698D01*
X56474500Y-18318475D01*
X56474500Y-18681517D01*
X56482244Y-18730411D01*
X56489354Y-18775304D01*
X56546950Y-18888342D01*
X56546952Y-18888344D01*
X56546954Y-18888347D01*
X56636652Y-18978045D01*
X56636654Y-18978046D01*
X56636658Y-18978050D01*
X56749694Y-19035645D01*
X56749698Y-19035647D01*
X56843475Y-19050499D01*
X56843481Y-19050500D01*
X58156518Y-19050499D01*
X58250304Y-19035646D01*
X58292757Y-19014014D01*
X58349052Y-19000500D01*
X58965890Y-19000500D01*
X58965892Y-19000500D01*
X59093186Y-18966392D01*
X59207314Y-18900500D01*
X60000499Y-18107315D01*
X60004074Y-18101124D01*
X60066392Y-17993186D01*
X60082702Y-17932315D01*
X60100500Y-17865893D01*
X60100500Y-17734108D01*
X60100500Y-15268173D01*
X60120185Y-15201134D01*
X60172989Y-15155379D01*
X60242147Y-15145435D01*
X60289597Y-15162635D01*
X60405869Y-15234353D01*
X60405880Y-15234358D01*
X60572302Y-15289505D01*
X60572309Y-15289506D01*
X60675019Y-15299999D01*
X61124999Y-15299999D01*
X61625000Y-15299999D01*
X62074972Y-15299999D01*
X62074986Y-15299998D01*
X62177697Y-15289505D01*
X62344119Y-15234358D01*
X62344124Y-15234356D01*
X62493345Y-15142315D01*
X62617315Y-15018345D01*
X62709356Y-14869124D01*
X62709358Y-14869119D01*
X62764505Y-14702697D01*
X62764506Y-14702690D01*
X62774999Y-14599986D01*
X62775000Y-14599973D01*
X62775000Y-14450000D01*
X61625000Y-14450000D01*
X61625000Y-15299999D01*
X61124999Y-15299999D01*
X61125000Y-15299998D01*
X61125000Y-14450000D01*
X59975001Y-14450000D01*
X59975001Y-14507164D01*
X59955316Y-14574203D01*
X59902512Y-14619958D01*
X59833354Y-14629902D01*
X59769798Y-14600877D01*
X59763320Y-14594845D01*
X59167977Y-13999502D01*
X59167976Y-13999501D01*
X59167975Y-13999500D01*
X59091173Y-13955158D01*
X59053848Y-13933608D01*
X58984908Y-13915136D01*
X58926553Y-13899500D01*
X56265892Y-13899500D01*
X56134107Y-13899500D01*
X56006812Y-13933608D01*
X55892686Y-13999500D01*
X55892683Y-13999502D01*
X51229005Y-18663181D01*
X51167682Y-18696666D01*
X51141324Y-18699500D01*
X49454876Y-18699500D01*
X49407427Y-18690062D01*
X49343709Y-18663670D01*
X49343708Y-18663669D01*
X49343706Y-18663669D01*
X49200001Y-18644750D01*
X49199999Y-18644750D01*
X49056293Y-18663669D01*
X49050738Y-18665970D01*
X48992572Y-18690062D01*
X48945124Y-18699500D01*
X45058676Y-18699500D01*
X44991637Y-18679815D01*
X44970995Y-18663181D01*
X38507316Y-12199502D01*
X38507314Y-12199500D01*
X38421578Y-12150000D01*
X38393187Y-12133608D01*
X38312983Y-12112118D01*
X38265892Y-12099500D01*
X38265891Y-12099500D01*
X38081079Y-12099500D01*
X38014040Y-12079815D01*
X37981308Y-12049133D01*
X37947151Y-12002851D01*
X37947150Y-12002850D01*
X37837882Y-11922207D01*
X37837880Y-11922206D01*
X37709700Y-11877353D01*
X37679270Y-11874500D01*
X37679266Y-11874500D01*
X37170734Y-11874500D01*
X37170730Y-11874500D01*
X37140300Y-11877353D01*
X37140298Y-11877353D01*
X37012119Y-11922206D01*
X37012117Y-11922207D01*
X36902850Y-12002850D01*
X36822207Y-12112117D01*
X36822206Y-12112119D01*
X36777353Y-12240298D01*
X36777353Y-12240300D01*
X36774500Y-12270730D01*
X36774500Y-12929269D01*
X36777353Y-12959699D01*
X36777353Y-12959701D01*
X36822206Y-13087880D01*
X36822207Y-13087882D01*
X36902850Y-13197150D01*
X36922624Y-13211744D01*
X36964874Y-13267389D01*
X36970333Y-13337045D01*
X36937266Y-13398595D01*
X36914092Y-13417049D01*
X36897267Y-13427427D01*
X36787681Y-13537014D01*
X36726358Y-13570499D01*
X36656666Y-13565515D01*
X36612319Y-13537014D01*
X36502732Y-13427427D01*
X36502728Y-13427424D01*
X36359368Y-13338998D01*
X36312643Y-13287050D01*
X36301422Y-13218088D01*
X36324693Y-13159829D01*
X36377793Y-13087882D01*
X36400219Y-13023790D01*
X36422646Y-12959701D01*
X36422646Y-12959699D01*
X36425500Y-12929269D01*
X36425500Y-12270730D01*
X36422646Y-12240300D01*
X36422646Y-12240298D01*
X36377793Y-12112119D01*
X36377792Y-12112117D01*
X36297150Y-12002850D01*
X36187882Y-11922207D01*
X36187880Y-11922206D01*
X36059700Y-11877353D01*
X36029270Y-11874500D01*
X36029266Y-11874500D01*
X35520734Y-11874500D01*
X35520730Y-11874500D01*
X35490300Y-11877353D01*
X35490298Y-11877353D01*
X35362119Y-11922206D01*
X35362117Y-11922207D01*
X35252850Y-12002850D01*
X35172207Y-12112117D01*
X35172206Y-12112119D01*
X35127353Y-12240298D01*
X35127353Y-12240300D01*
X35124500Y-12270730D01*
X35124500Y-12668000D01*
X35104815Y-12735039D01*
X35052011Y-12780794D01*
X35000500Y-12792000D01*
X34074500Y-12792000D01*
X34007461Y-12772315D01*
X33961706Y-12719511D01*
X33950500Y-12668000D01*
X33950500Y-12282823D01*
X33936848Y-12214192D01*
X33936848Y-12165808D01*
X33950500Y-12097176D01*
X33950500Y-11647823D01*
X33950499Y-11647821D01*
X33935967Y-11574764D01*
X33935966Y-11574760D01*
X33891139Y-11507671D01*
X33880601Y-11491899D01*
X33817644Y-11449833D01*
X33797739Y-11436533D01*
X33797735Y-11436532D01*
X33724677Y-11422000D01*
X33724674Y-11422000D01*
X32475326Y-11422000D01*
X32475323Y-11422000D01*
X32402264Y-11436532D01*
X32402260Y-11436533D01*
X32319399Y-11491899D01*
X32264033Y-11574760D01*
X32264032Y-11574764D01*
X32249500Y-11647821D01*
X32249500Y-11647826D01*
X32249500Y-12097174D01*
X32249500Y-12097176D01*
X32249499Y-12097176D01*
X32263152Y-12165808D01*
X32263152Y-12214192D01*
X32249500Y-12282823D01*
X32249500Y-12282826D01*
X32249500Y-12732174D01*
X32249500Y-12732176D01*
X32249499Y-12732176D01*
X32263152Y-12800808D01*
X32263152Y-12849192D01*
X32249500Y-12917823D01*
X32249500Y-12917826D01*
X32249500Y-13367174D01*
X32249500Y-13367176D01*
X32249499Y-13367176D01*
X32263152Y-13435808D01*
X32263152Y-13484192D01*
X32249500Y-13552823D01*
X32249500Y-13586618D01*
X32229815Y-13653657D01*
X32177011Y-13699412D01*
X32107853Y-13709356D01*
X32078049Y-13701180D01*
X32026576Y-13679860D01*
X31990848Y-13665061D01*
X31904228Y-13653657D01*
X31847140Y-13646141D01*
X31847138Y-13646141D01*
X31703430Y-13665061D01*
X31703426Y-13665062D01*
X31569516Y-13720528D01*
X31454518Y-13808770D01*
X31366276Y-13923768D01*
X31310810Y-14057678D01*
X31310809Y-14057682D01*
X31298021Y-14154818D01*
X31291889Y-14201391D01*
X31305567Y-14305287D01*
X31310809Y-14345099D01*
X31310810Y-14345103D01*
X31366276Y-14479013D01*
X31366277Y-14479015D01*
X31366278Y-14479016D01*
X31378154Y-14494493D01*
X31403348Y-14559661D01*
X31389310Y-14628106D01*
X31378154Y-14645465D01*
X31319139Y-14722374D01*
X31319138Y-14722376D01*
X31263671Y-14856287D01*
X31263670Y-14856291D01*
X31248710Y-14969925D01*
X31244750Y-15000000D01*
X31263486Y-15142315D01*
X31263670Y-15143708D01*
X31263671Y-15143712D01*
X31319138Y-15277623D01*
X31319139Y-15277625D01*
X31355118Y-15324514D01*
X31380312Y-15389683D01*
X31366274Y-15458128D01*
X31355118Y-15475486D01*
X31319139Y-15522374D01*
X31319138Y-15522376D01*
X31263671Y-15656287D01*
X31263670Y-15656291D01*
X31251443Y-15749166D01*
X31244750Y-15800000D01*
X31261608Y-15928050D01*
X31263670Y-15943708D01*
X31263671Y-15943712D01*
X31319137Y-16077622D01*
X31319138Y-16077624D01*
X31319139Y-16077625D01*
X31407379Y-16192621D01*
X31522375Y-16280861D01*
X31522376Y-16280861D01*
X31522377Y-16280862D01*
X31557681Y-16295485D01*
X31656291Y-16336330D01*
X31783280Y-16353048D01*
X31799999Y-16355250D01*
X31800000Y-16355250D01*
X31800001Y-16355250D01*
X31814977Y-16353278D01*
X31943709Y-16336330D01*
X32060675Y-16287882D01*
X32078048Y-16280686D01*
X32147517Y-16273217D01*
X32209996Y-16304493D01*
X32245648Y-16364582D01*
X32249500Y-16395247D01*
X32249500Y-16542174D01*
X32249500Y-16542176D01*
X32249499Y-16542176D01*
X32263152Y-16610808D01*
X32263152Y-16659192D01*
X32249500Y-16727823D01*
X32249500Y-17119573D01*
X32229815Y-17186612D01*
X32177011Y-17232367D01*
X32157596Y-17239347D01*
X32130281Y-17246666D01*
X32115975Y-17250499D01*
X32067700Y-17253662D01*
X32000003Y-17244750D01*
X31999999Y-17244750D01*
X31856291Y-17263670D01*
X31856287Y-17263671D01*
X31722377Y-17319137D01*
X31607379Y-17407379D01*
X31519137Y-17522377D01*
X31463671Y-17656287D01*
X31463670Y-17656291D01*
X31444750Y-17799999D01*
X31444750Y-17800000D01*
X31463670Y-17943708D01*
X31463671Y-17943712D01*
X31519138Y-18077623D01*
X31519139Y-18077626D01*
X31578869Y-18155466D01*
X31604064Y-18220635D01*
X31590026Y-18289080D01*
X31541212Y-18339070D01*
X31527947Y-18345514D01*
X31401237Y-18397998D01*
X31286240Y-18486239D01*
X31197998Y-18601237D01*
X31142532Y-18735147D01*
X31142531Y-18735151D01*
X31123611Y-18878859D01*
X28750500Y-18878859D01*
X28750500Y-18632823D01*
X28736848Y-18564192D01*
X28736848Y-18515808D01*
X28750500Y-18447176D01*
X28750500Y-17997823D01*
X28736848Y-17929192D01*
X28736848Y-17880808D01*
X28750500Y-17812176D01*
X28750500Y-17362823D01*
X28736848Y-17294192D01*
X28736848Y-17245808D01*
X28750500Y-17177176D01*
X28750500Y-16727823D01*
X28736848Y-16659192D01*
X28736848Y-16610808D01*
X28750500Y-16542176D01*
X28750500Y-16092823D01*
X28736848Y-16024192D01*
X28736848Y-15975808D01*
X28750500Y-15907176D01*
X28750500Y-15457823D01*
X28736848Y-15389192D01*
X28736848Y-15340808D01*
X28750500Y-15272176D01*
X28750500Y-14822823D01*
X28750499Y-14822821D01*
X28741123Y-14775681D01*
X28747350Y-14706090D01*
X28775059Y-14663809D01*
X32580456Y-10858412D01*
X32641779Y-10824927D01*
X32668137Y-10822093D01*
X37875049Y-10822093D01*
X37942088Y-10841778D01*
X37962730Y-10858412D01*
X41654508Y-14550189D01*
X45319531Y-18215212D01*
X45384788Y-18280469D01*
X45384791Y-18280470D01*
X45384794Y-18280473D01*
X45464706Y-18326611D01*
X45464707Y-18326611D01*
X45464712Y-18326614D01*
X45553856Y-18350500D01*
X45553858Y-18350500D01*
X50811828Y-18350500D01*
X50811830Y-18350500D01*
X50900974Y-18326614D01*
X50980898Y-18280470D01*
X51980470Y-17280898D01*
X52026614Y-17200974D01*
X52043756Y-17137000D01*
X52050500Y-17111830D01*
X52050500Y-16119080D01*
X52070185Y-16052041D01*
X52122989Y-16006286D01*
X52192147Y-15996342D01*
X52193899Y-15996607D01*
X52209840Y-15999131D01*
X52218481Y-16000500D01*
X53231518Y-16000499D01*
X53325304Y-15985646D01*
X53438342Y-15928050D01*
X53528050Y-15838342D01*
X53585646Y-15725304D01*
X53585646Y-15725302D01*
X53585647Y-15725301D01*
X53600499Y-15631524D01*
X53600500Y-15631519D01*
X53600499Y-15268482D01*
X53596745Y-15244780D01*
X53605698Y-15175490D01*
X53631538Y-15137700D01*
X53717678Y-15051561D01*
X53717685Y-15051552D01*
X53801281Y-14910198D01*
X53847100Y-14752486D01*
X53847295Y-14750001D01*
X53847295Y-14750000D01*
X52599000Y-14750000D01*
X52531961Y-14730315D01*
X52486206Y-14677511D01*
X52475000Y-14626000D01*
X52475000Y-14374000D01*
X52494685Y-14306961D01*
X52547489Y-14261206D01*
X52599000Y-14250000D01*
X53847295Y-14250000D01*
X53847295Y-14249998D01*
X53847100Y-14247513D01*
X53801281Y-14089801D01*
X53717685Y-13948447D01*
X53717678Y-13948438D01*
X53631538Y-13862298D01*
X53598053Y-13800975D01*
X53598026Y-13800013D01*
X59975000Y-13800013D01*
X59975000Y-13950000D01*
X61125000Y-13950000D01*
X61625000Y-13950000D01*
X62774999Y-13950000D01*
X62774999Y-13800028D01*
X62774998Y-13800013D01*
X62764505Y-13697302D01*
X62709358Y-13530880D01*
X62709356Y-13530875D01*
X62617315Y-13381654D01*
X62493345Y-13257684D01*
X62344124Y-13165643D01*
X62344119Y-13165641D01*
X62177697Y-13110494D01*
X62177690Y-13110493D01*
X62074986Y-13100000D01*
X61625000Y-13100000D01*
X61625000Y-13950000D01*
X61125000Y-13950000D01*
X61125000Y-13100000D01*
X60675028Y-13100000D01*
X60675012Y-13100001D01*
X60572302Y-13110494D01*
X60405880Y-13165641D01*
X60405875Y-13165643D01*
X60256654Y-13257684D01*
X60132684Y-13381654D01*
X60040643Y-13530875D01*
X60040641Y-13530880D01*
X59985494Y-13697302D01*
X59985493Y-13697309D01*
X59975000Y-13800013D01*
X53598026Y-13800013D01*
X53596746Y-13755219D01*
X53600500Y-13731519D01*
X53600499Y-13368482D01*
X53585646Y-13274696D01*
X53528050Y-13161658D01*
X53528046Y-13161654D01*
X53528045Y-13161652D01*
X53438347Y-13071954D01*
X53438344Y-13071952D01*
X53438342Y-13071950D01*
X53361517Y-13032805D01*
X53325301Y-13014352D01*
X53231524Y-12999500D01*
X52218478Y-12999500D01*
X52193894Y-13003394D01*
X52124601Y-12994437D01*
X52071150Y-12949439D01*
X52050513Y-12882686D01*
X52050500Y-12880920D01*
X52050500Y-10836544D01*
X52070185Y-10769505D01*
X52086813Y-10748868D01*
X52104443Y-10731238D01*
X52165762Y-10697754D01*
X52228119Y-10700258D01*
X52360925Y-10740545D01*
X52550000Y-10759167D01*
X52739075Y-10740545D01*
X52920884Y-10685394D01*
X52921281Y-10685182D01*
X53088434Y-10595837D01*
X53088436Y-10595834D01*
X53088440Y-10595833D01*
X53235305Y-10475305D01*
X53355833Y-10328440D01*
X53355834Y-10328436D01*
X53355837Y-10328434D01*
X53429832Y-10189999D01*
X53831363Y-10189999D01*
X53831363Y-10190000D01*
X53849876Y-10401609D01*
X53849878Y-10401619D01*
X53904853Y-10606790D01*
X53904858Y-10606804D01*
X53994626Y-10799313D01*
X53994628Y-10799317D01*
X54032723Y-10853723D01*
X54599697Y-10286749D01*
X54621349Y-10367553D01*
X54681909Y-10472446D01*
X54767554Y-10558091D01*
X54872447Y-10618651D01*
X54953249Y-10640302D01*
X54386275Y-11207275D01*
X54440682Y-11245371D01*
X54440684Y-11245372D01*
X54633195Y-11335141D01*
X54633209Y-11335146D01*
X54838380Y-11390121D01*
X54838390Y-11390123D01*
X55049999Y-11408637D01*
X55050001Y-11408637D01*
X55261609Y-11390123D01*
X55261619Y-11390121D01*
X55466790Y-11335146D01*
X55466804Y-11335141D01*
X55659315Y-11245372D01*
X55659319Y-11245370D01*
X55713723Y-11207275D01*
X55146750Y-10640302D01*
X55227553Y-10618651D01*
X55332446Y-10558091D01*
X55418091Y-10472446D01*
X55478651Y-10367553D01*
X55500302Y-10286749D01*
X56067275Y-10853722D01*
X56105370Y-10799319D01*
X56105372Y-10799315D01*
X56195141Y-10606804D01*
X56195146Y-10606790D01*
X56250121Y-10401619D01*
X56250123Y-10401609D01*
X56268637Y-10190000D01*
X56268637Y-10189999D01*
X56250123Y-9978390D01*
X56250121Y-9978380D01*
X56195146Y-9773209D01*
X56195141Y-9773195D01*
X56105370Y-9580681D01*
X56105369Y-9580679D01*
X56067276Y-9526276D01*
X56067275Y-9526275D01*
X55500302Y-10093249D01*
X55478651Y-10012447D01*
X55418091Y-9907554D01*
X55332446Y-9821909D01*
X55227553Y-9761349D01*
X55146750Y-9739697D01*
X55713723Y-9172723D01*
X55659317Y-9134628D01*
X55659313Y-9134626D01*
X55466804Y-9044858D01*
X55466790Y-9044853D01*
X55261619Y-8989878D01*
X55261609Y-8989876D01*
X55050001Y-8971363D01*
X55049999Y-8971363D01*
X54838390Y-8989876D01*
X54838380Y-8989878D01*
X54633209Y-9044853D01*
X54633195Y-9044858D01*
X54440683Y-9134627D01*
X54386276Y-9172723D01*
X54953250Y-9739697D01*
X54872447Y-9761349D01*
X54767554Y-9821909D01*
X54681909Y-9907554D01*
X54621349Y-10012447D01*
X54599697Y-10093250D01*
X54032723Y-9526276D01*
X53994627Y-9580683D01*
X53904858Y-9773195D01*
X53904853Y-9773209D01*
X53849878Y-9978380D01*
X53849876Y-9978390D01*
X53831363Y-10189999D01*
X53429832Y-10189999D01*
X53445392Y-10160888D01*
X53445392Y-10160887D01*
X53445394Y-10160884D01*
X53500545Y-9979075D01*
X53519167Y-9790000D01*
X53500545Y-9600925D01*
X53445394Y-9419116D01*
X53445392Y-9419113D01*
X53445392Y-9419111D01*
X53355837Y-9251565D01*
X53355832Y-9251559D01*
X53235305Y-9104694D01*
X53088440Y-8984167D01*
X53088434Y-8984162D01*
X52920888Y-8894607D01*
X52739073Y-8839454D01*
X52550000Y-8820833D01*
X52360926Y-8839454D01*
X52179111Y-8894607D01*
X52011565Y-8984162D01*
X52011559Y-8984167D01*
X51864694Y-9104694D01*
X51744167Y-9251559D01*
X51744162Y-9251565D01*
X51659358Y-9410224D01*
X51610396Y-9460069D01*
X51542258Y-9475529D01*
X51476578Y-9451697D01*
X51440642Y-9410224D01*
X51355837Y-9251565D01*
X51355832Y-9251559D01*
X51235305Y-9104694D01*
X51088440Y-8984167D01*
X51088434Y-8984162D01*
X50920888Y-8894607D01*
X50739073Y-8839454D01*
X50550000Y-8820833D01*
X50360926Y-8839454D01*
X50179111Y-8894607D01*
X50011565Y-8984162D01*
X50011559Y-8984167D01*
X49864694Y-9104694D01*
X49744167Y-9251559D01*
X49744162Y-9251565D01*
X49654607Y-9419111D01*
X49599454Y-9600926D01*
X49580833Y-9790000D01*
X49599454Y-9979073D01*
X49654607Y-10160888D01*
X49744162Y-10328434D01*
X49744167Y-10328440D01*
X49864694Y-10475305D01*
X50011559Y-10595832D01*
X50011565Y-10595837D01*
X50179111Y-10685392D01*
X50179113Y-10685392D01*
X50179116Y-10685394D01*
X50360925Y-10740545D01*
X50550000Y-10759167D01*
X50739075Y-10740545D01*
X50789505Y-10725246D01*
X50859370Y-10724622D01*
X50918483Y-10761870D01*
X50948075Y-10825163D01*
X50949500Y-10843907D01*
X50949500Y-12875500D01*
X50929815Y-12942539D01*
X50877011Y-12988294D01*
X50825500Y-12999500D01*
X49868482Y-12999500D01*
X49787519Y-13012323D01*
X49774696Y-13014354D01*
X49661658Y-13071950D01*
X49661657Y-13071951D01*
X49661652Y-13071954D01*
X49571954Y-13161652D01*
X49571951Y-13161657D01*
X49571950Y-13161658D01*
X49553867Y-13197148D01*
X49514352Y-13274698D01*
X49499500Y-13368475D01*
X49499500Y-13731517D01*
X49514354Y-13825305D01*
X49517369Y-13834582D01*
X49514321Y-13835572D01*
X49524142Y-13887883D01*
X49497861Y-13952622D01*
X49440752Y-13992875D01*
X49400762Y-13999500D01*
X49137459Y-13999500D01*
X49070420Y-13979815D01*
X49024665Y-13927011D01*
X49021790Y-13920071D01*
X49021625Y-13919769D01*
X48939692Y-13810318D01*
X48939686Y-13810312D01*
X48925188Y-13799459D01*
X48883317Y-13743524D01*
X48875500Y-13700193D01*
X48875500Y-13531034D01*
X48895185Y-13463995D01*
X48925185Y-13431770D01*
X48957546Y-13407546D01*
X49043796Y-13292331D01*
X49094091Y-13157483D01*
X49100500Y-13097873D01*
X49100499Y-11702128D01*
X49094091Y-11642517D01*
X49068819Y-11574760D01*
X49043797Y-11507671D01*
X49043793Y-11507664D01*
X48979664Y-11422000D01*
X48957546Y-11392454D01*
X48874428Y-11330232D01*
X48832559Y-11274300D01*
X48827575Y-11204608D01*
X48861060Y-11143285D01*
X48879845Y-11127868D01*
X48944601Y-11084601D01*
X48999966Y-11001740D01*
X49014500Y-10928674D01*
X49014500Y-9451326D01*
X49014500Y-9451323D01*
X49014499Y-9451321D01*
X48999967Y-9378264D01*
X48999966Y-9378260D01*
X48987080Y-9358975D01*
X48944601Y-9295399D01*
X48882666Y-9254016D01*
X48861739Y-9240033D01*
X48861735Y-9240032D01*
X48788677Y-9225500D01*
X48788674Y-9225500D01*
X47311326Y-9225500D01*
X47311323Y-9225500D01*
X47238264Y-9240032D01*
X47238260Y-9240033D01*
X47155399Y-9295399D01*
X47100033Y-9378260D01*
X47100032Y-9378264D01*
X47085500Y-9451321D01*
X47085500Y-10928678D01*
X47100032Y-11001735D01*
X47100033Y-11001739D01*
X47100034Y-11001740D01*
X47155399Y-11084601D01*
X47220148Y-11127864D01*
X47238260Y-11139966D01*
X47238264Y-11139967D01*
X47311321Y-11154499D01*
X47311324Y-11154500D01*
X47311326Y-11154500D01*
X47537763Y-11154500D01*
X47604802Y-11174185D01*
X47650557Y-11226989D01*
X47660501Y-11296147D01*
X47631476Y-11359703D01*
X47612074Y-11377766D01*
X47592455Y-11392452D01*
X47592452Y-11392455D01*
X47506206Y-11507664D01*
X47506202Y-11507671D01*
X47455908Y-11642517D01*
X47449501Y-11702116D01*
X47449501Y-11702123D01*
X47449500Y-11702135D01*
X47449500Y-13097870D01*
X47449501Y-13097876D01*
X47455908Y-13157483D01*
X47506202Y-13292328D01*
X47506206Y-13292335D01*
X47514928Y-13303986D01*
X47539345Y-13369450D01*
X47524493Y-13437723D01*
X47475088Y-13487128D01*
X47406815Y-13501980D01*
X47363262Y-13490681D01*
X47358485Y-13488453D01*
X47197606Y-13435144D01*
X47098322Y-13425000D01*
X47075000Y-13425000D01*
X47075000Y-16974999D01*
X47098308Y-16974999D01*
X47098322Y-16974998D01*
X47197607Y-16964855D01*
X47358481Y-16911547D01*
X47358492Y-16911542D01*
X47502728Y-16822575D01*
X47502732Y-16822572D01*
X47622573Y-16702731D01*
X47658348Y-16644731D01*
X47710296Y-16598006D01*
X47779258Y-16586783D01*
X47838194Y-16610558D01*
X47919774Y-16671628D01*
X48047886Y-16719412D01*
X48104515Y-16725500D01*
X48645484Y-16725499D01*
X48702114Y-16719412D01*
X48830226Y-16671628D01*
X48885739Y-16630072D01*
X48896780Y-16621807D01*
X48962244Y-16597390D01*
X49030517Y-16612242D01*
X49046569Y-16622693D01*
X49122375Y-16680861D01*
X49122376Y-16680861D01*
X49122377Y-16680862D01*
X49155059Y-16694399D01*
X49256291Y-16736330D01*
X49383280Y-16753048D01*
X49399999Y-16755250D01*
X49400000Y-16755250D01*
X49400001Y-16755250D01*
X49414977Y-16753278D01*
X49543709Y-16736330D01*
X49677625Y-16680861D01*
X49792621Y-16592621D01*
X49880861Y-16477625D01*
X49936330Y-16343709D01*
X49955250Y-16200000D01*
X49955016Y-16198226D01*
X49947441Y-16140685D01*
X49958206Y-16071649D01*
X50004586Y-16019393D01*
X50070380Y-16000499D01*
X50825500Y-16000499D01*
X50892539Y-16020184D01*
X50938294Y-16072988D01*
X50949500Y-16124499D01*
X50949500Y-16703456D01*
X50929815Y-16770495D01*
X50913181Y-16791137D01*
X50491137Y-17213181D01*
X50429814Y-17246666D01*
X50403456Y-17249500D01*
X45962229Y-17249500D01*
X45895190Y-17229815D01*
X45874548Y-17213181D01*
X44959689Y-16298322D01*
X45875001Y-16298322D01*
X45885144Y-16397607D01*
X45938452Y-16558481D01*
X45938457Y-16558492D01*
X46027424Y-16702728D01*
X46027427Y-16702732D01*
X46147267Y-16822572D01*
X46147271Y-16822575D01*
X46291507Y-16911542D01*
X46291518Y-16911547D01*
X46452393Y-16964855D01*
X46551683Y-16974999D01*
X46575000Y-16974998D01*
X46575000Y-16250000D01*
X45875001Y-16250000D01*
X45875001Y-16298322D01*
X44959689Y-16298322D01*
X44363044Y-15701677D01*
X45875000Y-15701677D01*
X45875000Y-15750000D01*
X46575000Y-15750000D01*
X46575000Y-14650000D01*
X45875001Y-14650000D01*
X45875001Y-14698322D01*
X45885144Y-14797607D01*
X45938452Y-14958481D01*
X45938457Y-14958492D01*
X46027424Y-15102728D01*
X46027427Y-15102732D01*
X46037014Y-15112319D01*
X46070499Y-15173642D01*
X46065515Y-15243334D01*
X46037014Y-15287681D01*
X46027427Y-15297267D01*
X46027424Y-15297271D01*
X45938457Y-15441507D01*
X45938452Y-15441518D01*
X45885144Y-15602393D01*
X45875000Y-15701677D01*
X44363044Y-15701677D01*
X42179712Y-13518345D01*
X41761353Y-13099986D01*
X44250001Y-13099986D01*
X44260494Y-13202697D01*
X44315641Y-13369119D01*
X44315643Y-13369124D01*
X44407684Y-13518345D01*
X44531654Y-13642315D01*
X44680875Y-13734356D01*
X44680880Y-13734358D01*
X44847302Y-13789505D01*
X44847309Y-13789506D01*
X44950019Y-13799999D01*
X45074999Y-13799999D01*
X45575000Y-13799999D01*
X45699972Y-13799999D01*
X45699986Y-13799998D01*
X45770488Y-13792796D01*
X45839181Y-13805566D01*
X45890065Y-13853446D01*
X45906986Y-13921236D01*
X45900796Y-13955158D01*
X45885144Y-14002392D01*
X45875000Y-14101677D01*
X45875000Y-14150000D01*
X46575000Y-14150000D01*
X46575000Y-13424999D01*
X46551693Y-13425000D01*
X46551669Y-13425002D01*
X46498135Y-13430470D01*
X46429442Y-13417699D01*
X46378558Y-13369818D01*
X46361639Y-13302028D01*
X46367830Y-13268106D01*
X46389504Y-13202699D01*
X46389506Y-13202690D01*
X46399999Y-13099986D01*
X46400000Y-13099973D01*
X46400000Y-12650000D01*
X45575000Y-12650000D01*
X45575000Y-13799999D01*
X45074999Y-13799999D01*
X45075000Y-13799998D01*
X45075000Y-12650000D01*
X44250001Y-12650000D01*
X44250001Y-13099986D01*
X41761353Y-13099986D01*
X40361380Y-11700013D01*
X44250000Y-11700013D01*
X44250000Y-12150000D01*
X45075000Y-12150000D01*
X45575000Y-12150000D01*
X46399999Y-12150000D01*
X46399999Y-11700028D01*
X46399998Y-11700013D01*
X46389505Y-11597302D01*
X46334358Y-11430880D01*
X46334356Y-11430875D01*
X46242315Y-11281654D01*
X46118345Y-11157684D01*
X45969124Y-11065643D01*
X45969119Y-11065641D01*
X45802697Y-11010494D01*
X45802690Y-11010493D01*
X45699986Y-11000000D01*
X45575000Y-11000000D01*
X45575000Y-12150000D01*
X45075000Y-12150000D01*
X45075000Y-11000000D01*
X44950027Y-11000000D01*
X44950012Y-11000001D01*
X44847302Y-11010494D01*
X44680880Y-11065641D01*
X44680875Y-11065643D01*
X44531654Y-11157684D01*
X44407684Y-11281654D01*
X44315643Y-11430875D01*
X44315641Y-11430880D01*
X44260494Y-11597302D01*
X44260493Y-11597309D01*
X44250000Y-11700013D01*
X40361380Y-11700013D01*
X38452491Y-9791123D01*
X38452490Y-9791122D01*
X38452487Y-9791120D01*
X38372570Y-9744980D01*
X38372564Y-9744977D01*
X38368377Y-9743855D01*
X38368377Y-9743856D01*
X38325899Y-9732474D01*
X38283423Y-9721093D01*
X32259763Y-9721093D01*
X32174809Y-9743856D01*
X32174808Y-9743855D01*
X32170621Y-9744977D01*
X32170615Y-9744980D01*
X32090698Y-9791120D01*
X32090693Y-9791124D01*
X28949960Y-12931857D01*
X28888637Y-12965342D01*
X28818945Y-12960358D01*
X28763012Y-12918486D01*
X28740661Y-12868364D01*
X28736847Y-12849187D01*
X28736847Y-12800810D01*
X28739931Y-12785302D01*
X28772315Y-12723393D01*
X28773812Y-12721868D01*
X32483862Y-9011819D01*
X32545185Y-8978334D01*
X32571543Y-8975500D01*
X33229270Y-8975500D01*
X33259699Y-8972646D01*
X33259701Y-8972646D01*
X33323790Y-8950219D01*
X33387882Y-8927793D01*
X33497150Y-8847150D01*
X33577793Y-8737882D01*
X33600219Y-8673790D01*
X33622646Y-8609701D01*
X33622646Y-8609699D01*
X33625500Y-8579269D01*
X33625500Y-8070730D01*
X33622646Y-8040300D01*
X33622646Y-8040298D01*
X33582586Y-7925816D01*
X33577793Y-7912118D01*
X33497150Y-7802850D01*
X33387882Y-7722207D01*
X33387880Y-7722206D01*
X33259700Y-7677353D01*
X33229270Y-7674500D01*
X33229266Y-7674500D01*
X32570734Y-7674500D01*
X32570730Y-7674500D01*
X32540300Y-7677353D01*
X32540298Y-7677353D01*
X32412119Y-7722206D01*
X32412117Y-7722207D01*
X32302850Y-7802850D01*
X32223770Y-7910000D01*
X32168122Y-7952250D01*
X32098466Y-7957709D01*
X32036917Y-7924641D01*
X32003016Y-7863547D01*
X32000000Y-7836366D01*
X32000000Y-7702172D01*
X31999999Y-7702155D01*
X31993598Y-7642627D01*
X31993596Y-7642620D01*
X31943354Y-7507913D01*
X31943350Y-7507906D01*
X31857191Y-7392814D01*
X31857185Y-7392807D01*
X31800188Y-7350139D01*
X31758318Y-7294205D01*
X31750500Y-7250873D01*
X31750500Y-7149500D01*
X31770185Y-7082461D01*
X31822989Y-7036706D01*
X31874500Y-7025500D01*
X32114520Y-7025500D01*
X32181559Y-7045185D01*
X32215031Y-7081628D01*
X32216689Y-7080405D01*
X32222206Y-7087880D01*
X32222207Y-7087882D01*
X32302850Y-7197150D01*
X32412118Y-7277793D01*
X32446781Y-7289922D01*
X32540299Y-7322646D01*
X32570730Y-7325500D01*
X32570734Y-7325500D01*
X33229270Y-7325500D01*
X33259699Y-7322646D01*
X33259701Y-7322646D01*
X33340050Y-7294530D01*
X33387882Y-7277793D01*
X33497150Y-7197150D01*
X33577793Y-7087882D01*
X33600219Y-7023790D01*
X33622646Y-6959701D01*
X33622646Y-6959699D01*
X33625500Y-6929269D01*
X33625500Y-6420730D01*
X33622646Y-6390300D01*
X33622646Y-6390298D01*
X33589006Y-6294163D01*
X33577793Y-6262118D01*
X33497150Y-6152850D01*
X33387882Y-6072207D01*
X33387880Y-6072206D01*
X33259700Y-6027353D01*
X33229270Y-6024500D01*
X33229266Y-6024500D01*
X32570734Y-6024500D01*
X32570730Y-6024500D01*
X32540300Y-6027353D01*
X32540298Y-6027353D01*
X32412119Y-6072206D01*
X32412117Y-6072207D01*
X32302850Y-6152850D01*
X32216689Y-6269595D01*
X32214714Y-6268137D01*
X32175420Y-6308515D01*
X32114520Y-6324500D01*
X31874500Y-6324500D01*
X31807461Y-6304815D01*
X31761706Y-6252011D01*
X31750500Y-6200500D01*
X31750500Y-6025323D01*
X31750499Y-6025321D01*
X31735967Y-5952264D01*
X31735966Y-5952260D01*
X31723839Y-5934110D01*
X31680601Y-5869399D01*
X31597740Y-5814034D01*
X31597739Y-5814033D01*
X31597735Y-5814032D01*
X31524677Y-5799500D01*
X31524674Y-5799500D01*
X30724500Y-5799500D01*
X30657461Y-5779815D01*
X30611706Y-5727011D01*
X30600500Y-5675500D01*
X30600500Y-5596783D01*
X30620185Y-5529744D01*
X30672989Y-5483989D01*
X30681142Y-5480610D01*
X30705226Y-5471628D01*
X30814687Y-5389687D01*
X30896628Y-5280226D01*
X30944412Y-5152114D01*
X30948264Y-5116282D01*
X30950499Y-5095501D01*
X30950499Y-5095494D01*
X30950500Y-5095485D01*
X30950499Y-4504516D01*
X30944412Y-4447886D01*
X30896628Y-4319774D01*
X30814687Y-4210313D01*
X30741155Y-4155268D01*
X30705228Y-4128373D01*
X30705226Y-4128372D01*
X30577114Y-4080588D01*
X30577112Y-4080587D01*
X30577110Y-4080587D01*
X30520493Y-4074500D01*
X29979518Y-4074500D01*
X29979509Y-4074501D01*
X29922885Y-4080587D01*
X29794771Y-4128373D01*
X29713195Y-4189439D01*
X29647730Y-4213855D01*
X29579458Y-4199002D01*
X29533347Y-4155268D01*
X29497571Y-4097266D01*
X29377732Y-3977427D01*
X29377728Y-3977424D01*
X29233492Y-3888457D01*
X29233481Y-3888452D01*
X29072606Y-3835144D01*
X28973322Y-3825000D01*
X28950000Y-3825000D01*
X28950000Y-5694000D01*
X28930315Y-5761039D01*
X28877511Y-5806794D01*
X28856672Y-5811327D01*
X28850000Y-5818000D01*
X28850000Y-6776000D01*
X28830315Y-6843039D01*
X28777511Y-6888794D01*
X28726000Y-6900000D01*
X28474000Y-6900000D01*
X28406961Y-6880315D01*
X28361206Y-6827511D01*
X28350000Y-6776000D01*
X28350000Y-5631000D01*
X28369685Y-5563961D01*
X28422489Y-5518206D01*
X28443327Y-5513672D01*
X28450000Y-5507000D01*
X28450000Y-5050000D01*
X27750001Y-5050000D01*
X27750001Y-5098322D01*
X27760144Y-5197607D01*
X27813452Y-5358481D01*
X27813457Y-5358492D01*
X27829534Y-5384556D01*
X27847975Y-5451948D01*
X27827053Y-5518612D01*
X27773411Y-5563381D01*
X27767330Y-5565835D01*
X27657912Y-5606646D01*
X27657907Y-5606648D01*
X27628931Y-5628340D01*
X27563467Y-5652756D01*
X27495194Y-5637904D01*
X27445789Y-5588498D01*
X27436916Y-5568076D01*
X27411547Y-5491518D01*
X27411542Y-5491507D01*
X27322575Y-5347271D01*
X27322572Y-5347267D01*
X27202732Y-5227427D01*
X27202728Y-5227424D01*
X27058492Y-5138457D01*
X27058481Y-5138452D01*
X26897606Y-5085144D01*
X26798322Y-5075000D01*
X26750000Y-5075000D01*
X26750000Y-6151000D01*
X26730315Y-6218039D01*
X26677511Y-6263794D01*
X26626000Y-6275000D01*
X25525001Y-6275000D01*
X25525001Y-6298322D01*
X25535144Y-6397607D01*
X25588452Y-6558481D01*
X25588457Y-6558492D01*
X25677424Y-6702728D01*
X25677427Y-6702732D01*
X25797266Y-6822571D01*
X25855268Y-6858347D01*
X25901992Y-6910295D01*
X25913215Y-6979258D01*
X25889439Y-7038195D01*
X25828374Y-7119769D01*
X25828372Y-7119773D01*
X25828372Y-7119774D01*
X25802514Y-7189102D01*
X25780587Y-7247889D01*
X25774500Y-7304498D01*
X25774500Y-7845481D01*
X25774501Y-7845490D01*
X25780587Y-7902114D01*
X25816348Y-7997989D01*
X25828372Y-8030226D01*
X25910313Y-8139687D01*
X26019774Y-8221628D01*
X26147886Y-8269412D01*
X26204515Y-8275500D01*
X26795484Y-8275499D01*
X26852114Y-8269412D01*
X26980226Y-8221628D01*
X27089687Y-8139687D01*
X27171628Y-8030226D01*
X27180602Y-8006163D01*
X27222473Y-7950233D01*
X27287937Y-7925816D01*
X27296783Y-7925500D01*
X27525500Y-7925500D01*
X27592539Y-7945185D01*
X27638294Y-7997989D01*
X27649500Y-8049500D01*
X27649500Y-8753456D01*
X27629815Y-8820495D01*
X27613181Y-8841137D01*
X26719532Y-9734785D01*
X26719528Y-9734791D01*
X26673554Y-9814418D01*
X26673555Y-9814419D01*
X26673384Y-9814714D01*
X26649500Y-9903856D01*
X26649500Y-13063633D01*
X26649501Y-13063646D01*
X26649501Y-13088649D01*
X26673384Y-13177785D01*
X26673385Y-13177786D01*
X26673386Y-13177788D01*
X26719530Y-13257712D01*
X26819531Y-13357712D01*
X26884788Y-13422969D01*
X26884791Y-13422970D01*
X26884794Y-13422973D01*
X26964706Y-13469111D01*
X26964708Y-13469112D01*
X26964712Y-13469114D01*
X26964715Y-13469114D01*
X26972216Y-13472222D01*
X26970925Y-13475337D01*
X27017239Y-13503555D01*
X27047779Y-13566396D01*
X27049500Y-13586981D01*
X27049500Y-14002174D01*
X27049500Y-14002176D01*
X27049499Y-14002176D01*
X27063152Y-14070808D01*
X27063152Y-14119192D01*
X27049500Y-14187823D01*
X27049500Y-14204752D01*
X27029815Y-14271791D01*
X26977011Y-14317546D01*
X26907853Y-14327490D01*
X26878049Y-14319314D01*
X26794577Y-14284740D01*
X26743709Y-14263670D01*
X26620987Y-14247513D01*
X26600001Y-14244750D01*
X26599998Y-14244750D01*
X26453347Y-14264057D01*
X26384312Y-14253291D01*
X26349481Y-14228799D01*
X26311819Y-14191137D01*
X26278334Y-14129814D01*
X26275500Y-14103456D01*
X26275500Y-13670730D01*
X26272646Y-13640300D01*
X26272646Y-13640298D01*
X26229972Y-13518345D01*
X26227793Y-13512118D01*
X26147150Y-13402850D01*
X26037882Y-13322207D01*
X26037880Y-13322206D01*
X25909700Y-13277353D01*
X25879270Y-13274500D01*
X25879266Y-13274500D01*
X25370734Y-13274500D01*
X25370730Y-13274500D01*
X25340300Y-13277353D01*
X25340298Y-13277353D01*
X25212119Y-13322206D01*
X25212117Y-13322207D01*
X25102850Y-13402850D01*
X25022207Y-13512117D01*
X25022206Y-13512119D01*
X24977353Y-13640298D01*
X24977353Y-13640300D01*
X24974500Y-13670730D01*
X24974500Y-14329269D01*
X24977353Y-14359699D01*
X24977353Y-14359701D01*
X25019975Y-14481504D01*
X25022207Y-14487882D01*
X25102850Y-14597150D01*
X25212118Y-14677793D01*
X25254845Y-14692744D01*
X25340299Y-14722646D01*
X25370730Y-14725500D01*
X25370734Y-14725500D01*
X25803456Y-14725500D01*
X25870495Y-14745185D01*
X25891137Y-14761819D01*
X25994143Y-14864825D01*
X26027628Y-14926148D01*
X26022644Y-14995840D01*
X25980772Y-15051773D01*
X25915308Y-15076190D01*
X25894887Y-15075965D01*
X25879266Y-15074500D01*
X25370734Y-15074500D01*
X25370730Y-15074500D01*
X25340300Y-15077353D01*
X25340298Y-15077353D01*
X25212119Y-15122206D01*
X25212117Y-15122207D01*
X25102850Y-15202850D01*
X25022207Y-15312117D01*
X25022206Y-15312119D01*
X24977353Y-15440298D01*
X24977353Y-15440300D01*
X24974500Y-15470730D01*
X24974500Y-16129269D01*
X24977353Y-16159699D01*
X24977353Y-16159701D01*
X25020656Y-16283450D01*
X25022207Y-16287882D01*
X25102850Y-16397150D01*
X25212118Y-16477793D01*
X25254845Y-16492744D01*
X25340299Y-16522646D01*
X25370730Y-16525500D01*
X25370734Y-16525500D01*
X25879270Y-16525500D01*
X25909699Y-16522646D01*
X25909701Y-16522646D01*
X25973790Y-16500219D01*
X26037882Y-16477793D01*
X26147150Y-16397150D01*
X26154289Y-16387475D01*
X26209934Y-16345224D01*
X26270245Y-16338167D01*
X26373294Y-16351734D01*
X26399999Y-16355250D01*
X26400000Y-16355250D01*
X26400001Y-16355250D01*
X26414977Y-16353278D01*
X26543709Y-16336330D01*
X26677625Y-16280861D01*
X26792621Y-16192621D01*
X26827125Y-16147653D01*
X26883552Y-16106452D01*
X26953298Y-16102297D01*
X27014218Y-16136509D01*
X27046971Y-16198226D01*
X27049500Y-16223141D01*
X27049500Y-16542174D01*
X27049500Y-16542176D01*
X27049499Y-16542176D01*
X27063152Y-16610808D01*
X27063152Y-16659192D01*
X27049500Y-16727823D01*
X27049500Y-17113000D01*
X27029815Y-17180039D01*
X26977011Y-17225794D01*
X26925500Y-17237000D01*
X26553856Y-17237000D01*
X26468712Y-17259814D01*
X26468711Y-17259814D01*
X26464713Y-17260884D01*
X26464707Y-17260887D01*
X26460459Y-17263340D01*
X26392558Y-17279807D01*
X26326533Y-17256949D01*
X26283908Y-17203403D01*
X26250346Y-17122375D01*
X26162106Y-17007379D01*
X26047110Y-16919139D01*
X26047109Y-16919138D01*
X26047107Y-16919137D01*
X25913197Y-16863671D01*
X25913195Y-16863670D01*
X25913194Y-16863670D01*
X25841339Y-16854210D01*
X25769486Y-16844750D01*
X25769484Y-16844750D01*
X25625776Y-16863670D01*
X25625772Y-16863671D01*
X25491862Y-16919137D01*
X25376864Y-17007379D01*
X25288623Y-17122376D01*
X25282566Y-17137000D01*
X25267674Y-17172953D01*
X25223836Y-17227355D01*
X25157542Y-17249421D01*
X25153114Y-17249500D01*
X14762230Y-17249500D01*
X14695191Y-17229815D01*
X14674549Y-17213181D01*
X13673548Y-16212180D01*
X13640063Y-16150857D01*
X13645047Y-16081165D01*
X13686919Y-16025232D01*
X13752383Y-16000815D01*
X13761229Y-16000499D01*
X14431517Y-16000499D01*
X14431518Y-16000499D01*
X14525304Y-15985646D01*
X14638342Y-15928050D01*
X14728050Y-15838342D01*
X14785646Y-15725304D01*
X14785646Y-15725302D01*
X14785647Y-15725301D01*
X14800499Y-15631524D01*
X14800500Y-15631519D01*
X14800499Y-15268482D01*
X14796745Y-15244780D01*
X14805698Y-15175490D01*
X14831538Y-15137700D01*
X14917678Y-15051561D01*
X14917685Y-15051552D01*
X15001281Y-14910198D01*
X15047100Y-14752486D01*
X15047295Y-14750001D01*
X15047295Y-14750000D01*
X13799000Y-14750000D01*
X13731961Y-14730315D01*
X13686206Y-14677511D01*
X13675000Y-14626000D01*
X13675000Y-14374000D01*
X13694685Y-14306961D01*
X13747489Y-14261206D01*
X13799000Y-14250000D01*
X15047295Y-14250000D01*
X15047295Y-14249998D01*
X15047100Y-14247513D01*
X15001281Y-14089801D01*
X14917685Y-13948447D01*
X14917678Y-13948438D01*
X14831538Y-13862298D01*
X14798053Y-13800975D01*
X14796746Y-13755219D01*
X14800500Y-13731519D01*
X14800500Y-13698855D01*
X16524500Y-13698855D01*
X16524500Y-14301144D01*
X16530509Y-14357024D01*
X16577662Y-14483447D01*
X16577664Y-14483450D01*
X16649684Y-14579658D01*
X16649767Y-14579768D01*
X16674184Y-14645233D01*
X16674500Y-14654079D01*
X16674500Y-15132711D01*
X16654815Y-15199750D01*
X16650271Y-15206344D01*
X16572207Y-15312118D01*
X16572206Y-15312119D01*
X16527353Y-15440298D01*
X16527353Y-15440300D01*
X16524500Y-15470730D01*
X16524500Y-16129269D01*
X16527353Y-16159699D01*
X16527353Y-16159701D01*
X16570656Y-16283450D01*
X16572207Y-16287882D01*
X16652850Y-16397150D01*
X16762118Y-16477793D01*
X16804845Y-16492744D01*
X16890299Y-16522646D01*
X16920730Y-16525500D01*
X16920734Y-16525500D01*
X17429270Y-16525500D01*
X17459699Y-16522646D01*
X17459701Y-16522646D01*
X17523790Y-16500219D01*
X17587882Y-16477793D01*
X17697150Y-16397150D01*
X17759259Y-16312994D01*
X17814905Y-16270745D01*
X17884561Y-16265286D01*
X17946111Y-16298353D01*
X17977413Y-16349737D01*
X17981981Y-16364397D01*
X18069927Y-16509877D01*
X18190122Y-16630072D01*
X18335604Y-16718019D01*
X18335603Y-16718019D01*
X18497894Y-16768590D01*
X18497893Y-16768590D01*
X18568408Y-16774998D01*
X18568426Y-16774999D01*
X18574999Y-16774998D01*
X18575000Y-16774998D01*
X18575000Y-15674000D01*
X18594685Y-15606961D01*
X18647489Y-15561206D01*
X18699000Y-15550000D01*
X18951000Y-15550000D01*
X19018039Y-15569685D01*
X19063794Y-15622489D01*
X19075000Y-15674000D01*
X19075000Y-16774999D01*
X19081581Y-16774999D01*
X19152102Y-16768591D01*
X19152107Y-16768590D01*
X19314396Y-16718018D01*
X19459877Y-16630072D01*
X19580072Y-16509877D01*
X19668017Y-16364399D01*
X19714840Y-16214137D01*
X19753578Y-16155989D01*
X19817603Y-16128015D01*
X19886588Y-16139096D01*
X19938631Y-16185715D01*
X19949408Y-16207693D01*
X19977663Y-16283449D01*
X19977664Y-16283450D01*
X20058528Y-16391472D01*
X20162644Y-16469412D01*
X20166549Y-16472335D01*
X20166552Y-16472337D01*
X20274293Y-16512522D01*
X20292978Y-16519491D01*
X20322318Y-16522645D01*
X20348855Y-16525499D01*
X20348870Y-16525500D01*
X20876130Y-16525500D01*
X20876144Y-16525499D01*
X20898023Y-16523146D01*
X20932022Y-16519491D01*
X21058450Y-16472336D01*
X21166472Y-16391472D01*
X21247336Y-16283450D01*
X21278461Y-16200000D01*
X21283818Y-16185638D01*
X21325689Y-16129704D01*
X21391153Y-16105287D01*
X21459426Y-16120139D01*
X21508832Y-16169544D01*
X21516182Y-16185638D01*
X21552662Y-16283447D01*
X21552664Y-16283450D01*
X21633528Y-16391472D01*
X21737644Y-16469412D01*
X21741549Y-16472335D01*
X21741552Y-16472337D01*
X21849293Y-16512522D01*
X21867978Y-16519491D01*
X21897318Y-16522645D01*
X21923855Y-16525499D01*
X21923870Y-16525500D01*
X22451130Y-16525500D01*
X22451144Y-16525499D01*
X22473023Y-16523146D01*
X22507022Y-16519491D01*
X22633450Y-16472336D01*
X22741472Y-16391472D01*
X22761739Y-16364399D01*
X22772377Y-16350189D01*
X22828311Y-16308318D01*
X22871643Y-16300500D01*
X23318921Y-16300500D01*
X23385960Y-16320185D01*
X23418690Y-16350865D01*
X23428677Y-16364397D01*
X23452848Y-16397148D01*
X23452850Y-16397150D01*
X23562118Y-16477793D01*
X23604845Y-16492744D01*
X23690299Y-16522646D01*
X23720730Y-16525500D01*
X23720734Y-16525500D01*
X24229270Y-16525500D01*
X24259699Y-16522646D01*
X24259701Y-16522646D01*
X24323790Y-16500219D01*
X24387882Y-16477793D01*
X24497150Y-16397150D01*
X24577793Y-16287882D01*
X24608544Y-16200000D01*
X24622646Y-16159701D01*
X24622646Y-16159699D01*
X24625500Y-16129269D01*
X24625500Y-15470730D01*
X24622646Y-15440300D01*
X24622646Y-15440298D01*
X24582405Y-15325299D01*
X24577793Y-15312118D01*
X24497150Y-15202850D01*
X24387882Y-15122207D01*
X24387880Y-15122206D01*
X24259700Y-15077353D01*
X24229270Y-15074500D01*
X24229266Y-15074500D01*
X23720734Y-15074500D01*
X23720730Y-15074500D01*
X23690300Y-15077353D01*
X23690298Y-15077353D01*
X23562119Y-15122206D01*
X23562117Y-15122207D01*
X23452850Y-15202850D01*
X23452848Y-15202851D01*
X23432846Y-15229954D01*
X23421927Y-15244750D01*
X23418692Y-15249133D01*
X23363044Y-15291384D01*
X23318921Y-15299500D01*
X22871643Y-15299500D01*
X22804604Y-15279815D01*
X22772377Y-15249811D01*
X22741474Y-15208530D01*
X22741472Y-15208529D01*
X22741472Y-15208528D01*
X22633450Y-15127664D01*
X22633447Y-15127662D01*
X22507024Y-15080509D01*
X22451144Y-15074500D01*
X22451130Y-15074500D01*
X22073803Y-15074500D01*
X22006764Y-15054815D01*
X21961009Y-15002011D01*
X21950864Y-14966685D01*
X21937567Y-14865685D01*
X21948333Y-14796650D01*
X21994713Y-14744394D01*
X22060506Y-14725500D01*
X22451130Y-14725500D01*
X22451144Y-14725499D01*
X22473023Y-14723146D01*
X22507022Y-14719491D01*
X22633450Y-14672336D01*
X22741472Y-14591472D01*
X22750316Y-14579658D01*
X22772377Y-14550189D01*
X22828311Y-14508318D01*
X22871643Y-14500500D01*
X23318921Y-14500500D01*
X23385960Y-14520185D01*
X23418692Y-14550867D01*
X23452848Y-14597148D01*
X23452850Y-14597150D01*
X23562118Y-14677793D01*
X23604845Y-14692744D01*
X23690299Y-14722646D01*
X23720730Y-14725500D01*
X23720734Y-14725500D01*
X24229270Y-14725500D01*
X24259699Y-14722646D01*
X24259701Y-14722646D01*
X24329213Y-14698322D01*
X24387882Y-14677793D01*
X24497150Y-14597150D01*
X24577793Y-14487882D01*
X24617642Y-14374000D01*
X24622646Y-14359701D01*
X24622646Y-14359699D01*
X24625500Y-14329269D01*
X24625500Y-13670730D01*
X24622646Y-13640300D01*
X24622646Y-13640298D01*
X24579972Y-13518345D01*
X24577793Y-13512118D01*
X24497150Y-13402850D01*
X24387882Y-13322207D01*
X24387880Y-13322206D01*
X24259700Y-13277353D01*
X24229270Y-13274500D01*
X24229266Y-13274500D01*
X23720734Y-13274500D01*
X23720730Y-13274500D01*
X23690300Y-13277353D01*
X23690298Y-13277353D01*
X23562119Y-13322206D01*
X23562117Y-13322207D01*
X23452850Y-13402850D01*
X23452848Y-13402851D01*
X23418692Y-13449133D01*
X23363044Y-13491384D01*
X23318921Y-13499500D01*
X22871643Y-13499500D01*
X22804604Y-13479815D01*
X22772377Y-13449811D01*
X22741474Y-13408530D01*
X22741472Y-13408529D01*
X22741472Y-13408528D01*
X22633450Y-13327664D01*
X22633447Y-13327662D01*
X22507024Y-13280509D01*
X22451144Y-13274500D01*
X22451130Y-13274500D01*
X21923870Y-13274500D01*
X21923855Y-13274500D01*
X21867975Y-13280509D01*
X21741552Y-13327662D01*
X21741549Y-13327664D01*
X21633528Y-13408528D01*
X21552664Y-13516549D01*
X21552662Y-13516552D01*
X21516182Y-13614361D01*
X21474311Y-13670295D01*
X21408846Y-13694712D01*
X21340573Y-13679860D01*
X21291168Y-13630455D01*
X21283818Y-13614361D01*
X21247337Y-13516552D01*
X21247335Y-13516549D01*
X21166472Y-13408528D01*
X21058450Y-13327664D01*
X21058447Y-13327662D01*
X20932024Y-13280509D01*
X20876144Y-13274500D01*
X20876130Y-13274500D01*
X20348870Y-13274500D01*
X20348855Y-13274500D01*
X20292975Y-13280509D01*
X20166552Y-13327662D01*
X20166549Y-13327664D01*
X20058525Y-13408530D01*
X20027623Y-13449811D01*
X19971689Y-13491682D01*
X19928357Y-13499500D01*
X19471643Y-13499500D01*
X19404604Y-13479815D01*
X19372377Y-13449811D01*
X19341474Y-13408530D01*
X19341472Y-13408529D01*
X19341472Y-13408528D01*
X19233450Y-13327664D01*
X19233447Y-13327662D01*
X19107024Y-13280509D01*
X19051144Y-13274500D01*
X19051130Y-13274500D01*
X18523870Y-13274500D01*
X18523855Y-13274500D01*
X18467975Y-13280509D01*
X18341552Y-13327662D01*
X18341549Y-13327664D01*
X18233528Y-13408528D01*
X18152664Y-13516549D01*
X18152662Y-13516552D01*
X18116182Y-13614361D01*
X18074311Y-13670295D01*
X18008846Y-13694712D01*
X17940573Y-13679860D01*
X17891168Y-13630455D01*
X17883818Y-13614361D01*
X17847337Y-13516552D01*
X17847335Y-13516549D01*
X17766472Y-13408528D01*
X17658450Y-13327664D01*
X17658447Y-13327662D01*
X17532024Y-13280509D01*
X17476144Y-13274500D01*
X17476130Y-13274500D01*
X16948870Y-13274500D01*
X16948855Y-13274500D01*
X16892975Y-13280509D01*
X16766552Y-13327662D01*
X16766549Y-13327664D01*
X16658528Y-13408528D01*
X16577664Y-13516549D01*
X16577662Y-13516552D01*
X16530509Y-13642975D01*
X16524500Y-13698855D01*
X14800500Y-13698855D01*
X14800499Y-13368482D01*
X14785646Y-13274696D01*
X14728050Y-13161658D01*
X14728046Y-13161654D01*
X14728045Y-13161652D01*
X14638347Y-13071954D01*
X14638344Y-13071952D01*
X14638342Y-13071950D01*
X14561517Y-13032805D01*
X14525301Y-13014352D01*
X14431524Y-12999500D01*
X13418478Y-12999500D01*
X13393894Y-13003394D01*
X13324601Y-12994437D01*
X13271150Y-12949439D01*
X13250513Y-12882686D01*
X13250500Y-12880920D01*
X13250500Y-10836544D01*
X13270185Y-10769505D01*
X13286813Y-10748868D01*
X13304443Y-10731238D01*
X13365762Y-10697754D01*
X13428119Y-10700258D01*
X13560925Y-10740545D01*
X13750000Y-10759167D01*
X13939075Y-10740545D01*
X14120884Y-10685394D01*
X14121281Y-10685182D01*
X14288434Y-10595837D01*
X14288436Y-10595834D01*
X14288440Y-10595833D01*
X14435305Y-10475305D01*
X14555833Y-10328440D01*
X14555834Y-10328436D01*
X14555837Y-10328434D01*
X14629832Y-10189999D01*
X15031363Y-10189999D01*
X15031363Y-10190000D01*
X15049876Y-10401609D01*
X15049878Y-10401619D01*
X15104853Y-10606790D01*
X15104858Y-10606804D01*
X15194626Y-10799313D01*
X15194628Y-10799317D01*
X15232723Y-10853723D01*
X15799697Y-10286749D01*
X15821349Y-10367553D01*
X15881909Y-10472446D01*
X15967554Y-10558091D01*
X16072447Y-10618651D01*
X16153249Y-10640302D01*
X15586275Y-11207275D01*
X15640682Y-11245371D01*
X15640684Y-11245372D01*
X15833195Y-11335141D01*
X15833209Y-11335146D01*
X16038380Y-11390121D01*
X16038390Y-11390123D01*
X16249999Y-11408637D01*
X16250001Y-11408637D01*
X16461609Y-11390123D01*
X16461619Y-11390121D01*
X16666790Y-11335146D01*
X16666804Y-11335141D01*
X16859315Y-11245372D01*
X16859319Y-11245370D01*
X16913723Y-11207275D01*
X16346750Y-10640302D01*
X16427553Y-10618651D01*
X16532446Y-10558091D01*
X16618091Y-10472446D01*
X16678651Y-10367553D01*
X16700302Y-10286749D01*
X17267275Y-10853722D01*
X17305370Y-10799319D01*
X17305372Y-10799315D01*
X17395141Y-10606804D01*
X17395146Y-10606790D01*
X17450121Y-10401619D01*
X17450123Y-10401609D01*
X17468637Y-10190000D01*
X17468637Y-10189999D01*
X17450123Y-9978390D01*
X17450121Y-9978380D01*
X17395146Y-9773209D01*
X17395141Y-9773195D01*
X17305370Y-9580681D01*
X17305369Y-9580679D01*
X17267276Y-9526276D01*
X17267275Y-9526275D01*
X16700302Y-10093249D01*
X16678651Y-10012447D01*
X16618091Y-9907554D01*
X16532446Y-9821909D01*
X16427553Y-9761349D01*
X16346750Y-9739697D01*
X16602729Y-9483718D01*
X21322500Y-9483718D01*
X21322500Y-9716281D01*
X21358881Y-9945983D01*
X21358881Y-9945986D01*
X21430745Y-10167160D01*
X21495535Y-10294318D01*
X21536328Y-10374379D01*
X21673026Y-10562527D01*
X21837473Y-10726974D01*
X22025621Y-10863672D01*
X22232837Y-10969253D01*
X22232839Y-10969254D01*
X22454014Y-11041118D01*
X22454015Y-11041118D01*
X22454018Y-11041119D01*
X22683718Y-11077500D01*
X22683719Y-11077500D01*
X22916281Y-11077500D01*
X22916282Y-11077500D01*
X23145982Y-11041119D01*
X23145985Y-11041118D01*
X23145986Y-11041118D01*
X23367160Y-10969254D01*
X23367160Y-10969253D01*
X23367163Y-10969253D01*
X23574379Y-10863672D01*
X23762527Y-10726974D01*
X23926974Y-10562527D01*
X24063672Y-10374379D01*
X24169253Y-10167163D01*
X24219523Y-10012447D01*
X24241118Y-9945986D01*
X24241118Y-9945985D01*
X24241119Y-9945982D01*
X24277500Y-9716282D01*
X24277500Y-9483718D01*
X24241119Y-9254018D01*
X24241118Y-9254014D01*
X24241118Y-9254013D01*
X24169254Y-9032839D01*
X24147363Y-8989876D01*
X24063672Y-8825621D01*
X23926974Y-8637473D01*
X23762527Y-8473026D01*
X23574379Y-8336328D01*
X23473422Y-8284888D01*
X23367160Y-8230745D01*
X23145985Y-8158881D01*
X22973707Y-8131595D01*
X22916282Y-8122500D01*
X22683718Y-8122500D01*
X22607151Y-8134627D01*
X22454016Y-8158881D01*
X22454013Y-8158881D01*
X22232839Y-8230745D01*
X22025620Y-8336328D01*
X21918275Y-8414319D01*
X21837473Y-8473026D01*
X21837471Y-8473028D01*
X21837470Y-8473028D01*
X21673028Y-8637470D01*
X21673028Y-8637471D01*
X21673026Y-8637473D01*
X21614319Y-8718275D01*
X21536328Y-8825620D01*
X21430745Y-9032839D01*
X21358881Y-9254013D01*
X21358881Y-9254016D01*
X21322500Y-9483718D01*
X16602729Y-9483718D01*
X16913723Y-9172723D01*
X16859317Y-9134628D01*
X16859313Y-9134626D01*
X16666804Y-9044858D01*
X16666790Y-9044853D01*
X16461619Y-8989878D01*
X16461609Y-8989876D01*
X16250001Y-8971363D01*
X16249999Y-8971363D01*
X16038390Y-8989876D01*
X16038380Y-8989878D01*
X15833209Y-9044853D01*
X15833195Y-9044858D01*
X15640683Y-9134627D01*
X15586276Y-9172723D01*
X16153250Y-9739697D01*
X16072447Y-9761349D01*
X15967554Y-9821909D01*
X15881909Y-9907554D01*
X15821349Y-10012447D01*
X15799697Y-10093250D01*
X15232723Y-9526276D01*
X15194627Y-9580683D01*
X15104858Y-9773195D01*
X15104853Y-9773209D01*
X15049878Y-9978380D01*
X15049876Y-9978390D01*
X15031363Y-10189999D01*
X14629832Y-10189999D01*
X14645392Y-10160888D01*
X14645392Y-10160887D01*
X14645394Y-10160884D01*
X14700545Y-9979075D01*
X14719167Y-9790000D01*
X14700545Y-9600925D01*
X14645394Y-9419116D01*
X14645392Y-9419113D01*
X14645392Y-9419111D01*
X14555837Y-9251565D01*
X14555832Y-9251559D01*
X14435305Y-9104694D01*
X14288440Y-8984167D01*
X14288434Y-8984162D01*
X14120888Y-8894607D01*
X13939073Y-8839454D01*
X13750000Y-8820833D01*
X13560926Y-8839454D01*
X13379111Y-8894607D01*
X13211565Y-8984162D01*
X13211559Y-8984167D01*
X13064694Y-9104694D01*
X12944167Y-9251559D01*
X12944162Y-9251565D01*
X12859358Y-9410224D01*
X12810396Y-9460069D01*
X12742258Y-9475529D01*
X12676578Y-9451697D01*
X12640642Y-9410224D01*
X12555837Y-9251565D01*
X12555832Y-9251559D01*
X12435305Y-9104694D01*
X12288440Y-8984167D01*
X12288434Y-8984162D01*
X12120888Y-8894607D01*
X11939073Y-8839454D01*
X11750000Y-8820833D01*
X11560926Y-8839454D01*
X11379111Y-8894607D01*
X11211565Y-8984162D01*
X11211559Y-8984167D01*
X11064694Y-9104694D01*
X10944167Y-9251559D01*
X10944162Y-9251565D01*
X10854607Y-9419111D01*
X10799454Y-9600926D01*
X10780833Y-9790000D01*
X10799454Y-9979073D01*
X10854607Y-10160888D01*
X10944162Y-10328434D01*
X10944167Y-10328440D01*
X11064694Y-10475305D01*
X11211559Y-10595832D01*
X11211565Y-10595837D01*
X11379111Y-10685392D01*
X11379113Y-10685392D01*
X11379116Y-10685394D01*
X11560925Y-10740545D01*
X11750000Y-10759167D01*
X11939075Y-10740545D01*
X11989505Y-10725246D01*
X12059370Y-10724622D01*
X12118483Y-10761870D01*
X12148075Y-10825163D01*
X12149500Y-10843907D01*
X12149500Y-12875500D01*
X12129815Y-12942539D01*
X12077011Y-12988294D01*
X12025500Y-12999500D01*
X11068482Y-12999500D01*
X10987519Y-13012323D01*
X10974696Y-13014354D01*
X10861658Y-13071950D01*
X10861657Y-13071951D01*
X10861652Y-13071954D01*
X10771954Y-13161652D01*
X10771951Y-13161657D01*
X10771950Y-13161658D01*
X10753867Y-13197148D01*
X10714352Y-13274698D01*
X10699500Y-13368475D01*
X10699500Y-13731517D01*
X10714354Y-13825305D01*
X10717369Y-13834582D01*
X10714321Y-13835572D01*
X10724142Y-13887883D01*
X10697861Y-13952622D01*
X10640752Y-13992875D01*
X10600762Y-13999500D01*
X10337459Y-13999500D01*
X10270420Y-13979815D01*
X10224665Y-13927011D01*
X10221790Y-13920071D01*
X10221625Y-13919769D01*
X10139692Y-13810318D01*
X10139686Y-13810312D01*
X10125188Y-13799459D01*
X10083317Y-13743524D01*
X10075500Y-13700193D01*
X10075500Y-13531034D01*
X10095185Y-13463995D01*
X10125185Y-13431770D01*
X10157546Y-13407546D01*
X10243796Y-13292331D01*
X10294091Y-13157483D01*
X10300500Y-13097873D01*
X10300499Y-11702128D01*
X10294091Y-11642517D01*
X10268819Y-11574760D01*
X10243797Y-11507671D01*
X10243793Y-11507664D01*
X10179664Y-11422000D01*
X10157546Y-11392454D01*
X10074428Y-11330232D01*
X10032559Y-11274300D01*
X10027575Y-11204608D01*
X10061060Y-11143285D01*
X10079845Y-11127868D01*
X10144601Y-11084601D01*
X10199966Y-11001740D01*
X10214500Y-10928674D01*
X10214500Y-9451326D01*
X10214500Y-9451323D01*
X10214499Y-9451321D01*
X10199967Y-9378264D01*
X10199966Y-9378260D01*
X10187080Y-9358975D01*
X10144601Y-9295399D01*
X10082666Y-9254016D01*
X10061739Y-9240033D01*
X10061735Y-9240032D01*
X9988677Y-9225500D01*
X9988674Y-9225500D01*
X8511326Y-9225500D01*
X8511323Y-9225500D01*
X8438264Y-9240032D01*
X8438260Y-9240033D01*
X8355399Y-9295399D01*
X8300033Y-9378260D01*
X8300032Y-9378264D01*
X8285500Y-9451321D01*
X8285500Y-10928678D01*
X8300032Y-11001735D01*
X8300033Y-11001739D01*
X8300034Y-11001740D01*
X8355399Y-11084601D01*
X8420148Y-11127864D01*
X8438260Y-11139966D01*
X8438264Y-11139967D01*
X8511321Y-11154499D01*
X8511324Y-11154500D01*
X8511326Y-11154500D01*
X8625500Y-11154500D01*
X8692539Y-11174185D01*
X8738294Y-11226989D01*
X8749500Y-11278500D01*
X8749500Y-11408561D01*
X8729815Y-11475600D01*
X8724767Y-11482872D01*
X8706204Y-11507668D01*
X8706202Y-11507671D01*
X8655908Y-11642517D01*
X8649501Y-11702116D01*
X8649501Y-11702123D01*
X8649500Y-11702135D01*
X8649500Y-13097870D01*
X8649501Y-13097876D01*
X8655908Y-13157483D01*
X8706202Y-13292328D01*
X8706206Y-13292335D01*
X8714928Y-13303986D01*
X8739345Y-13369450D01*
X8724493Y-13437723D01*
X8675088Y-13487128D01*
X8606815Y-13501980D01*
X8563262Y-13490681D01*
X8558485Y-13488453D01*
X8397606Y-13435144D01*
X8298322Y-13425000D01*
X8275000Y-13425000D01*
X8275000Y-16974999D01*
X8298308Y-16974999D01*
X8298322Y-16974998D01*
X8397607Y-16964855D01*
X8558481Y-16911547D01*
X8558492Y-16911542D01*
X8702728Y-16822575D01*
X8702732Y-16822572D01*
X8822573Y-16702731D01*
X8844961Y-16666435D01*
X8896909Y-16619710D01*
X8965871Y-16608487D01*
X9029953Y-16636330D01*
X9068810Y-16694399D01*
X9074500Y-16731531D01*
X9074500Y-17341324D01*
X9054815Y-17408363D01*
X9038181Y-17429005D01*
X8804005Y-17663181D01*
X8742682Y-17696666D01*
X8716324Y-17699500D01*
X6658676Y-17699500D01*
X6591637Y-17679815D01*
X6570995Y-17663181D01*
X5752316Y-16844502D01*
X5752314Y-16844500D01*
X5659887Y-16791137D01*
X5638187Y-16778608D01*
X5551012Y-16755250D01*
X5510892Y-16744500D01*
X5510891Y-16744500D01*
X4737288Y-16744500D01*
X4670249Y-16724815D01*
X4663655Y-16720270D01*
X4557886Y-16642209D01*
X4557880Y-16642206D01*
X4429700Y-16597353D01*
X4399270Y-16594500D01*
X4399266Y-16594500D01*
X3740734Y-16594500D01*
X3740730Y-16594500D01*
X3710300Y-16597353D01*
X3710298Y-16597353D01*
X3582119Y-16642206D01*
X3582113Y-16642209D01*
X3476345Y-16720270D01*
X3410716Y-16744241D01*
X3402712Y-16744500D01*
X3067288Y-16744500D01*
X3000249Y-16724815D01*
X2993655Y-16720270D01*
X2887886Y-16642209D01*
X2887880Y-16642206D01*
X2759700Y-16597353D01*
X2729270Y-16594500D01*
X2729266Y-16594500D01*
X2070734Y-16594500D01*
X2070730Y-16594500D01*
X2040300Y-16597353D01*
X2040298Y-16597353D01*
X1912119Y-16642206D01*
X1912117Y-16642207D01*
X1802850Y-16722850D01*
X1722207Y-16832117D01*
X1722206Y-16832119D01*
X1677353Y-16960298D01*
X1677353Y-16960300D01*
X1674500Y-16990730D01*
X1674500Y-17499269D01*
X1677353Y-17529699D01*
X1677353Y-17529701D01*
X1721649Y-17656287D01*
X1722207Y-17657882D01*
X1802850Y-17767150D01*
X1912118Y-17847793D01*
X1940868Y-17857853D01*
X2040299Y-17892646D01*
X2070730Y-17895500D01*
X2070734Y-17895500D01*
X2729270Y-17895500D01*
X2759699Y-17892646D01*
X2759701Y-17892646D01*
X2836155Y-17865893D01*
X2887882Y-17847793D01*
X2936142Y-17812176D01*
X2993655Y-17769730D01*
X3059284Y-17745759D01*
X3067288Y-17745500D01*
X3402712Y-17745500D01*
X3469751Y-17765185D01*
X3476345Y-17769730D01*
X3582113Y-17847790D01*
X3582115Y-17847791D01*
X3582118Y-17847793D01*
X3610868Y-17857853D01*
X3710299Y-17892646D01*
X3740730Y-17895500D01*
X3740734Y-17895500D01*
X4399270Y-17895500D01*
X4429699Y-17892646D01*
X4429701Y-17892646D01*
X4506155Y-17865893D01*
X4557882Y-17847793D01*
X4606142Y-17812176D01*
X4663655Y-17769730D01*
X4729284Y-17745759D01*
X4737288Y-17745500D01*
X5186324Y-17745500D01*
X5253363Y-17765185D01*
X5274005Y-17781819D01*
X6092686Y-18600500D01*
X6169329Y-18644750D01*
X6202097Y-18663669D01*
X6206814Y-18666392D01*
X6334108Y-18700500D01*
X6334110Y-18700500D01*
X9040890Y-18700500D01*
X9040892Y-18700500D01*
X9168186Y-18666392D01*
X9282314Y-18600500D01*
X9487319Y-18395495D01*
X9548642Y-18362010D01*
X9618334Y-18366994D01*
X9662681Y-18395495D01*
X10455005Y-19187819D01*
X10488490Y-19249142D01*
X10483506Y-19318834D01*
X10441634Y-19374767D01*
X10376170Y-19399184D01*
X10367324Y-19399500D01*
X5121544Y-19399500D01*
X5054505Y-19379815D01*
X5033863Y-19363181D01*
X4831819Y-19161137D01*
X4798334Y-19099814D01*
X4795500Y-19073456D01*
X4795500Y-18640730D01*
X4792646Y-18610300D01*
X4792646Y-18610298D01*
X4759006Y-18514163D01*
X4747793Y-18482118D01*
X4667150Y-18372850D01*
X4557882Y-18292207D01*
X4557880Y-18292206D01*
X4429700Y-18247353D01*
X4399270Y-18244500D01*
X4399266Y-18244500D01*
X3740734Y-18244500D01*
X3740730Y-18244500D01*
X3710300Y-18247353D01*
X3710298Y-18247353D01*
X3582119Y-18292206D01*
X3582117Y-18292207D01*
X3472850Y-18372850D01*
X3392207Y-18482117D01*
X3392206Y-18482119D01*
X3352041Y-18596904D01*
X3311319Y-18653680D01*
X3246366Y-18679427D01*
X3177805Y-18665970D01*
X3127402Y-18617583D01*
X3117959Y-18596904D01*
X3089479Y-18515515D01*
X3077793Y-18482118D01*
X2997150Y-18372850D01*
X2887882Y-18292207D01*
X2887880Y-18292206D01*
X2759700Y-18247353D01*
X2729270Y-18244500D01*
X2729266Y-18244500D01*
X2070734Y-18244500D01*
X2070730Y-18244500D01*
X2040300Y-18247353D01*
X2040298Y-18247353D01*
X1912119Y-18292206D01*
X1912117Y-18292207D01*
X1802850Y-18372850D01*
X1722207Y-18482117D01*
X1722206Y-18482119D01*
X1677353Y-18610298D01*
X1677353Y-18610300D01*
X1674500Y-18640730D01*
X1674500Y-19149269D01*
X1677353Y-19179699D01*
X1677353Y-19179701D01*
X1718507Y-19297309D01*
X1722207Y-19307882D01*
X1802850Y-19417150D01*
X1912118Y-19497793D01*
X1939328Y-19507314D01*
X2040299Y-19542646D01*
X2070730Y-19545500D01*
X2070734Y-19545500D01*
X2503456Y-19545500D01*
X2570495Y-19565185D01*
X2591137Y-19581819D01*
X3439788Y-20430470D01*
X3511634Y-20471950D01*
X3519712Y-20476614D01*
X3608856Y-20500500D01*
X18956217Y-20500500D01*
X19023256Y-20520185D01*
X19043898Y-20536819D01*
X19211201Y-20704122D01*
X19244686Y-20765445D01*
X19245828Y-20791873D01*
X19247511Y-20791873D01*
X19247511Y-20800000D01*
X19262211Y-20911659D01*
X19266431Y-20943708D01*
X19266432Y-20943712D01*
X19321898Y-21077622D01*
X19321899Y-21077624D01*
X19321900Y-21077625D01*
X19410140Y-21192621D01*
X19520285Y-21277139D01*
X19561486Y-21333565D01*
X19565641Y-21403311D01*
X19531428Y-21464232D01*
X19469711Y-21496984D01*
X19444797Y-21499513D01*
X3673994Y-21499513D01*
X3673855Y-21499504D01*
X3665892Y-21499504D01*
X3603246Y-21499504D01*
X3596756Y-21499334D01*
X3282500Y-21482864D01*
X3269592Y-21481507D01*
X2961998Y-21432789D01*
X2949303Y-21430091D01*
X2648479Y-21349486D01*
X2636134Y-21345475D01*
X2458108Y-21277137D01*
X2345384Y-21233866D01*
X2333529Y-21228588D01*
X2056028Y-21087194D01*
X2044801Y-21080712D01*
X1794276Y-20918019D01*
X1783611Y-20911093D01*
X1773110Y-20903464D01*
X1531074Y-20707467D01*
X1521429Y-20698782D01*
X1301219Y-20478572D01*
X1292534Y-20468927D01*
X1261390Y-20430468D01*
X1096537Y-20226891D01*
X1088908Y-20216390D01*
X993282Y-20069139D01*
X919291Y-19955203D01*
X912803Y-19943967D01*
X903394Y-19925500D01*
X771407Y-19666462D01*
X766138Y-19654627D01*
X654524Y-19363864D01*
X650515Y-19351526D01*
X648421Y-19343712D01*
X569906Y-19050691D01*
X567210Y-19038001D01*
X566837Y-19035647D01*
X518493Y-18730411D01*
X517136Y-18717503D01*
X500670Y-18403322D01*
X500500Y-18396832D01*
X500500Y-16298322D01*
X7075001Y-16298322D01*
X7085144Y-16397607D01*
X7138452Y-16558481D01*
X7138457Y-16558492D01*
X7227424Y-16702728D01*
X7227427Y-16702732D01*
X7347267Y-16822572D01*
X7347271Y-16822575D01*
X7491507Y-16911542D01*
X7491518Y-16911547D01*
X7652393Y-16964855D01*
X7751683Y-16974999D01*
X7775000Y-16974998D01*
X7775000Y-16250000D01*
X7075001Y-16250000D01*
X7075001Y-16298322D01*
X500500Y-16298322D01*
X500500Y-15701677D01*
X7075000Y-15701677D01*
X7075000Y-15750000D01*
X7775000Y-15750000D01*
X7775000Y-14650000D01*
X7075001Y-14650000D01*
X7075001Y-14698322D01*
X7085144Y-14797607D01*
X7138452Y-14958481D01*
X7138457Y-14958492D01*
X7227424Y-15102728D01*
X7227427Y-15102732D01*
X7237014Y-15112319D01*
X7270499Y-15173642D01*
X7265515Y-15243334D01*
X7237014Y-15287681D01*
X7227427Y-15297267D01*
X7227424Y-15297271D01*
X7138457Y-15441507D01*
X7138452Y-15441518D01*
X7085144Y-15602393D01*
X7075000Y-15701677D01*
X500500Y-15701677D01*
X500500Y-13099986D01*
X5450001Y-13099986D01*
X5460494Y-13202697D01*
X5515641Y-13369119D01*
X5515643Y-13369124D01*
X5607684Y-13518345D01*
X5731654Y-13642315D01*
X5880875Y-13734356D01*
X5880880Y-13734358D01*
X6047302Y-13789505D01*
X6047309Y-13789506D01*
X6150019Y-13799999D01*
X6274999Y-13799999D01*
X6775000Y-13799999D01*
X6899972Y-13799999D01*
X6899986Y-13799998D01*
X6970488Y-13792796D01*
X7039181Y-13805566D01*
X7090065Y-13853446D01*
X7106986Y-13921236D01*
X7100796Y-13955158D01*
X7085144Y-14002392D01*
X7075000Y-14101677D01*
X7075000Y-14150000D01*
X7775000Y-14150000D01*
X7775000Y-13424999D01*
X7751693Y-13425000D01*
X7751669Y-13425002D01*
X7698135Y-13430470D01*
X7629442Y-13417699D01*
X7578558Y-13369818D01*
X7561639Y-13302028D01*
X7567830Y-13268106D01*
X7589504Y-13202699D01*
X7589506Y-13202690D01*
X7599999Y-13099986D01*
X7600000Y-13099973D01*
X7600000Y-12650000D01*
X6775000Y-12650000D01*
X6775000Y-13799999D01*
X6274999Y-13799999D01*
X6275000Y-13799998D01*
X6275000Y-12650000D01*
X5450001Y-12650000D01*
X5450001Y-13099986D01*
X500500Y-13099986D01*
X500500Y-11700013D01*
X5450000Y-11700013D01*
X5450000Y-12150000D01*
X6275000Y-12150000D01*
X6775000Y-12150000D01*
X7599999Y-12150000D01*
X7599999Y-11700028D01*
X7599998Y-11700013D01*
X7589505Y-11597302D01*
X7534358Y-11430880D01*
X7534356Y-11430875D01*
X7442315Y-11281654D01*
X7318345Y-11157684D01*
X7169124Y-11065643D01*
X7169119Y-11065641D01*
X7002697Y-11010494D01*
X7002690Y-11010493D01*
X6899986Y-11000000D01*
X6775000Y-11000000D01*
X6775000Y-12150000D01*
X6275000Y-12150000D01*
X6275000Y-11000000D01*
X6150027Y-11000000D01*
X6150012Y-11000001D01*
X6047302Y-11010494D01*
X5880880Y-11065641D01*
X5880875Y-11065643D01*
X5731654Y-11157684D01*
X5607684Y-11281654D01*
X5515643Y-11430875D01*
X5515641Y-11430880D01*
X5460494Y-11597302D01*
X5460493Y-11597309D01*
X5450000Y-11700013D01*
X500500Y-11700013D01*
X500500Y-6503947D01*
X4680000Y-6503947D01*
X4680000Y-7030000D01*
X5530000Y-7030000D01*
X5530000Y-7530000D01*
X4680000Y-7530000D01*
X4680000Y-8056052D01*
X4716934Y-8289247D01*
X4789897Y-8513802D01*
X4897085Y-8724171D01*
X5035866Y-8915186D01*
X5202813Y-9082133D01*
X5393828Y-9220914D01*
X5604195Y-9328102D01*
X5828744Y-9401063D01*
X5828750Y-9401065D01*
X5930000Y-9417101D01*
X5930000Y-8380001D01*
X5990402Y-8405021D01*
X6115981Y-8430000D01*
X6244019Y-8430000D01*
X6369598Y-8405021D01*
X6430000Y-8380001D01*
X6430000Y-9417100D01*
X6531249Y-9401065D01*
X6531255Y-9401063D01*
X6755804Y-9328102D01*
X6966171Y-9220914D01*
X7157186Y-9082133D01*
X7324133Y-8915186D01*
X7462914Y-8724171D01*
X7570102Y-8513802D01*
X7643065Y-8289247D01*
X7680000Y-8056052D01*
X7680000Y-7530000D01*
X6830000Y-7530000D01*
X6830000Y-7030000D01*
X7680000Y-7030000D01*
X7680000Y-6503947D01*
X17820000Y-6503947D01*
X17820000Y-7030000D01*
X18620000Y-7030000D01*
X18620000Y-7530000D01*
X17820000Y-7530000D01*
X17820000Y-8056052D01*
X17856934Y-8289247D01*
X17929897Y-8513802D01*
X18037085Y-8724171D01*
X18175866Y-8915186D01*
X18342813Y-9082133D01*
X18533828Y-9220914D01*
X18744195Y-9328102D01*
X18968744Y-9401063D01*
X18968750Y-9401065D01*
X19070000Y-9417101D01*
X19070000Y-8384120D01*
X19115818Y-8403099D01*
X19251056Y-8430000D01*
X19388944Y-8430000D01*
X19524182Y-8403099D01*
X19570000Y-8384120D01*
X19570000Y-9417100D01*
X19671249Y-9401065D01*
X19671255Y-9401063D01*
X19895804Y-9328102D01*
X20106171Y-9220914D01*
X20297186Y-9082133D01*
X20464133Y-8915186D01*
X20602914Y-8724171D01*
X20710102Y-8513802D01*
X20783065Y-8289247D01*
X20820000Y-8056052D01*
X20820000Y-7530000D01*
X20020000Y-7530000D01*
X20020000Y-7030000D01*
X20820000Y-7030000D01*
X20820000Y-6503947D01*
X20783065Y-6270752D01*
X20710102Y-6046197D01*
X20602914Y-5835828D01*
X20541775Y-5751677D01*
X25525000Y-5751677D01*
X25525000Y-5775000D01*
X26250000Y-5775000D01*
X26250000Y-5075000D01*
X26249999Y-5074999D01*
X26201693Y-5075000D01*
X26201675Y-5075001D01*
X26102392Y-5085144D01*
X25941518Y-5138452D01*
X25941507Y-5138457D01*
X25797271Y-5227424D01*
X25797267Y-5227427D01*
X25677427Y-5347267D01*
X25677424Y-5347271D01*
X25588457Y-5491507D01*
X25588452Y-5491518D01*
X25535144Y-5652393D01*
X25525000Y-5751677D01*
X20541775Y-5751677D01*
X20464133Y-5644813D01*
X20297186Y-5477866D01*
X20106171Y-5339085D01*
X19895802Y-5231897D01*
X19671247Y-5158934D01*
X19570000Y-5142897D01*
X19570000Y-6175879D01*
X19524182Y-6156901D01*
X19388944Y-6130000D01*
X19251056Y-6130000D01*
X19115818Y-6156901D01*
X19070000Y-6175879D01*
X19070000Y-5142897D01*
X18968752Y-5158934D01*
X18744197Y-5231897D01*
X18533828Y-5339085D01*
X18342813Y-5477866D01*
X18175866Y-5644813D01*
X18037085Y-5835828D01*
X17929897Y-6046197D01*
X17856934Y-6270752D01*
X17820000Y-6503947D01*
X7680000Y-6503947D01*
X7643065Y-6270752D01*
X7570102Y-6046197D01*
X7462914Y-5835828D01*
X7324133Y-5644813D01*
X7157186Y-5477866D01*
X6966171Y-5339085D01*
X6755802Y-5231897D01*
X6531247Y-5158934D01*
X6430000Y-5142897D01*
X6430000Y-6179998D01*
X6369598Y-6154979D01*
X6244019Y-6130000D01*
X6115981Y-6130000D01*
X5990402Y-6154979D01*
X5930000Y-6179998D01*
X5930000Y-5142897D01*
X5828752Y-5158934D01*
X5604197Y-5231897D01*
X5393828Y-5339085D01*
X5202813Y-5477866D01*
X5035866Y-5644813D01*
X4897085Y-5835828D01*
X4789897Y-6046197D01*
X4716934Y-6270752D01*
X4680000Y-6503947D01*
X500500Y-6503947D01*
X500500Y-4883718D01*
X1322500Y-4883718D01*
X1322500Y-5116282D01*
X1330869Y-5169122D01*
X1358881Y-5345983D01*
X1358881Y-5345986D01*
X1430745Y-5567160D01*
X1474358Y-5652756D01*
X1536328Y-5774379D01*
X1673026Y-5962527D01*
X1837473Y-6126974D01*
X2025621Y-6263672D01*
X2129809Y-6316758D01*
X2232839Y-6369254D01*
X2454014Y-6441118D01*
X2454015Y-6441118D01*
X2454018Y-6441119D01*
X2683718Y-6477500D01*
X2683719Y-6477500D01*
X2916281Y-6477500D01*
X2916282Y-6477500D01*
X3145982Y-6441119D01*
X3145985Y-6441118D01*
X3145986Y-6441118D01*
X3367160Y-6369254D01*
X3367160Y-6369253D01*
X3367163Y-6369253D01*
X3574379Y-6263672D01*
X3762527Y-6126974D01*
X3926974Y-5962527D01*
X4063672Y-5774379D01*
X4169253Y-5567163D01*
X4169254Y-5567160D01*
X4241118Y-5345986D01*
X4241118Y-5345985D01*
X4241119Y-5345982D01*
X4277500Y-5116282D01*
X4277500Y-4883718D01*
X4241119Y-4654018D01*
X4241118Y-4654014D01*
X4241118Y-4654013D01*
X4191621Y-4501677D01*
X27750000Y-4501677D01*
X27750000Y-4550000D01*
X28450000Y-4550000D01*
X28450000Y-3824999D01*
X28426693Y-3825000D01*
X28426674Y-3825001D01*
X28327392Y-3835144D01*
X28166518Y-3888452D01*
X28166507Y-3888457D01*
X28022271Y-3977424D01*
X28022267Y-3977427D01*
X27902427Y-4097267D01*
X27902424Y-4097271D01*
X27813457Y-4241507D01*
X27813452Y-4241518D01*
X27760144Y-4402393D01*
X27750000Y-4501677D01*
X4191621Y-4501677D01*
X4169254Y-4432839D01*
X4111644Y-4319773D01*
X4063672Y-4225621D01*
X3926974Y-4037473D01*
X3762527Y-3873026D01*
X3574379Y-3736328D01*
X3367160Y-3630745D01*
X3145985Y-3558881D01*
X2973707Y-3531595D01*
X2916282Y-3522500D01*
X2683718Y-3522500D01*
X2610447Y-3534105D01*
X2454016Y-3558881D01*
X2454013Y-3558881D01*
X2232839Y-3630745D01*
X2025620Y-3736328D01*
X1918275Y-3814319D01*
X1837473Y-3873026D01*
X1837471Y-3873028D01*
X1837470Y-3873028D01*
X1673028Y-4037470D01*
X1673028Y-4037471D01*
X1673026Y-4037473D01*
X1641702Y-4080587D01*
X1536328Y-4225620D01*
X1430745Y-4432839D01*
X1358881Y-4654013D01*
X1358881Y-4654016D01*
X1354152Y-4683874D01*
X1322500Y-4883718D01*
X500500Y-4883718D01*
X500500Y-3603248D01*
X500670Y-3596759D01*
X517138Y-3282511D01*
X518495Y-3269603D01*
X567079Y-2962847D01*
X567213Y-2961997D01*
X569905Y-2949329D01*
X650518Y-2648475D01*
X654522Y-2636154D01*
X766135Y-2345390D01*
X771405Y-2333551D01*
X912805Y-2056038D01*
X919292Y-2044804D01*
X1088918Y-1783601D01*
X1096520Y-1773138D01*
X1292539Y-1531074D01*
X1301206Y-1521449D01*
X1521436Y-1301219D01*
X1531061Y-1292552D01*
X1773125Y-1096533D01*
X1783588Y-1088931D01*
X2044797Y-919300D01*
X2056025Y-912818D01*
X2333538Y-771418D01*
X2345377Y-766148D01*
X2636141Y-654535D01*
X2648462Y-650531D01*
X2949316Y-569918D01*
X2961984Y-567226D01*
X3269592Y-518507D01*
X3282495Y-517151D01*
X3596754Y-500683D01*
X3603243Y-500513D01*
X3665890Y-500513D01*
X35169654Y-500513D01*
X35178834Y-500853D01*
G37*
%TD.AperFunction*%
%TA.AperFunction,Conductor*%
G36*
X30993039Y-8119685D02*
G01*
X31038794Y-8172489D01*
X31050000Y-8224000D01*
X31050000Y-9402955D01*
X31030315Y-9469994D01*
X31013681Y-9490636D01*
X29100433Y-11403883D01*
X29039110Y-11437368D01*
X28969418Y-11432384D01*
X28913486Y-11390513D01*
X28857190Y-11315312D01*
X28857187Y-11315309D01*
X28742093Y-11229149D01*
X28742086Y-11229145D01*
X28607379Y-11178903D01*
X28607372Y-11178901D01*
X28547844Y-11172500D01*
X28100000Y-11172500D01*
X28100000Y-11933000D01*
X28080315Y-12000039D01*
X28027511Y-12045794D01*
X27976000Y-12057000D01*
X27824000Y-12057000D01*
X27756961Y-12037315D01*
X27711206Y-11984511D01*
X27700000Y-11933000D01*
X27700000Y-11172500D01*
X27474500Y-11172500D01*
X27407461Y-11152815D01*
X27361706Y-11100011D01*
X27350500Y-11048500D01*
X27350500Y-10146544D01*
X27370185Y-10079505D01*
X27386819Y-10058863D01*
X28208863Y-9236819D01*
X28270186Y-9203334D01*
X28296544Y-9200500D01*
X29324676Y-9200500D01*
X29324677Y-9200499D01*
X29397740Y-9185966D01*
X29472862Y-9135772D01*
X29539539Y-9114894D01*
X29606919Y-9133379D01*
X29653609Y-9185358D01*
X29655840Y-9190611D01*
X29656649Y-9192093D01*
X29742809Y-9307187D01*
X29742812Y-9307190D01*
X29857906Y-9393350D01*
X29857913Y-9393354D01*
X29992620Y-9443596D01*
X29992627Y-9443598D01*
X30052155Y-9449999D01*
X30052172Y-9450000D01*
X30550000Y-9450000D01*
X30550000Y-8224000D01*
X30569685Y-8156961D01*
X30622489Y-8111206D01*
X30674000Y-8100000D01*
X30926000Y-8100000D01*
X30993039Y-8119685D01*
G37*
%TD.AperFunction*%
%TD*%
M02*
