M48
; DRILL file {KiCad 8.0.2} date 2025-12-10T20:43:27-0800
; FORMAT={-:-/ absolute / inch / decimal}
; #@! TF.CreationDate,2025-12-10T20:43:27-08:00
; #@! TF.GenerationSoftware,Kicad,Pcbnew,8.0.2
; #@! TF.FileFunction,Plated,1,2,PTH
FMAT,2
INCH
; #@! TA.AperFunction,Plated,PTH,ViaDrill
T1C0.0118
; #@! TA.AperFunction,Plated,PTH,ComponentDrill
T2C0.0362
; #@! TA.AperFunction,Plated,PTH,ComponentDrill
T3C0.0512
; #@! TA.AperFunction,Plated,PTH,ComponentDrill
T4C0.0551
; #@! TA.AperFunction,Plated,PTH,ComponentDrill
T5C0.1063
%
G90
G05
T1
X0.2126Y-0.4882
X0.2756Y-0.5669
X0.2756Y-0.6299
X0.5984Y-0.5669
X0.7402Y-0.6614
X0.7796Y-0.8189
X0.811Y-0.8091
X0.8268Y-0.7559
X0.8425Y-0.5906
X1.0145Y-0.685
X1.0394Y-0.622
X1.0472Y-0.5827
X1.0558Y-0.7172
X1.0827Y-0.189
X1.1408Y-0.44
X1.1496Y-0.685
X1.2472Y-0.7433
X1.252Y-0.5906
X1.252Y-0.622
X1.2538Y-0.5591
X1.2598Y-0.7008
X1.3622Y-0.5591
X1.3685Y-0.6687
X1.3701Y-0.7402
X1.5197Y-0.5591
X1.5197Y-0.622
X1.5276Y-0.7559
X1.685Y-0.7559
X1.7402Y-0.5039
X1.8031Y-0.5669
X1.8031Y-0.6299
X1.937Y-0.7559
X1.9449Y-0.6378
X2.1181Y-0.5748
X2.315Y-0.6063
X2.3543Y-0.7795
X2.3622Y-0.5591
T2
X0.3642Y-0.4012
X0.4626Y-0.3854
X0.5413Y-0.3854
X0.6398Y-0.4012
X1.8917Y-0.4012
X1.9902Y-0.3854
X2.0689Y-0.3854
X2.1673Y-0.4012
T5
X2.4213Y-0.1969
T3
G00X0.2433Y-0.2669
M15
G01X0.2433Y-0.3063
M16
G05
G00X1.7709Y-0.2669
M15
G01X1.7709Y-0.3063
M16
G05
T4
G00X0.7606Y-0.2689
M15
G01X0.7606Y-0.3043
M16
G05
G00X2.2882Y-0.2689
M15
G01X2.2882Y-0.3043
M16
G05
M30
