%TF.GenerationSoftware,KiCad,Pcbnew,8.0.2*%
%TF.CreationDate,2025-12-10T20:43:24-08:00*%
%TF.ProjectId,USBHubV3,55534248-7562-4563-932e-6b696361645f,rev?*%
%TF.SameCoordinates,Original*%
%TF.FileFunction,Legend,Bot*%
%TF.FilePolarity,Positive*%
%FSLAX46Y46*%
G04 Gerber Fmt 4.6, Leading zero omitted, Abs format (unit mm)*
G04 Created by KiCad (PCBNEW 8.0.2) date 2025-12-10 20:43:24*
%MOMM*%
%LPD*%
G01*
G04 APERTURE LIST*
%ADD10C,0.150000*%
%ADD11C,0.127000*%
%ADD12C,0.300000*%
G04 APERTURE END LIST*
D10*
X11309790Y-11986973D02*
X11309790Y-12988267D01*
X11309790Y-12988267D02*
X11376542Y-13188526D01*
X11376542Y-13188526D02*
X11510048Y-13322032D01*
X11510048Y-13322032D02*
X11710307Y-13388784D01*
X11710307Y-13388784D02*
X11843813Y-13388784D01*
X9907979Y-13388784D02*
X10709014Y-13388784D01*
X10308496Y-13388784D02*
X10308496Y-11986973D01*
X10308496Y-11986973D02*
X10442002Y-12187232D01*
X10442002Y-12187232D02*
X10575508Y-12320738D01*
X10575508Y-12320738D02*
X10709014Y-12387491D01*
X50109790Y-11986973D02*
X50109790Y-12988267D01*
X50109790Y-12988267D02*
X50176542Y-13188526D01*
X50176542Y-13188526D02*
X50310048Y-13322032D01*
X50310048Y-13322032D02*
X50510307Y-13388784D01*
X50510307Y-13388784D02*
X50643813Y-13388784D01*
X49509014Y-12120479D02*
X49442261Y-12053726D01*
X49442261Y-12053726D02*
X49308755Y-11986973D01*
X49308755Y-11986973D02*
X48974991Y-11986973D01*
X48974991Y-11986973D02*
X48841485Y-12053726D01*
X48841485Y-12053726D02*
X48774732Y-12120479D01*
X48774732Y-12120479D02*
X48707979Y-12253985D01*
X48707979Y-12253985D02*
X48707979Y-12387491D01*
X48707979Y-12387491D02*
X48774732Y-12587750D01*
X48774732Y-12587750D02*
X49575767Y-13388784D01*
X49575767Y-13388784D02*
X48707979Y-13388784D01*
D11*
%TO.C,J1*%
X6185000Y3000000D02*
X19315000Y3000000D01*
X6185000Y-5180000D02*
X6185000Y3000000D01*
X6185000Y-11000000D02*
X6185000Y-9380000D01*
X19315000Y3000000D02*
X19315000Y-5180000D01*
X19315000Y-9380000D02*
X19315000Y-11000000D01*
X19315000Y-11000000D02*
X6185000Y-11000000D01*
D12*
X5750000Y-9980000D02*
G75*
G02*
X5550000Y-9980000I-100000J0D01*
G01*
X5550000Y-9980000D02*
G75*
G02*
X5750000Y-9980000I100000J0D01*
G01*
D11*
%TO.C,J2*%
X44985000Y3000000D02*
X58115000Y3000000D01*
X44985000Y-5180000D02*
X44985000Y3000000D01*
X44985000Y-11000000D02*
X44985000Y-9380000D01*
X58115000Y3000000D02*
X58115000Y-5180000D01*
X58115000Y-9380000D02*
X58115000Y-11000000D01*
X58115000Y-11000000D02*
X44985000Y-11000000D01*
D12*
X44550000Y-9980000D02*
G75*
G02*
X44350000Y-9980000I-100000J0D01*
G01*
X44350000Y-9980000D02*
G75*
G02*
X44550000Y-9980000I100000J0D01*
G01*
%TD*%
M02*
