M48
; DRILL file {KiCad 8.0.2} date 2025-12-13T15:02:29-0800
; FORMAT={-:-/ absolute / inch / decimal}
; #@! TF.CreationDate,2025-12-13T15:02:29-08:00
; #@! TF.GenerationSoftware,Kicad,Pcbnew,8.0.2
; #@! TF.FileFunction,Plated,1,2,PTH
FMAT,2
INCH
; #@! TA.AperFunction,Plated,PTH,ViaDrill
T1C0.0118
; #@! TA.AperFunction,Plated,PTH,ComponentDrill
T2C0.0394
; #@! TA.AperFunction,Plated,PTH,ComponentDrill
T3C0.0409
; #@! TA.AperFunction,Plated,PTH,ComponentDrill
T4C0.0600
%
G90
G05
T1
X-0.2509Y-1.0506
X-0.2504Y-1.0191
X-0.1882Y-1.0033
X-0.0744Y-1.0663
X0.125Y-0.8442
X0.298Y-1.5685
X0.374Y-0.7681
X0.374Y-1.2819
X0.4787Y-1.8484
X0.4898Y-0.8442
X0.9173Y-0.0687
X0.9173Y-0.1198
X0.9252Y-3.0687
X0.9252Y-3.1198
X0.9291Y-1.5687
X0.9291Y-1.6198
X0.9291Y-2.3187
X0.9291Y-2.3698
X1.0667Y-1.1159
X1.0677Y-0.3933
X1.0947Y-1.1016
X1.1358Y-2.0598
X1.1358Y-2.45
X1.1358Y-3.2004
X1.1391Y-1.1883
X1.1391Y-1.2217
X1.1496Y-0.6142
X1.1846Y-0.2
X1.2239Y-0.8846
X1.2549Y-0.8902
X1.2665Y-1.5883
X1.2709Y-0.7256
X1.2823Y-1.6198
X1.2843Y-0.8789
X1.298Y-2.3383
X1.3138Y-2.3698
X1.3374Y-3.0883
X1.3612Y-1.3422
X1.3926Y-1.3392
X1.423Y-1.3312
X1.449Y-1.5941
X1.4648Y-2.5835
X1.4693Y-0.8187
X1.4805Y-3.1198
X1.4963Y-3.1736
X1.512Y-1.4
X1.512Y-1.5126
X1.5197Y-3.1972
X1.5278Y-1.541
X1.5435Y-1.5941
X1.5435Y-2.4638
X1.5736Y-0.8698
X1.5796Y-0.9843
X1.5898Y-1.0154
X1.6307Y-1.8996
X1.6311Y-1.8287
X1.6839Y-0.1551
X1.6882Y-0.3957
X1.6886Y-0.3287
X1.7024Y-1.5583
X1.7055Y-0.2295
X1.7134Y-0.0883
X1.7185Y-0.5228
X1.737Y-0.2295
X1.7374Y-0.1198
X1.7458Y-0.5071
X1.7535Y-0.3295
X1.7547Y-0.3953
X1.8362Y-0.8187
X1.8362Y-0.8698
X2.35Y-0.3295
X2.3524Y-0.3957
X2.385Y-0.3307
X2.4161Y-0.3945
X2.4228Y-0.3291
X2.7008Y-0.0687
X2.7008Y-0.1198
X2.7604Y-0.8895
X2.8567Y-0.3945
X2.8571Y-0.3299
X2.8839Y-0.2839
X2.8839Y-0.4244
X2.8976Y-2.3187
X2.9016Y-2.3698
X2.9102Y-0.3941
X2.9106Y-0.3299
X3.0827Y-0.8187
X3.0827Y-0.8698
X3.0866Y-3.0687
X3.0866Y-3.1198
X3.1047Y-0.3945
X3.1051Y-0.3295
X3.1354Y-0.2839
X3.1654Y-0.3299
X3.1657Y-0.3949
X3.2677Y-1.5687
X3.2677Y-1.6198
X3.3441Y-0.3295
X3.3445Y-0.3949
X3.3453Y-0.2004
X3.3453Y-0.65
X3.3701Y-0.1395
X3.3709Y-0.7547
X3.3709Y-0.8895
X3.3965Y-0.2008
X3.3972Y-0.3941
X3.398Y-0.3299
X3.4323Y-1.4563
X3.4323Y-1.9315
X3.4606Y-0.0687
X3.511Y-1.0311
X3.6417Y-2.3187
X3.6421Y-2.4894
X3.8295Y-0.8187
X3.8299Y-0.8895
X3.8539Y-0.3295
X3.8555Y-0.3945
X3.8854Y-0.2638
X3.9161Y-0.3299
X3.9161Y-0.3941
X3.9894Y-0.2
X4.0236Y-1.6594
X4.024Y-1.5687
X4.0276Y-3.0687
X4.0276Y-3.1198
X4.0327Y-0.3945
X4.0335Y-0.3295
X4.0346Y-0.65
X4.0866Y-0.3299
X4.0866Y-0.3945
X4.5949Y-3.2705
X4.6756Y-0.8724
X4.676Y-0.8187
X4.7807Y-0.3949
X4.7992Y-0.3283
X4.8467Y-0.7249
X4.8606Y-0.9268
X4.8631Y-0.3938
X4.9087Y-0.3307
X4.9606Y-0.0687
X4.9606Y-0.1198
X5.0104Y-1.0311
X5.0104Y-1.1965
X5.1575Y-2.3187
X5.1575Y-2.3698
X5.1756Y-0.1592
X5.1756Y-0.0687
X5.189Y-2.3187
X5.2071Y-0.1592
X5.2071Y-0.0687
X5.2189Y-3.1657
X5.2386Y-0.1592
X5.239Y-0.0687
X5.2657Y-2.8795
X5.2705Y-0.0687
X5.2953Y-0.2
X5.3118Y-3.1972
X5.3386Y-0.8187
X5.3386Y-0.8698
X5.3539Y-0.3272
X5.3547Y-0.3953
X5.3854Y-0.3272
X5.3858Y-0.4913
X5.4169Y-0.3263
X5.4173Y-0.3965
X5.5197Y-1.5687
X5.5236Y-1.6198
X5.635Y-3.0598
X5.7102Y-0.0687
X5.7106Y-0.1395
X5.761Y-1.0311
X5.8976Y-2.3187
X5.8976Y-2.3895
X6.0886Y-0.8187
X6.0886Y-0.8895
X6.2776Y-1.5687
X6.278Y-1.6395
X6.4445Y-1.4563
X6.4445Y-1.6592
X6.4606Y-0.0687
X6.461Y-0.1395
X6.5104Y-1.1807
X6.5106Y-1.0311
X6.6358Y0.0998
X6.6358Y-0.2992
X6.6641Y-0.313
X6.6673Y0.1004
X6.824Y0.4472
X6.9631Y-0.3937
X6.9647Y0.3162
X6.9827Y-0.4756
X6.9941Y-0.3307
X7.0129Y-0.3937
X7.0759Y0.2587
X7.1016Y-0.3307
X7.1339Y0.2744
X7.1996Y0.4437
X7.2866Y-0.032
X7.2908Y-0.2835
X7.3028Y-0.3307
X7.3181Y-0.0126
X7.3181Y-0.2677
X7.3642Y-0.2402
X7.3646Y0.3055
X7.3646Y0.0693
X7.365Y0.135
X7.365Y-0.0669
X7.365Y-0.1654
X7.3657Y0.3661
X7.3661Y0.1024
X7.4016Y-2.3187
X7.4016Y-2.3698
X7.412Y-0.3312
X7.4291Y0.1024
X7.4295Y0.1346
X7.4299Y-0.1661
X7.4303Y0.3655
X7.4303Y0.3059
X7.4303Y0.0693
X7.4303Y-0.0677
X7.4303Y-0.2417
X7.4984Y-0.0687
X7.4984Y-0.2016
X7.5394Y0.4134
X7.5709Y0.4134
X7.5906Y-0.8187
X7.5906Y-0.8698
X7.6059Y-0.45
X7.6157Y0.3091
X7.7795Y-1.5687
X7.7795Y-1.6198
X7.9606Y-0.0687
X7.9606Y-0.1198
X8.0102Y-1.0311
X8.1535Y-2.3187
X8.1535Y-2.3895
X8.3295Y-1.1807
X8.3299Y-1.0508
X8.3382Y-0.8187
X8.3382Y-0.8895
X8.3854Y-0.3154
X8.5283Y-1.6395
X8.5287Y-1.5687
X8.5402Y-0.2677
X8.7173Y-0.1592
X8.7181Y-0.0687
X8.7606Y-1.0823
X9.463Y-2.3929
X9.6496Y-2.3187
X9.6496Y-2.3698
X9.763Y-3.0687
X9.7634Y-3.1198
X9.8386Y-0.8187
X9.8386Y-0.8698
X9.9154Y-0.2004
X9.9527Y-0.2992
X9.9535Y-0.2677
X10.0276Y-1.5687
X10.0276Y-1.6198
X10.0594Y-0.3996
X10.0594Y-0.8895
X10.1217Y-0.2677
X10.2126Y-0.0687
X10.2126Y-0.1198
X10.2602Y-1.098
X10.3984Y-2.3187
X10.3984Y-2.3895
X10.4094Y-3.0687
X10.4094Y-3.1198
X10.4547Y-0.2
X10.5839Y-0.8187
X10.5846Y-0.8895
X10.7693Y-1.5687
X10.7693Y-1.7028
X10.9559Y-1.7028
X10.9563Y-1.5008
X10.9567Y-2.3698
X10.9575Y-2.3187
X10.9602Y-0.0687
X10.9602Y-0.1395
X11.0126Y-1.1335
X11.6161Y-0.5772
X11.6398Y-0.7406
X11.7126Y-0.578
X11.7382Y-0.6161
X12.1614Y-0.8698
X12.1667Y-0.8187
X12.2795Y-3.0687
X12.2795Y-3.1198
X12.311Y-3.0687
X12.328Y-1.6791
X12.3283Y-1.7303
X12.4646Y-0.0687
X12.4646Y-0.1198
X12.4646Y-2.3187
X12.4646Y-2.3698
X12.5118Y-0.8187
X12.5118Y-0.8698
X12.5661Y-0.2295
X12.7094Y-0.1592
X12.8776Y-0.3614
X12.8776Y-0.8895
X12.878Y-1.5008
X12.878Y-1.6198
X13.0146Y-1.5008
X13.0146Y-1.7028
X13.4854Y-0.8187
X13.4858Y-0.8895
X13.4859Y-0.1395
X13.4866Y-0.0687
X13.611Y-2.5138
X13.6118Y-2.5846
X13.6587Y-1.5687
X13.6587Y-1.9
X13.6886Y-0.4362
X13.7177Y-0.4874
X13.7177Y-1.6395
X13.7657Y-0.4677
X13.7661Y-0.0507
X14.1125Y-0.4382
X14.285Y-2.8705
T2
X1.0965Y-0.9209
X1.5736Y-0.7031
X5.0921Y-2.8671
X5.0921Y-2.9671
X5.4374Y-2.8667
X5.4374Y-2.9667
T3
X-0.05Y-0.2
X-0.05Y-0.95
X-0.05Y-1.7
X-0.05Y-2.45
X-0.05Y-3.2
X0.05Y-0.2
X0.05Y-0.95
X0.05Y-1.7
X0.05Y-2.45
X0.05Y-3.2
X1.825Y-1.7
X1.925Y-1.7
X2.0125Y-1.7
X2.1125Y-1.7
X13.2625Y-2.45
X13.3625Y-2.45
X14.0125Y-0.2
X14.1125Y-0.2
T4
X-0.15Y0.1
X-0.15Y-0.65
X-0.15Y-1.4
X-0.15Y-2.15
X-0.15Y-2.9
X0.1Y0.2
X0.1Y-0.55
X0.1Y-1.3
X0.1Y-2.05
X0.1Y-2.8
X0.6Y0.1
X0.6Y-0.65
X0.6Y-1.4
X0.6Y-2.15
X0.6Y-2.9
X0.85Y0.2
X0.85Y-0.55
X0.85Y-1.3
X0.85Y-2.05
X0.85Y-2.8
X1.6312Y0.1
X1.725Y-1.4
X1.725Y-2.15
X1.8187Y-0.65
X1.8187Y-2.9
X1.8812Y0.2
X1.9125Y-1.4
X1.975Y-1.3
X1.975Y-2.05
X2.0688Y-0.55
X2.0688Y-2.8
X2.1Y-2.15
X2.1625Y-1.3
X2.35Y-2.05
X2.3813Y0.1
X2.5688Y-2.15
X2.6313Y0.2
X2.7563Y-0.65
X2.7563Y-2.9
X2.8188Y-2.05
X2.9438Y-1.4
X3.0063Y-0.55
X3.0063Y-2.8
X3.1313Y0.1
X3.1938Y-1.3
X3.3188Y-2.15
X3.3813Y0.2
X3.5063Y-0.65
X3.5688Y-2.05
X3.6938Y-1.4
X3.6938Y-2.9
X3.7563Y-0.55
X3.8813Y0.1
X3.9438Y-1.3
X3.9438Y-2.8
X4.0687Y-2.15
X4.1312Y0.2
X4.2562Y-0.65
X4.3187Y-2.05
X4.4437Y-1.4
X4.5062Y-0.55
X4.6312Y0.1
X4.6937Y-1.3
X4.8187Y-2.15
X4.8812Y0.2
X5.0062Y-0.65
X5.0687Y-2.05
X5.1937Y-1.4
X5.2562Y-0.55
X5.3812Y0.1
X5.4437Y-1.3
X5.5687Y-2.15
X5.6312Y0.2
X5.7562Y-0.65
X5.8187Y-2.05
X5.9437Y-1.4
X6.0062Y-0.55
X6.1312Y0.1
X6.1937Y-1.3
X6.3187Y-2.15
X6.3812Y0.2
X6.5062Y-0.65
X6.5687Y-2.05
X6.6937Y-1.4
X6.7562Y-0.55
X6.8812Y0.1
X6.8812Y-2.9
X6.9437Y-1.3
X7.0687Y-2.15
X7.1312Y0.2
X7.1312Y-2.8
X7.2562Y-0.65
X7.3187Y-2.05
X7.4437Y-1.4
X7.5062Y-0.55
X7.6312Y0.1
X7.6937Y-1.3
X7.8187Y-2.15
X7.8812Y0.2
X8.0062Y-0.65
X8.0687Y-2.05
X8.1937Y-1.4
X8.2562Y-0.55
X8.3812Y0.1
X8.4437Y-1.3
X8.5687Y-2.15
X8.6312Y0.2
X8.7562Y-0.65
X8.8187Y-2.05
X8.9437Y-1.4
X9.0062Y-0.55
X9.1312Y0.1
X9.1937Y-1.3
X9.3187Y-2.15
X9.3812Y0.2
X9.5062Y-0.65
X9.5687Y-2.05
X9.6937Y-1.4
X9.7562Y-0.55
X9.8812Y0.1
X9.9437Y-1.3
X10.0687Y-2.15
X10.0687Y-2.9
X10.1312Y0.2
X10.2562Y-0.65
X10.3187Y-2.05
X10.3187Y-2.8
X10.4437Y-1.4
X10.5062Y-0.55
X10.6312Y0.1
X10.6937Y-1.3
X10.8812Y0.2
X11.0062Y-0.65
X11.0062Y-2.9
X11.1Y-2.15
X11.1937Y-1.4
X11.2562Y-0.55
X11.2562Y-2.8
X11.35Y-2.05
X11.3812Y0.1
X11.4437Y-1.3
X11.475Y-2.15
X11.6312Y0.2
X11.6625Y-1.4
X11.725Y-2.05
X11.7562Y0.1
X11.9125Y-1.3
X11.9437Y-0.65
X11.9437Y-2.9
X12.0062Y0.2
X12.0375Y-1.025
X12.0375Y-1.4
X12.1312Y0.1
X12.1312Y-2.15
X12.1937Y-0.55
X12.1937Y-2.8
X12.2875Y-0.925
X12.2875Y-1.3
X12.3812Y0.2
X12.3812Y-2.05
X13.1625Y0.1
X13.1625Y-0.65
X13.1625Y-1.4
X13.1625Y-2.15
X13.1625Y-2.9
X13.4125Y0.2
X13.4125Y-0.55
X13.4125Y-1.3
X13.4125Y-2.05
X13.4125Y-2.8
X13.5375Y-2.9
X13.7875Y-2.8
X13.9125Y0.1
X13.9125Y-0.65
X13.9125Y-1.4
X13.9125Y-2.15
X13.9125Y-2.9
X14.1625Y0.2
X14.1625Y-0.55
X14.1625Y-1.3
X14.1625Y-2.05
X14.1625Y-2.8
X14.6625Y0.1
X14.6625Y-0.65
X14.6625Y-1.4
X14.6625Y-2.15
X14.6625Y-2.9
X14.9125Y0.2
X14.9125Y-0.55
X14.9125Y-1.3
X14.9125Y-2.05
X14.9125Y-2.8
M30
