%TF.GenerationSoftware,KiCad,Pcbnew,8.0.2*%
%TF.CreationDate,2025-12-13T15:02:25-08:00*%
%TF.ProjectId,mx-unsaver-main,6d782d75-6e73-4617-9665-722d6d61696e,rev?*%
%TF.SameCoordinates,Original*%
%TF.FileFunction,Paste,Top*%
%TF.FilePolarity,Positive*%
%FSLAX46Y46*%
G04 Gerber Fmt 4.6, Leading zero omitted, Abs format (unit mm)*
G04 Created by KiCad (PCBNEW 8.0.2) date 2025-12-13 15:02:25*
%MOMM*%
%LPD*%
G01*
G04 APERTURE LIST*
G04 Aperture macros list*
%AMRoundRect*
0 Rectangle with rounded corners*
0 $1 Rounding radius*
0 $2 $3 $4 $5 $6 $7 $8 $9 X,Y pos of 4 corners*
0 Add a 4 corners polygon primitive as box body*
4,1,4,$2,$3,$4,$5,$6,$7,$8,$9,$2,$3,0*
0 Add four circle primitives for the rounded corners*
1,1,$1+$1,$2,$3*
1,1,$1+$1,$4,$5*
1,1,$1+$1,$6,$7*
1,1,$1+$1,$8,$9*
0 Add four rect primitives between the rounded corners*
20,1,$1+$1,$2,$3,$4,$5,0*
20,1,$1+$1,$4,$5,$6,$7,0*
20,1,$1+$1,$6,$7,$8,$9,0*
20,1,$1+$1,$8,$9,$2,$3,0*%
G04 Aperture macros list end*
%ADD10RoundRect,0.250000X0.450000X-0.262500X0.450000X0.262500X-0.450000X0.262500X-0.450000X-0.262500X0*%
%ADD11RoundRect,0.250000X0.250000X0.475000X-0.250000X0.475000X-0.250000X-0.475000X0.250000X-0.475000X0*%
%ADD12RoundRect,0.225000X-0.225000X-0.250000X0.225000X-0.250000X0.225000X0.250000X-0.225000X0.250000X0*%
%ADD13RoundRect,0.250000X0.475000X-0.250000X0.475000X0.250000X-0.475000X0.250000X-0.475000X-0.250000X0*%
%ADD14RoundRect,0.225000X0.250000X-0.225000X0.250000X0.225000X-0.250000X0.225000X-0.250000X-0.225000X0*%
%ADD15RoundRect,0.225000X0.225000X0.250000X-0.225000X0.250000X-0.225000X-0.250000X0.225000X-0.250000X0*%
%ADD16RoundRect,0.150000X0.150000X-0.512500X0.150000X0.512500X-0.150000X0.512500X-0.150000X-0.512500X0*%
%ADD17RoundRect,0.075000X0.075000X-0.662500X0.075000X0.662500X-0.075000X0.662500X-0.075000X-0.662500X0*%
%ADD18RoundRect,0.075000X0.662500X-0.075000X0.662500X0.075000X-0.662500X0.075000X-0.662500X-0.075000X0*%
%ADD19RoundRect,0.225000X-0.250000X0.225000X-0.250000X-0.225000X0.250000X-0.225000X0.250000X0.225000X0*%
G04 APERTURE END LIST*
D10*
%TO.C,R1*%
X134923332Y-75002500D03*
X134923332Y-73177500D03*
%TD*%
D11*
%TO.C,C9*%
X31100000Y-16790000D03*
X29200000Y-16790000D03*
%TD*%
D12*
%TO.C,C1*%
X30703055Y-21273872D03*
X32253055Y-21273872D03*
%TD*%
D13*
%TO.C,C3*%
X132556666Y-75040000D03*
X132556666Y-73140000D03*
%TD*%
D12*
%TO.C,C4*%
X30703055Y-19576815D03*
X32253055Y-19576815D03*
%TD*%
D14*
%TO.C,C2*%
X27871810Y-30746285D03*
X27871810Y-29196285D03*
%TD*%
D15*
%TO.C,C7*%
X36655000Y-35120000D03*
X35105000Y-35120000D03*
%TD*%
D16*
%TO.C,U2*%
X29200000Y-14527500D03*
X31100000Y-14527500D03*
X30150000Y-12252500D03*
%TD*%
D17*
%TO.C,U1*%
X31720000Y-32202500D03*
X32220000Y-32202500D03*
X32720000Y-32202500D03*
X33220000Y-32202500D03*
X33720000Y-32202500D03*
X34220000Y-32202500D03*
X34720000Y-32202500D03*
X35220000Y-32202500D03*
X35720000Y-32202500D03*
X36220000Y-32202500D03*
X36720000Y-32202500D03*
X37220000Y-32202500D03*
D18*
X38632500Y-30790000D03*
X38632500Y-30290000D03*
X38632500Y-29790000D03*
X38632500Y-29290000D03*
X38632500Y-28790000D03*
X38632500Y-28290000D03*
X38632500Y-27790000D03*
X38632500Y-27290000D03*
X38632500Y-26790000D03*
X38632500Y-26290000D03*
X38632500Y-25790000D03*
X38632500Y-25290000D03*
D17*
X37220000Y-23877500D03*
X36720000Y-23877500D03*
X36220000Y-23877500D03*
X35720000Y-23877500D03*
X35220000Y-23877500D03*
X34720000Y-23877500D03*
X34220000Y-23877500D03*
X33720000Y-23877500D03*
X33220000Y-23877500D03*
X32720000Y-23877500D03*
X32220000Y-23877500D03*
X31720000Y-23877500D03*
D18*
X30307500Y-25290000D03*
X30307500Y-25790000D03*
X30307500Y-26290000D03*
X30307500Y-26790000D03*
X30307500Y-27290000D03*
X30307500Y-27790000D03*
X30307500Y-28290000D03*
X30307500Y-28790000D03*
X30307500Y-29290000D03*
X30307500Y-29790000D03*
X30307500Y-30290000D03*
X30307500Y-30790000D03*
%TD*%
D11*
%TO.C,C8*%
X30100000Y-9990000D03*
X28200000Y-9990000D03*
%TD*%
D14*
%TO.C,C6*%
X26104043Y-29585000D03*
X26104043Y-28035000D03*
%TD*%
D19*
%TO.C,C5*%
X41390000Y-24055000D03*
X41390000Y-25605000D03*
%TD*%
M02*
