%TF.GenerationSoftware,KiCad,Pcbnew,8.0.2*%
%TF.CreationDate,2025-12-13T15:02:25-08:00*%
%TF.ProjectId,mx-unsaver-main,6d782d75-6e73-4617-9665-722d6d61696e,rev?*%
%TF.SameCoordinates,Original*%
%TF.FileFunction,Paste,Bot*%
%TF.FilePolarity,Positive*%
%FSLAX46Y46*%
G04 Gerber Fmt 4.6, Leading zero omitted, Abs format (unit mm)*
G04 Created by KiCad (PCBNEW 8.0.2) date 2025-12-13 15:02:25*
%MOMM*%
%LPD*%
G01*
G04 APERTURE LIST*
G04 Aperture macros list*
%AMRoundRect*
0 Rectangle with rounded corners*
0 $1 Rounding radius*
0 $2 $3 $4 $5 $6 $7 $8 $9 X,Y pos of 4 corners*
0 Add a 4 corners polygon primitive as box body*
4,1,4,$2,$3,$4,$5,$6,$7,$8,$9,$2,$3,0*
0 Add four circle primitives for the rounded corners*
1,1,$1+$1,$2,$3*
1,1,$1+$1,$4,$5*
1,1,$1+$1,$6,$7*
1,1,$1+$1,$8,$9*
0 Add four rect primitives between the rounded corners*
20,1,$1+$1,$2,$3,$4,$5,0*
20,1,$1+$1,$4,$5,$6,$7,0*
20,1,$1+$1,$6,$7,$8,$9,0*
20,1,$1+$1,$8,$9,$2,$3,0*%
G04 Aperture macros list end*
%ADD10RoundRect,0.225000X0.375000X-0.225000X0.375000X0.225000X-0.375000X0.225000X-0.375000X-0.225000X0*%
%ADD11RoundRect,0.250000X0.450000X-0.262500X0.450000X0.262500X-0.450000X0.262500X-0.450000X-0.262500X0*%
%ADD12R,0.300000X1.400000*%
%ADD13R,1.350000X0.950000*%
%ADD14RoundRect,0.150000X-0.150000X-0.625000X0.150000X-0.625000X0.150000X0.625000X-0.150000X0.625000X0*%
%ADD15RoundRect,0.250000X-0.350000X-0.650000X0.350000X-0.650000X0.350000X0.650000X-0.350000X0.650000X0*%
G04 APERTURE END LIST*
D10*
%TO.C,D52*%
X200818750Y-1443750D03*
X200818750Y1856250D03*
%TD*%
%TO.C,D34*%
X115093750Y-20493750D03*
X115093750Y-17193750D03*
%TD*%
%TO.C,D30*%
X100806250Y-77643750D03*
X100806250Y-74343750D03*
%TD*%
%TO.C,D107*%
X315118750Y-58593750D03*
X315118750Y-55293750D03*
%TD*%
%TO.C,D17*%
X72231250Y-58593750D03*
X72231250Y-55293750D03*
%TD*%
%TO.C,D108*%
X298450000Y-58593750D03*
X298450000Y-55293750D03*
%TD*%
%TO.C,D69*%
X215106250Y-39543750D03*
X215106250Y-36243750D03*
%TD*%
%TO.C,D36*%
X138906250Y-39543750D03*
X138906250Y-36243750D03*
%TD*%
%TO.C,D7*%
X22225000Y-58593750D03*
X22225000Y-55293750D03*
%TD*%
%TO.C,D50*%
X148431250Y-58593750D03*
X148431250Y-55293750D03*
%TD*%
%TO.C,D11*%
X48418750Y-1443750D03*
X48418750Y1856250D03*
%TD*%
%TO.C,D74*%
X238918750Y-1443750D03*
X238918750Y1856250D03*
%TD*%
%TO.C,D125*%
X360362500Y-1443750D03*
X360362500Y1856250D03*
%TD*%
%TO.C,D129*%
X360362500Y-39543750D03*
X360362500Y-36243750D03*
%TD*%
%TO.C,D76*%
X248443750Y-20493750D03*
X248443750Y-17193750D03*
%TD*%
%TO.C,D13*%
X76993750Y-20493750D03*
X76993750Y-17193750D03*
%TD*%
%TO.C,D134*%
X379412500Y-77643750D03*
X379412500Y-74343750D03*
%TD*%
%TO.C,D16*%
X81756250Y-39543750D03*
X81756250Y-36243750D03*
%TD*%
D11*
%TO.C,R6*%
X-3100000Y-79312500D03*
X-3100000Y-77487500D03*
%TD*%
D10*
%TO.C,D51*%
X181768750Y-1443750D03*
X181768750Y1856250D03*
%TD*%
%TO.C,D47*%
X143668750Y-1443750D03*
X143668750Y1856250D03*
%TD*%
%TO.C,D130*%
X379412500Y-39543750D03*
X379412500Y-36243750D03*
%TD*%
%TO.C,D124*%
X365300000Y-77643750D03*
X365300000Y-74343750D03*
%TD*%
%TO.C,D103*%
X315118750Y-1443750D03*
X315118750Y1856250D03*
%TD*%
%TO.C,D56*%
X196056250Y-39543750D03*
X196056250Y-36243750D03*
%TD*%
%TO.C,D123*%
X341312500Y-58593750D03*
X341312500Y-55293750D03*
%TD*%
D11*
%TO.C,R18*%
X335100000Y-60212500D03*
X335100000Y-58387500D03*
%TD*%
D10*
%TO.C,D32*%
X124618750Y-1443750D03*
X124618750Y1856250D03*
%TD*%
%TO.C,D37*%
X129381250Y-58593750D03*
X129381250Y-55293750D03*
%TD*%
%TO.C,D27*%
X96043750Y-20493750D03*
X96043750Y-17193750D03*
%TD*%
%TO.C,D31*%
X105568750Y-1443750D03*
X105568750Y1856250D03*
%TD*%
D11*
%TO.C,R4*%
X-3100000Y-60212500D03*
X-3100000Y-58387500D03*
%TD*%
D10*
%TO.C,D14*%
X53181250Y-20493750D03*
X53181250Y-17193750D03*
%TD*%
%TO.C,D46*%
X162718750Y-1443750D03*
X162718750Y1856250D03*
%TD*%
%TO.C,D120*%
X341312500Y-1443750D03*
X341312500Y1856250D03*
%TD*%
%TO.C,D29*%
X91281250Y-58593750D03*
X91281250Y-55293750D03*
%TD*%
%TO.C,D80*%
X253206250Y-39543750D03*
X253206250Y-36243750D03*
%TD*%
D11*
%TO.C,R8*%
X44500000Y-41312500D03*
X44500000Y-39487500D03*
%TD*%
%TO.C,R3*%
X-3100000Y-41312500D03*
X-3100000Y-39487500D03*
%TD*%
D10*
%TO.C,D127*%
X379412500Y-20493750D03*
X379412500Y-17193750D03*
%TD*%
D11*
%TO.C,R17*%
X354100000Y-3112500D03*
X354100000Y-1287500D03*
%TD*%
D10*
%TO.C,D38*%
X110331250Y-58593750D03*
X110331250Y-55293750D03*
%TD*%
%TO.C,D20*%
X76993750Y-77643750D03*
X76993750Y-74343750D03*
%TD*%
%TO.C,D59*%
X181768750Y-77643750D03*
X181768750Y-74343750D03*
%TD*%
%TO.C,D96*%
X262731250Y-58593750D03*
X262731250Y-55293750D03*
%TD*%
%TO.C,D2*%
X22225000Y-1443750D03*
X22225000Y1856250D03*
%TD*%
%TO.C,D1*%
X3175000Y-1443750D03*
X3175000Y1856250D03*
%TD*%
%TO.C,D4*%
X3175000Y-20493750D03*
X3175000Y-17193750D03*
%TD*%
%TO.C,D77*%
X229393750Y-20493750D03*
X229393750Y-17193750D03*
%TD*%
%TO.C,D133*%
X360362500Y-77643750D03*
X360362500Y-74343750D03*
%TD*%
%TO.C,D19*%
X53181250Y-77643750D03*
X53181250Y-74343750D03*
%TD*%
%TO.C,D95*%
X272256250Y-39543750D03*
X272256250Y-36243750D03*
%TD*%
%TO.C,D28*%
X100806250Y-39543750D03*
X100806250Y-36243750D03*
%TD*%
%TO.C,D132*%
X360362500Y-58593750D03*
X360362500Y-55293750D03*
%TD*%
%TO.C,D48*%
X153193750Y-20493750D03*
X153193750Y-17193750D03*
%TD*%
%TO.C,D81*%
X243681250Y-58593750D03*
X243681250Y-55293750D03*
%TD*%
%TO.C,D97*%
X262731250Y-77643750D03*
X262731250Y-74343750D03*
%TD*%
D11*
%TO.C,R2*%
X-3100000Y-22212500D03*
X-3100000Y-20387500D03*
%TD*%
D10*
%TO.C,D9*%
X3175000Y-77643750D03*
X3175000Y-74343750D03*
%TD*%
%TO.C,D8*%
X3175000Y-58593750D03*
X3175000Y-55293750D03*
%TD*%
%TO.C,D12*%
X67468750Y-1443750D03*
X67468750Y1856250D03*
%TD*%
%TO.C,D26*%
X86518750Y-1443750D03*
X86518750Y1856250D03*
%TD*%
%TO.C,D122*%
X341312500Y-39543750D03*
X341312500Y-36243750D03*
%TD*%
%TO.C,D110*%
X310356250Y-77643750D03*
X310356250Y-74343750D03*
%TD*%
%TO.C,D58*%
X167481250Y-58593750D03*
X167481250Y-55293750D03*
%TD*%
%TO.C,D75*%
X257968750Y-1443750D03*
X257968750Y1856250D03*
%TD*%
%TO.C,D102*%
X284956250Y-1443750D03*
X284956250Y1856250D03*
%TD*%
D12*
%TO.C,J6*%
X173343850Y10037400D03*
X173843950Y10037400D03*
X174343850Y10037400D03*
X174843950Y10037400D03*
X175343850Y10037400D03*
X175843950Y10037400D03*
X176343850Y10037400D03*
X176843950Y10037400D03*
X177343850Y10037400D03*
X177843950Y10037400D03*
X178343850Y10037400D03*
X178843950Y10037400D03*
X179344050Y10037400D03*
X179843950Y10037400D03*
X180344050Y10037400D03*
X180843950Y10037400D03*
X181344050Y10037400D03*
X181843950Y10037400D03*
X182344050Y10037400D03*
X182843950Y10037400D03*
D13*
X171918750Y13012600D03*
X184268750Y13012600D03*
%TD*%
D10*
%TO.C,D131*%
X379412500Y-58593750D03*
X379412500Y-55293750D03*
%TD*%
%TO.C,D68*%
X210343750Y-20493750D03*
X210343750Y-17193750D03*
%TD*%
D11*
%TO.C,R19*%
X-3100000Y-3112500D03*
X-3100000Y-1287500D03*
%TD*%
D10*
%TO.C,D5*%
X3175000Y-39543750D03*
X3175000Y-36243750D03*
%TD*%
%TO.C,D126*%
X379412500Y-1443750D03*
X379412500Y1856250D03*
%TD*%
%TO.C,D33*%
X134143750Y-20493750D03*
X134143750Y-17193750D03*
%TD*%
%TO.C,D6*%
X22225000Y-39543750D03*
X22225000Y-36243750D03*
%TD*%
%TO.C,D53*%
X191293750Y-20493750D03*
X191293750Y-17193750D03*
%TD*%
%TO.C,D15*%
X55562500Y-39543750D03*
X55562500Y-36243750D03*
%TD*%
%TO.C,D10*%
X22225000Y-77643750D03*
X22225000Y-74343750D03*
%TD*%
%TO.C,D105*%
X286543750Y-20493750D03*
X286543750Y-17193750D03*
%TD*%
D14*
%TO.C,J3*%
X190443750Y9200000D03*
X191443750Y9200000D03*
X192443750Y9200000D03*
X193443750Y9200000D03*
D15*
X189143750Y13075000D03*
X194743750Y13075000D03*
%TD*%
D10*
%TO.C,D55*%
X177006250Y-39543750D03*
X177006250Y-36243750D03*
%TD*%
%TO.C,D67*%
X219868750Y-1443750D03*
X219868750Y1856250D03*
%TD*%
%TO.C,D35*%
X119856250Y-39543750D03*
X119856250Y-36243750D03*
%TD*%
%TO.C,D112*%
X291306250Y-39543750D03*
X291306250Y-36243750D03*
%TD*%
%TO.C,D49*%
X157956250Y-39543750D03*
X157956250Y-36243750D03*
%TD*%
%TO.C,D18*%
X60325000Y-58593750D03*
X60325000Y-55293750D03*
%TD*%
%TO.C,D104*%
X310356250Y-20493750D03*
X310356250Y-17193750D03*
%TD*%
%TO.C,D128*%
X360362500Y-20493750D03*
X360362500Y-17193750D03*
%TD*%
%TO.C,D60*%
X205581250Y-58593750D03*
X205581250Y-55293750D03*
%TD*%
%TO.C,D54*%
X172243750Y-20493750D03*
X172243750Y-17193750D03*
%TD*%
%TO.C,D94*%
X267493750Y-20493750D03*
X267493750Y-17193750D03*
%TD*%
%TO.C,D106*%
X312737500Y-39543750D03*
X312737500Y-36243750D03*
%TD*%
%TO.C,D57*%
X186531250Y-58593750D03*
X186531250Y-55293750D03*
%TD*%
%TO.C,D3*%
X22225000Y-20493750D03*
X22225000Y-17193750D03*
%TD*%
%TO.C,D109*%
X286543750Y-77643750D03*
X286543750Y-74343750D03*
%TD*%
%TO.C,D82*%
X224631250Y-58593750D03*
X224631250Y-55293750D03*
%TD*%
%TO.C,D79*%
X234156250Y-39543750D03*
X234156250Y-36243750D03*
%TD*%
%TO.C,D121*%
X341312500Y-20493750D03*
X341312500Y-17193750D03*
%TD*%
%TO.C,D93*%
X277018750Y-1443750D03*
X277018750Y1856250D03*
%TD*%
M02*
