M48
; DRILL file {KiCad 8.0.2} date 2025-12-13T15:02:29-0800
; FORMAT={-:-/ absolute / inch / decimal}
; #@! TF.CreationDate,2025-12-13T15:02:29-08:00
; #@! TF.GenerationSoftware,Kicad,Pcbnew,8.0.2
; #@! TF.FileFunction,NonPlated,1,2,NPTH
FMAT,2
INCH
; #@! TA.AperFunction,NonPlated,NPTH,ComponentDrill
T1C0.0670
; #@! TA.AperFunction,NonPlated,NPTH,ComponentDrill
T2C0.0866
; #@! TA.AperFunction,NonPlated,NPTH,ComponentDrill
T3C0.1063
; #@! TA.AperFunction,NonPlated,NPTH,ComponentDrill
T4C0.1200
; #@! TA.AperFunction,NonPlated,NPTH,ComponentDrill
T5C0.1570
%
G90
G05
T1
X-0.2Y0.0
X-0.2Y-0.75
X-0.2Y-1.5
X-0.2Y-2.25
X-0.2Y-3.0
X0.2Y0.0
X0.2Y-0.75
X0.2Y-1.5
X0.2Y-2.25
X0.2Y-3.0
X0.55Y0.0
X0.55Y-0.75
X0.55Y-1.5
X0.55Y-2.25
X0.55Y-3.0
X0.95Y0.0
X0.95Y-0.75
X0.95Y-1.5
X0.95Y-2.25
X0.95Y-3.0
X1.5813Y0.0
X1.675Y-1.5
X1.675Y-2.25
X1.7688Y-0.75
X1.7688Y-3.0
X1.9812Y0.0
X2.1687Y-0.75
X2.1687Y-3.0
X2.2625Y-1.5
X2.3312Y0.0
X2.7062Y-0.75
X2.7062Y-3.0
X2.7312Y0.0
X2.8937Y-1.5
X2.9187Y-2.25
X3.0812Y0.0
X3.1062Y-0.75
X3.1062Y-3.0
X3.2687Y-2.25
X3.2937Y-1.5
X3.4562Y-0.75
X3.4812Y0.0
X3.6437Y-1.5
X3.6437Y-3.0
X3.6687Y-2.25
X3.8312Y0.0
X3.8562Y-0.75
X4.0187Y-2.25
X4.0438Y-1.5
X4.0438Y-3.0
X4.2062Y-0.75
X4.2313Y0.0
X4.3937Y-1.5
X4.4188Y-2.25
X4.5812Y0.0
X4.6063Y-0.75
X4.7687Y-2.25
X4.7938Y-1.5
X4.9562Y-0.75
X4.9813Y0.0
X5.1437Y-1.5
X5.1688Y-2.25
X5.3312Y0.0
X5.3563Y-0.75
X5.5187Y-2.25
X5.5438Y-1.5
X5.7062Y-0.75
X5.7313Y0.0
X5.8937Y-1.5
X5.9188Y-2.25
X6.0812Y0.0
X6.1063Y-0.75
X6.2687Y-2.25
X6.2938Y-1.5
X6.4562Y-0.75
X6.4813Y0.0
X6.6437Y-1.5
X6.6688Y-2.25
X6.8312Y0.0
X6.8312Y-3.0
X6.8563Y-0.75
X7.0187Y-2.25
X7.0438Y-1.5
X7.2062Y-0.75
X7.2313Y0.0
X7.2313Y-3.0
X7.3937Y-1.5
X7.4188Y-2.25
X7.5812Y0.0
X7.6063Y-0.75
X7.7687Y-2.25
X7.7938Y-1.5
X7.9562Y-0.75
X7.9813Y0.0
X8.1437Y-1.5
X8.1687Y-2.25
X8.3312Y0.0
X8.3562Y-0.75
X8.5187Y-2.25
X8.5437Y-1.5
X8.7062Y-0.75
X8.7312Y0.0
X8.8937Y-1.5
X8.9187Y-2.25
X9.0812Y0.0
X9.1062Y-0.75
X9.2687Y-2.25
X9.2937Y-1.5
X9.4562Y-0.75
X9.4812Y0.0
X9.6437Y-1.5
X9.6687Y-2.25
X9.8312Y0.0
X9.8562Y-0.75
X10.0187Y-2.25
X10.0187Y-3.0
X10.0437Y-1.5
X10.2062Y-0.75
X10.2312Y0.0
X10.3937Y-1.5
X10.4187Y-2.25
X10.4187Y-3.0
X10.5812Y0.0
X10.6062Y-0.75
X10.7937Y-1.5
X10.9562Y-0.75
X10.9562Y-3.0
X10.9812Y0.0
X11.05Y-2.25
X11.1437Y-1.5
X11.3312Y0.0
X11.3562Y-0.75
X11.3562Y-3.0
X11.825Y-2.25
X11.8937Y-3.0
X11.9875Y-1.125
X12.0812Y-2.25
X12.2937Y-0.75
X12.2937Y-3.0
X12.3875Y-1.125
X12.3875Y-1.5
X12.4812Y0.0
X12.4812Y-2.25
X13.1125Y0.0
X13.1125Y-0.75
X13.1125Y-1.5
X13.1125Y-2.25
X13.1125Y-3.0
X13.5125Y0.0
X13.5125Y-0.75
X13.5125Y-1.5
X13.5125Y-2.25
X13.8625Y0.0
X13.8625Y-0.75
X13.8625Y-1.5
X13.8625Y-2.25
X14.2625Y0.0
X14.2625Y-0.75
X14.2625Y-1.5
X14.2625Y-2.25
X14.2625Y-3.0
X14.6125Y0.0
X14.6125Y-0.75
X14.6125Y-1.5
X14.6125Y-2.25
X14.6125Y-3.0
X15.0125Y0.0
X15.0125Y-0.75
X15.0125Y-1.5
X15.0125Y-2.25
X15.0125Y-3.0
T2
X1.1949Y-1.7756
X1.3248Y-0.2736
T3
X0.375Y0.4793
X0.375Y-3.4793
X1.5938Y0.4793
X1.5938Y-3.4793
X3.4688Y-3.4793
X5.1562Y0.4793
X8.9063Y0.4793
X10.5938Y-3.4793
X11.9063Y0.4793
X12.4688Y-3.4793
X14.0625Y0.4793
X14.0625Y-3.4793
T4
X1.78Y-1.975
X2.72Y-1.975
X4.4062Y-3.275
X4.7812Y-3.275
X9.2812Y-3.275
X9.6562Y-3.275
X11.155Y-1.975
X11.3425Y-1.225
X11.4362Y0.275
X12.095Y-1.975
X12.3762Y0.275
X12.4625Y-0.655
X12.4625Y-1.595
X13.2175Y-3.275
X14.1575Y-3.275
T5
X0.0Y0.0
X0.0Y-0.75
X0.0Y-1.5
X0.0Y-2.25
X0.0Y-3.0
X0.75Y0.0
X0.75Y-0.75
X0.75Y-1.5
X0.75Y-2.25
X0.75Y-3.0
X1.78Y-2.575
X1.7812Y0.0
X1.875Y-1.5
X1.875Y-2.25
X1.9688Y-0.75
X1.9688Y-3.0
X2.0625Y-1.5
X2.25Y-2.25
X2.5312Y0.0
X2.7188Y-2.25
X2.72Y-2.575
X2.9062Y-0.75
X2.9062Y-3.0
X3.0938Y-1.5
X3.2812Y0.0
X3.4688Y-2.25
X3.6562Y-0.75
X3.8438Y-1.5
X3.8438Y-3.0
X4.0312Y0.0
X4.2188Y-2.25
X4.4062Y-0.75
X4.4062Y-2.675
X4.5938Y-1.5
X4.7812Y0.0
X4.7812Y-2.675
X4.9688Y-2.25
X5.1562Y-0.75
X5.3438Y-1.5
X5.5312Y0.0
X5.7188Y-2.25
X5.9062Y-0.75
X6.0938Y-1.5
X6.2812Y0.0
X6.4688Y-2.25
X6.6562Y-0.75
X6.8438Y-1.5
X7.0312Y0.0
X7.0312Y-3.0
X7.2188Y-2.25
X7.4062Y-0.75
X7.5938Y-1.5
X7.7812Y0.0
X7.9688Y-2.25
X8.1562Y-0.75
X8.3438Y-1.5
X8.5312Y0.0
X8.7188Y-2.25
X8.9062Y-0.75
X9.0938Y-1.5
X9.2812Y0.0
X9.2812Y-2.675
X9.4688Y-2.25
X9.6562Y-0.75
X9.6562Y-2.675
X9.8438Y-1.5
X10.0312Y0.0
X10.2188Y-2.25
X10.2188Y-3.0
X10.4062Y-0.75
X10.5938Y-1.5
X10.7812Y0.0
X11.155Y-2.575
X11.1562Y-0.75
X11.1562Y-3.0
X11.25Y-2.25
X11.3425Y-1.825
X11.3438Y-1.5
X11.4362Y-0.325
X11.5312Y0.0
X11.625Y-2.25
X11.9062Y0.0
X12.0938Y-0.75
X12.0938Y-3.0
X12.095Y-2.575
X12.1875Y-1.5
X12.2812Y0.0
X12.2812Y-2.25
X12.2825Y-1.825
X12.3762Y-0.325
X13.2175Y-2.675
X13.3125Y0.0
X13.3125Y-0.75
X13.3125Y-1.5
X13.3125Y-2.25
X13.3125Y-3.0
X13.6875Y-3.0
X14.0625Y0.0
X14.0625Y-0.75
X14.0625Y-1.5
X14.0625Y-2.25
X14.0625Y-3.0
X14.1575Y-2.675
X14.8125Y0.0
X14.8125Y-0.75
X14.8125Y-1.5
X14.8125Y-2.25
X14.8125Y-3.0
T1
G00X2.05Y-2.25
M15
G01X2.075Y-2.25
M16
G05
G00X2.45Y-2.25
M15
G01X2.5187Y-2.25
M16
G05
G00X11.425Y-2.25
M15
G01X11.45Y-2.25
M16
G05
G00X11.5437Y-1.5
M15
G01X11.6125Y-1.5
M16
G05
G00X11.7062Y0.0
M15
G01X11.7312Y0.0
M16
G05
G00X11.9875Y-1.5
M15
G01X12.0125Y-1.5
M16
G05
G00X12.0812Y0.0
M15
G01X12.1062Y0.0
M16
G05
G00X13.4875Y-3.0
M15
G01X13.5125Y-3.0
M16
G05
G00X13.8625Y-3.0
M15
G01X13.8875Y-3.0
M16
G05
M30
