%TF.GenerationSoftware,KiCad,Pcbnew,8.0.2*%
%TF.CreationDate,2025-12-13T15:02:25-08:00*%
%TF.ProjectId,mx-unsaver-main,6d782d75-6e73-4617-9665-722d6d61696e,rev?*%
%TF.SameCoordinates,Original*%
%TF.FileFunction,Legend,Top*%
%TF.FilePolarity,Positive*%
%FSLAX46Y46*%
G04 Gerber Fmt 4.6, Leading zero omitted, Abs format (unit mm)*
G04 Created by KiCad (PCBNEW 8.0.2) date 2025-12-13 15:02:25*
%MOMM*%
%LPD*%
G01*
G04 APERTURE LIST*
%ADD10C,0.300000*%
%ADD11C,0.150000*%
%ADD12C,0.120000*%
G04 APERTURE END LIST*
D10*
X124620225Y-72082257D02*
X124477368Y-72010828D01*
X124477368Y-72010828D02*
X124263082Y-72010828D01*
X124263082Y-72010828D02*
X124048796Y-72082257D01*
X124048796Y-72082257D02*
X123905939Y-72225114D01*
X123905939Y-72225114D02*
X123834510Y-72367971D01*
X123834510Y-72367971D02*
X123763082Y-72653685D01*
X123763082Y-72653685D02*
X123763082Y-72867971D01*
X123763082Y-72867971D02*
X123834510Y-73153685D01*
X123834510Y-73153685D02*
X123905939Y-73296542D01*
X123905939Y-73296542D02*
X124048796Y-73439400D01*
X124048796Y-73439400D02*
X124263082Y-73510828D01*
X124263082Y-73510828D02*
X124405939Y-73510828D01*
X124405939Y-73510828D02*
X124620225Y-73439400D01*
X124620225Y-73439400D02*
X124691653Y-73367971D01*
X124691653Y-73367971D02*
X124691653Y-72867971D01*
X124691653Y-72867971D02*
X124405939Y-72867971D01*
X125334510Y-73510828D02*
X125334510Y-72010828D01*
X125334510Y-72010828D02*
X126191653Y-73510828D01*
X126191653Y-73510828D02*
X126191653Y-72010828D01*
X126905939Y-73510828D02*
X126905939Y-72010828D01*
X126905939Y-72010828D02*
X127263082Y-72010828D01*
X127263082Y-72010828D02*
X127477368Y-72082257D01*
X127477368Y-72082257D02*
X127620225Y-72225114D01*
X127620225Y-72225114D02*
X127691654Y-72367971D01*
X127691654Y-72367971D02*
X127763082Y-72653685D01*
X127763082Y-72653685D02*
X127763082Y-72867971D01*
X127763082Y-72867971D02*
X127691654Y-73153685D01*
X127691654Y-73153685D02*
X127620225Y-73296542D01*
X127620225Y-73296542D02*
X127477368Y-73439400D01*
X127477368Y-73439400D02*
X127263082Y-73510828D01*
X127263082Y-73510828D02*
X126905939Y-73510828D01*
X122401653Y-76100828D02*
X121901653Y-75386542D01*
X121544510Y-76100828D02*
X121544510Y-74600828D01*
X121544510Y-74600828D02*
X122115939Y-74600828D01*
X122115939Y-74600828D02*
X122258796Y-74672257D01*
X122258796Y-74672257D02*
X122330225Y-74743685D01*
X122330225Y-74743685D02*
X122401653Y-74886542D01*
X122401653Y-74886542D02*
X122401653Y-75100828D01*
X122401653Y-75100828D02*
X122330225Y-75243685D01*
X122330225Y-75243685D02*
X122258796Y-75315114D01*
X122258796Y-75315114D02*
X122115939Y-75386542D01*
X122115939Y-75386542D02*
X121544510Y-75386542D01*
X123044510Y-75315114D02*
X123544510Y-75315114D01*
X123758796Y-76100828D02*
X123044510Y-76100828D01*
X123044510Y-76100828D02*
X123044510Y-74600828D01*
X123044510Y-74600828D02*
X123758796Y-74600828D01*
X124330225Y-76029400D02*
X124544511Y-76100828D01*
X124544511Y-76100828D02*
X124901653Y-76100828D01*
X124901653Y-76100828D02*
X125044511Y-76029400D01*
X125044511Y-76029400D02*
X125115939Y-75957971D01*
X125115939Y-75957971D02*
X125187368Y-75815114D01*
X125187368Y-75815114D02*
X125187368Y-75672257D01*
X125187368Y-75672257D02*
X125115939Y-75529400D01*
X125115939Y-75529400D02*
X125044511Y-75457971D01*
X125044511Y-75457971D02*
X124901653Y-75386542D01*
X124901653Y-75386542D02*
X124615939Y-75315114D01*
X124615939Y-75315114D02*
X124473082Y-75243685D01*
X124473082Y-75243685D02*
X124401653Y-75172257D01*
X124401653Y-75172257D02*
X124330225Y-75029400D01*
X124330225Y-75029400D02*
X124330225Y-74886542D01*
X124330225Y-74886542D02*
X124401653Y-74743685D01*
X124401653Y-74743685D02*
X124473082Y-74672257D01*
X124473082Y-74672257D02*
X124615939Y-74600828D01*
X124615939Y-74600828D02*
X124973082Y-74600828D01*
X124973082Y-74600828D02*
X125187368Y-74672257D01*
X125830224Y-75315114D02*
X126330224Y-75315114D01*
X126544510Y-76100828D02*
X125830224Y-76100828D01*
X125830224Y-76100828D02*
X125830224Y-74600828D01*
X125830224Y-74600828D02*
X126544510Y-74600828D01*
X126973082Y-74600828D02*
X127830225Y-74600828D01*
X127401653Y-76100828D02*
X127401653Y-74600828D01*
X139831653Y-72080828D02*
X140760225Y-72080828D01*
X140760225Y-72080828D02*
X140260225Y-72652257D01*
X140260225Y-72652257D02*
X140474510Y-72652257D01*
X140474510Y-72652257D02*
X140617368Y-72723685D01*
X140617368Y-72723685D02*
X140688796Y-72795114D01*
X140688796Y-72795114D02*
X140760225Y-72937971D01*
X140760225Y-72937971D02*
X140760225Y-73295114D01*
X140760225Y-73295114D02*
X140688796Y-73437971D01*
X140688796Y-73437971D02*
X140617368Y-73509400D01*
X140617368Y-73509400D02*
X140474510Y-73580828D01*
X140474510Y-73580828D02*
X140045939Y-73580828D01*
X140045939Y-73580828D02*
X139903082Y-73509400D01*
X139903082Y-73509400D02*
X139831653Y-73437971D01*
X141188796Y-72080828D02*
X141688796Y-73580828D01*
X141688796Y-73580828D02*
X142188796Y-72080828D01*
X142545938Y-72080828D02*
X143474510Y-72080828D01*
X143474510Y-72080828D02*
X142974510Y-72652257D01*
X142974510Y-72652257D02*
X143188795Y-72652257D01*
X143188795Y-72652257D02*
X143331653Y-72723685D01*
X143331653Y-72723685D02*
X143403081Y-72795114D01*
X143403081Y-72795114D02*
X143474510Y-72937971D01*
X143474510Y-72937971D02*
X143474510Y-73295114D01*
X143474510Y-73295114D02*
X143403081Y-73437971D01*
X143403081Y-73437971D02*
X143331653Y-73509400D01*
X143331653Y-73509400D02*
X143188795Y-73580828D01*
X143188795Y-73580828D02*
X142760224Y-73580828D01*
X142760224Y-73580828D02*
X142617367Y-73509400D01*
X142617367Y-73509400D02*
X142545938Y-73437971D01*
X140334510Y-75285114D02*
X140548796Y-75356542D01*
X140548796Y-75356542D02*
X140620225Y-75427971D01*
X140620225Y-75427971D02*
X140691653Y-75570828D01*
X140691653Y-75570828D02*
X140691653Y-75785114D01*
X140691653Y-75785114D02*
X140620225Y-75927971D01*
X140620225Y-75927971D02*
X140548796Y-75999400D01*
X140548796Y-75999400D02*
X140405939Y-76070828D01*
X140405939Y-76070828D02*
X139834510Y-76070828D01*
X139834510Y-76070828D02*
X139834510Y-74570828D01*
X139834510Y-74570828D02*
X140334510Y-74570828D01*
X140334510Y-74570828D02*
X140477368Y-74642257D01*
X140477368Y-74642257D02*
X140548796Y-74713685D01*
X140548796Y-74713685D02*
X140620225Y-74856542D01*
X140620225Y-74856542D02*
X140620225Y-74999400D01*
X140620225Y-74999400D02*
X140548796Y-75142257D01*
X140548796Y-75142257D02*
X140477368Y-75213685D01*
X140477368Y-75213685D02*
X140334510Y-75285114D01*
X140334510Y-75285114D02*
X139834510Y-75285114D01*
X141620225Y-74570828D02*
X141905939Y-74570828D01*
X141905939Y-74570828D02*
X142048796Y-74642257D01*
X142048796Y-74642257D02*
X142191653Y-74785114D01*
X142191653Y-74785114D02*
X142263082Y-75070828D01*
X142263082Y-75070828D02*
X142263082Y-75570828D01*
X142263082Y-75570828D02*
X142191653Y-75856542D01*
X142191653Y-75856542D02*
X142048796Y-75999400D01*
X142048796Y-75999400D02*
X141905939Y-76070828D01*
X141905939Y-76070828D02*
X141620225Y-76070828D01*
X141620225Y-76070828D02*
X141477368Y-75999400D01*
X141477368Y-75999400D02*
X141334510Y-75856542D01*
X141334510Y-75856542D02*
X141263082Y-75570828D01*
X141263082Y-75570828D02*
X141263082Y-75070828D01*
X141263082Y-75070828D02*
X141334510Y-74785114D01*
X141334510Y-74785114D02*
X141477368Y-74642257D01*
X141477368Y-74642257D02*
X141620225Y-74570828D01*
X143191654Y-74570828D02*
X143477368Y-74570828D01*
X143477368Y-74570828D02*
X143620225Y-74642257D01*
X143620225Y-74642257D02*
X143763082Y-74785114D01*
X143763082Y-74785114D02*
X143834511Y-75070828D01*
X143834511Y-75070828D02*
X143834511Y-75570828D01*
X143834511Y-75570828D02*
X143763082Y-75856542D01*
X143763082Y-75856542D02*
X143620225Y-75999400D01*
X143620225Y-75999400D02*
X143477368Y-76070828D01*
X143477368Y-76070828D02*
X143191654Y-76070828D01*
X143191654Y-76070828D02*
X143048797Y-75999400D01*
X143048797Y-75999400D02*
X142905939Y-75856542D01*
X142905939Y-75856542D02*
X142834511Y-75570828D01*
X142834511Y-75570828D02*
X142834511Y-75070828D01*
X142834511Y-75070828D02*
X142905939Y-74785114D01*
X142905939Y-74785114D02*
X143048797Y-74642257D01*
X143048797Y-74642257D02*
X143191654Y-74570828D01*
X144263083Y-74570828D02*
X145120226Y-74570828D01*
X144691654Y-76070828D02*
X144691654Y-74570828D01*
D11*
X135374819Y-71246666D02*
X134898628Y-71579999D01*
X135374819Y-71818094D02*
X134374819Y-71818094D01*
X134374819Y-71818094D02*
X134374819Y-71437142D01*
X134374819Y-71437142D02*
X134422438Y-71341904D01*
X134422438Y-71341904D02*
X134470057Y-71294285D01*
X134470057Y-71294285D02*
X134565295Y-71246666D01*
X134565295Y-71246666D02*
X134708152Y-71246666D01*
X134708152Y-71246666D02*
X134803390Y-71294285D01*
X134803390Y-71294285D02*
X134851009Y-71341904D01*
X134851009Y-71341904D02*
X134898628Y-71437142D01*
X134898628Y-71437142D02*
X134898628Y-71818094D01*
X135374819Y-70294285D02*
X135374819Y-70865713D01*
X135374819Y-70579999D02*
X134374819Y-70579999D01*
X134374819Y-70579999D02*
X134517676Y-70675237D01*
X134517676Y-70675237D02*
X134612914Y-70770475D01*
X134612914Y-70770475D02*
X134660533Y-70865713D01*
X26723333Y-17179580D02*
X26675714Y-17227200D01*
X26675714Y-17227200D02*
X26532857Y-17274819D01*
X26532857Y-17274819D02*
X26437619Y-17274819D01*
X26437619Y-17274819D02*
X26294762Y-17227200D01*
X26294762Y-17227200D02*
X26199524Y-17131961D01*
X26199524Y-17131961D02*
X26151905Y-17036723D01*
X26151905Y-17036723D02*
X26104286Y-16846247D01*
X26104286Y-16846247D02*
X26104286Y-16703390D01*
X26104286Y-16703390D02*
X26151905Y-16512914D01*
X26151905Y-16512914D02*
X26199524Y-16417676D01*
X26199524Y-16417676D02*
X26294762Y-16322438D01*
X26294762Y-16322438D02*
X26437619Y-16274819D01*
X26437619Y-16274819D02*
X26532857Y-16274819D01*
X26532857Y-16274819D02*
X26675714Y-16322438D01*
X26675714Y-16322438D02*
X26723333Y-16370057D01*
X27199524Y-17274819D02*
X27390000Y-17274819D01*
X27390000Y-17274819D02*
X27485238Y-17227200D01*
X27485238Y-17227200D02*
X27532857Y-17179580D01*
X27532857Y-17179580D02*
X27628095Y-17036723D01*
X27628095Y-17036723D02*
X27675714Y-16846247D01*
X27675714Y-16846247D02*
X27675714Y-16465295D01*
X27675714Y-16465295D02*
X27628095Y-16370057D01*
X27628095Y-16370057D02*
X27580476Y-16322438D01*
X27580476Y-16322438D02*
X27485238Y-16274819D01*
X27485238Y-16274819D02*
X27294762Y-16274819D01*
X27294762Y-16274819D02*
X27199524Y-16322438D01*
X27199524Y-16322438D02*
X27151905Y-16370057D01*
X27151905Y-16370057D02*
X27104286Y-16465295D01*
X27104286Y-16465295D02*
X27104286Y-16703390D01*
X27104286Y-16703390D02*
X27151905Y-16798628D01*
X27151905Y-16798628D02*
X27199524Y-16846247D01*
X27199524Y-16846247D02*
X27294762Y-16893866D01*
X27294762Y-16893866D02*
X27485238Y-16893866D01*
X27485238Y-16893866D02*
X27580476Y-16846247D01*
X27580476Y-16846247D02*
X27628095Y-16798628D01*
X27628095Y-16798628D02*
X27675714Y-16703390D01*
X26576666Y-21134819D02*
X26576666Y-21849104D01*
X26576666Y-21849104D02*
X26529047Y-21991961D01*
X26529047Y-21991961D02*
X26433809Y-22087200D01*
X26433809Y-22087200D02*
X26290952Y-22134819D01*
X26290952Y-22134819D02*
X26195714Y-22134819D01*
X27481428Y-21468152D02*
X27481428Y-22134819D01*
X27243333Y-21087200D02*
X27005238Y-21801485D01*
X27005238Y-21801485D02*
X27624285Y-21801485D01*
X39626666Y-15434819D02*
X39626666Y-16149104D01*
X39626666Y-16149104D02*
X39579047Y-16291961D01*
X39579047Y-16291961D02*
X39483809Y-16387200D01*
X39483809Y-16387200D02*
X39340952Y-16434819D01*
X39340952Y-16434819D02*
X39245714Y-16434819D01*
X40579047Y-15434819D02*
X40102857Y-15434819D01*
X40102857Y-15434819D02*
X40055238Y-15911009D01*
X40055238Y-15911009D02*
X40102857Y-15863390D01*
X40102857Y-15863390D02*
X40198095Y-15815771D01*
X40198095Y-15815771D02*
X40436190Y-15815771D01*
X40436190Y-15815771D02*
X40531428Y-15863390D01*
X40531428Y-15863390D02*
X40579047Y-15911009D01*
X40579047Y-15911009D02*
X40626666Y-16006247D01*
X40626666Y-16006247D02*
X40626666Y-16244342D01*
X40626666Y-16244342D02*
X40579047Y-16339580D01*
X40579047Y-16339580D02*
X40531428Y-16387200D01*
X40531428Y-16387200D02*
X40436190Y-16434819D01*
X40436190Y-16434819D02*
X40198095Y-16434819D01*
X40198095Y-16434819D02*
X40102857Y-16387200D01*
X40102857Y-16387200D02*
X40055238Y-16339580D01*
X29033333Y-21659580D02*
X28985714Y-21707200D01*
X28985714Y-21707200D02*
X28842857Y-21754819D01*
X28842857Y-21754819D02*
X28747619Y-21754819D01*
X28747619Y-21754819D02*
X28604762Y-21707200D01*
X28604762Y-21707200D02*
X28509524Y-21611961D01*
X28509524Y-21611961D02*
X28461905Y-21516723D01*
X28461905Y-21516723D02*
X28414286Y-21326247D01*
X28414286Y-21326247D02*
X28414286Y-21183390D01*
X28414286Y-21183390D02*
X28461905Y-20992914D01*
X28461905Y-20992914D02*
X28509524Y-20897676D01*
X28509524Y-20897676D02*
X28604762Y-20802438D01*
X28604762Y-20802438D02*
X28747619Y-20754819D01*
X28747619Y-20754819D02*
X28842857Y-20754819D01*
X28842857Y-20754819D02*
X28985714Y-20802438D01*
X28985714Y-20802438D02*
X29033333Y-20850057D01*
X29985714Y-21754819D02*
X29414286Y-21754819D01*
X29700000Y-21754819D02*
X29700000Y-20754819D01*
X29700000Y-20754819D02*
X29604762Y-20897676D01*
X29604762Y-20897676D02*
X29509524Y-20992914D01*
X29509524Y-20992914D02*
X29414286Y-21040533D01*
X137776666Y-69819819D02*
X137776666Y-70534104D01*
X137776666Y-70534104D02*
X137729047Y-70676961D01*
X137729047Y-70676961D02*
X137633809Y-70772200D01*
X137633809Y-70772200D02*
X137490952Y-70819819D01*
X137490952Y-70819819D02*
X137395714Y-70819819D01*
X138205238Y-69915057D02*
X138252857Y-69867438D01*
X138252857Y-69867438D02*
X138348095Y-69819819D01*
X138348095Y-69819819D02*
X138586190Y-69819819D01*
X138586190Y-69819819D02*
X138681428Y-69867438D01*
X138681428Y-69867438D02*
X138729047Y-69915057D01*
X138729047Y-69915057D02*
X138776666Y-70010295D01*
X138776666Y-70010295D02*
X138776666Y-70105533D01*
X138776666Y-70105533D02*
X138729047Y-70248390D01*
X138729047Y-70248390D02*
X138157619Y-70819819D01*
X138157619Y-70819819D02*
X138776666Y-70819819D01*
X132909580Y-71376666D02*
X132957200Y-71424285D01*
X132957200Y-71424285D02*
X133004819Y-71567142D01*
X133004819Y-71567142D02*
X133004819Y-71662380D01*
X133004819Y-71662380D02*
X132957200Y-71805237D01*
X132957200Y-71805237D02*
X132861961Y-71900475D01*
X132861961Y-71900475D02*
X132766723Y-71948094D01*
X132766723Y-71948094D02*
X132576247Y-71995713D01*
X132576247Y-71995713D02*
X132433390Y-71995713D01*
X132433390Y-71995713D02*
X132242914Y-71948094D01*
X132242914Y-71948094D02*
X132147676Y-71900475D01*
X132147676Y-71900475D02*
X132052438Y-71805237D01*
X132052438Y-71805237D02*
X132004819Y-71662380D01*
X132004819Y-71662380D02*
X132004819Y-71567142D01*
X132004819Y-71567142D02*
X132052438Y-71424285D01*
X132052438Y-71424285D02*
X132100057Y-71376666D01*
X132004819Y-71043332D02*
X132004819Y-70424285D01*
X132004819Y-70424285D02*
X132385771Y-70757618D01*
X132385771Y-70757618D02*
X132385771Y-70614761D01*
X132385771Y-70614761D02*
X132433390Y-70519523D01*
X132433390Y-70519523D02*
X132481009Y-70471904D01*
X132481009Y-70471904D02*
X132576247Y-70424285D01*
X132576247Y-70424285D02*
X132814342Y-70424285D01*
X132814342Y-70424285D02*
X132909580Y-70471904D01*
X132909580Y-70471904D02*
X132957200Y-70519523D01*
X132957200Y-70519523D02*
X133004819Y-70614761D01*
X133004819Y-70614761D02*
X133004819Y-70900475D01*
X133004819Y-70900475D02*
X132957200Y-70995713D01*
X132957200Y-70995713D02*
X132909580Y-71043332D01*
X29043333Y-19939580D02*
X28995714Y-19987200D01*
X28995714Y-19987200D02*
X28852857Y-20034819D01*
X28852857Y-20034819D02*
X28757619Y-20034819D01*
X28757619Y-20034819D02*
X28614762Y-19987200D01*
X28614762Y-19987200D02*
X28519524Y-19891961D01*
X28519524Y-19891961D02*
X28471905Y-19796723D01*
X28471905Y-19796723D02*
X28424286Y-19606247D01*
X28424286Y-19606247D02*
X28424286Y-19463390D01*
X28424286Y-19463390D02*
X28471905Y-19272914D01*
X28471905Y-19272914D02*
X28519524Y-19177676D01*
X28519524Y-19177676D02*
X28614762Y-19082438D01*
X28614762Y-19082438D02*
X28757619Y-19034819D01*
X28757619Y-19034819D02*
X28852857Y-19034819D01*
X28852857Y-19034819D02*
X28995714Y-19082438D01*
X28995714Y-19082438D02*
X29043333Y-19130057D01*
X29900476Y-19368152D02*
X29900476Y-20034819D01*
X29662381Y-18987200D02*
X29424286Y-19701485D01*
X29424286Y-19701485D02*
X30043333Y-19701485D01*
X28239580Y-32606666D02*
X28287200Y-32654285D01*
X28287200Y-32654285D02*
X28334819Y-32797142D01*
X28334819Y-32797142D02*
X28334819Y-32892380D01*
X28334819Y-32892380D02*
X28287200Y-33035237D01*
X28287200Y-33035237D02*
X28191961Y-33130475D01*
X28191961Y-33130475D02*
X28096723Y-33178094D01*
X28096723Y-33178094D02*
X27906247Y-33225713D01*
X27906247Y-33225713D02*
X27763390Y-33225713D01*
X27763390Y-33225713D02*
X27572914Y-33178094D01*
X27572914Y-33178094D02*
X27477676Y-33130475D01*
X27477676Y-33130475D02*
X27382438Y-33035237D01*
X27382438Y-33035237D02*
X27334819Y-32892380D01*
X27334819Y-32892380D02*
X27334819Y-32797142D01*
X27334819Y-32797142D02*
X27382438Y-32654285D01*
X27382438Y-32654285D02*
X27430057Y-32606666D01*
X27430057Y-32225713D02*
X27382438Y-32178094D01*
X27382438Y-32178094D02*
X27334819Y-32082856D01*
X27334819Y-32082856D02*
X27334819Y-31844761D01*
X27334819Y-31844761D02*
X27382438Y-31749523D01*
X27382438Y-31749523D02*
X27430057Y-31701904D01*
X27430057Y-31701904D02*
X27525295Y-31654285D01*
X27525295Y-31654285D02*
X27620533Y-31654285D01*
X27620533Y-31654285D02*
X27763390Y-31701904D01*
X27763390Y-31701904D02*
X28334819Y-32273332D01*
X28334819Y-32273332D02*
X28334819Y-31654285D01*
X35713333Y-36909580D02*
X35665714Y-36957200D01*
X35665714Y-36957200D02*
X35522857Y-37004819D01*
X35522857Y-37004819D02*
X35427619Y-37004819D01*
X35427619Y-37004819D02*
X35284762Y-36957200D01*
X35284762Y-36957200D02*
X35189524Y-36861961D01*
X35189524Y-36861961D02*
X35141905Y-36766723D01*
X35141905Y-36766723D02*
X35094286Y-36576247D01*
X35094286Y-36576247D02*
X35094286Y-36433390D01*
X35094286Y-36433390D02*
X35141905Y-36242914D01*
X35141905Y-36242914D02*
X35189524Y-36147676D01*
X35189524Y-36147676D02*
X35284762Y-36052438D01*
X35284762Y-36052438D02*
X35427619Y-36004819D01*
X35427619Y-36004819D02*
X35522857Y-36004819D01*
X35522857Y-36004819D02*
X35665714Y-36052438D01*
X35665714Y-36052438D02*
X35713333Y-36100057D01*
X36046667Y-36004819D02*
X36713333Y-36004819D01*
X36713333Y-36004819D02*
X36284762Y-37004819D01*
X29111905Y-42354819D02*
X29111905Y-41354819D01*
X29111905Y-41831009D02*
X29683333Y-41831009D01*
X29683333Y-42354819D02*
X29683333Y-41354819D01*
X30683333Y-42354819D02*
X30111905Y-42354819D01*
X30397619Y-42354819D02*
X30397619Y-41354819D01*
X30397619Y-41354819D02*
X30302381Y-41497676D01*
X30302381Y-41497676D02*
X30207143Y-41592914D01*
X30207143Y-41592914D02*
X30111905Y-41640533D01*
X31016667Y-41354819D02*
X31635714Y-41354819D01*
X31635714Y-41354819D02*
X31302381Y-41735771D01*
X31302381Y-41735771D02*
X31445238Y-41735771D01*
X31445238Y-41735771D02*
X31540476Y-41783390D01*
X31540476Y-41783390D02*
X31588095Y-41831009D01*
X31588095Y-41831009D02*
X31635714Y-41926247D01*
X31635714Y-41926247D02*
X31635714Y-42164342D01*
X31635714Y-42164342D02*
X31588095Y-42259580D01*
X31588095Y-42259580D02*
X31540476Y-42307200D01*
X31540476Y-42307200D02*
X31445238Y-42354819D01*
X31445238Y-42354819D02*
X31159524Y-42354819D01*
X31159524Y-42354819D02*
X31064286Y-42307200D01*
X31064286Y-42307200D02*
X31016667Y-42259580D01*
X27204819Y-14151904D02*
X28014342Y-14151904D01*
X28014342Y-14151904D02*
X28109580Y-14104285D01*
X28109580Y-14104285D02*
X28157200Y-14056666D01*
X28157200Y-14056666D02*
X28204819Y-13961428D01*
X28204819Y-13961428D02*
X28204819Y-13770952D01*
X28204819Y-13770952D02*
X28157200Y-13675714D01*
X28157200Y-13675714D02*
X28109580Y-13628095D01*
X28109580Y-13628095D02*
X28014342Y-13580476D01*
X28014342Y-13580476D02*
X27204819Y-13580476D01*
X27300057Y-13151904D02*
X27252438Y-13104285D01*
X27252438Y-13104285D02*
X27204819Y-13009047D01*
X27204819Y-13009047D02*
X27204819Y-12770952D01*
X27204819Y-12770952D02*
X27252438Y-12675714D01*
X27252438Y-12675714D02*
X27300057Y-12628095D01*
X27300057Y-12628095D02*
X27395295Y-12580476D01*
X27395295Y-12580476D02*
X27490533Y-12580476D01*
X27490533Y-12580476D02*
X27633390Y-12628095D01*
X27633390Y-12628095D02*
X28204819Y-13199523D01*
X28204819Y-13199523D02*
X28204819Y-12580476D01*
X29504819Y-32961904D02*
X30314342Y-32961904D01*
X30314342Y-32961904D02*
X30409580Y-32914285D01*
X30409580Y-32914285D02*
X30457200Y-32866666D01*
X30457200Y-32866666D02*
X30504819Y-32771428D01*
X30504819Y-32771428D02*
X30504819Y-32580952D01*
X30504819Y-32580952D02*
X30457200Y-32485714D01*
X30457200Y-32485714D02*
X30409580Y-32438095D01*
X30409580Y-32438095D02*
X30314342Y-32390476D01*
X30314342Y-32390476D02*
X29504819Y-32390476D01*
X30504819Y-31390476D02*
X30504819Y-31961904D01*
X30504819Y-31676190D02*
X29504819Y-31676190D01*
X29504819Y-31676190D02*
X29647676Y-31771428D01*
X29647676Y-31771428D02*
X29742914Y-31866666D01*
X29742914Y-31866666D02*
X29790533Y-31961904D01*
X129006666Y-77269819D02*
X129006666Y-77984104D01*
X129006666Y-77984104D02*
X128959047Y-78126961D01*
X128959047Y-78126961D02*
X128863809Y-78222200D01*
X128863809Y-78222200D02*
X128720952Y-78269819D01*
X128720952Y-78269819D02*
X128625714Y-78269819D01*
X130006666Y-78269819D02*
X129435238Y-78269819D01*
X129720952Y-78269819D02*
X129720952Y-77269819D01*
X129720952Y-77269819D02*
X129625714Y-77412676D01*
X129625714Y-77412676D02*
X129530476Y-77507914D01*
X129530476Y-77507914D02*
X129435238Y-77555533D01*
X31553333Y-10359580D02*
X31505714Y-10407200D01*
X31505714Y-10407200D02*
X31362857Y-10454819D01*
X31362857Y-10454819D02*
X31267619Y-10454819D01*
X31267619Y-10454819D02*
X31124762Y-10407200D01*
X31124762Y-10407200D02*
X31029524Y-10311961D01*
X31029524Y-10311961D02*
X30981905Y-10216723D01*
X30981905Y-10216723D02*
X30934286Y-10026247D01*
X30934286Y-10026247D02*
X30934286Y-9883390D01*
X30934286Y-9883390D02*
X30981905Y-9692914D01*
X30981905Y-9692914D02*
X31029524Y-9597676D01*
X31029524Y-9597676D02*
X31124762Y-9502438D01*
X31124762Y-9502438D02*
X31267619Y-9454819D01*
X31267619Y-9454819D02*
X31362857Y-9454819D01*
X31362857Y-9454819D02*
X31505714Y-9502438D01*
X31505714Y-9502438D02*
X31553333Y-9550057D01*
X32124762Y-9883390D02*
X32029524Y-9835771D01*
X32029524Y-9835771D02*
X31981905Y-9788152D01*
X31981905Y-9788152D02*
X31934286Y-9692914D01*
X31934286Y-9692914D02*
X31934286Y-9645295D01*
X31934286Y-9645295D02*
X31981905Y-9550057D01*
X31981905Y-9550057D02*
X32029524Y-9502438D01*
X32029524Y-9502438D02*
X32124762Y-9454819D01*
X32124762Y-9454819D02*
X32315238Y-9454819D01*
X32315238Y-9454819D02*
X32410476Y-9502438D01*
X32410476Y-9502438D02*
X32458095Y-9550057D01*
X32458095Y-9550057D02*
X32505714Y-9645295D01*
X32505714Y-9645295D02*
X32505714Y-9692914D01*
X32505714Y-9692914D02*
X32458095Y-9788152D01*
X32458095Y-9788152D02*
X32410476Y-9835771D01*
X32410476Y-9835771D02*
X32315238Y-9883390D01*
X32315238Y-9883390D02*
X32124762Y-9883390D01*
X32124762Y-9883390D02*
X32029524Y-9931009D01*
X32029524Y-9931009D02*
X31981905Y-9978628D01*
X31981905Y-9978628D02*
X31934286Y-10073866D01*
X31934286Y-10073866D02*
X31934286Y-10264342D01*
X31934286Y-10264342D02*
X31981905Y-10359580D01*
X31981905Y-10359580D02*
X32029524Y-10407200D01*
X32029524Y-10407200D02*
X32124762Y-10454819D01*
X32124762Y-10454819D02*
X32315238Y-10454819D01*
X32315238Y-10454819D02*
X32410476Y-10407200D01*
X32410476Y-10407200D02*
X32458095Y-10359580D01*
X32458095Y-10359580D02*
X32505714Y-10264342D01*
X32505714Y-10264342D02*
X32505714Y-10073866D01*
X32505714Y-10073866D02*
X32458095Y-9978628D01*
X32458095Y-9978628D02*
X32410476Y-9931009D01*
X32410476Y-9931009D02*
X32315238Y-9883390D01*
X32411905Y-4204819D02*
X32411905Y-3204819D01*
X32411905Y-3681009D02*
X32983333Y-3681009D01*
X32983333Y-4204819D02*
X32983333Y-3204819D01*
X33983333Y-4204819D02*
X33411905Y-4204819D01*
X33697619Y-4204819D02*
X33697619Y-3204819D01*
X33697619Y-3204819D02*
X33602381Y-3347676D01*
X33602381Y-3347676D02*
X33507143Y-3442914D01*
X33507143Y-3442914D02*
X33411905Y-3490533D01*
X34840476Y-3538152D02*
X34840476Y-4204819D01*
X34602381Y-3157200D02*
X34364286Y-3871485D01*
X34364286Y-3871485D02*
X34983333Y-3871485D01*
X25033623Y-28976666D02*
X25081243Y-29024285D01*
X25081243Y-29024285D02*
X25128862Y-29167142D01*
X25128862Y-29167142D02*
X25128862Y-29262380D01*
X25128862Y-29262380D02*
X25081243Y-29405237D01*
X25081243Y-29405237D02*
X24986004Y-29500475D01*
X24986004Y-29500475D02*
X24890766Y-29548094D01*
X24890766Y-29548094D02*
X24700290Y-29595713D01*
X24700290Y-29595713D02*
X24557433Y-29595713D01*
X24557433Y-29595713D02*
X24366957Y-29548094D01*
X24366957Y-29548094D02*
X24271719Y-29500475D01*
X24271719Y-29500475D02*
X24176481Y-29405237D01*
X24176481Y-29405237D02*
X24128862Y-29262380D01*
X24128862Y-29262380D02*
X24128862Y-29167142D01*
X24128862Y-29167142D02*
X24176481Y-29024285D01*
X24176481Y-29024285D02*
X24224100Y-28976666D01*
X24128862Y-28119523D02*
X24128862Y-28309999D01*
X24128862Y-28309999D02*
X24176481Y-28405237D01*
X24176481Y-28405237D02*
X24224100Y-28452856D01*
X24224100Y-28452856D02*
X24366957Y-28548094D01*
X24366957Y-28548094D02*
X24557433Y-28595713D01*
X24557433Y-28595713D02*
X24938385Y-28595713D01*
X24938385Y-28595713D02*
X25033623Y-28548094D01*
X25033623Y-28548094D02*
X25081243Y-28500475D01*
X25081243Y-28500475D02*
X25128862Y-28405237D01*
X25128862Y-28405237D02*
X25128862Y-28214761D01*
X25128862Y-28214761D02*
X25081243Y-28119523D01*
X25081243Y-28119523D02*
X25033623Y-28071904D01*
X25033623Y-28071904D02*
X24938385Y-28024285D01*
X24938385Y-28024285D02*
X24700290Y-28024285D01*
X24700290Y-28024285D02*
X24605052Y-28071904D01*
X24605052Y-28071904D02*
X24557433Y-28119523D01*
X24557433Y-28119523D02*
X24509814Y-28214761D01*
X24509814Y-28214761D02*
X24509814Y-28405237D01*
X24509814Y-28405237D02*
X24557433Y-28500475D01*
X24557433Y-28500475D02*
X24605052Y-28548094D01*
X24605052Y-28548094D02*
X24700290Y-28595713D01*
X43179580Y-24996666D02*
X43227200Y-25044285D01*
X43227200Y-25044285D02*
X43274819Y-25187142D01*
X43274819Y-25187142D02*
X43274819Y-25282380D01*
X43274819Y-25282380D02*
X43227200Y-25425237D01*
X43227200Y-25425237D02*
X43131961Y-25520475D01*
X43131961Y-25520475D02*
X43036723Y-25568094D01*
X43036723Y-25568094D02*
X42846247Y-25615713D01*
X42846247Y-25615713D02*
X42703390Y-25615713D01*
X42703390Y-25615713D02*
X42512914Y-25568094D01*
X42512914Y-25568094D02*
X42417676Y-25520475D01*
X42417676Y-25520475D02*
X42322438Y-25425237D01*
X42322438Y-25425237D02*
X42274819Y-25282380D01*
X42274819Y-25282380D02*
X42274819Y-25187142D01*
X42274819Y-25187142D02*
X42322438Y-25044285D01*
X42322438Y-25044285D02*
X42370057Y-24996666D01*
X42274819Y-24091904D02*
X42274819Y-24568094D01*
X42274819Y-24568094D02*
X42751009Y-24615713D01*
X42751009Y-24615713D02*
X42703390Y-24568094D01*
X42703390Y-24568094D02*
X42655771Y-24472856D01*
X42655771Y-24472856D02*
X42655771Y-24234761D01*
X42655771Y-24234761D02*
X42703390Y-24139523D01*
X42703390Y-24139523D02*
X42751009Y-24091904D01*
X42751009Y-24091904D02*
X42846247Y-24044285D01*
X42846247Y-24044285D02*
X43084342Y-24044285D01*
X43084342Y-24044285D02*
X43179580Y-24091904D01*
X43179580Y-24091904D02*
X43227200Y-24139523D01*
X43227200Y-24139523D02*
X43274819Y-24234761D01*
X43274819Y-24234761D02*
X43274819Y-24472856D01*
X43274819Y-24472856D02*
X43227200Y-24568094D01*
X43227200Y-24568094D02*
X43179580Y-24615713D01*
D12*
%TO.C,R1*%
X134188332Y-74317064D02*
X134188332Y-73862936D01*
X135658332Y-74317064D02*
X135658332Y-73862936D01*
%TO.C,C9*%
X30411252Y-16055000D02*
X29888748Y-16055000D01*
X30411252Y-17525000D02*
X29888748Y-17525000D01*
%TO.C,C1*%
X31337475Y-20763872D02*
X31618635Y-20763872D01*
X31337475Y-21783872D02*
X31618635Y-21783872D01*
%TO.C,C3*%
X131821666Y-74351252D02*
X131821666Y-73828748D01*
X133291666Y-74351252D02*
X133291666Y-73828748D01*
%TO.C,C4*%
X31337475Y-19066815D02*
X31618635Y-19066815D01*
X31337475Y-20086815D02*
X31618635Y-20086815D01*
%TO.C,C2*%
X27361810Y-30111865D02*
X27361810Y-29830705D01*
X28381810Y-30111865D02*
X28381810Y-29830705D01*
%TO.C,C7*%
X36020580Y-34610000D02*
X35739420Y-34610000D01*
X36020580Y-35630000D02*
X35739420Y-35630000D01*
D11*
%TO.C,H13*%
X32800000Y-45100000D02*
G75*
G02*
X27900000Y-45100000I-2450000J0D01*
G01*
X27900000Y-45100000D02*
G75*
G02*
X32800000Y-45100000I2450000J0D01*
G01*
D12*
%TO.C,U2*%
X28590000Y-13390000D02*
X28590000Y-12590000D01*
X28590000Y-13390000D02*
X28590000Y-14190000D01*
X31710000Y-13390000D02*
X31710000Y-12590000D01*
X31710000Y-13390000D02*
X31710000Y-14190000D01*
X28640000Y-14690000D02*
X28310000Y-14930000D01*
X28310000Y-14450000D01*
X28640000Y-14690000D01*
G36*
X28640000Y-14690000D02*
G01*
X28310000Y-14930000D01*
X28310000Y-14450000D01*
X28640000Y-14690000D01*
G37*
%TO.C,U1*%
X30860000Y-24430000D02*
X31310000Y-24430000D01*
X30860000Y-24880000D02*
X30860000Y-24430000D01*
X30860000Y-31200000D02*
X30860000Y-31650000D01*
X30860000Y-31650000D02*
X31310000Y-31650000D01*
X38080000Y-24430000D02*
X37630000Y-24430000D01*
X38080000Y-24880000D02*
X38080000Y-24430000D01*
X38080000Y-31200000D02*
X38080000Y-31650000D01*
X38080000Y-31650000D02*
X37630000Y-31650000D01*
X31310000Y-32240000D02*
X30840000Y-32580000D01*
X30840000Y-31900000D01*
X31310000Y-32240000D01*
G36*
X31310000Y-32240000D02*
G01*
X30840000Y-32580000D01*
X30840000Y-31900000D01*
X31310000Y-32240000D01*
G37*
%TO.C,C8*%
X29411252Y-9255000D02*
X28888748Y-9255000D01*
X29411252Y-10725000D02*
X28888748Y-10725000D01*
D11*
%TO.C,H14*%
X36100000Y-6950000D02*
G75*
G02*
X31200000Y-6950000I-2450000J0D01*
G01*
X31200000Y-6950000D02*
G75*
G02*
X36100000Y-6950000I2450000J0D01*
G01*
D12*
%TO.C,C6*%
X25594043Y-28950580D02*
X25594043Y-28669420D01*
X26614043Y-28950580D02*
X26614043Y-28669420D01*
%TO.C,C5*%
X40880000Y-24689420D02*
X40880000Y-24970580D01*
X41900000Y-24689420D02*
X41900000Y-24970580D01*
%TD*%
M02*
